<?xml version="1.0" encoding="UTF-8"?><svg id="a" xmlns="http://www.w3.org/2000/svg" viewBox="0 0 740 100"><defs><style>.b{fill:#fff;}</style></defs><path class="b" d="M85.45,59.57c-.21,3.37-1.13,6.37-2.77,8.99-1.64,2.62-3.93,4.67-6.85,6.15-2.93,1.48-6.44,2.22-10.54,2.22s-7.98-.97-11.07-2.92c-3.1-1.95-5.48-4.72-7.14-8.32-1.66-3.6-2.5-7.86-2.5-12.78v-3.04c0-4.94,.86-9.22,2.58-12.82,1.72-3.6,4.13-6.38,7.23-8.34,3.1-1.96,6.76-2.94,10.97-2.94s7.73,.77,10.61,2.31c2.88,1.54,5.12,3.64,6.7,6.31,1.58,2.67,2.53,5.71,2.85,9.13h-10.73c-.21-2.92-1-5.13-2.38-6.65-1.38-1.52-3.73-2.27-7.06-2.27-2.21,0-4.04,.54-5.5,1.61-1.46,1.07-2.55,2.73-3.28,4.97-.73,2.24-1.09,5.12-1.09,8.63v3.11c0,3.44,.32,6.29,.97,8.54s1.69,3.94,3.13,5.04,3.34,1.66,5.71,1.66c2.07,0,3.78-.31,5.13-.94,1.34-.63,2.37-1.58,3.08-2.85,.71-1.28,1.13-2.87,1.26-4.79h10.7Z"/><path class="b" d="M112.52,59.57h-5.26c-2.51,0-4.32,.54-5.43,1.62-1.12,1.08-1.67,2.39-1.67,3.91,0,1.16,.41,2.12,1.23,2.87s1.93,1.13,3.32,1.13,2.67-.28,3.71-.84c1.04-.56,1.83-1.23,2.39-2.02,.56-.79,.83-1.51,.8-2.17l2.67,4.44c-.36,.91-.85,1.86-1.45,2.84-.6,.98-1.37,1.89-2.31,2.73-.93,.84-2.07,1.53-3.4,2.05s-2.9,.79-4.7,.79c-2.32,0-4.44-.47-6.36-1.42-1.91-.95-3.43-2.26-4.55-3.93-1.12-1.67-1.67-3.59-1.67-5.76,0-3.87,1.44-6.88,4.31-9.01,2.87-2.13,7.14-3.2,12.82-3.2h5.5l.07,5.95Zm-1.4-7.96c0-1.66-.41-2.98-1.23-3.96-.82-.98-2.13-1.47-3.93-1.47-1.03,0-1.91,.17-2.67,.51s-1.32,.83-1.71,1.45c-.39,.63-.58,1.4-.58,2.31h-10.32c0-2.19,.65-4.18,1.95-5.96,1.3-1.79,3.13-3.22,5.5-4.29,2.37-1.07,5.16-1.61,8.37-1.61,2.87,0,5.43,.48,7.69,1.45,2.26,.97,4.03,2.42,5.33,4.36,1.3,1.94,1.95,4.36,1.95,7.28v15.45c0,2.19,.13,3.92,.39,5.2,.26,1.28,.63,2.39,1.11,3.35v.58h-10.39c-.5-1.05-.87-2.36-1.11-3.93s-.36-3.17-.36-4.79v-15.93Z"/><path class="b" d="M139.15,76.25h-10.32V39.27h9.71l.62,8.51v28.47Zm10.8-27.28c-.5-.07-1.09-.13-1.78-.19-.68-.06-1.3-.09-1.85-.09-1.8,0-3.28,.28-4.44,.84-1.16,.56-2.03,1.38-2.6,2.48-.57,1.09-.88,2.45-.92,4.07l-2.02-.89c0-3.21,.41-6.07,1.23-8.58,.82-2.51,2.03-4.47,3.62-5.9,1.59-1.42,3.53-2.14,5.81-2.14,.52,0,1.08,.03,1.66,.1s1.05,.18,1.42,.34l-.14,9.95Z"/><path class="b" d="M152.82,57.42c0-3.6,.68-6.82,2.05-9.66s3.36-5.08,5.98-6.72c2.62-1.64,5.8-2.46,9.54-2.46s6.99,.82,9.62,2.46,4.63,3.88,5.98,6.72c1.36,2.84,2.03,6.06,2.03,9.66v.72c0,3.58-.68,6.79-2.03,9.64-1.36,2.85-3.34,5.09-5.96,6.72-2.62,1.63-5.81,2.44-9.57,2.44s-6.96-.81-9.59-2.44-4.63-3.87-6-6.72c-1.37-2.85-2.05-6.06-2.05-9.64v-.72Zm10.36,.72c0,1.94,.23,3.7,.7,5.3,.47,1.6,1.23,2.86,2.29,3.79,1.06,.93,2.49,1.4,4.29,1.4s3.2-.47,4.26-1.4c1.06-.93,1.82-2.2,2.29-3.79,.47-1.59,.7-3.36,.7-5.3v-.72c0-1.89-.23-3.64-.7-5.25-.47-1.61-1.23-2.89-2.29-3.84s-2.5-1.44-4.32-1.44-3.2,.48-4.26,1.44-1.82,2.24-2.27,3.84c-.46,1.61-.68,3.36-.68,5.25v.72Z"/><path class="b" d="M204.81,76.25h-10.36V23.75h10.36v52.5Z"/><path class="b" d="M212.6,29.73c0-1.55,.52-2.82,1.57-3.81,1.05-.99,2.45-1.49,4.2-1.49s3.15,.5,4.19,1.49c1.04,.99,1.56,2.26,1.56,3.81s-.52,2.79-1.56,3.79c-1.04,1-2.43,1.5-4.19,1.5s-3.16-.5-4.2-1.5c-1.05-1-1.57-2.27-1.57-3.79Zm10.97,46.52h-10.36V39.27h10.36v36.98Z"/><path class="b" d="M241.55,76.25h-10.32V39.27h9.71l.62,7.9v29.09Zm-4.24-19.58c0-3.74,.6-6.96,1.81-9.66,1.21-2.7,2.91-4.78,5.09-6.24,2.19-1.46,4.73-2.19,7.62-2.19,2.32,0,4.36,.46,6.1,1.37,1.74,.91,3.11,2.4,4.1,4.46,.99,2.06,1.49,4.86,1.49,8.39v23.45h-10.36v-23.52c0-1.53-.22-2.71-.67-3.54-.44-.83-1.09-1.41-1.93-1.74-.84-.33-1.88-.5-3.11-.5s-2.34,.23-3.26,.7c-.92,.47-1.69,1.13-2.29,2-.6,.87-1.05,1.89-1.35,3.06-.3,1.17-.44,2.44-.44,3.81l-2.8,.14Z"/><path class="b" d="M288.04,76.93c-3.9,0-7.23-.81-10-2.43-2.77-1.62-4.89-3.78-6.36-6.49-1.47-2.71-2.2-5.71-2.2-8.99v-1.33c0-3.69,.7-6.98,2.1-9.86,1.4-2.88,3.4-5.14,6-6.78s5.7-2.46,9.3-2.46,6.58,.75,9.02,2.26c2.44,1.5,4.28,3.62,5.54,6.34,1.25,2.72,1.88,5.92,1.88,9.59v4.38h-29.5v-6.94h19.35v-.82c0-1.28-.23-2.4-.68-3.38-.46-.98-1.15-1.74-2.07-2.29s-2.12-.82-3.61-.82c-1.69,0-3.04,.48-4.07,1.44s-1.77,2.24-2.24,3.86c-.47,1.62-.7,3.45-.7,5.5v1.33c0,1.89,.35,3.55,1.06,4.99,.71,1.44,1.72,2.56,3.04,3.37,1.32,.81,2.92,1.21,4.79,1.21,1.75,0,3.4-.32,4.92-.97,1.53-.65,2.83-1.67,3.9-3.06l4.99,5.71c-1.16,1.66-2.96,3.19-5.38,4.58-2.43,1.39-5.45,2.08-9.07,2.08Z"/><path class="b" d="M352.5,63.12c0-1.12-.24-2.08-.72-2.91s-1.4-1.6-2.75-2.34c-1.36-.74-3.36-1.53-6-2.38-2.23-.73-4.36-1.56-6.37-2.48-2.02-.92-3.8-2-5.35-3.23-1.55-1.23-2.77-2.67-3.66-4.31s-1.33-3.55-1.33-5.74c0-2.8,.8-5.25,2.39-7.33,1.59-2.08,3.79-3.71,6.58-4.87,2.79-1.16,5.99-1.74,9.59-1.74s6.92,.65,9.67,1.95c2.76,1.3,4.89,3.1,6.41,5.42,1.52,2.31,2.27,4.98,2.27,8.02h-10.7c0-1.34-.29-2.53-.85-3.57-.57-1.04-1.43-1.85-2.58-2.43-1.15-.58-2.61-.87-4.39-.87s-3.13,.25-4.27,.75c-1.14,.5-1.99,1.16-2.55,1.98-.56,.82-.84,1.74-.84,2.77s.38,2.01,1.13,2.8c.75,.8,1.85,1.53,3.28,2.2,1.44,.67,3.18,1.33,5.23,1.97,3.62,1.09,6.67,2.38,9.13,3.86,2.46,1.48,4.31,3.23,5.55,5.25,1.24,2.02,1.86,4.4,1.86,7.16,0,2.92-.75,5.41-2.24,7.49-1.49,2.07-3.59,3.66-6.31,4.75-2.71,1.09-5.9,1.64-9.57,1.64-2.51,0-4.96-.32-7.37-.97-2.4-.65-4.58-1.65-6.53-3.01-1.95-1.35-3.5-3.07-4.67-5.14-1.16-2.07-1.74-4.53-1.74-7.38h10.77c0,1.48,.22,2.73,.67,3.74s1.08,1.84,1.91,2.48c.83,.64,1.83,1.1,3.01,1.38,1.17,.29,2.49,.43,3.95,.43,1.71,0,3.1-.23,4.19-.7,1.08-.47,1.89-1.1,2.41-1.91,.52-.81,.79-1.71,.79-2.72Z"/><path class="b" d="M387.88,46.79h-21.84v-7.52h21.84v7.52Zm-6.25-16.65v34.56c0,1,.13,1.78,.39,2.32s.68,.92,1.25,1.13c.57,.21,1.28,.31,2.12,.31,.62,0,1.16-.02,1.64-.07,.48-.04,.89-.1,1.23-.17l-.03,7.79c-.84,.3-1.76,.52-2.75,.68-.99,.16-2.1,.24-3.33,.24-2.21,0-4.13-.37-5.76-1.11-1.63-.74-2.88-1.92-3.76-3.55-.88-1.63-1.32-3.76-1.32-6.41V30.14h10.32Z"/><path class="b" d="M410.4,76.93c-3.9,0-7.23-.81-10-2.43-2.77-1.62-4.89-3.78-6.36-6.49-1.47-2.71-2.21-5.71-2.21-8.99v-1.33c0-3.69,.7-6.98,2.1-9.86,1.4-2.88,3.4-5.14,6-6.78s5.7-2.46,9.3-2.46,6.58,.75,9.02,2.26c2.44,1.5,4.28,3.62,5.54,6.34,1.25,2.72,1.88,5.92,1.88,9.59v4.38h-29.5v-6.94h19.35v-.82c0-1.28-.23-2.4-.68-3.38-.46-.98-1.15-1.74-2.07-2.29-.92-.55-2.13-.82-3.61-.82-1.69,0-3.04,.48-4.07,1.44s-1.77,2.24-2.24,3.86c-.47,1.62-.7,3.45-.7,5.5v1.33c0,1.89,.35,3.55,1.06,4.99,.71,1.44,1.72,2.56,3.04,3.37,1.32,.81,2.92,1.21,4.79,1.21,1.75,0,3.39-.32,4.92-.97,1.53-.65,2.83-1.67,3.9-3.06l4.99,5.71c-1.16,1.66-2.96,3.19-5.38,4.58-2.43,1.39-5.45,2.08-9.08,2.08Z"/><path class="b" d="M441.4,90.47h-10.32V39.27h9.57l.75,7.11v44.09Zm23.24-32.4c0,3.58-.55,6.79-1.66,9.64-1.11,2.85-2.72,5.1-4.85,6.75-2.13,1.65-4.76,2.48-7.88,2.48s-5.52-.83-7.47-2.48c-1.95-1.65-3.46-3.88-4.53-6.68-1.07-2.8-1.85-5.9-2.32-9.3v-1.06c.46-3.62,1.22-6.85,2.31-9.69s2.6-5.07,4.55-6.7c1.95-1.63,4.43-2.44,7.43-2.44s5.75,.78,7.9,2.34c2.14,1.56,3.76,3.75,4.87,6.56,1.11,2.81,1.66,6.1,1.66,9.86v.72Zm-10.32-.72c0-2-.22-3.79-.67-5.35-.45-1.56-1.17-2.79-2.17-3.69-1-.9-2.34-1.35-4-1.35-1.28,0-2.36,.2-3.26,.6-.9,.4-1.64,.99-2.22,1.76-.58,.77-1.01,1.73-1.3,2.85-.29,1.13-.45,2.43-.5,3.91v3.76c.09,1.69,.38,3.19,.87,4.51,.49,1.32,1.26,2.36,2.31,3.13,1.05,.76,2.44,1.15,4.17,1.15s3.02-.48,4-1.44c.98-.96,1.69-2.24,2.12-3.84,.43-1.61,.65-3.37,.65-5.28v-.72Z"/><path class="b" d="M480.57,76.25h-10.36V23.75h10.36v52.5Zm-4.24-19.58c0-3.51,.58-6.62,1.73-9.33,1.15-2.71,2.77-4.85,4.87-6.41,2.1-1.56,4.55-2.34,7.35-2.34,2.44,0,4.57,.47,6.41,1.42,1.83,.95,3.27,2.47,4.31,4.58,1.04,2.11,1.55,4.93,1.55,8.46v23.21h-10.36v-23.28c0-1.55-.22-2.76-.67-3.64-.44-.88-1.09-1.49-1.95-1.85-.86-.35-1.9-.53-3.13-.53-1.37,0-2.52,.23-3.45,.7s-1.69,1.13-2.27,2c-.58,.87-1,1.89-1.25,3.06-.25,1.17-.38,2.44-.38,3.81l-2.77,.14Z"/><path class="b" d="M527.02,76.93c-3.9,0-7.23-.81-10-2.43-2.77-1.62-4.89-3.78-6.36-6.49-1.47-2.71-2.21-5.71-2.21-8.99v-1.33c0-3.69,.7-6.98,2.1-9.86,1.4-2.88,3.4-5.14,6-6.78s5.7-2.46,9.3-2.46,6.58,.75,9.02,2.26c2.44,1.5,4.28,3.62,5.54,6.34,1.25,2.72,1.88,5.92,1.88,9.59v4.38h-29.5v-6.94h19.35v-.82c0-1.28-.23-2.4-.68-3.38-.46-.98-1.15-1.74-2.07-2.29-.92-.55-2.13-.82-3.61-.82-1.69,0-3.04,.48-4.07,1.44s-1.77,2.24-2.24,3.86c-.47,1.62-.7,3.45-.7,5.5v1.33c0,1.89,.35,3.55,1.06,4.99,.71,1.44,1.72,2.56,3.04,3.37,1.32,.81,2.92,1.21,4.79,1.21,1.75,0,3.39-.32,4.92-.97,1.53-.65,2.83-1.67,3.9-3.06l4.99,5.71c-1.16,1.66-2.96,3.19-5.38,4.58-2.43,1.39-5.45,2.08-9.08,2.08Z"/><path class="b" d="M557.78,76.25h-10.32V39.27h9.71l.62,7.9v29.09Zm-4.24-19.58c0-3.74,.6-6.96,1.81-9.66,1.21-2.7,2.91-4.78,5.09-6.24,2.19-1.46,4.73-2.19,7.62-2.19,2.32,0,4.36,.46,6.1,1.37,1.74,.91,3.11,2.4,4.1,4.46,.99,2.06,1.49,4.86,1.49,8.39v23.45h-10.36v-23.52c0-1.53-.22-2.71-.67-3.54-.44-.83-1.09-1.41-1.93-1.74-.84-.33-1.88-.5-3.11-.5s-2.34,.23-3.26,.7c-.92,.47-1.69,1.13-2.29,2-.6,.87-1.05,1.89-1.35,3.06-.3,1.17-.44,2.44-.44,3.81l-2.8,.14Z"/><path class="b" d="M606.83,65.93c0-.68-.2-1.28-.6-1.78-.4-.5-1.13-.97-2.21-1.4-1.07-.43-2.62-.87-4.65-1.3-2.48-.55-4.72-1.29-6.72-2.22-1.99-.93-3.56-2.15-4.7-3.64-1.14-1.49-1.71-3.3-1.71-5.42s.59-3.99,1.78-5.74c1.18-1.75,2.89-3.17,5.11-4.24,2.22-1.07,4.88-1.61,7.98-1.61s6.03,.51,8.37,1.54c2.35,1.03,4.15,2.44,5.4,4.24,1.25,1.8,1.88,3.86,1.88,6.19h-10.32c0-1.39-.43-2.52-1.28-3.4-.85-.88-2.22-1.32-4.08-1.32-1,0-1.88,.17-2.63,.51s-1.33,.79-1.73,1.35c-.4,.56-.6,1.21-.6,1.97,0,.68,.22,1.29,.65,1.81,.43,.52,1.14,.98,2.12,1.37,.98,.39,2.29,.73,3.93,1.03,2.62,.5,4.99,1.19,7.11,2.07,2.12,.88,3.8,2.07,5.06,3.59,1.25,1.52,1.88,3.53,1.88,6.03,0,2.19-.64,4.14-1.93,5.86s-3.11,3.07-5.47,4.05c-2.36,.98-5.13,1.47-8.32,1.47-3.49,0-6.43-.63-8.82-1.88s-4.2-2.84-5.43-4.77c-1.23-1.92-1.85-3.89-1.85-5.9h9.78c.07,1.23,.4,2.23,1.01,3.01,.6,.78,1.39,1.34,2.36,1.71,.97,.37,2.03,.55,3.2,.55s2.18-.15,2.99-.46c.81-.31,1.42-.74,1.83-1.3,.41-.56,.62-1.21,.62-1.96Z"/><path class="b" d="M621.49,57.42c0-3.6,.68-6.82,2.05-9.66s3.36-5.08,5.98-6.72c2.62-1.64,5.8-2.46,9.54-2.46s6.99,.82,9.62,2.46c2.63,1.64,4.62,3.88,5.98,6.72s2.03,6.06,2.03,9.66v.72c0,3.58-.68,6.79-2.03,9.64-1.36,2.85-3.34,5.09-5.96,6.72-2.62,1.63-5.81,2.44-9.57,2.44s-6.96-.81-9.59-2.44c-2.63-1.63-4.63-3.87-6-6.72-1.37-2.85-2.05-6.06-2.05-9.64v-.72Zm10.36,.72c0,1.94,.23,3.7,.7,5.3,.47,1.6,1.23,2.86,2.29,3.79,1.06,.93,2.49,1.4,4.29,1.4s3.2-.47,4.25-1.4c1.06-.93,1.82-2.2,2.29-3.79,.47-1.59,.7-3.36,.7-5.3v-.72c0-1.89-.23-3.64-.7-5.25-.47-1.61-1.23-2.89-2.29-3.84-1.06-.96-2.5-1.44-4.32-1.44s-3.2,.48-4.25,1.44c-1.06,.96-1.82,2.24-2.27,3.84-.46,1.61-.68,3.36-.68,5.25v.72Z"/><path class="b" d="M672.7,76.25h-10.32V39.27h9.71l.62,7.9v29.09Zm-4.24-19.58c0-3.74,.6-6.96,1.81-9.66,1.21-2.7,2.91-4.78,5.09-6.24,2.19-1.46,4.73-2.19,7.62-2.19,2.32,0,4.36,.46,6.1,1.37,1.74,.91,3.11,2.4,4.1,4.46,.99,2.06,1.49,4.86,1.49,8.39v23.45h-10.36v-23.52c0-1.53-.22-2.71-.67-3.54-.44-.83-1.09-1.41-1.93-1.74-.84-.33-1.88-.5-3.11-.5s-2.34,.23-3.26,.7c-.92,.47-1.69,1.13-2.29,2-.6,.87-1.05,1.89-1.35,3.06-.3,1.17-.44,2.44-.44,3.81l-2.8,.14Z"/></svg>