<?xml version="1.0" encoding="UTF-8"?><svg id="a" xmlns="http://www.w3.org/2000/svg" viewBox="0 0 430 430"><defs><style>.b{fill:#ffecdb;}.c{font-family:Archistico-Bold, Archistico;font-size:75.31px;}.d{fill:#f47b00;font-family:HelveticaNeue-CondensedBold, Helvetica Neue;font-size:160px;letter-spacing:.1em;}</style></defs><circle class="b" cx="215" cy="215" r="200"/><text class="c" transform="translate(47.14 219.04) rotate(82.94) scale(.97 1) skewX(-.24)"><tspan x="0" y="0">I</tspan></text><text class="c" transform="translate(53.49 259.46) rotate(69.22) scale(.97 1) skewX(-.82)"><tspan x="0" y="0">l</tspan></text><text class="c" transform="translate(66.85 292.26) rotate(56.73) scale(.97 1) skewX(-1.17)"><tspan x="0" y="0">l</tspan></text><text class="c" transform="translate(87.63 324.82) rotate(38.77) scale(.97 1) skewX(-1.13)"><tspan x="0" y="0">u</tspan></text><text class="c" transform="translate(142.27 364.16) rotate(18.77) scale(.97 1) skewX(-.72)"><tspan x="0" y="0">s</tspan></text><text class="c" transform="translate(188.38 378) rotate(3.55) scale(.97 1) skewX(-.17)"><tspan x="0" y="0">t</tspan></text><text class="c" transform="translate(231 379.65) rotate(-11.67) scale(.97 1) skewX(.58)"><tspan x="0" y="0">r</tspan></text><text class="c" transform="translate(279.72 367.92) rotate(-29.27) scale(.97 1) skewX(1)"><tspan x="0" y="0">a</tspan></text><text class="c" transform="translate(324.69 339.94) rotate(-45.61) scale(.97 1) skewX(1.21)"><tspan x="0" y="0">t</tspan></text><text class="c" transform="translate(353.82 308.69) rotate(-62.01) scale(.97 1) skewX(1.02)"><tspan x="0" y="0">o</tspan></text><text class="c" transform="translate(376.47 261.6) rotate(-80.17) scale(.97 1) skewX(.29)"><tspan x="0" y="0">r</tspan></text><text class="c" transform="translate(382.37 214.57) rotate(-93.41) scale(.97 1) skewX(-.11)"><tspan x="0" y="0"> </tspan></text><text class="d" transform="translate(143.32 246.66)"><tspan x="0" y="0">Ai</tspan></text></svg>