<?xml version="1.0" encoding="UTF-8"?><svg id="a" xmlns="http://www.w3.org/2000/svg" viewBox="0 0 370 373.87"><defs><style>.b{fill:#d4ff00;font-family:MyriadPro-Regular, Myriad Pro;font-size:57.93px;}.c{fill:#009f1a;stroke-width:4px;}.c,.d{stroke:#fff;stroke-miterlimit:10;}.d{fill:#b2e065;stroke-width:3px;}.e{fill:#fff;font-family:ComicSansMS, Comic Sans MS;font-size:140px;letter-spacing:.1em;}</style></defs><circle class="c" cx="185" cy="186.93" r="175"/><text class="b" transform="translate(69.31 297.2) rotate(42.74) scale(.95 1)"><tspan x="0" y="0">J</tspan></text><text class="b" transform="translate(86.68 313.23) rotate(33.21) scale(.95 1)"><tspan x="0" y="0">a</tspan></text><text class="b" transform="translate(111.73 329.26) rotate(22.54) scale(.95 1) skewX(.01)"><tspan x="0" y="0">v</tspan></text><text class="b" transform="translate(139.53 340.44) rotate(11.72) scale(.95 1) skewX(.02)"><tspan x="0" y="0">a</tspan></text><text class="b" transform="translate(168.85 346.01) rotate(1.89) scale(.95 1) skewX(.02)"><tspan x="0" y="0">s</tspan></text><text class="b" transform="translate(193.84 346.69) rotate(-7.5) scale(.95 1) skewX(.02)"><tspan x="0" y="0">c</tspan></text><text class="b" transform="translate(221.14 342.62) rotate(-16.26) scale(.95 1) skewX(.02)"><tspan x="0" y="0">r</tspan></text><text class="b" transform="translate(240.64 336.64) rotate(-22.7) scale(.95 1) skewX(.01)"><tspan x="0" y="0">i</tspan></text><text class="b" transform="translate(255.59 330.9) rotate(-31.75) scale(.95 1)"><tspan x="0" y="0">p</tspan></text><text class="b" transform="translate(284.62 311.9) rotate(-41.83) scale(.95 1)"><tspan x="0" y="0">t</tspan></text><text class="b" transform="translate(299.51 298.19) rotate(-47.9) scale(.95 1)"><tspan x="0" y="0"> </tspan></text><circle class="d" cx="185" cy="186.93" r="115"/><text class="e" transform="translate(102.94 231.11)"><tspan x="0" y="0">{;}</tspan></text></svg>