<?xml version="1.0" encoding="UTF-8"?><svg id="a" xmlns="http://www.w3.org/2000/svg" viewBox="0 0 430 430"><defs><style>.b{fill:#f4ffdb;}.c{fill:#5aa600;}</style></defs><circle class="b" cx="215" cy="216" r="200"/><g><path d="M179.65,359.21c.14-.03,.23,0,.26,.08,.03,.08,0,.17-.12,.26-.13,.06-.31,.21-.53,.44l.16,.18s.13,.08,.24,.17c.6,.58,1.19,1.24,1.76,1.97,.09,.11,.2,.27,.34,.48,.14,.2,.26,.43,.37,.69,.08-.08,.17-.15,.25-.23,.08-.08,.17-.16,.26-.26,.08-.08,.17-.09,.25-.04s.11,.13,.06,.25c-.1,.12-.2,.25-.29,.37-.09,.13-.19,.25-.29,.38,.08,.14,.17,.27,.28,.39,.11,.12,.19,.26,.26,.42,0,.06,.01,.09,.03,.11,.02,.02,.02,.05,0,.1-.04,.09-.1,.14-.19,.13-.09,0-.15-.04-.17-.11l-.43-.41c-.03,.07-.11,.13-.23,.19-.09,.02-.18,.01-.27-.02-.61,.6-1.35,1.1-2.21,1.49-.08,.08-.18,.15-.28,.21-.1,.07-.2,.14-.28,.21-.51,.37-1.05,.7-1.62,.99-.56,.29-1.13,.6-1.71,.92-.83,.49-1.65,.96-2.48,1.43s-1.71,.85-2.65,1.16c-1.19,.41-2.41,.65-3.67,.72-1.26,.08-2.53,.05-3.8-.09-1.27-.14-2.51-.38-3.74-.72-1.23-.34-2.39-.75-3.48-1.22-.35-.16-.66-.35-.92-.56-.26-.21-.55-.39-.88-.54-.5-.25-1-.48-1.51-.7-.5-.22-1-.46-1.51-.7-.08,.08-.18,.09-.29,.05-1.83-.73-3.39-1.51-4.69-2.32-1.3-.81-2.4-1.73-3.3-2.75-.9-1.02-1.63-2.18-2.2-3.48-.57-1.3-1.04-2.79-1.41-4.46-.32-.77-.55-1.53-.68-2.27-.14-.74-.2-1.5-.2-2.28-.13-.53-.18-.81-.18-.84-.03-.31-.02-.54,.05-.71l.04-.1s.05-.09,.09-.13c.02-.05,.02-.08,.02-.09,0-.02,0-.05,.02-.09,0-1.91,.1-3.58,.29-5.02,0-.59,.03-1.16,.09-1.7,.09-.48,.25-1.01,.48-1.59l.02-.15c.04-.55,.11-1.08,.23-1.59,.11-.51,.29-.91,.54-1.19,.01-.1,.03-.2,.04-.29,0-.09,.03-.18,.07-.28,.04-.28,.07-.55,.1-.79,.03-.24,.08-.49,.16-.73,.22-.62,.5-1.23,.84-1.84,.34-.61,.69-1.19,1.05-1.74s.71-1.06,1.03-1.54c.32-.48,.59-.91,.79-1.29,.19-.33,.36-.67,.53-1.03,.17-.35,.37-.67,.62-.95,.35-.41,.78-.84,1.31-1.31,.29-.32,.53-.59,.72-.81,.92-.99,1.99-1.83,3.21-2.52,.62-.43,1.27-.84,1.95-1.23,.59-.36,1.24-.78,1.96-1.25,.71-.47,1.4-.81,2.07-1.04,.4-.14,.8-.24,1.2-.3,.4-.06,.81-.12,1.23-.17l.14-.07c.49-.19,1.01-.3,1.54-.36,.53-.05,1.03-.11,1.5-.17,.88-.09,1.75-.2,2.61-.33,.86-.12,1.72-.1,2.57,.06,.31,.07,.62,.14,.93,.22,.31,.08,.62,.15,.93,.22,.71,.11,1.54,.27,2.48,.47,.34,0,.67,0,.98,0s.62,.06,.91,.17c.32,.12,.63,.24,.93,.34,.3,.1,.59,.22,.88,.36l.54,.21c.73,.28,1.58,.76,2.57,1.44,.7,.41,1.41,.83,2.12,1.27,.71,.44,1.4,.91,2.07,1.41,.29,.19,.53,.37,.73,.53,1.38,1.07,2.42,2.27,3.12,3.59,.13-.06,.25-.11,.35-.15s.23-.09,.35-.15c.23-.18,.51-.32,.83-.41,0-.02,.03-.04,.06-.06-.01-.03-.01-.1,0-.2-.02-.09-.01-.17,.02-.24,.04-.09,.11-.14,.22-.16,.04-.04,.08-.06,.1-.06,.03,0,.07-.02,.14-.05-.2-.1-.36-.19-.51-.26-.14-.07-.26-.12-.35-.16l-.07-.03-.06-.14v-.04c.01-.13,.07-.19,.17-.18,.03-.01,.07-.01,.12,0l1.87,.72c.16-.07,.32-.13,.48-.18,.16-.04,.33-.1,.52-.16,.05-.06,.11-.08,.19-.07,.07,.02,.12,.07,.13,.15,.02,0,.03,.03,.02,.05,.02,.09-.02,.15-.12,.2-.1,.04-.19,.09-.27,.14-.08,.05-.16,.09-.22,.12h.03c.14-.01,.28-.06,.4-.11,.13-.06,.26-.12,.38-.17,.14-.03,.23,0,.26,.08,.03,.08,0,.17-.12,.25-.06,.03-.12,.06-.16,.1-.04,.04-.09,.07-.16,.1,.18,.07,.35,.13,.52,.18s.34,.11,.52,.18c0-.02,.02-.04,.05-.06,.02-.02,.04-.04,.05-.06,.07-.11,.12-.2,.15-.27,.03-.07,.1-.12,.22-.16,.14-.03,.23,0,.26,.08,.03,.08,0,.17-.12,.25-.06,.03-.12,.16-.15,.39,.21,.06,.41,.12,.59,.19,.18,.07,.36,.14,.54,.21,.08-.07,.17-.09,.25-.04,.09,.05,.11,.13,.06,.25-.14,.16-.36,.24-.65,.24-.29,0-.63-.06-1.04-.16-.14,.41-.28,.85-.44,1.33-.15,.48-.31,.92-.47,1.32-.11,.34-.24,.69-.39,1.06l-.17,.42c-.36,.83-.65,1.53-.88,2.09-.38,1.2-.76,2.39-1.15,3.56-.39,1.17-.83,2.35-1.3,3.54l.07,.11s.02,.06,0,.08c0,.02-.04,.05-.08,.09-.03,.01-.06,.02-.08,0h-.03l-.31,.76c.08,.11,.11,.21,.09,.28-.05,.2-.13,.44-.22,.74-.1,.3-.21,.63-.35,.98,.61,.32,.88,.64,.83,.97-.05,.12-.12,.16-.21,.12-.09-.03-.15-.1-.16-.18,.01-.16-.04-.27-.16-.33-.12-.06-.28-.1-.48-.12-.02,.05-.05,.1-.08,.15-.04,.05-.06,.1-.08,.15,.05,.21,0,.35-.17,.42h.03c.07-.04,.15-.04,.22,0,.07,.04,.09,.12,.04,.24-.07,.11-.25,.13-.54,.07-.07,.11-.17,.25-.29,.42-.07,.05-.16,.07-.25,.04-.1-.02-.12-.09-.07-.21l.17-.42-.07-.03c-.07,.16-.13,.32-.21,.47-.07,.15-.14,.29-.19,.43-.12,.09-.2,.12-.27,.08-.06-.04-.09-.12-.09-.26,.04-.17,.13-.48,.25-.91-.02,0-.04-.03-.05-.06-.69-.18-1.34-.48-1.96-.88-.11,.33-.24,.65-.38,.94-.14,.29-.29,.6-.45,.92-.05,.12-.13,.15-.24,.11-.11-.04-.15-.12-.1-.24,.02-.12,.06-.24,.1-.35,.04-.11,.07-.22,.1-.35-.05-.02-.06-.08-.05-.18,0-.13,.02-.32,.05-.57,.03-.24,.08-.53,.13-.86-.02,0-.04-.03-.05-.06-.05-.02-.08-.04-.09-.07h-.03c-.16-.07-.24-.17-.24-.31-.1-.09-.18-.16-.25-.2-.07-.04-.16-.11-.25-.2-.02,0-.03-.02-.02-.05-.07-.08-.08-.17-.03-.26,.05-.09,.13-.11,.24-.07l.07,.03c.07,.03,.17,.06,.3,.09,.13,.04,.27,.07,.41,.1,.03-.53,.09-1.06,.19-1.59s.17-1.05,.22-1.57c.04-1.2,.01-2.39-.07-3.58-.08-1.19-.24-2.36-.46-3.5-.02-.09-.06-.33-.14-.72-.08-.39-.17-.81-.26-1.25-.1-.44-.21-.85-.33-1.24-.12-.38-.24-.62-.36-.72-.2-.16-.25-.3-.15-.42-.19-.24-.4-.45-.61-.64-.21-.19-.44-.37-.68-.55-.19-.13-.39-.26-.62-.4-1.97-1.17-3.41-1.92-4.31-2.27-1.64-.61-3.36-.83-5.16-.66-2.17,.19-3.94,.67-5.31,1.47-.34,.19-.68,.42-1.03,.69l.04,.1s.04,.08,.03,.13c0,.02-.05,.05-.11,.08-.03,.01-.07,.01-.12,0-.02,0-.05-.03-.09-.07l-.02-.05c-1.03,.81-2.06,1.89-3.06,3.22l-.05,.02c-.49,.7-1,1.47-1.52,2.32l.02,.05s.04,.08,.03,.13c0,.02-.05,.05-.11,.08-.03,.02-.07,.01-.12,0-.2,.35-.4,.72-.6,1.1-.41,.76-.82,1.53-1.24,2.31,.03,.06,.04,.15,.05,.26-.24,.66-.5,1.31-.78,1.94-.28,.63-.6,1.26-.95,1.88-.08,.19-.14,.37-.2,.55-.06,.18-.13,.36-.2,.55,0-.02,.02-.03,.03-.03,.01,0,.01,.02,0,.04-.24,.72-.49,1.43-.77,2.15-.27,.72-.53,1.43-.77,2.15-.05,.25-.09,.5-.13,.76-.04,.26-.08,.51-.13,.76-.07,.51-.21,1.02-.41,1.52-.2,.5-.38,1-.53,1.51-.17,.69-.25,1.4-.23,2.13s.09,1.46,.23,2.17c.13,.71,.3,1.42,.51,2.12,.2,.7,.41,1.37,.62,2.02,.02,.14,0,.26-.06,.34,.26,.26,.55,.54,.87,.82,.32,.28,.62,.55,.9,.79,.28,.24,.53,.45,.74,.61,.21,.16,.34,.27,.4,.32,1.21,.84,2.38,1.54,3.51,2.08,1.13,.55,2.28,.98,3.45,1.29,1.17,.32,2.38,.53,3.62,.63,1.24,.1,2.58,.12,4.02,.06,.45-.01,.92-.07,1.41-.18,.03-.01,.06-.02,.08,0,.02,0,.05,0,.08,0l.05-.02c.41-.24,.89-.49,1.44-.74,.54-.25,1.08-.49,1.6-.71,.52-.23,.99-.44,1.39-.63,.41-.19,.7-.36,.89-.51,.19-.14,.4-.33,.62-.57,.23-.24,.46-.4,.71-.49,0-.11,0-.19,.02-.24-.03-.06-.04-.11-.03-.13-.2-.21-.4-.4-.6-.56-.2-.16-.39-.33-.58-.51-.09-.11-.09-.22-.01-.31,.08-.09,.17-.12,.28-.07,.25,.15,.5,.32,.76,.51,.25,.19,.5,.39,.76,.6,.05,.02,.1,.07,.18,.15l.16,.18s.04-.08,.08-.09c.05-.12,.13-.15,.24-.11,.24-.15,.39-.23,.45-.23Zm-39.71-8.88c-.24-.52-.45-.98-.63-1.38,.06,.75,.2,1.61,.41,2.56,.21,.96,.35,1.88,.44,2.78,.14,.38,.26,.74,.37,1.08,.11,.34,.24,.69,.39,1.04,.15,.28,.31,.55,.49,.84,.68,1.18,1.24,2.07,1.68,2.67,.03,.06,.06,.12,.09,.16-.71-2.27-1.36-4.34-1.95-6.21-.47-1.45-.9-2.62-1.29-3.53Zm1.76-2.72c-.57-1.51-1.13-2.85-1.69-4.01-.05,.52-.12,1.04-.19,1.56-.08,.52-.15,1.01-.2,1.48-.06,.27-.1,.54-.12,.78-.02,.25-.06,.51-.12,.78,.03,.12,.09,.26,.18,.43,.12,.29,.36,.81,.71,1.57,.33,.75,.76,1.91,1.31,3.5,.27,.89,.69,2.19,1.25,3.92,.43,1.35,.77,2.44,1.04,3.27,1.35,1.6,2.98,3.02,4.89,4.27-.05-.13-.34-.88-.86-2.27l-1.16-2.99c-.8-1.98-1.64-3.95-2.5-5.9-.35-.76-1.2-2.89-2.54-6.4Zm1.09-1.72c-.99-2.62-1.79-4.65-2.39-6.1-.09,.23-.17,.46-.23,.68-.06,.22-.1,.45-.12,.68-.04,.36-.04,.65-.01,.86,.03,.21,.03,.52,0,.91,.65,1.25,1.31,2.74,1.97,4.48,1.34,3.51,2.19,5.66,2.56,6.45,.85,1.86,1.72,3.91,2.6,6.14,.33,.8,.72,1.79,1.17,2.96,.45,1.22,.69,1.93,.73,2.1l-.03,.07s-.04,.08-.08,.09l-.1,.04,.94,.6c.08,0,.17,.05,.29,.15,.54,.34,1.11,.62,1.7,.82,.59,.2,1.18,.41,1.77,.64-.34-.99-1.26-3.65-2.77-7.98-.95-2.66-2.23-5.41-3.83-8.27-1.73-3.12-2.89-5.77-3.46-7.93-.77-2.91-1.55-5.11-2.34-6.61-.06,.27-.11,.56-.15,.85-.04,.29-.1,.61-.19,.96-.03,.15-.08,.29-.13,.42-.05,.13-.09,.27-.13,.42,.58,1.3,1.39,3.33,2.43,6.08,.72,1.92,1.85,4.5,3.38,7.74,1.4,2.97,2.5,5.71,3.3,8.23,.39,1.18,.74,2.2,1.05,3.07,.03,.06,.16,.44,.41,1.13,.13,.27,.2,.44,.22,.53l.07,.03s.07,.05,.07,.11c0,.08-.02,.14-.04,.19-.04,.09-.11,.12-.23,.07-.11-.04-.31-.46-.6-1.24-.48-1.34-.81-2.28-.99-2.81-1-3.11-2.11-5.96-3.32-8.56-1.81-3.85-2.99-6.52-3.55-8Zm-.4-12.21c-.13,.25-.25,.48-.36,.71-.12,.22-.24,.46-.36,.71l-.14,.35c-.06,.14-.11,.28-.15,.41-.04,.13-.07,.26-.1,.39,.86,1.38,1.65,3.46,2.38,6.22,.67,2.58,1.83,5.36,3.49,8.34,1.77,3.16,3.1,6.01,4,8.54,1.71,4.81,2.69,7.59,2.94,8.33l.31,.12c.18,.07,.35,.16,.5,.27,.15,.11,.31,.23,.47,.34,.15,.08,.3,.16,.46,.22,.16,.06,.33,.13,.51,.2l.37,.14c-.46-.82-1.02-2.19-1.7-4.09-.66-1.68-1.01-3.02-1.06-4.01-.59-.5-1.11-1.01-1.58-1.54-1.16-1.28-1.83-2.46-2-3.52-.02-.09-.02-.15,0-.2-.26-.99-.42-2.02-.48-3.1-.13-.46-.21-.93-.25-1.43-2.14-4.65-3.46-7.75-3.97-9.3-.92-2.67-2.01-5.37-3.27-8.1Zm7.66,13.03c-1.52-4.31-3.69-9.44-6.5-15.41-.15,.32-.31,.65-.46,1-.15,.35-.32,.67-.49,.98,1.21,2.41,2.38,5.3,3.51,8.67,.2,.62,1.36,3.3,3.48,8.06,0-.19,0-.38,0-.56,0-.18,.03-.38,.06-.58,.04-.36,.11-.71,.2-1.04s.18-.66,.27-1.01c-.02,0-.05-.05-.07-.11Zm-5.29-17.65c-.18,.31-.36,.62-.55,.92-.19,.3-.38,.62-.56,.96,2.12,3.86,4.32,9,6.62,15.42,.05-.2,.11-.38,.17-.56,.06-.18,.11-.37,.17-.56,.04-.31,.09-.63,.13-.96,.04-.33,.09-.68,.16-1.03-.4-.96-.98-2.17-1.73-3.62-.98-1.94-1.64-3.32-2-4.13-.23-.55-.66-1.81-1.31-3.78-.34-1.05-.67-1.95-1-2.69l-.1,.04Zm2.85,.82c-.5-1.11-.95-2.05-1.34-2.82-.43,.48-.84,1.01-1.23,1.59,.42,.78,.81,1.73,1.18,2.84,.65,2.17,1.07,3.44,1.25,3.84,.26,.59,.96,1.96,2.08,4.12,.63,1.24,1.12,2.32,1.49,3.24,.09-.42,.19-.84,.31-1.26,.11-.42,.26-.82,.44-1.2,.05-.12,.09-.23,.14-.35,.05-.12,.1-.23,.17-.34-.27-.83-.71-1.79-1.31-2.89-1.02-1.9-1.58-2.97-1.7-3.2-.16-.33-.65-1.52-1.48-3.56Zm1.68,3.16c1.52,3.26,2.5,5.35,2.94,6.27,.03-.07,.09-.17,.19-.29,.15-.37,.33-.72,.54-1.04,.03-.15,.07-.29,.12-.44,.04-.14,.1-.3,.17-.46l-.02-.05c-.62-1.07-1.84-3.78-3.65-8.12-.63-1.51-1.04-2.56-1.25-3.15-.09-.22-.17-.43-.23-.61-.31,.26-.61,.53-.88,.81-.27,.29-.55,.59-.84,.91,.42,.92,1.39,2.97,2.9,6.18Zm.77-3.78c1.68,3.97,2.78,6.44,3.31,7.42,.09-.29,.18-.57,.28-.84,.1-.27,.21-.53,.33-.78l.07-.17c-1.57-4.11-2.37-6.17-2.39-6.18-.71-2.21-1.3-3.88-1.76-5.01-.56,.4-1.07,.81-1.55,1.22l.12,.29c.15,.46,.3,.88,.44,1.26,.32,.83,.71,1.76,1.16,2.79Zm2.4-5.18c-.36-.68-.61-1.23-.75-1.66-.29,.19-.55,.37-.81,.54-.25,.17-.51,.36-.77,.55,.48,1.02,1.09,2.7,1.83,5.03,.3,.95,.77,2.17,1.4,3.66,.37,.98,.67,1.75,.91,2.33,.03-.07,.09-.17,.19-.29,.27-.68,.66-1.38,1.16-2.1-.16-.52-.37-1.27-.62-2.26-.42-1.43-.79-2.45-1.09-3.05-.18-.34-.42-.79-.71-1.37-.36-.68-.6-1.14-.74-1.38Zm2.92,5.94c.21,.73,.37,1.32,.51,1.77,.02-.05,.04-.08,.07-.12,.03-.03,.05-.07,.07-.12,.34-.65,.7-1.25,1.08-1.81-1.08-2.85-1.83-4.74-2.24-5.68-.53-1.04-.91-1.82-1.14-2.34-.09-.22-.16-.4-.19-.52-.28,.16-.53,.33-.77,.49-.24,.17-.48,.33-.73,.5,.31,.66,1.06,2.23,2.24,4.71,.35,.76,.72,1.79,1.11,3.1Zm.01-9.82c-.31,.12-.61,.25-.9,.38l-.81,.54c.07,.08,.3,.49,.68,1.23,.43,.89,.76,1.57,.99,2.04,.41,.94,1.07,2.6,1.97,4.97,.39-.58,.83-1.19,1.33-1.83-1.94-4.12-3.02-6.56-3.27-7.33Zm2.72,46.05c-.59-1.74-.98-2.81-1.19-3.21-.38-.23-.75-.48-1.11-.75-.54-.34-1.05-.7-1.53-1.08,.19,1.15,.56,2.42,1.11,3.79,.13,.27,.42,.9,.88,1.92,.33,.8,.59,1.46,.78,1.96,0,.06,0,.1,0,.12-.02,.05-.04,.08-.08,.09,.26,.07,.52,.15,.77,.24,.25,.08,.52,.15,.78,.2-.14-.05-.17-.08-.09-.08,.5,.11,1,.25,1.49,.39,.49,.15,.99,.28,1.49,.4,.02,0,.06,.01,.12,0,.15,.03,.31,.05,.48,.07-.36-.68-.73-1.59-1.1-2.73-.52-1.63-.91-2.7-1.15-3.2-.04-.04-.05-.07-.04-.1l-.75-.29c-.57-.22-1.13-.48-1.69-.78,.83,1.64,1.6,3.69,2.29,6.14,.01,.03,.01,.07,0,.12,0,.02-.03,.04-.06,.06-.03,.01-.06,.02-.08,0-.02,0-.05-.03-.09-.07-.37-.79-.77-1.86-1.22-3.22Zm-.63-46.66s.05,.06,.03,.13c.02,0,.04,.04,.04,.1l.06,.15c.16,.25,.27,.43,.34,.53,.05,.13,.13,.29,.23,.49,.12,.23,.19,.4,.23,.49,.29,.52,.68,1.21,1.17,2.07l1.06,1.87c.49-.43,.98-.78,1.48-1.04-.35-.89-.81-1.84-1.38-2.84-.13-.26-.32-.61-.57-1.03-.31-.53-.51-.86-.58-.99-.04-.04-.09-.13-.17-.27-.06-.11-.11-.19-.13-.25-.04-.04-.06-.09-.06-.15-.6,.2-1.29,.43-2.05,.7-.55,.19-1.05,.38-1.52,.55,.32,.72,1.39,3.09,3.24,7.11,.22-.29,.45-.59,.67-.89,.23-.3,.46-.6,.71-.88l-2.22-3.97c-.57-1.25-.85-1.85-.84-1.82l.03-.07s.03-.04,.06-.06c.03-.01,.06-.02,.08,0,.05,.02,.07,.04,.09,.08Zm3.01-1.14c-.29,.08-.62,.18-.99,.3,1.42,2.41,2.39,4.23,2.92,5.46l.62-.28c.42-.27,.83-.51,1.23-.72,.4-.21,.79-.4,1.17-.58-.72-2-1.41-3.53-2.09-4.57-.3,.02-.6,.05-.92,.09-.32,.04-.63,.08-.93,.12l.02,.05c.26,.59,.39,.89,.38,.92,1.21,1.82,1.88,3.11,2.01,3.89,.01,.03,.02,.06,0,.08-.02,.05-.06,.08-.12,.11-.03,.01-.06,.02-.08,0-.05-.02-.08-.06-.11-.12-.3-.95-.91-2.13-1.84-3.54-.19-.32-.34-.62-.46-.91-.09-.17-.17-.31-.23-.41-.11,.01-.21,.03-.29,.05-.09,.02-.19,.04-.29,.05Zm5.1,49.15c-.23-1.06-.55-1.88-.97-2.48h-.03c-.56-.04-1.15-.11-1.77-.21-.88-.1-1.69-.25-2.45-.46-.1-.01-.2-.04-.29-.07,.33,.67,.75,1.71,1.26,3.12,.09,.36,.44,1.3,1.06,2.84,.53,.04,1.09,.07,1.66,.08-.15-.41-.41-1.27-.76-2.6-.27-.96-.53-1.77-.8-2.41-.01-.03-.02-.06,0-.08l.03-.07s.08-.05,.13-.03c.02,0,.04,.03,.05,.06,.29,.46,.59,1.27,.92,2.42,.41,1.45,.66,2.34,.73,2.67,.61,0,1.21-.06,1.83-.14v-.04c-.08-.23-.28-1.09-.6-2.58Zm-1.85-49.6c.79,1.17,1.47,2.67,2.04,4.51,.33-.11,.64-.21,.92-.29,.28-.08,.58-.15,.89-.22l-1.23-2.62c-.32-.69-.52-1.17-.6-1.44-.33-.02-.67-.02-1,0-.34,.02-.68,.04-1.03,.07Zm3.99,49.17c-.34-.97-.6-1.67-.76-2.11-.7,.05-1.38,.07-2.03,.06,.69,1.02,1.19,2.68,1.5,4.98l-.04,.11c.79-.13,1.6-.29,2.43-.48l-.02-.05c-.35-.62-.71-1.46-1.07-2.52Zm1.55-47.19c-.16-.57-.35-1.06-.55-1.47-.43-.11-.86-.22-1.3-.34-.44-.12-.87-.19-1.31-.22-.02,0-.04,0-.04,0,0,.01-.02,.01-.04,0l.32,.57c.28,.59,.48,1.01,.6,1.24,.6,1.25,.91,1.98,.93,2.18,.61-.09,1.25-.12,1.93-.1-.14-.43-.32-1.05-.55-1.87Zm1.51,48.78c-.83-2.1-1.37-3.41-1.6-3.94-.31,.04-.6,.08-.89,.12-.29,.04-.58,.07-.88,.08h.03v.05l-.06,.02c.4,.91,.94,2.38,1.64,4.43,.01,.03,.02,.06,0,.08,0,.02-.04,.05-.08,.09,1.31-.33,2.67-.77,4.08-1.33-.51-1.68-.98-2.92-1.41-3.74-.17,.02-.33,.03-.5,.03-.17,0-.35,0-.52-.02-.2,.03-.38,.06-.56,.08-.18,.02-.36,.04-.55,.05,.75,1.26,1.26,2.56,1.54,3.91,.01,.03,.01,.06,0,.08,0,.02-.04,.04-.1,.04-.03,.01-.06,.02-.08,0-.02,0-.04-.03-.05-.06Zm-1.39-49.18c.17,.55,.4,1.32,.69,2.29,.36,0,.73,.05,1.09,.12,.36,.07,.75,.16,1.15,.26l.18,.03c-.15-.27-.32-.66-.51-1.17-.24-.63-.41-1.04-.5-1.2-.19-.37-.34-.68-.45-.94-.24,.02-.46,0-.65-.05-.25-.04-.48-.09-.71-.15-.23-.06-.46-.12-.69-.19,.12,.29,.25,.62,.39,1Zm4.15,.63c-.2-.43-.35-.78-.47-1.07l-.24-.09c-.25-.04-.48-.06-.7-.07-.22,0-.44,0-.66,.03,.1,.2,.22,.45,.37,.75,.56,1.21,.88,2.02,.95,2.43,.01,.03,.01,.07,0,.12l-.05,.02c.63,.14,1.26,.33,1.89,.57,.32,.12,.64,.26,.97,.42l.58,.22c.59,.23,1.14,.48,1.66,.76-.08-.19-.15-.41-.21-.65-.36-.81-.58-1.29-.68-1.44-.46-.93-.78-1.58-.95-1.94-.39-.21-.79-.39-1.21-.57-.42-.17-.82-.32-1.21-.45l.04,.1c.17,.5,.3,.84,.4,1.05,.61,1.23,.93,1.99,.97,2.28,.01,.03,.02,.06,0,.08,0,.02-.04,.04-.1,.04-.03,.01-.07,.01-.12,0-.02,0-.04-.03-.05-.06l-1.19-2.52Zm.89,44.86c-.22-.43-.36-.79-.44-1.06-.6,.25-1.24,.44-1.91,.55,.78,1.06,1.23,2.28,1.35,3.68,.32-.15,.65-.28,.98-.39,.11-.07,.21-.13,.33-.18,.11-.05,.24-.12,.38-.2,.35-.16,.7-.32,1.03-.47,.34-.15,.68-.31,1.03-.47-.14-.38-.4-1.02-.8-1.92-.24-.52-.48-.99-.73-1.41l-.05,.02c-.48,.27-.94,.51-1.39,.72,.11,.26,.32,.68,.64,1.26,.48,.97,.73,1.55,.75,1.75l-.03,.07s-.04,.08-.08,.09c-.03,.01-.06,.02-.08,0-.02,0-.04-.03-.05-.06-.05-.07-.36-.73-.94-1.98Zm3.57-1.45c-.25-.5-.52-1-.82-1.49l-.27,.18c-.15,.1-.24,.18-.28,.21l-.17,.13-.11,.08c-.07,.05-.14,.1-.2,.15-.06,.04-.12,.08-.18,.11,.22,.36,.5,.91,.83,1.65,.31,.74,.53,1.31,.68,1.72,.16-.07,.31-.16,.45-.25,.14-.09,.28-.18,.42-.26,.06-.03,.12-.06,.16-.1,.04-.04,.09-.07,.16-.1-.09-.22-.18-.53-.26-.91-.17-.5-.3-.87-.41-1.13Zm-.72-41.56c.65,1.25,1.05,2.11,1.21,2.57,.43,.25,.84,.52,1.24,.82,.4,.3,.78,.64,1.12,1.02-.56-1.86-1.08-3.3-1.56-4.32-.09-.04-.15-.07-.19-.11-.05-.02-.05-.03-.01-.02,.04,0,.09,.03,.15,.08v-.04c-.46-.26-.92-.53-1.37-.8-.46-.27-.93-.53-1.44-.78,.24,.39,.52,.92,.86,1.59Zm2.42,40.44c-.44-.41-.82-.84-1.13-1.29-.28,.19-.66,.43-1.12,.74,.81,1.12,1.31,2.29,1.51,3.49,.26-.19,.51-.39,.74-.58,.23-.19,.48-.39,.74-.58h-.03s-.04-.04-.05-.07c-.08-.25-.22-.62-.41-1.13l-.24-.58Zm5.52-26.94c.59,1.2,1.08,2.21,1.46,3.03,.1-.31,.19-.61,.28-.9,.09-.29,.18-.59,.28-.9-.89-1.56-1.73-3.66-2.5-6.3-.7-2.29-1.09-3.55-1.16-3.76-.11-.37-.33-.94-.65-1.71-.08-.19-.16-.37-.25-.54-.4-.31-.82-.63-1.27-.94-.45-.31-.96-.64-1.53-.99,.54,1.13,1.05,2.63,1.53,4.51,.01,.03,.01,.06,0,.08l-.05,.02c.18,.21,.32,.42,.41,.64,.03-.01,.07-.01,.12,0,.09,.04,.15,.12,.17,.27,.04,.29,.25,1.1,.64,2.43v-.08s-.02-.06-.01-.08c0-.02,.03-.04,.06-.06,.03-.01,.06-.02,.08,0,.02,0,.04,.03,.05,.06,.56,1.54,1.34,3.28,2.34,5.23Zm-4.62,28.62l.48-.3c-.11-.12-.24-.26-.41-.4s-.33-.3-.5-.48c.23,.55,.37,.93,.44,1.14v.04Zm4.2-28.78c-.93-1.79-1.58-3.24-1.95-4.35,.06,.18,.12,.38,.19,.6,.34,1.05,.58,2.25,.72,3.59,.09,.9,.15,1.75,.18,2.58,.03-.01,.06-.02,.08,0,.04,.02,.07,.04,.09,.07,.72,1.54,1.23,2.83,1.55,3.87,.02-.05,.04-.09,.07-.12,.03-.03,.05-.07,.07-.12,.11-.41,.24-.82,.37-1.21,.13-.39,.25-.8,.37-1.21-.59-1.28-1.17-2.51-1.74-3.7Zm2.06-5.51c-.25-.74-.43-1.28-.53-1.62l-.14-.05c-.16-.12-.22-.24-.16-.38l-.06-.14h-.03c-.16,.06-.35,.16-.56,.3-.11,.07-.19,.08-.25,.03-.06-.05-.06-.13-.02-.25,.11-.15,.29-.3,.55-.48-.07-.08-.14-.17-.21-.26-.07-.09-.13-.18-.17-.25-.05-.07-.12-.13-.21-.16-.09-.04-.13-.09-.13-.17-.31-.28-.59-.54-.85-.77-.26-.24-.52-.46-.78-.66,.19,.45,.38,.98,.58,1.6,.22,.68,.58,1.84,1.08,3.49,.76,2.67,1.56,4.77,2.38,6.3,.13-.46,.27-.91,.42-1.33,.15-.43,.3-.87,.45-1.32-.59-1.41-1.04-2.69-1.37-3.84Zm-3,10c.12,.42,.15,.85,.1,1.27-.05,.42-.19,.84-.4,1.24,.27,.05,.54,.12,.82,.21,.28,.09,.54,.18,.8,.25l.21-.53c-.31-.87-.8-2.26-1.47-4.17v.97c-.01,.24-.03,.48-.06,.74Zm4.27-12.3c-.29,.13-.48,.21-.56,.23-.09,.02-.15,.03-.18,.01s-.08-.02-.13-.03-.17,.04-.36,.12c-.04,.04-.07,.07-.08,.09-.06,.03-.1,.06-.11,.08-.03,.01-.05,.03-.06,.06,.17,.36,.27,.63,.31,.81,.31,1.12,.8,2.53,1.48,4.25,.11-.34,.22-.67,.34-1,.12-.33,.25-.66,.38-.99-.24-.52-.37-.82-.39-.88-.01-.03-.02-.06,0-.08l.03-.07,.05-.02s.04,.03,.05,.06l.04,.1c-.08-.38-.22-.91-.43-1.58l-.36-1.15Zm.7,1.2c.26,.86,.44,1.49,.53,1.9,.05-.12,.1-.23,.15-.33,.05-.1,.1-.21,.15-.33,.14-.35,.28-.71,.43-1.07,.15-.36,.31-.71,.5-1.04l-.24-.58c-.32-.12-.67-.3-1.05-.53-.12,.09-.23,.18-.34,.27-.12,.09-.24,.18-.38,.26-.06,.03-.11,.05-.13,.07-.02,.02-.05,.04-.08,.05,.14,.38,.29,.81,.46,1.31Zm1.92-1.16s.02-.04,.04-.05,.03-.02,.04-.05l-.14-.05,.06,.14Z"/><path d="M194.36,343.42c-.12,0-.18-.06-.18-.19,0-.13,.06-.19,.18-.19,.17,0,.33,0,.49-.02,.16-.01,.32-.02,.49-.02,.02-.23,.04-.46,.05-.7,.01-.24,.04-.47,.09-.7,0-1.74,.17-3.18,.51-4.34v-.04c0-.3,.16-.74,.47-1.32-.07-.88-.14-1.77-.2-2.68-.06-.91-.05-1.8,.02-2.68,0-.15,.06-.22,.18-.21,.12,.01,.21,.05,.26,.13,.19,.5,.31,1.04,.35,1.62,.04,.58,.08,1.16,.13,1.73,0,.13-.07,.19-.22,.19,.02,.13,.04,.23,.05,.32,.01,.09,.02,.16,.02,.21v.38c.34-.48,.69-.97,1.06-1.48,.12-.15,.24-.3,.35-.46,.11-.15,.23-.29,.35-.42,1.12-1.44,2.21-2.59,3.28-3.43,1.24-.99,2.74-1.76,4.49-2.31,.39-.1,.77-.21,1.13-.31,2.02-.75,4.09-1.2,6.22-1.36,2.13-.16,4.24-.01,6.33,.45,1.09,.24,2.06,.55,2.9,.92,.84,.37,1.76,.79,2.75,1.25,.46,.25,.93,.47,1.4,.67s.91,.46,1.29,.78c.05-.05,.1-.09,.15-.11,.05-.03,.1-.06,.15-.11,.02-.03,.05-.06,.07-.11,.02-.05,.05-.06,.07-.04,.05-.05,.1-.1,.15-.15,.05-.05,.1-.1,.15-.15,0-.02,.01-.05,.04-.08l.04-.04c.12-.18,.25-.35,.38-.53,.13-.18,.27-.37,.42-.57-.17-.02-.34-.05-.51-.07s-.34-.06-.51-.11c-.12,0-.19-.04-.2-.13-.01-.09,.03-.16,.13-.21v-.04h.04s.06-.04,.11-.04c.02,0,.04,0,.06,.02,.01,.01,.03,.02,.05,.02,.19,.02,.4,.03,.62,.03,.22,0,.43,0,.62,.03l.11-.11c.05-.08,.12-.16,.22-.27,.46-.53,.91-1.01,1.33-1.43,.43-.42,.77-.68,1.04-.78,.1-.08,.18-.08,.26,0,.05,.07,.08,.12,.11,.15,.02,.02,.04,.1,.04,.23,0,.1-.05,.16-.15,.19-.1,.03-.17,0-.22-.07-.17,.2-.34,.39-.51,.57-.17,.18-.33,.37-.47,.57,.05-.03,.1-.04,.15-.04,.05,0,.1-.01,.15-.04,.12,0,.19,.05,.2,.15,.01,.1-.03,.18-.13,.23-.02,0-.05,.01-.07,.04,.27-.03,.52-.06,.77-.1,.24-.04,.5-.07,.77-.1l.11-1.59c.07-.15,.17-.2,.29-.15,.02,0,.06-.03,.11-.08,0,.3,0,.6,.02,.91,.01,.3,.02,.59,.02,.87h.04l.07,.04h.04c.15,.1,.24,.17,.29,.22l.11,.11s.04,.04,.04,.06c0,.01,.01,.03,.04,.06,.07,.22,.05,.44-.07,.64h.11c.15,0,.24,.06,.29,.19,.15,0,.26,0,.33,.03,.05-.15,.15-.18,.29-.08,.02,.03,.05,.04,.09,.06,.04,.01,.08,.03,.13,.05h.15v.04h.07c.07,.07,.11,.15,.11,.22s-.06,.14-.18,.19h-.11c-.15-.02-.3-.04-.46-.05-.16-.01-.31-.02-.46-.01-.05,.08-.13,.12-.26,.12h-.4c-.02,1.14-.07,2.9-.15,5.29-.02,1.16-.04,2.23-.04,3.21,0,1.31,.02,2.45,.07,3.43,.1,1.31,.16,2.78,.18,4.41v.72l.18-.04c.22,0,.34,.1,.36,.3l1.2,.1c.12,.05,.18,.12,.18,.22s-.06,.15-.18,.15c-.24-.02-.48-.04-.71-.05-.23-.01-.48,0-.75,.03h-.36c-.05,.23-.16,.34-.33,.35h-.04c-.15-.02-.27-.08-.36-.18-.05,.48-.09,.96-.11,1.45-.02,.49,0,.97,.07,1.45,.15,0,.22,.07,.22,.22v.15c0,.08-.04,.15-.11,.23-.02,0-.06,.03-.11,.08-.12,0-.22-.05-.29-.15-.22-.53-.36-1.08-.42-1.67-.06-.59-.08-1.21-.05-1.87h-.25c-.49,.06-.95,.1-1.39,.13-.44,.03-.89,.06-1.35,.09,.44,.8,.7,1.45,.8,1.95l.04,.04c.12,.05,.15,.13,.09,.25-.06,.11-.15,.13-.27,.06-.12-.05-.32-.3-.58-.75-.27-.45-.55-.96-.84-1.54-.27-.05-.44-.15-.51-.3l-2.3-.09c-.12,0-.18-.06-.18-.19,0-.12,.06-.19,.18-.19,.32,0,.62-.01,.91-.03,.29-.01,.6-.04,.91-.07-.1-.1-.15-.27-.15-.53-.05-.13-.1-.29-.15-.49s-.12-.4-.22-.6c-.12-.35-.25-.68-.38-1-.13-.31-.29-.62-.46-.92-.41-.88-.83-1.8-1.26-2.78-.43-.98-.91-1.9-1.46-2.78-.55-.87-1.17-1.67-1.88-2.4-.71-.72-1.54-1.27-2.52-1.63-.97-.37-1.96-.48-2.95-.33-1,.15-1.96,.46-2.88,.93-.92,.48-1.8,1.07-2.63,1.78-.83,.71-1.55,1.42-2.15,2.13-.24,.28-.49,.56-.73,.84-.24,.28-.43,.6-.55,.95v.83c0,.28-.01,.55-.04,.83l.11,.68h.77c.12,0,.19,.05,.2,.18,.01,.13-.04,.19-.16,.19h-.36c-.12,0-.24,.02-.36,.04,.05,.2,.08,.4,.11,.58,.02,.19,.06,.38,.11,.58,.32,.32,.81,.63,1.5,.91,.68,.28,1.41,.55,2.19,.81,.78,.25,1.54,.51,2.28,.75,.74,.25,1.33,.49,1.77,.74,.51,.32,.92,.58,1.22,.76,.3,.19,.55,.34,.75,.46,1.7,.71,3.51,1.55,5.43,2.51,1.07,.44,2.22,.93,3.45,1.46,1.23,.53,2.41,1.11,3.54,1.74,1.13,.63,2.16,1.32,3.08,2.06,.92,.75,1.63,1.54,2.11,2.39-.05-.45-.08-.91-.09-1.36-.01-.45,.02-.89,.09-1.32,0-.13,.05-.19,.15-.19,.1,0,.17,.04,.22,.11,.1,.17,.17,.38,.22,.6,.05,.23,.08,.44,.11,.64,0,.13-.07,.19-.22,.19,.05,.68,.09,1.36,.13,2.05,.04,.69,.08,1.38,.13,2.05,.53,1.3,.8,2.65,.8,4.03,0,.5-.04,1.01-.11,1.51,0,.28,0,.55-.02,.81-.01,.26-.03,.54-.06,.81-.05,.23-.1,.45-.15,.68-.05,.23-.13,.45-.26,.68v1.25c0,.23,0,.67,0,1.32,0,.65,0,1.34-.02,2.06-.01,.72-.04,1.37-.09,1.96-.05,.59-.12,.93-.22,1-.1,.05-.18,.05-.24-.02-.06-.06-.07-.14-.02-.25,.05-.08,.07-.31,.07-.7s0-.82-.02-1.28c-.01-.46-.03-.9-.05-1.32-.02-.41-.04-.67-.04-.77v-1.96c-.15,.28-.3,.54-.46,.78-.16,.24-.3,.49-.42,.74l-.04,.08c-.24,.48-.5,.95-.77,1.4-.49,.96-1.01,1.9-1.57,2.83-.56,.92-1.22,1.79-1.97,2.6-1.51,1.57-3.23,2.75-5.16,3.54-1.93,.79-3.94,1.28-6.02,1.48-2.08,.2-4.18,.16-6.31-.11-2.13-.27-4.14-.66-6.04-1.17-.61-.17-1.25-.35-1.93-.53-.68-.18-1.36-.39-2.04-.62-.68-.23-1.34-.5-1.97-.81-.63-.31-1.22-.67-1.75-1.1h-.04c-.44,.43-.89,.85-1.35,1.24-.46,.39-.92,.79-1.39,1.2-.8,.86-1.65,1.68-2.55,2.44-.12,.13-.23,.23-.33,.32-.1,.09-.19,.17-.29,.25h-.04l-.04,.04c-.05,.33-.09,.62-.13,.87-.04,.25-.09,.45-.16,.61,.05,.05,.05,.14,0,.26l-.04,.04s-.04,.01-.04,.04c-.02,.38-.04,.76-.06,1.15-.01,.39-.03,.77-.06,1.15,0,.13-.06,.19-.18,.19-.12,0-.18-.06-.18-.19-.05-.58-.08-1.14-.11-1.7-.02-.55-.04-1.11-.04-1.66l-.07,.08c-.27,.2-.57,.39-.91,.56-.34,.17-.56,.29-.66,.37v.04c-.05,.08-.12,.12-.22,.13-.1,.01-.15-.04-.15-.17,.02-.18,.1-.33,.22-.45,.12-.13,.26-.24,.42-.34,.16-.1,.32-.2,.49-.29,.17-.09,.32-.19,.44-.29,.07-.05,.14-.11,.2-.19,.06-.08,.13-.14,.2-.19-.02-.03-.04-.05-.04-.08-.02-.08-.04-.14-.04-.19v-.15c-.02-.08-.04-.18-.04-.3-.17-.17-.25-.37-.25-.6v-19.12c0-.12,0-.29,0-.51s.01-.42,.04-.62c-.24-.15-.34-.35-.29-.6-.27-.05-.51-.1-.73-.14-.22-.05-.45-.11-.69-.18-.19-.15-.19-.27,0-.38v-.04h.04c.07-.03,.17-.04,.29-.04,.07,0,.13,.04,.18,.11,.22,.02,.43,.04,.62,.05,.19,.01,.39,.03,.58,.05-.07-.07-.11-.17-.11-.3v-.08c.02-.23,.15-.34,.36-.34v-.08c0-.15,.09-.24,.26-.27v-1.47c0-.12,.06-.18,.18-.17,.12,.01,.18,.08,.18,.21v1.58c.02,.05,.05,.11,.07,.19,.29-.05,.51,.02,.66,.22,.29,.02,.62,.03,.98,.03,.44,.02,.83,.04,1.17,.06-.12-.2-.23-.39-.33-.56-.1-.17-.21-.35-.33-.52-.12-.17-.1-.32,.05-.43,.16-.12,.3-.1,.42,.05,.05,.1,.08,.16,.11,.19,.12,.18,.24,.34,.36,.51,.12,.16,.24,.34,.36,.54h.04c.1,0,.18,.07,.25,.22,.02,.08,.05,.14,.07,.19h.07l.15,.07v-.04c0-.13,.06-.18,.18-.17,.12,.01,.18,.08,.18,.21,0,.15-.01,.26-.04,.34,0,.05-.02,.1-.07,.15,0,.05,.01,.09,.04,.11,0,.13,.08,.35,.25,.68s.39,.7,.67,1.12c.28,.42,.58,.87,.89,1.35,.32,.47,.63,.92,.93,1.35,.3,.43,.56,.79,.78,1.1,.22,.31,.36,.53,.44,.66,.29,.45,.56,.88,.82,1.29,.25,.41,.51,.81,.77,1.2,.26,.39,.53,.77,.84,1.14,.3,.37,.66,.75,1.08,1.12,.8,.7,1.71,1.32,2.72,1.88,1.01,.56,2.06,1,3.15,1.33,1.09,.33,2.19,.51,3.3,.53,1.11,.03,2.15-.13,3.14-.48s1.87-.92,2.65-1.71c.78-.79,1.4-1.84,1.86-3.15,.05-.13,.08-.24,.11-.34,.02-.1,.05-.21,.07-.34h-.04c-.12,.03-.28,.04-.47,.02-.2-.01-.39,0-.58,.02-.05,.1-.12,.15-.22,.15-.02,0-.11-.02-.25-.07-.1-.05-.15-.12-.15-.21s.06-.16,.18-.21c.17-.13,.4-.21,.69-.23,.29-.03,.53-.07,.73-.12,.05,0,.08,0,.11-.02,.02-.01,.06-.02,.11-.02,.05-.7-.03-1.41-.24-2.11-.21-.7-.49-1.37-.86-2.01-.36-.64-.79-1.22-1.28-1.76-.49-.54-.98-.99-1.5-1.36-.27-.2-.62-.41-1.06-.65-.44-.23-.9-.46-1.39-.68-.49-.22-.97-.42-1.44-.59-.47-.17-.88-.3-1.22-.4-.29-.1-.59-.16-.89-.18-.3-.02-.61-.04-.93-.05-.32,0-.62-.04-.91-.1-.29-.06-.57-.16-.84-.31-.49-.27-.92-.59-1.31-.95-.39-.36-.84-.66-1.35-.91-.68-.34-1.37-.64-2.08-.88-.71-.25-1.41-.5-2.12-.75-.71-.26-1.4-.54-2.1-.85-.69-.31-1.34-.7-1.95-1.17-.44-.32-.78-.7-1.02-1.12-.24-.43-.44-.89-.58-1.39,0,.7,0,1.4-.02,2.08-.01,.68-.03,1.37-.06,2.08,0,.13-.06,.19-.18,.19-.12,0-.18-.06-.18-.19-.02-1.11-.04-2.21-.05-3.3-.01-1.09-.03-2.19-.05-3.3-.02-.03-.04-.08-.04-.15-.24-.53-.45-1.06-.62-1.62-.02-.1-.06-.19-.11-.26-.27-.53-.46-1.08-.56-1.65-.11-.58-.16-1.15-.16-1.73-.17-.02-.33-.05-.49-.07-.16-.02-.32-.05-.49-.07Zm1.99,26.19c-1.12-1.17-1.91-2.12-2.37-2.84v.49c.05,.73,.08,1.47,.11,2.22h.04s.05,.01,.07,.04c.07,.1,.16,.19,.26,.26h.04v.04c.85,.85,1.97,2.03,3.35,3.55,1.6,1.77,2.81,3.04,3.61,3.81,.05,.03,.07,.06,.07,.11,0,.03-.02,.06-.07,.11,.22,.15,.47,.3,.77,.45,.22,.15,.45,.3,.69,.45,.51,.22,1.06,.44,1.66,.64,.6,.21,1.17,.41,1.73,.6-.32-.3-.68-.63-1.09-1.01-.88-.75-1.56-1.34-2.04-1.79-.9-.82-2.08-2.05-3.54-3.7-.41-.45-.96-1.02-1.64-1.72-.88-.9-1.42-1.47-1.64-1.72Zm3.68,3.43c.88,1.05,3.22,3.29,7.04,6.72,.19,.05,.37,.09,.53,.13,.16,.04,.32,.08,.49,.13,.39,.12,.78,.22,1.19,.31,.4,.08,.81,.17,1.22,.27-.92-1.2-2.2-2.58-3.83-4.15-2.45-2.29-3.97-3.77-4.56-4.44-.78-.87-2.28-2.35-4.52-4.44-1.48-1.37-2.69-2.56-3.61-3.58v2.26c1.24,1.6,2.16,2.71,2.77,3.33,2.07,2.17,3.16,3.33,3.28,3.47Zm-3.39-9.4c-.36-.37-.69-.73-.98-1.08-.27,0-.54,.01-.82,.03-.28,.02-.55,0-.82-.05-.02,.13-.04,.26-.04,.42,0,.15,0,.3,0,.45v.11c1,1.12,2.35,2.48,4.05,4.07,2.26,2.14,3.83,3.7,4.7,4.67,.51,.55,1.98,1.95,4.41,4.22,1.65,1.57,2.92,2.96,3.79,4.19,.39,.07,.77,.14,1.13,.21,.36,.07,.74,.13,1.13,.18-.02-.02-.04-.06-.04-.11v-.04l.04-.04c-.66-.85-1.12-1.41-1.39-1.68-.85-.85-1.35-1.37-1.49-1.57v-.08c0-.05,.01-.09,.04-.11,.02,0,.05-.01,.07-.04-.44-.17-.89-.38-1.35-.63-.95-.47-1.85-1-2.7-1.59-.34-.2-.68-.41-1.02-.65-.34-.24-.67-.48-.98-.73-.58-.45-1.11-.96-1.57-1.55-.46-.59-.89-1.2-1.29-1.83-.4-.64-.78-1.29-1.15-1.95-.36-.66-.75-1.29-1.17-1.89-.05-.05-.09-.1-.11-.15-.05,.05-.12,.08-.2,.08-.09,0-.13-.06-.13-.19-.02-.05-.04-.11-.04-.19s-.01-.15-.04-.23c-.1-.1-.17-.19-.22-.26-.41-.45-1.02-1.11-1.82-1.98Zm-2.52,6.21c.05,1.16,.1,2.33,.14,3.51,1.29,1.14,2.64,2.6,4.05,4.37,.44-.38,.73-.65,.88-.8,.17-.15,.35-.23,.55-.23,.27-.05,.51,0,.73,.18,.02,.03,.04,.05,.05,.08,.01,.03,.04,.05,.09,.07l.22,.07,.15,.07c-.85-.85-1.98-2.04-3.39-3.59-1.53-1.69-2.69-2.94-3.46-3.74Zm.22,6.37c1.19,.77,2.1,1.63,2.73,2.58,.17-.15,.34-.3,.51-.44,.17-.14,.33-.27,.47-.4-.97-.97-2.24-2.38-3.79-4.22l.07,2.49Zm1.64,1.72c-.53-.55-1.08-1.03-1.64-1.45,.05,1.03,.07,2.06,.07,3.09l.04-.04s.08,.01,.11,.04c.34,.32,.61,.57,.8,.75,.24-.2,.49-.42,.73-.65,.24-.23,.49-.44,.73-.65-.05-.08-.1-.16-.15-.26-.29-.38-.52-.65-.69-.82Zm-1.57,3.26c.12-.13,.24-.23,.35-.32,.11-.09,.22-.2,.35-.32-.19-.17-.43-.41-.69-.71v1.36Zm1.61-18.69c.34,.4,.69,.8,1.06,1.2-.12-.2-.23-.4-.33-.6-.1-.2-.17-.4-.22-.6h-.51Zm18.9-3.96c.66,.42,1.26,.82,1.82,1.19l.04,.04s.05,0,.07,.02c.02,.01,.05,.02,.07,.02-2.79-3.82-6.56-7.98-11.3-12.48-.71-.65-1.71-1.67-3.03-3.06-1.31-1.39-2.31-2.42-2.99-3.06-.29-.27-.68-.61-1.17-1.01-.32-.25-.58-.46-.8-.63-.05,.23-.1,.45-.15,.68-.05,.23-.1,.45-.15,.68,.02,.28,.04,.55,.04,.81,0,.26,0,.54,0,.81,.1,.15,.21,.3,.33,.45,.22,.02,.44,.04,.66,.05s.45,.03,.69,.05c.12,0,.19,.06,.2,.19,.01,.13-.04,.19-.16,.19-.15,.03-.29,.05-.44,.06-.15,.01-.29,.02-.44,.02,.44,.52,.9,1.03,1.38,1.53,1.53,1.64,3.01,3.13,4.45,4.44,.44,.4,1.11,.94,2.01,1.64,.97,.8,1.66,1.37,2.08,1.71,1.58,1.39,2.67,2.77,3.28,4.12,.02,.05,.04,.09,.04,.11s-.01,.05-.04,.08c1,.42,2.01,.91,3.03,1.48,.07-.13,.17-.19,.29-.19,.05,0,.11,.02,.18,.07Zm-5.87-2.24c.68,.22,1.37,.48,2.08,.77-.63-1.33-1.75-2.69-3.35-4.08-.27-.22-.96-.78-2.08-1.68-.88-.7-1.56-1.28-2.04-1.75-2.53-2.36-4.47-4.35-5.83-5.98h-.4v1.48c.1,.1,.21,.2,.33,.3,.27,.3,.69,.78,1.28,1.46,.56,.65,1,1.13,1.31,1.46,.39,.42,1.66,1.61,3.83,3.54,1.6,1.39,2.77,2.67,3.5,3.85,.02,.02,.04,.06,.04,.11s-.02,.09-.07,.11c.46,.12,.94,.25,1.42,.4Zm-11.16-10.26c-.17-.17-.33-.35-.47-.52v.42c.1,.28,.19,.54,.27,.81,.08,.26,.18,.53,.27,.81,.05,.23,.1,.46,.15,.72,.05,.25,.1,.51,.15,.79,2.92,2.66,5.12,4.58,6.6,5.74,.02,.02,.04,.06,.04,.11,.75,.29,1.55,.59,2.41,.88-.71-1.12-1.82-2.37-3.35-3.74-2.11-1.86-3.37-3.01-3.76-3.43-.29-.32-.68-.75-1.17-1.27-.58-.67-.96-1.11-1.13-1.31Zm7.77-1.55c-3.74-3.43-6.27-5.76-7.58-6.98-.07,.28-.14,.57-.2,.87-.06,.3-.12,.59-.17,.87,.19,.15,.41,.32,.66,.52,.83,.67,1.69,1.47,2.59,2.39,3.31,3.34,5.25,5.28,5.83,5.83,4.13,3.83,7.74,7.87,10.83,12.11v.04c.29,.12,.58,.27,.86,.43,.28,.16,.55,.33,.82,.5,.39,.25,.75,.55,1.08,.89s.63,.71,.89,1.08c.58,.55,1.07,1.1,1.46,1.65,.02-.23,.04-.45,.06-.66,.01-.21,.04-.43,.09-.66v-.19s.01,.04,.04,.04c.05-.05,.12-.06,.22-.04,.1,.02,.16,.09,.18,.19v2.15l.36,.67s.05-.04,.07-.04l.04,.04c1.53,1.19,2.88,2.42,4.05,3.69,2.09,2.27,3.44,3.75,4.05,4.45,.22-.33,.43-.68,.62-1.06-1.77-2.37-4.48-5.47-8.13-9.31-.88-.92-3.95-4.18-9.22-9.79-2.97-3.11-5.32-5.54-7.07-7.28v.49c-.05,.08-.12,.12-.22,.13-.1,.01-.15-.04-.15-.17,0-.15,0-.3-.02-.43-.01-.14-.02-.28-.02-.43-.83-.82-1.49-1.48-2-1.98Zm.29-2.04c-3.43-3.13-5.8-5.6-7.11-7.4-.32,.78-.56,1.54-.73,2.27,.95,.97,2.13,2.07,3.54,3.28,2.82,2.49,4.38,3.87,4.67,4.14,.39,.37,.84,.81,1.35,1.31,0-.33,0-.65-.02-.98-.01-.33-.02-.65-.02-.98-.61-.62-1.17-1.17-1.68-1.64Zm-2.23,11.9c-1.7-1.32-3.48-2.87-5.32-4.66,.05,.25,.08,.43,.11,.53,1.24,1.65,2.98,3.03,5.21,4.13Zm1.17-13.44c-.12,0-.18-.06-.18-.19s.06-.19,.18-.19c.34-.05,.68-.09,1.02-.1,.34-.02,.68-.01,1.02,0-.02-.2-.05-.38-.07-.55-.02-.16-.04-.34-.04-.55-.78-.77-1.9-1.7-3.35-2.79-1.58-1.17-2.71-2.3-3.39-3.4-.27,.28-.49,.54-.66,.8-.17,.23-.33,.51-.47,.83,1.26,1.67,3.88,4.35,7.84,8.03l.84,.86v-.53c-.39-.47-.62-1.01-.69-1.62,.05-.2,.1-.33,.15-.38-.02-.02-.04-.08-.04-.15-.36,0-.73,0-1.09,0-.36,0-.72-.04-1.06-.08Zm.08-8.9c-.66-.6-1.15-1.13-1.49-1.61-.41,.25-.77,.52-1.06,.8l.36,.45c.58,.77,1.06,1.37,1.42,1.8,.95,1.17,1.71,2.11,2.3,2.81-.24-.27-.51-.56-.8-.86-1.19-1.19-1.94-1.99-2.26-2.39-.53-.67-.95-1.21-1.24-1.61-.12,.08-.23,.16-.31,.25-.09,.09-.18,.17-.27,.25-.2,.18-.4,.34-.62,.5s-.43,.33-.62,.53c.87,1.22,2.19,2.48,3.94,3.77,1.02,.79,1.86,1.5,2.52,2.12,0-.18,.01-.35,.04-.53,.02-.17,.07-.35,.15-.53l.22-.57-.07-.15,.11,.11c.07-.15,.15-.3,.24-.46,.08-.15,.18-.3,.27-.45,.02-.23,.04-.45,.04-.68,0-.23,.01-.45,.04-.68-.56-.65-1.52-1.61-2.88-2.88Zm.73,.26c.95,.8,1.68,1.49,2.19,2.09,0-.05,0-.09,.02-.13,.01-.04,.02-.08,.02-.13,0-.15,.07-.24,.2-.27,.13-.03,.24,.02,.31,.15h.04v1.13s.08,.06,.11,.11c.17-.2,.35-.41,.55-.61s.39-.41,.58-.61c-.15-.2-.47-.62-.98-1.27-1.05-1.22-1.63-1.91-1.75-2.06-.58-.7-1.02-1.25-1.31-1.65-.34,.18-.67,.37-.98,.56-.32,.19-.63,.4-.95,.63,.44,.65,1.09,1.33,1.97,2.05Zm3.61,.68c.32,.38,.53,.65,.66,.82,.19-.18,.4-.36,.62-.53,.22-.18,.45-.36,.69-.54-.68-1.15-1.87-2.68-3.57-4.6-.58,.21-1.18,.48-1.79,.81,.41,.52,1.02,1.26,1.82,2.21l.77,.9c.36,.42,.63,.74,.8,.93Zm-2.66,3.5c.12,.1,.22,.2,.29,.3l-.29-.3Zm4.38-7.47c-.61-.67-1.06-1.18-1.35-1.53-.27,.08-.53,.16-.8,.23-.27,.08-.54,.17-.8,.27,1.43,1.52,2.59,3.04,3.46,4.57,.27-.2,.55-.39,.84-.55,.29-.17,.58-.34,.88-.52-.19-.17-.46-.49-.8-.93-.46-.47-.94-.98-1.42-1.53Zm-.52,18.11c-.85-.92-1.63-1.74-2.33-2.47-.02,.33-.04,.64-.06,.94-.01,.3-.02,.6-.02,.91,1.85,1.84,4.42,4.51,7.73,7.99,2.41,2.57,5.48,5.8,9.22,9.71,3.33,3.51,5.88,6.43,7.66,8.75,.15-.28,.29-.55,.42-.81,.13-.27,.27-.54,.42-.82l.11-.23c-1.07-1.17-2.43-2.7-4.08-4.6-2.16-2.44-3.69-4.15-4.59-5.12-1.17-1.25-2.82-2.85-4.96-4.81-2.48-2.26-4.16-3.84-5.03-4.74-.71-.7-2.2-2.27-4.48-4.71Zm2.15-1.57c-.8-.22-1.6-.47-2.41-.75-.8-.28-1.48-.65-2.04-1.09,0,.1,0,.2-.02,.28s-.02,.18-.02,.28c.85,.87,1.86,1.94,3.03,3.21,1.94,2.12,3.43,3.66,4.45,4.63,6.51,6.22,9.77,9.32,9.77,9.29,.9,.97,2.39,2.63,4.48,4.97,1.6,1.82,2.92,3.28,3.94,4.37,.19-.35,.4-.71,.62-1.06,.22-.35,.43-.71,.62-1.06-8.21-8.26-15.69-15.96-22.42-23.08Zm1.25-17.51c-.51-.5-.92-.9-1.24-1.19-.46,.05-.92,.13-1.37,.22-.45,.09-.89,.2-1.33,.33l.22,.26c.61,.67,1.04,1.16,1.31,1.46,.34,.35,.81,.85,1.42,1.49l.66,.71c.44-.23,.87-.42,1.29-.58,.43-.16,.86-.3,1.3-.43-.54-.52-1.29-1.28-2.26-2.28Zm-.13,50.2c-1.05-.09-2.13-.36-3.25-.8v.04l.15,.15h.07s.04,.05,.04,.07c.24,.25,.72,.72,1.42,1.42,.8,.85,1.29,1.5,1.46,1.95,.05,.02,.08,.05,.11,.07,.58,.07,1.18,.12,1.79,.15,.61,.03,1.22,.06,1.82,.08-.66-.6-1.85-1.63-3.57-3.09l-.04-.04Zm2.5-50.04c-.61-.65-1.06-1.16-1.35-1.53-.34,0-.66,.02-.97,.05s-.61,.06-.93,.08c.34,.32,.77,.74,1.28,1.23,.32,.27,.74,.67,1.28,1.19,.41,.4,.74,.72,.98,.97,.27-.05,.52-.1,.75-.14,.23-.04,.48-.06,.75-.06-.49-.45-1.08-1.04-1.79-1.79Zm5.17,23.48c-1.48-1.47-2.7-2.74-3.65-3.81-.36-.2-.72-.4-1.08-.61-.35-.21-.7-.41-1.04-.61-.29-.17-.64-.33-1.04-.48-.4-.15-.84-.29-1.33-.44,6.93,7.3,14.24,14.82,21.95,22.56,.12-.25,.23-.5,.33-.74,.1-.24,.17-.49,.22-.74-.73-.8-2.21-2.27-4.45-4.41-1.97-1.87-3.6-3.61-4.89-5.23-1.02-1.3-2.7-3.13-5.03-5.49Zm-7.2,26.59c1.34,.97,2.53,2,3.57,3.09,.41,0,.83-.02,1.26-.05,.43-.03,.84-.07,1.26-.12-1.7-1.37-2.92-2.42-3.65-3.17-.63,.16-1.29,.24-1.97,.25h-.47Zm2.54-49.96c.61,.62,1.2,1.18,1.79,1.68,.83,0,1.59,.17,2.3,.54,.75,.42,1.45,.87,2.08,1.34-.66-.62-1.15-1.09-1.49-1.42-1.6-1.44-2.81-2.67-3.61-3.7-.17,0-.29,0-.36-.03-.39-.02-.77-.04-1.15-.04-.38,0-.75-.01-1.11,0l.33,.34c.44,.47,.85,.91,1.24,1.31Zm3.48,50.35c-.95-.67-1.52-1.15-1.71-1.45-.49,.31-1.01,.55-1.57,.73,1.6,1.32,2.87,2.37,3.79,3.17,.39-.06,.77-.12,1.13-.18s.73-.15,1.09-.26c-.44-.35-1.35-1.02-2.73-2.01Zm6.18-43.89c3.48,3.08,5.75,5.29,6.82,6.61-.02-.4-.04-.8-.05-1.19-.01-.39-.02-.79-.02-1.19-.63-.62-1.47-1.39-2.52-2.31-1.43-1.27-2.48-2.28-3.14-3.02-2.53-2.84-4.25-4.77-5.18-5.79-.61-.22-1.14-.4-1.59-.53-.45-.13-.76-.22-.93-.27-.27-.05-.55-.09-.84-.14-.29-.05-.58-.09-.88-.14,1.04,1.15,2.37,2.44,3.97,3.88,.39,.37,1.11,1.07,2.15,2.09,.9,.87,1.63,1.54,2.19,2.02Zm6.95,26.9c-.12,0-.18-.05-.16-.15s.05-.18,.13-.23c.12-.05,.25-.08,.38-.1,.13-.01,.26-.03,.38-.06-.97-.97-1.75-1.75-2.33-2.35-.32-.3-.89-.87-1.71-1.72-.71-.72-1.26-1.28-1.68-1.68-2.48-2.41-4.13-4.03-4.96-4.85-.54-.2-1.04-.4-1.51-.61-.47-.21-.92-.41-1.33-.61-.34-.17-.67-.34-1-.5s-.66-.33-1-.5c5.61,6.03,8.38,8.99,8.31,8.89,1.63,1.94,3.34,3.74,5.14,5.38,1.85,1.74,3.13,3.02,3.86,3.85,.02-.12,.04-.24,.06-.34,.01-.1,.02-.21,.02-.34,.02-.58,0-1.22-.07-1.92v.04c-.05-.2-.1-.41-.16-.64-.06-.23-.12-.45-.16-.68-.27-.25-.56-.52-.87-.82-.22,0-.44,0-.66-.01s-.44-.03-.66-.05Zm-12.37,17.17c1.02,.69,1.77,1.28,2.26,1.75,.27-.08,.53-.16,.78-.23,.25-.08,.52-.17,.78-.27-.63-.62-2.08-2.05-4.34-4.29-.12,.1-.23,.19-.33,.27-.1,.08-.2,.15-.29,.23h-.04c-.36,.33-.74,.61-1.13,.84,.46,.4,1.23,.97,2.3,1.71Zm3.47-1.88c-1.12-1.09-1.96-1.98-2.52-2.65-.17,.2-.33,.39-.49,.57-.16,.18-.3,.33-.42,.46-.07,.05-.14,.11-.2,.17-.06,.06-.13,.12-.2,.17,1.29,1.02,2.81,2.44,4.56,4.25,.24-.08,.48-.17,.71-.29,.23-.12,.46-.24,.67-.37-.54-.65-1.24-1.42-2.11-2.32Zm-.47-3.73c-.46-.32-.77-.54-.91-.67,0,.23,0,.45-.02,.66-.01,.21,0,.45,.05,.7,.1,0,.15,.06,.15,.19,0,.03,0,.05-.02,.08-.01,.03-.02,.05-.02,.08-.05,.13-.11,.18-.18,.17-.07-.01-.13-.05-.18-.13-.05-.15-.09-.3-.13-.45s-.08-.31-.13-.49c-.07,.13-.15,.25-.24,.38-.09,.13-.18,.25-.27,.38,.49,.55,1.34,1.43,2.55,2.65,.88,.92,1.59,1.72,2.15,2.39,.68-.41,1.29-.82,1.82-1.23-.61-.65-1.54-1.62-2.81-2.91-.41-.4-1.02-1-1.82-1.79Zm7.02-36.84c.85,.75,1.57,1.43,2.15,2.05v-1.66c-.51-.65-1.24-1.47-2.19-2.47-.97-.97-1.71-1.82-2.22-2.54-.27-.05-.45-.22-.55-.52-.07-.28-.29-.56-.64-.86-.35-.3-.8-.59-1.33-.87-.53-.28-1.11-.55-1.73-.81-.62-.26-1.22-.5-1.81-.72,.95,1.02,2.62,2.84,5.03,5.46,.49,.55,1.58,1.53,3.28,2.95Zm-3.85,36.93c-1.34-1.44-2.35-2.58-3.03-3.4-.07,0-.12,.01-.15,.04-.12,.61-.32,1.2-.58,1.78l-.07,.11c-.02,.1-.06,.23-.11,.38,.12,.07,.28,.18,.47,.33,.24,.22,.88,.83,1.9,1.83,1.6,1.62,2.7,2.74,3.28,3.36,.39-.33,.78-.7,1.17-1.11-.68-.85-1.64-1.96-2.88-3.33Zm-1.49-4.93c-.85-.72-1.5-1.34-1.93-1.87,.27,.67,.4,1.35,.4,2.03v.42l-.07,.3c.44-.06,.88-.06,1.31-.01,.44,.05,.86,.18,1.28,.4,.12,.05,.16,.12,.11,.21-.05,.09-.13,.13-.26,.13-.44-.12-.82-.19-1.15-.2-.33,0-.65,.01-.97,.07,3.09,3.49,5.03,5.68,5.83,6.58,.53-.56,1.02-1.18,1.46-1.86-.61-.65-1.91-2.07-3.9-4.26-.36-.37-1.07-1.02-2.11-1.94Zm3.51-14.93c-.36-.3-.63-.56-.8-.78-.73-.34-1.48-.68-2.24-1-.77-.32-1.5-.63-2.21-.92,1.7,1.59,3.73,3.55,6.09,5.86,1.85,1.87,3.32,3.36,4.41,4.48,.15-.03,.29-.05,.44-.06,.15-.01,.29-.02,.44-.02-.02-.28-.04-.6-.04-.98s-.02-.74-.07-1.09c-2.43-2.31-3.77-3.59-4.01-3.84-1.31-1.04-1.98-1.59-2.01-1.64Zm-.18-13.24c1.73,1.37,3.07,2.67,4.05,3.92h.44s0-.05-.02-.08c-.01-.02-.02-.06-.02-.11-.05-.33-.09-.65-.11-.96-.02-.31-.05-.65-.07-1-.85-1.12-3.33-3.57-7.44-7.36-.29-.22-.63-.52-1.02-.9,.15,.2,.29,.39,.44,.58,.15,.19,.29,.38,.44,.58,.19,.05,.29,.16,.29,.34v.15s.04,.05,.04,.07h.04v.04c.05,.05,.08,.11,.09,.17,.01,.06,.04,.12,.09,.17h.04c.15,.25,.36,.56,.66,.94,.95,1.3,1.41,1.95,1.38,1.95,.24,.43,.47,.93,.69,1.5Zm2.92-8.71c-.61-.6-1.06-1.06-1.35-1.38-.22,.28-.4,.51-.55,.68-.24,.25-.43,.43-.55,.53-.12,.23-.27,.35-.44,.38,.53,.65,1.28,1.45,2.22,2.39,.75,.8,1.39,1.51,1.9,2.13,0-.55,.01-1.1,.04-1.64,.02-.54,.05-1.08,.07-1.6-.39-.45-.84-.95-1.35-1.5Zm-2.7,9.23c.36,.98,.7,2.18,1.02,3.61,.41-.03,.81-.05,1.19-.07s.77-.05,1.19-.11c-.44-.5-.97-1.06-1.6-1.68-.8-.8-1.4-1.38-1.79-1.75Zm5.5,16.69c-.68-.92-1.49-1.76-2.44-2.5-.41-.32-.87-.63-1.37-.91-.5-.28-1-.56-1.51-.83,.56,.47,1.31,1.11,2.26,1.9,.97,.87,2.11,1.98,3.43,3.32-.05-.17-.09-.34-.13-.49-.04-.15-.09-.29-.16-.41l-.07-.08Zm-4.29-29.19l-.04,.08,.07-.08h-.04Zm2.08,3.41c.27,.3,.52,.59,.77,.86,0-.38,0-.76,.02-1.15s.03-.77,.06-1.15c-.71-.67-1.19-1.16-1.46-1.46-.07,.05-.14,.1-.2,.15-.06,.05-.13,.1-.2,.15l-.33,.38c-.15,.18-.28,.34-.4,.49,.39,.37,.97,.95,1.75,1.72Zm.15-3.81c-.12,.2-.24,.37-.36,.49,.32,.2,.64,.5,.98,.9,.02,.05,.05,.09,.07,.11,.02-.25,.04-.5,.04-.74,0-.24,0-.5,0-.77h-.73Zm2.79,34.19c-.05-.15-.07-.26-.07-.34h-.29c.12,.13,.24,.24,.36,.34Z"/><path d="M242.26,342.08c-.11,.04-.19,0-.24-.11-.05-.12-.01-.2,.1-.24,.16-.06,.31-.12,.45-.19,.14-.07,.29-.13,.46-.19-.06-.22-.13-.44-.2-.67-.07-.23-.13-.45-.17-.68-.63-1.62-.99-3.02-1.09-4.22v-.04c-.12-.28-.13-.75-.05-1.4-.39-.79-.77-1.6-1.16-2.43-.39-.82-.7-1.66-.95-2.5-.05-.14-.02-.23,.1-.26,.12-.03,.21-.02,.29,.03,.36,.4,.67,.87,.91,1.39,.24,.53,.49,1.05,.75,1.57,.05,.12,0,.2-.14,.25,.07,.11,.12,.2,.17,.28s.07,.14,.09,.19l.14,.35c.15-.56,.3-1.14,.46-1.74,.06-.18,.11-.36,.16-.54,.05-.18,.11-.35,.17-.51,.53-1.73,1.15-3.17,1.85-4.31,.81-1.35,1.94-2.57,3.39-3.68,.33-.23,.65-.45,.95-.68,1.63-1.38,3.41-2.51,5.36-3.38,1.94-.87,3.98-1.45,6.11-1.73,1.12-.15,2.14-.19,3.06-.13,.92,.06,1.94,.14,3.04,.23,.52,.07,1.04,.12,1.56,.14,.52,.02,1.02,.12,1.5,.29,.03-.06,.06-.12,.1-.16,.04-.04,.07-.09,.1-.16,.01-.03,.02-.08,.03-.13,0-.05,.02-.08,.05-.06,.03-.06,.05-.13,.08-.19,.03-.06,.05-.13,.08-.19,0-.02,0-.05,0-.08l.02-.05c.05-.21,.11-.42,.17-.63,.06-.21,.12-.44,.19-.67-.17,.04-.34,.07-.51,.11-.17,.04-.34,.06-.52,.07-.11,.04-.19,.02-.24-.05-.04-.08-.03-.16,.04-.24v-.04h.02s.04-.07,.09-.09c.02,0,.04,0,.06,0,.02,0,.04,0,.06,0,.19-.04,.39-.1,.59-.18,.21-.08,.4-.14,.6-.18l.06-.14c.02-.09,.05-.19,.11-.32,.24-.65,.49-1.25,.74-1.78,.25-.53,.48-.9,.69-1.08,.06-.1,.14-.13,.24-.09,.07,.05,.12,.09,.16,.1,.03,.01,.07,.08,.12,.2,.04,.09,.01,.17-.07,.23-.08,.06-.16,.06-.23,0-.09,.25-.18,.48-.27,.71-.1,.22-.18,.46-.24,.69,.04-.04,.08-.07,.12-.09,.05-.02,.09-.04,.12-.08,.11-.04,.19-.02,.24,.07,.05,.09,.04,.17-.04,.25-.02,0-.04,.03-.06,.06,.24-.12,.47-.24,.68-.36s.44-.24,.68-.36l-.47-1.52c.01-.17,.09-.25,.22-.24,.02,0,.05-.04,.08-.11,.11,.28,.22,.56,.34,.84,.12,.28,.23,.54,.33,.8h.12l.03-.02c.17,.04,.29,.08,.36,.11l.14,.07s.05,.03,.06,.04c0,.01,.02,.03,.05,.04,.15,.19,.21,.39,.16,.62l.1-.04c.14-.05,.25-.03,.34,.07,.14-.05,.24-.08,.32-.08,0-.16,.07-.21,.25-.17,.03,.02,.07,.02,.11,.02,.04,0,.09,0,.14,0l.14-.05v.04l.08-.02c.1,.04,.16,.1,.18,.17,.03,.07,0,.15-.1,.24l-.1,.04c-.15,.03-.29,.06-.45,.11-.15,.04-.3,.09-.43,.14-.02,.09-.08,.15-.2,.2l-.38,.14c.39,1.06,.98,2.72,1.77,4.97,.4,1.09,.77,2.09,1.13,3,.47,1.22,.91,2.28,1.31,3.17,.56,1.19,1.15,2.54,1.77,4.05l.26,.67,.16-.1c.21-.08,.35-.02,.45,.15l1.17-.31c.13,0,.22,.05,.25,.15,.04,.09,0,.16-.12,.2-.24,.06-.47,.13-.69,.2s-.45,.16-.69,.28l-.34,.13c.04,.23-.03,.37-.19,.43h-.03c-.15,.04-.28,.02-.41-.04,.13,.46,.27,.93,.42,1.39,.15,.47,.35,.91,.59,1.33,.14-.05,.23,0,.29,.13l.05,.14c.03,.07,.02,.15-.02,.25-.02,0-.05,.04-.08,.11-.11,.04-.22,.03-.33-.04-.4-.42-.73-.89-1-1.42s-.51-1.1-.73-1.72l-.24,.09c-.44,.22-.86,.41-1.26,.59-.4,.18-.81,.36-1.24,.54,.7,.6,1.19,1.11,1.46,1.55l.05,.02c.13,0,.19,.07,.17,.2-.02,.13-.09,.18-.24,.15-.13,0-.41-.17-.82-.5-.42-.33-.86-.71-1.35-1.15-.27,.05-.46,.01-.59-.1l-2.19,.7c-.11,.04-.19,0-.24-.11s-.01-.2,.1-.24c.3-.11,.58-.22,.85-.33,.27-.11,.55-.24,.83-.37-.13-.06-.24-.21-.33-.44-.09-.1-.2-.24-.31-.41-.12-.17-.26-.33-.42-.49-.24-.29-.48-.55-.72-.8-.24-.25-.49-.48-.76-.7-.71-.68-1.44-1.4-2.19-2.16-.75-.77-1.55-1.46-2.38-2.09-.83-.63-1.71-1.16-2.63-1.59-.92-.43-1.91-.66-2.96-.67-1.05-.01-2.01,.22-2.9,.7-.88,.48-1.68,1.09-2.37,1.85-.7,.76-1.31,1.61-1.83,2.55-.52,.95-.94,1.85-1.25,2.72-.13,.34-.26,.69-.38,1.03-.13,.34-.19,.7-.17,1.07,.1,.26,.2,.52,.3,.77s.19,.52,.27,.79l.35,.59,.72-.27c.11-.04,.2,0,.26,.11,.06,.11,.03,.19-.09,.23-.11,.04-.23,.08-.34,.13-.11,.04-.22,.1-.33,.16,.12,.17,.22,.34,.31,.51,.09,.17,.2,.34,.31,.51,.41,.2,.99,.31,1.74,.34,.74,.03,1.53,.04,2.35,.01s1.63-.05,2.42-.08c.79-.02,1.43,0,1.93,.09,.6,.13,1.07,.22,1.42,.29,.35,.07,.64,.13,.87,.18,1.86,.09,3.87,.25,6.02,.5,1.17,.05,2.42,.11,3.77,.19,1.35,.08,2.67,.21,3.96,.42,1.29,.2,2.51,.5,3.65,.88,1.14,.38,2.09,.89,2.86,1.51-.21-.4-.4-.82-.58-1.23-.18-.42-.31-.84-.39-1.26-.05-.12-.02-.19,.07-.23s.17-.02,.25,.03c.15,.13,.29,.29,.42,.49,.13,.19,.24,.38,.33,.56,.05,.12,0,.2-.14,.25,.29,.62,.58,1.24,.86,1.87,.28,.63,.57,1.26,.86,1.87,.97,1.03,1.71,2.19,2.21,3.48,.18,.47,.33,.95,.44,1.44,.1,.26,.19,.51,.28,.76,.08,.25,.16,.51,.24,.78,.04,.23,.07,.46,.11,.68,.04,.23,.04,.47,0,.72l.45,1.16c.08,.21,.24,.62,.48,1.23,.24,.61,.48,1.25,.73,1.92,.25,.67,.46,1.29,.62,1.86,.17,.57,.22,.91,.16,1.01-.07,.08-.15,.1-.23,.07s-.12-.11-.11-.22c.02-.09-.04-.31-.18-.68-.14-.36-.3-.76-.48-1.19s-.36-.83-.53-1.21c-.17-.38-.28-.61-.31-.71l-.71-1.83c-.04,.31-.09,.6-.15,.88-.06,.28-.1,.56-.13,.83v.08c-.06,.53-.13,1.05-.22,1.57-.11,1.06-.26,2.12-.45,3.17-.19,1.05-.5,2.08-.91,3.1-.85,1.98-2.04,3.66-3.57,5.05-1.53,1.39-3.24,2.53-5.13,3.42-1.88,.89-3.88,1.57-5.97,2.04-2.1,.47-4.13,.79-6.1,.96-.63,.05-1.3,.1-2.01,.17-.71,.06-1.42,.1-2.15,.11-.72,.02-1.44-.01-2.15-.09-.71-.07-1.39-.21-2.04-.43h-.03c-.26,.56-.53,1.1-.82,1.63-.29,.52-.58,1.05-.87,1.59-.44,1.08-.95,2.12-1.52,3.14-.07,.16-.13,.3-.19,.41-.06,.12-.12,.23-.18,.33h-.03l-.02,.06c.07,.32,.14,.61,.19,.85s.08,.45,.06,.62c.06,.03,.1,.11,.1,.25l-.02,.05s-.03,.02-.02,.05c.11,.36,.23,.72,.36,1.09,.13,.37,.25,.73,.37,1.09,.05,.12,.01,.2-.1,.24-.11,.04-.19,0-.24-.11-.26-.52-.49-1.04-.72-1.54-.22-.51-.44-1.02-.63-1.54l-.04,.1c-.18,.28-.4,.56-.66,.83-.26,.27-.42,.46-.49,.56v.04c0,.09-.06,.15-.14,.2-.09,.05-.15,0-.2-.11-.04-.17-.03-.34,.04-.5,.07-.16,.16-.31,.27-.46,.11-.15,.23-.29,.36-.44,.13-.14,.23-.28,.31-.42,.05-.07,.09-.16,.12-.25,.03-.09,.07-.17,.12-.25-.03-.01-.05-.03-.06-.06-.05-.06-.08-.12-.1-.16l-.05-.14c-.05-.06-.1-.15-.14-.27-.22-.1-.38-.26-.46-.47l-6.92-17.83c-.04-.12-.11-.27-.18-.47-.08-.2-.14-.4-.19-.59-.28-.06-.45-.21-.49-.46-.27,.05-.51,.08-.74,.11-.22,.03-.46,.05-.72,.07-.24-.07-.28-.19-.14-.35v-.04h.02c.06-.06,.15-.11,.26-.15,.07-.03,.14-.01,.21,.04,.21-.05,.41-.11,.6-.16,.19-.06,.38-.11,.57-.15-.1-.04-.17-.12-.21-.24l-.03-.07c-.06-.22,.01-.37,.22-.44l-.03-.07c-.05-.14,0-.25,.14-.33l-.53-1.37c-.05-.12,0-.19,.11-.22,.12-.03,.2,.01,.25,.13l.57,1.48s.09,.09,.14,.15c.26-.15,.49-.15,.7-.02,.28-.08,.59-.18,.94-.31,.42-.13,.79-.24,1.12-.34-.19-.14-.36-.28-.51-.41-.15-.13-.32-.26-.5-.38-.18-.12-.21-.26-.11-.42,.11-.16,.25-.19,.41-.09,.08,.08,.14,.12,.17,.14,.18,.12,.35,.24,.53,.35,.17,.11,.35,.24,.54,.38h.03c.09-.05,.2,0,.32,.11,.05,.06,.09,.11,.14,.15l.07-.03,.16,.02v-.04c-.06-.12-.02-.19,.1-.22,.12-.03,.2,.01,.25,.13,.06,.14,.08,.25,.09,.33,.02,.05,.01,.1-.01,.17,.02,.05,.04,.08,.08,.09,.05,.12,.21,.3,.48,.54,.28,.25,.62,.52,1.04,.82,.42,.3,.86,.62,1.33,.95,.47,.34,.92,.65,1.36,.94,.44,.29,.82,.55,1.14,.76,.32,.22,.54,.37,.65,.46,.44,.32,.85,.63,1.24,.93,.39,.3,.77,.58,1.15,.86,.38,.27,.78,.53,1.2,.78,.42,.25,.89,.47,1.42,.68,1.01,.38,2.08,.65,3.24,.83,1.15,.17,2.3,.23,3.45,.16,1.15-.07,2.25-.27,3.3-.62,1.05-.35,1.98-.86,2.78-1.52,.8-.66,1.42-1.49,1.87-2.49s.65-2.19,.61-3.57c0-.13,0-.25-.02-.35-.01-.1-.03-.22-.06-.34h-.03c-.1,.08-.25,.14-.44,.2-.19,.06-.37,.13-.54,.22,0,.11-.06,.18-.15,.22-.02,0-.11,.01-.27,.02-.11-.01-.18-.06-.21-.14s0-.17,.1-.26c.11-.18,.3-.33,.57-.45,.26-.12,.48-.25,.64-.36,.05-.02,.08-.04,.1-.05,.02-.02,.05-.04,.1-.06-.21-.67-.54-1.3-.99-1.89-.45-.58-.96-1.11-1.53-1.58-.57-.47-1.19-.87-1.84-1.21-.65-.33-1.28-.59-1.9-.76-.32-.09-.73-.18-1.23-.25-.5-.07-1.01-.13-1.55-.17-.54-.04-1.06-.06-1.57-.06-.51,0-.94,.02-1.29,.04-.31,0-.61,.05-.91,.14-.29,.08-.59,.17-.89,.27-.3,.1-.6,.17-.9,.21-.29,.04-.6,.04-.9,0-.56-.09-1.08-.23-1.58-.44-.5-.2-1.03-.33-1.6-.39-.77-.09-1.52-.13-2.28-.12-.75,.01-1.51,.02-2.26,.02s-1.52-.03-2.28-.08c-.76-.05-1.52-.19-2.26-.43-.53-.15-.98-.38-1.37-.7-.38-.31-.73-.68-1.05-1.1,.25,.66,.5,1.3,.73,1.94,.23,.64,.47,1.29,.7,1.95,.05,.12,.01,.2-.1,.24-.11,.04-.19,0-.24-.11-.42-1.02-.84-2.04-1.25-3.06-.41-1.02-.82-2.03-1.25-3.06-.03-.02-.06-.06-.09-.13-.42-.41-.81-.84-1.17-1.3-.06-.08-.13-.15-.2-.21-.44-.4-.82-.85-1.13-1.35-.31-.5-.57-1.02-.78-1.56-.17,.04-.33,.07-.49,.1-.16,.03-.32,.07-.49,.1Zm10.57-4.82c-4.36-1.76-7.48-3.25-9.37-4.48-.01,.84,.03,1.63,.14,2.36,1.24,.58,2.75,1.2,4.52,1.86,3.55,1.36,5.52,2.12,5.89,2.28,.5,.22,1.08,.47,1.74,.76-.12-.3-.24-.61-.37-.91-.13-.3-.25-.6-.37-.91-.8-.37-1.52-.69-2.17-.96Zm-1.55-1.07c-.11,.04-.19,0-.24-.11s-.01-.2,.1-.24c.3-.17,.61-.31,.92-.44,.31-.13,.63-.24,.96-.34-.1-.18-.18-.34-.27-.49-.08-.14-.16-.31-.23-.5-1.01-.45-2.4-.94-4.17-1.47-1.91-.55-3.38-1.22-4.42-2.02-.15,.35-.26,.67-.33,.97-.08,.27-.12,.58-.14,.94,1.79,1.13,5.22,2.74,10.28,4.83l1.1,.52-.19-.49c-.54-.31-.95-.73-1.24-1.27-.03-.2-.03-.34,0-.4-.03-.01-.06-.06-.09-.13-.34,.13-.69,.25-1.03,.36-.35,.12-.69,.21-1.03,.28Zm2.01,3.07c-4.77-1.93-7.98-3.24-9.66-3.93,.03,.28,.07,.58,.13,.88,.05,.3,.1,.59,.16,.87,.24,.07,.51,.16,.81,.26,1.02,.34,2.12,.79,3.3,1.35,4.32,1.99,6.85,3.14,7.6,3.45,5.27,2.17,10.13,4.71,14.57,7.61v.04c.33,.02,.65,.05,.97,.11,.32,.06,.64,.12,.95,.19,.46,.1,.9,.25,1.34,.47,.43,.21,.85,.45,1.23,.71,.75,.31,1.4,.66,1.97,1.04-.06-.22-.12-.43-.19-.63-.07-.2-.12-.42-.15-.65l-.07-.18s.02,.03,.05,.02c.03-.06,.09-.1,.19-.11,.1-.01,.18,.03,.24,.11l.78,2,.59,.51s.03-.05,.06-.06l.05,.02c1.87,.59,3.59,1.28,5.15,2.07,2.79,1.4,4.59,2.33,5.42,2.77,.09-.38,.15-.78,.2-1.2-2.53-1.61-6.2-3.58-11.02-5.92-1.16-.56-5.23-2.56-12.22-6-3.92-1.89-7.01-3.36-9.29-4.39l.18,.46c-.02,.09-.07,.16-.16,.2-.09,.05-.15,.01-.2-.11-.05-.14-.11-.27-.17-.4-.06-.12-.12-.26-.17-.4-1.08-.49-1.94-.87-2.6-1.17Zm13.8,9.96c.77,.17,1.48,.33,2.15,.49l.05,.02s.05-.01,.08,0c.03,0,.05,0,.07,0-4.01-2.61-9.06-5.21-15.15-7.8-.9-.36-2.22-.97-3.96-1.83-1.74-.86-3.05-1.47-3.92-1.84-.37-.16-.86-.34-1.46-.54-.39-.12-.71-.23-.98-.32,.04,.23,.07,.46,.11,.68,.04,.23,.07,.46,.11,.68,.12,.25,.23,.5,.33,.74,.1,.25,.19,.5,.29,.76,.15,.11,.3,.21,.47,.31,.21-.05,.43-.11,.64-.18,.21-.06,.43-.13,.67-.19,.11-.04,.2,0,.26,.11,.06,.11,.03,.19-.09,.23-.13,.08-.26,.14-.39,.21-.13,.06-.27,.12-.4,.17,.6,.34,1.22,.66,1.86,.96,2.04,1.01,3.97,1.89,5.79,2.63,.56,.22,1.38,.5,2.48,.85,1.2,.41,2.06,.71,2.58,.89,1.99,.76,3.52,1.67,4.58,2.72,.04,.04,.07,.07,.07,.09,0,.02,0,.05,0,.08,1.09,.05,2.22,.17,3.38,.35,.02-.14,.09-.24,.21-.28,.05-.02,.11-.01,.2,0Zm-18.97-21.35c-.83-.33-1.5-.66-1.99-.99-.3,.38-.53,.75-.7,1.11l.51,.29c.83,.52,1.49,.92,1.99,1.19,1.32,.77,2.38,1.38,3.18,1.84-.33-.17-.68-.35-1.07-.53-1.55-.71-2.55-1.2-2.99-1.46-.75-.45-1.33-.81-1.75-1.08-.09,.11-.15,.23-.2,.34-.05,.11-.1,.22-.17,.32-.12,.23-.25,.46-.4,.67-.15,.22-.28,.45-.39,.71,1.27,.84,2.96,1.57,5.07,2.18,1.25,.39,2.29,.77,3.14,1.13-.06-.16-.12-.33-.16-.5s-.06-.35-.05-.54v-.6l-.12-.12,.14,.07c.01-.17,.03-.33,.06-.5,.03-.17,.06-.34,.09-.52-.06-.22-.13-.44-.21-.65-.08-.21-.15-.43-.21-.65-.76-.42-2.01-.98-3.75-1.7Zm12.63,21.26c.72-.03,1.46-.02,2.23,.01-1.08-1.02-2.62-1.91-4.63-2.66-.33-.12-1.19-.4-2.56-.86-1.07-.35-1.93-.67-2.56-.94-3.23-1.34-5.78-2.54-7.65-3.59l-.38,.14,.53,1.37c.13,.06,.27,.12,.42,.17,.36,.19,.94,.5,1.73,.93,.76,.42,1.35,.72,1.76,.91,.52,.26,2.15,.93,4.89,2,2.01,.75,3.58,1.55,4.69,2.4,.03,.02,.06,.05,.08,.09,.02,.05,0,.09-.03,.13,.48-.04,.97-.08,1.48-.11Zm-14.21-5.78c-.22-.1-.43-.21-.64-.33l.15,.39c.19,.22,.37,.44,.55,.66s.36,.44,.55,.66c.13,.19,.26,.4,.4,.62,.14,.22,.28,.45,.42,.69,3.71,1.49,6.47,2.53,8.29,3.11,.03,.01,.06,.04,.08,.09,.82,.02,1.68,.02,2.58,0-1.07-.81-2.57-1.59-4.51-2.35-2.67-1.02-4.26-1.66-4.78-1.92-.39-.2-.91-.47-1.56-.79-.79-.43-1.31-.71-1.54-.84Zm2.36-15.49c1.18,.42,2.12,.82,2.81,1.21-.02-.05-.03-.09-.03-.13,0-.04-.01-.08-.03-.13-.05-.14-.02-.25,.09-.32,.12-.07,.23-.06,.34,.03h.03l.41,1.04c.05,0,.1,.03,.14,.07,.09-.25,.18-.5,.29-.75,.11-.25,.22-.51,.33-.77-.21-.14-.67-.42-1.39-.85-1.43-.78-2.22-1.22-2.39-1.32-.8-.45-1.41-.82-1.83-1.09-.26,.28-.5,.57-.73,.85-.23,.29-.45,.59-.66,.91,.65,.46,1.51,.87,2.6,1.25Zm3.64-.59c.43,.24,.74,.42,.92,.54,.12-.23,.25-.47,.39-.71,.14-.24,.29-.48,.46-.73-1.06-.84-2.73-1.87-5.03-3.08-.47,.39-.94,.85-1.39,1.36,.58,.35,1.42,.83,2.51,1.44l1.04,.58c.5,.27,.86,.47,1.09,.6Zm2.5,21.85c-2.08-.65-4.31-1.5-6.7-2.54,.14,.22,.23,.37,.29,.46,1.76,1.11,3.9,1.81,6.4,2.08Zm-3.3,11.05c-.48-.22-.92-.45-1.32-.68-.25,.09-.5,.2-.76,.3-.26,.11-.52,.19-.79,.23,.02,.13,.06,.26,.12,.4l.16,.42,.04,.11c1.34,.71,3.1,1.51,5.28,2.42,2.9,1.23,4.94,2.15,6.12,2.75,.68,.34,2.57,1.15,5.68,2.43,2.12,.9,3.82,1.77,5.08,2.62,.39-.07,.77-.13,1.14-.18,.37-.06,.75-.13,1.13-.22-.03-.01-.06-.05-.08-.09v-.08c-.92-.57-1.56-.93-1.91-1.1-1.11-.5-1.77-.82-1.97-.96l-.03-.07s-.02-.09,0-.12c.02,0,.04-.03,.05-.06-.47-.01-.97-.05-1.5-.13-1.06-.11-2.1-.3-3.12-.57-.39-.07-.79-.16-1.2-.26-.41-.1-.8-.22-1.19-.34-.71-.22-1.39-.52-2.04-.91-.65-.39-1.27-.81-1.88-1.27-.61-.46-1.2-.93-1.79-1.43-.58-.49-1.18-.95-1.78-1.37-.06-.03-.12-.06-.16-.1-.03,.06-.08,.11-.16,.14-.08,.03-.14-.01-.19-.13-.04-.04-.08-.09-.1-.16-.03-.07-.07-.14-.12-.2-.13-.06-.23-.12-.3-.17-.55-.28-1.36-.69-2.43-1.23Zm6.59,7.61c1.2,.68,4.22,1.97,9.05,3.87,.2-.02,.38-.04,.54-.06,.16-.02,.33-.04,.51-.05,.41-.02,.82-.06,1.23-.11,.41-.06,.82-.11,1.25-.16-1.3-.8-3-1.66-5.1-2.57-3.14-1.3-5.1-2.16-5.9-2.59-1.05-.55-3-1.42-5.86-2.61-1.89-.77-3.46-1.48-4.69-2.12l.82,2.11c1.74,1.07,3.02,1.79,3.81,2.16,2.73,1.32,4.18,2.03,4.35,2.12Zm-5.61-44.8c-.82-.42-1.42-.74-1.82-.97-.22,.16-.45,.33-.67,.49-.22,.16-.44,.34-.66,.53,1.9,.93,3.54,1.96,4.91,3.08,.18-.28,.37-.55,.59-.8,.21-.25,.43-.51,.64-.78-.25-.1-.61-.29-1.09-.6-.61-.28-1.24-.6-1.89-.95Zm.9,42.85c-1.48-.71-2.56-1.33-3.26-1.85l.18,.46c.31,.66,.61,1.34,.91,2.04h.03s.05-.02,.08,0c.1,.07,.22,.12,.33,.16h.03v.02c1.12,.5,2.6,1.22,4.45,2.17,2.15,1.11,3.74,1.88,4.78,2.33,.05,0,.09,.03,.11,.08,0,.02,0,.07-.03,.13,.26,.06,.55,.12,.88,.15,.26,.06,.53,.12,.81,.18,.56,.03,1.16,.04,1.79,.04,.64,0,1.25-.02,1.85-.02-.41-.17-.87-.36-1.39-.57-1.09-.4-1.95-.72-2.57-.98-1.14-.46-2.7-1.21-4.67-2.25-.55-.28-1.27-.62-2.17-1.04-1.15-.54-1.87-.89-2.17-1.04Zm-2.87-6.5c.46,.26,.94,.51,1.43,.76-.19-.15-.36-.29-.53-.45-.16-.15-.3-.31-.42-.49l-.48,.18Zm4.33-38.24c-.66-.29-1.19-.52-1.6-.69-.41,.21-.82,.43-1.21,.67-.39,.24-.77,.49-1.13,.76l.3,.17c.81,.42,1.4,.73,1.76,.91,.45,.21,1.07,.51,1.88,.91l.87,.44c.33-.36,.66-.69,1.01-.98,.34-.29,.7-.57,1.06-.84-.69-.31-1.68-.76-2.95-1.36Zm-3.77,10.34c.15,.05,.28,.11,.38,.18l-.38-.18Zm.31,35.38c.46,1.06,.93,2.13,1.41,3.22,1.63,.63,3.42,1.53,5.39,2.7,.27-.5,.45-.85,.53-1.04,.1-.2,.25-.33,.43-.4,.23-.14,.48-.17,.75-.08,.03,.02,.06,.03,.08,.05,.02,.02,.06,.03,.11,.04h.4c-1.11-.49-2.6-1.22-4.49-2.18-2.05-1.06-3.59-1.83-4.61-2.31Zm2.51,5.87c1.4,.31,2.57,.8,3.51,1.47,.1-.2,.21-.39,.32-.58,.11-.19,.21-.37,.3-.54-1.27-.57-2.96-1.46-5.1-2.65l.97,2.3Zm3.24-52.24c-.81-.4-1.41-.72-1.82-.97-.32,.12-.62,.24-.89,.37-.28,.13-.56,.26-.84,.39,.44,.19,.99,.42,1.65,.71,.4,.15,.94,.37,1.63,.68,.53,.23,.96,.42,1.28,.57,.23-.14,.45-.27,.65-.38,.2-.12,.43-.22,.68-.31-.62-.25-1.4-.61-2.33-1.06Zm-1.07,53.29c-.7-.33-1.39-.6-2.07-.8,.42,.95,.81,1.9,1.19,2.86l.02-.05s.08-.02,.12,0c.44,.19,.78,.33,1.02,.42,.15-.27,.31-.56,.45-.85,.15-.3,.3-.58,.45-.85-.07-.05-.15-.12-.23-.2-.41-.25-.73-.43-.95-.53Zm3.95-35.89c-.83,.07-1.68,.11-2.54,.12s-1.63-.1-2.32-.33c.04,.09,.06,.18,.09,.27,.02,.09,.05,.18,.09,.27,1.12,.52,2.45,1.18,4.01,1.97,2.6,1.31,4.55,2.25,5.86,2.81,8.38,3.59,12.57,5.37,12.56,5.35,1.2,.6,3.2,1.64,6.02,3.11,2.17,1.15,3.93,2.07,5.29,2.74,.05-.4,.12-.8,.2-1.2s.14-.8,.2-1.2c-10.72-4.92-20.54-9.55-29.45-13.91Zm-4.25,39.46c.07-.16,.14-.3,.21-.42,.07-.12,.14-.26,.21-.42-.25-.1-.55-.24-.91-.43l.49,1.27Zm2.79-37.26c-1.13-.57-2.16-1.07-3.09-1.51,.1,.31,.19,.61,.29,.9,.1,.29,.2,.57,.31,.85,2.4,1.09,5.79,2.7,10.17,4.83,3.19,1.58,7.26,3.55,12.2,5.92,4.4,2.14,7.86,4,10.37,5.56,.04-.31,.07-.61,.1-.9,.03-.29,.06-.59,.1-.9l.02-.25c-1.43-.73-3.27-1.69-5.51-2.9-2.92-1.54-4.98-2.61-6.18-3.21-1.55-.76-3.69-1.7-6.41-2.81-3.15-1.27-5.3-2.17-6.45-2.71-.92-.41-2.89-1.37-5.92-2.87Zm-.9-19.67c.8,.37,1.56,.69,2.29,.96,.77-.29,1.56-.38,2.36-.27,.86,.14,1.67,.32,2.44,.54-.84-.36-1.48-.63-1.92-.82-2.03-.8-3.61-1.54-4.74-2.22-.16,.06-.28,.09-.36,.09-.37,.11-.74,.23-1.1,.35-.36,.12-.71,.24-1.05,.37l.43,.2c.58,.29,1.13,.56,1.64,.8Zm11.43,2.75c4.39,1.69,7.32,2.98,8.81,3.85-.17-.37-.33-.73-.48-1.09s-.3-.73-.45-1.1c-.82-.36-1.89-.8-3.2-1.3-1.81-.7-3.16-1.28-4.04-1.75-3.41-1.79-5.73-3-6.97-3.64-.65,0-1.21,.02-1.68,.04-.47,.03-.8,.05-.97,.06-.27,.05-.55,.1-.84,.15-.29,.05-.58,.11-.88,.17,1.4,.71,3.11,1.47,5.14,2.27,.5,.22,1.43,.62,2.78,1.22,1.16,.51,2.09,.89,2.79,1.13Zm1.42,17.46c-1.93-.87-3.53-1.64-4.81-2.31-.41-.06-.83-.13-1.23-.21-.41-.08-.81-.15-1.2-.22-.34-.06-.72-.09-1.15-.09-.43,0-.9,.01-1.41,.04,9.16,4.45,18.77,8.98,28.82,13.58,.02-.28,.04-.54,.04-.8,0-.26-.02-.51-.06-.76-.97-.5-2.9-1.36-5.78-2.6-2.53-1.07-4.69-2.14-6.49-3.22-1.43-.86-3.67-2-6.72-3.41Zm3.49-17.52c1.07,.41,1.99,.8,2.77,1.18l-.6-1.55c-.71-.43-1.7-.95-2.95-1.56-1.27-.58-2.27-1.11-3.01-1.61-.27,.05-.5-.05-.7-.3-.17-.23-.47-.43-.91-.58-.44-.16-.96-.28-1.57-.36-.61-.08-1.25-.14-1.92-.17-.68-.03-1.33-.05-1.96-.06,1.26,.63,3.5,1.76,6.71,3.38,.66,.35,2.04,.89,4.15,1.63Zm11.38,22.77c-.11,.04-.18,.01-.21-.08s-.01-.18,.04-.26c.1-.09,.2-.16,.32-.22,.12-.06,.23-.12,.34-.19-1.27-.57-2.28-1.04-3.05-1.4-.41-.17-1.15-.51-2.23-1.02-.92-.43-1.65-.76-2.19-1-3.21-1.41-5.35-2.36-6.42-2.84-.57,0-1.12-.02-1.64-.05-.52-.03-1.01-.07-1.47-.12-.38-.04-.76-.09-1.12-.12-.37-.04-.74-.08-1.12-.12,7.47,3.71,11.15,5.54,11.04,5.47,2.24,1.26,4.5,2.35,6.78,3.27,2.37,1,4.04,1.75,5.03,2.27-.02-.13-.05-.24-.07-.34-.03-.1-.06-.2-.11-.32-.19-.55-.44-1.14-.76-1.77v.04c-.11-.17-.23-.35-.37-.54-.14-.19-.27-.38-.4-.58-.34-.14-.72-.3-1.12-.47-.21,.08-.41,.15-.62,.21-.21,.06-.42,.12-.64,.18Zm-11.88-18.52c2.12,.69,3.86,1.45,5.23,2.28l.41-.15s-.02-.04-.04-.06-.04-.05-.06-.1c-.16-.29-.31-.57-.45-.86-.14-.28-.28-.59-.43-.91-1.21-.76-4.43-2.2-9.66-4.33-.35-.11-.78-.27-1.28-.49,.21,.14,.42,.27,.62,.39,.2,.13,.41,.26,.62,.39,.2-.02,.33,.05,.4,.21l.05,.14s.05,.03,.06,.06h.03v.02c.08,.03,.13,.07,.16,.12,.03,.06,.08,.1,.15,.13h.03c.23,.17,.55,.39,.96,.64,1.36,.89,2.03,1.34,2.01,1.35,.38,.31,.78,.7,1.2,1.17Zm-.59,40.63c-1.02,.27-2.13,.39-3.34,.36v.04l.2,.09,.07-.03s.05,.03,.06,.06c.32,.15,.94,.43,1.85,.84,1.06,.52,1.75,.96,2.08,1.32,.05,0,.1,.02,.13,.03,.57-.13,1.15-.29,1.74-.47,.58-.18,1.16-.36,1.74-.55-.83-.33-2.33-.89-4.48-1.67l-.05-.02Zm.18-49.74c-.79-.35-1.38-.63-1.77-.83-.1,.33-.19,.61-.27,.82-.14,.32-.24,.55-.32,.68-.03,.25-.12,.42-.27,.5,.74,.42,1.72,.91,2.96,1.47,1,.49,1.85,.93,2.56,1.34-.2-.52-.39-1.03-.56-1.54-.17-.51-.34-1.02-.51-1.52-.53-.29-1.13-.6-1.81-.94Zm-2.59-2.54v.08l.03-.1h-.03Zm3.19,2.49c.36,.19,.7,.37,1.03,.54-.14-.35-.27-.71-.4-1.08-.13-.37-.25-.73-.36-1.09-.91-.39-1.54-.67-1.9-.86-.05,.07-.09,.14-.13,.21-.04,.07-.08,.14-.13,.21l-.17,.47c-.07,.22-.14,.41-.2,.6,.5,.22,1.26,.55,2.27,1.01Zm-1.24-3.6c-.04,.23-.1,.42-.16,.58,.37,.08,.79,.25,1.25,.5,.04,.04,.08,.07,.11,.08-.07-.24-.15-.48-.23-.7-.09-.22-.18-.46-.28-.72l-.68,.25Zm6.01,25.05c-.45-.15-.8-.31-1.04-.46-.81-.07-1.63-.13-2.47-.17-.84-.04-1.64-.07-2.41-.11,2.18,.91,4.79,2.04,7.85,3.4,2.41,1.11,4.34,2.01,5.77,2.68,.13-.07,.26-.14,.39-.21,.13-.06,.27-.12,.4-.17-.12-.25-.25-.55-.39-.9-.14-.35-.29-.68-.46-.99-3.12-1.33-4.85-2.07-5.17-2.22-1.61-.53-2.44-.81-2.48-.85Zm-5.09,28.22c1.61,.45,3.1,1.01,4.48,1.67,.39-.14,.78-.3,1.17-.47,.39-.17,.77-.35,1.14-.54-2.1-.7-3.62-1.27-4.58-1.72-.54,.36-1.13,.66-1.76,.9l-.44,.17Zm.52-40.08c.7,.79,1.45,1.79,2.27,3.02,.38-.17,.74-.32,1.09-.47,.35-.14,.71-.31,1.08-.5-.59-.32-1.3-.66-2.12-1.02-1.04-.47-1.82-.81-2.32-1.03Zm5.28,38.4c-1.13-.3-1.85-.56-2.14-.77-.35,.45-.75,.86-1.21,1.22,1.99,.68,3.56,1.24,4.71,1.67,.35-.18,.68-.37,1-.55,.32-.19,.63-.39,.94-.61-.54-.18-1.64-.49-3.3-.95Zm.79-.09c1.21,.3,2.13,.59,2.76,.86,.22-.16,.44-.33,.65-.48,.21-.16,.42-.33,.64-.52-.82-.37-2.7-1.21-5.64-2.53-.08,.14-.15,.26-.21,.36-.06,.1-.13,.21-.19,.31h-.03c-.22,.44-.48,.83-.76,1.18,.58,.21,1.51,.49,2.78,.82Zm.61-11.33c-1.06-.38-1.89-.75-2.49-1.08,.5,.54,.87,1.13,1.11,1.76l.15,.39,.04,.31c.39-.2,.8-.35,1.23-.46,.43-.1,.88-.12,1.35-.06,.13,0,.19,.06,.18,.16-.01,.1-.08,.17-.19,.21-.46,.04-.84,.11-1.15,.21-.31,.1-.61,.23-.88,.39,4.17,2.21,6.79,3.59,7.87,4.15,.3-.7,.53-1.45,.7-2.23-.81-.4-2.54-1.28-5.21-2.65-.48-.22-1.38-.59-2.69-1.09Zm1.97,8.4c-1.45-.64-2.56-1.18-3.33-1.62-.09,.25-.17,.48-.26,.7-.08,.22-.16,.41-.23,.57-.05,.07-.09,.15-.13,.23-.03,.08-.08,.16-.13,.23,1.58,.51,3.52,1.32,5.83,2.42,.2-.15,.39-.33,.56-.51,.18-.19,.34-.38,.5-.57-.74-.42-1.68-.9-2.83-1.44Zm2.58-21.69c-.97-.63-2.04-1.13-3.2-1.5-.51-.16-1.04-.29-1.62-.38-.57-.1-1.15-.18-1.73-.26,.7,.25,1.64,.58,2.81,1,1.23,.48,2.71,1.13,4.43,1.93-.11-.15-.21-.29-.3-.41s-.19-.24-.3-.33l-.1-.04Zm-4.37,18.37c-.55-.14-.92-.25-1.1-.32,.08,.21,.16,.42,.22,.62,.07,.2,.17,.42,.3,.63,.09-.03,.16,0,.21,.12,0,.02,.01,.05,.01,.08,0,.03,0,.05,0,.08,0,.13-.04,.21-.11,.22-.07,.01-.15,0-.22-.06-.1-.12-.19-.25-.28-.38-.09-.13-.19-.26-.3-.41-.02,.14-.05,.29-.09,.43-.03,.15-.07,.3-.12,.45,.66,.35,1.78,.88,3.36,1.61,1.16,.56,2.12,1.06,2.89,1.5,.49-.61,.92-1.2,1.27-1.76-.81-.4-2.04-.98-3.7-1.76-.53-.23-1.32-.58-2.36-1.05Zm3.01-1c-1.78-.89-3.14-1.61-4.08-2.14-.07,.03-.11,.05-.12,.09,.1,.6,.14,1.22,.09,1.85l-.03,.13c.01,.1,.02,.23,.03,.39,.14,.03,.33,.08,.57,.15,.31,.13,1.12,.48,2.45,1.06,2.1,.96,3.53,1.64,4.3,2.02,.25-.44,.48-.92,.7-1.43-.95-.56-2.25-1.27-3.91-2.12Zm3.71-13.33c-.1-.12-.16-.22-.19-.29l-.27,.1c.16,.08,.31,.14,.46,.19Z"/></g><g><path class="c" d="M148.83,183.5c4.62,7.45-7.3,10.58-8.19,14.16,5.96,2.23,12.81,7.6,11.92,12.96-2.09,11.62-10.28,14.6-10.13,25.63,.15,5.21,17.88,5.96,14.15,15.2-2.83,6.71-26.37-5.21-31.14-13.71-7.3-13.41-.75-21.46,4.32-29.2,2.68-4.32-20.86-8.64-15.65-16.69,3.43-5.22,17.43-8.34,12.37-15.79-8.64-12.81-.75-20.56,10.73-26.22,4.77-2.38,9.39-2.68,12.96-3.28,9.24-1.64,18.92,11.77,13.86,15.2-3.87,2.53-23.84,7.75-15.2,21.75Z"/><path class="c" d="M207.09,249.21c1.34,12.81-10.73,5.51-13.86-7.75-4.47-19.37,20.41-81.35,35.02-97.15,7-7.75,19.67,16.54,12.67,24.14-10.73,11.62-35.91,62.28-33.82,80.76Z"/><path class="c" d="M303.79,225.37c8.79,12.81,.75,20.56-10.73,26.22-4.77,2.23-9.39,2.68-12.96,3.28-9.24,1.49-19.07-11.92-13.86-15.35,3.87-2.53,23.84-7.6,15.2-21.75-4.62-7.45,7.15-10.58,8.2-14.01-5.96-2.23-12.81-7.75-11.92-12.96,2.09-11.62,10.28-14.75,10.13-25.63-.15-5.36-17.88-5.96-14.16-15.2,2.83-6.85,26.37,5.07,30.99,13.56,7.45,13.56,.89,21.61-4.17,29.35-2.68,4.17,21.01,8.49,15.65,16.69-3.28,5.07-17.43,8.19-12.37,15.79Z"/></g></svg>