<?xml version="1.0" encoding="UTF-8"?><svg id="a" xmlns="http://www.w3.org/2000/svg" viewBox="0 0 430 430"><defs><style>.b{fill:#f4e6ea;}.c{fill:#fff;}.d{fill:#e23f5f;}</style></defs><path class="c" d="M215.17,109.48c63.14,0,114.5,48.45,114.5,108s-51.36,108-114.5,108-114.5-48.45-114.5-108,51.37-108,114.5-108m0-11c-69.31,0-125.5,53.28-125.5,119s56.19,119,125.5,119,125.5-53.28,125.5-119-56.18-119-125.5-119h0Z"/><circle class="b" cx="215" cy="216" r="200"/><g><path d="M163.49,336.88c.06-.11,.14-.14,.22-.09,.08,.05,.12,.14,.09,.27-.52,.98-1.02,1.93-1.49,2.86-.47,.93-.95,1.87-1.45,2.8-.08,.13-.12,.23-.14,.31-.05,.03-.07,.05-.06,.07,0,.02-.02,.04-.06,.07-.3,.55-.62,1.08-.97,1.6-.35,.51-.71,1.02-1.09,1.52-1.67,2.81-3.3,5.64-4.91,8.49-.23,.39-.48,.82-.76,1.28-.28,.46-.55,.94-.83,1.44-.28,.49-.52,.99-.74,1.49-.21,.5-.35,.99-.41,1.48-.05,.32,0,.69,.18,1.1,.16,.41,.38,.83,.64,1.25,.26,.42,.54,.84,.84,1.26,.3,.42,.56,.79,.76,1.11,.12-.19,.24-.39,.37-.59,.13-.2,.27-.4,.42-.6,.06-.11,.15-.13,.25-.06,.1,.07,.12,.16,.05,.27-.1,.17-.22,.38-.35,.62-.13,.25-.27,.51-.41,.81l.03,.02c.13,.16,.16,.41,.1,.75l-.15,.26c.1,.21,.21,.41,.33,.62,.11,.21,.24,.41,.38,.61,.02,.16-.03,.26-.14,.31l-.1,.03c-.18,.01-.25-.06-.21-.21-.12-.13-.24-.24-.34-.35-.11-.1-.21-.23-.29-.36l-.38,.65c.61,.41,1.05,.86,1.31,1.36,.08,.1,.08,.18-.01,.23-.09,.05-.18,.05-.29-.01-.08-.1-.25-.25-.5-.44-.26-.19-.54-.38-.84-.59l-.33,.55c-.18,.25-.4,.39-.68,.43-.14,.24-.29,.47-.44,.71-.15,.23-.31,.46-.47,.69-.06,.11-.15,.13-.25,.07-.11-.06-.13-.15-.06-.25l.71-1.42c-.14-.14-.21-.32-.19-.54-.11-.06-.19-.1-.26-.13-.07-.03-.12-.04-.14-.06-.95-.4-1.87-.86-2.75-1.4-.89-.53-1.77-1.05-2.66-1.56-2-1.11-4-2.2-5.99-3.27-2-1.07-3.99-2.16-5.99-3.27-.06-.04-.1-.07-.11-.1-.14,.18-.26,.37-.38,.57-.12,.19-.24,.38-.38,.56l-.02,.03h-.05s-.04,.05-.07,.06h-.05c-.14,.02-.2-.06-.16-.21l.04-.07c.12-.25,.25-.5,.39-.76,.14-.26,.28-.5,.42-.74-.04-.17,0-.32,.14-.44l.04-.06c.15-.29,.25-.49,.3-.59,.06-.1,.1-.19,.14-.27,.03-.08,.07-.19,.11-.33,.04-.14,.1-.38,.2-.73,.09-.3,.26-.46,.5-.49-.17-.1-.34-.19-.52-.27-.18-.09-.35-.17-.54-.24-.07,.08-.16,.08-.25,.03-.09-.05-.11-.14-.05-.24,.04-.06,.05-.11,.05-.15,.02-.04,.11-.07,.25-.07,.51,0,1.01,.17,1.52,.52,.03-.04,.07-.07,.14-.09,.2-.29,.4-.6,.59-.92,.19-.32,.4-.64,.61-.96,.06-.11,.15-.13,.25-.05,.1,.07,.12,.16,.05,.27-.17,.28-.33,.55-.48,.81-.15,.26-.3,.54-.45,.83,.04,.02,.08,.04,.1,.04,.03,0,.06,.01,.1,.04,.04,.02,.18,.1,.41,.23,.23,.13,.51,.23,.82,.29,.31,.07,.64,.05,.98-.05,.34-.09,.67-.36,.98-.79,.03-.04,.06-.08,.11-.11,.05-.03,.09-.06,.14-.09,.12-.11,.22-.18,.3-.22,.2-.24,.46-.61,.8-1.13,.33-.52,.69-1.08,1.05-1.7s.72-1.22,1.06-1.83c.34-.6,.63-1.09,.86-1.48,.83-1.44,1.65-2.85,2.47-4.24,.82-1.38,1.6-2.82,2.34-4.31,.47-.98,.83-1.88,1.08-2.71,.25-.83,.24-1.43-.04-1.83-.22-.3-.47-.62-.74-.97-.28-.35-.57-.67-.88-.96-.19-.16-.4-.33-.64-.5-.11-.09-.24-.17-.39-.24-.14-.07-.29-.13-.42-.18-.24-.08-.49-.13-.76-.15-.27-.02-.54-.07-.81-.14-.69-.16-1.28-.23-1.75-.2-.47,.03-1.06,.27-1.77,.7-1.05,.62-1.98,1.45-2.82,2.5-.83,1.04-1.6,2.17-2.32,3.37-.71,1.2-1.38,2.41-1.99,3.64-.62,1.23-1.22,2.35-1.83,3.36-.18,.3-.38,.65-.59,1.03-.21,.39-.45,.77-.7,1.14-.25,.38-.51,.75-.79,1.11-.27,.37-.56,.68-.86,.94,.28,.33,.53,.7,.73,1.09,.2,.39,.42,.76,.63,1.12,.12,.13,.25,.24,.38,.33,.13,.09,.27,.2,.41,.34,.04-.12,.09-.24,.14-.35s.1-.23,.15-.35c0-.03,0-.08,.05-.15,.05-.09,.08-.16,.08-.21,.11-.08,.2-.1,.29-.05,.08,.05,.1,.13,.06,.25-.06,.2-.11,.39-.16,.58-.04,.19-.1,.39-.16,.58l.04,.07s.08-.01,.13-.01c.08,.02,.14,.03,.18,.06,.1,.06,.16,.16,.16,.31l-.02,.03,.19,.11c.19,.11,.23,.26,.11,.46-.13,.22-.29,.27-.48,.16l-.29-.16c-.09,.15-.18,.29-.27,.41-.09,.12-.18,.26-.27,.41,0,.03,0,.06,0,.08l-.19,.32,.19,.11c.15,.08,.2,.22,.15,.39,.05,0,.1,0,.15,0,.04,0,.09,0,.15,0,.14,0,.21,.05,.19,.15s-.07,.18-.15,.22c-.43,.16-.83,.26-1.2,.31l-.04,.06c-.06,.05-.11,.08-.14,.09-.09,0-.16,0-.23-.04l-.15,.04c-.13,.22-.25,.42-.38,.61-.13,.19-.26,.38-.41,.59-.06,.11-.15,.13-.25,.07-.11-.06-.13-.14-.06-.25,.08-.18,.17-.37,.27-.56,.1-.19,.19-.39,.29-.6-.02-.01-.04-.04-.04-.07l-.03-.02s-.07,0-.11-.02l-.06-.04c-2.79-1.59-5.59-3.12-8.4-4.58-2.81-1.46-5.61-2.97-8.42-4.55-.19,.18-.41,.24-.65,.17-.24-.07-.43-.25-.56-.56l-.92,1.56c-.06,.11-.15,.13-.25,.07-.11-.06-.13-.14-.06-.25,.18-.3,.36-.62,.53-.93,.17-.32,.35-.63,.53-.93-.12-.13-.19-.26-.19-.39,0-.13,.01-.26,.06-.38-.04-.02-.07-.04-.07-.06,0-.02-.03-.04-.07-.06-.11-.06-.13-.13-.07-.21,.06-.08,.14-.12,.23-.13,.05,0,.11,.02,.18,.06,.06,.04,.12,.06,.18,.06,.09-.06,.23-.08,.42-.06,.06-.14,.12-.28,.21-.42,.08-.14,.16-.28,.24-.41,0-.11,.04-.21,.09-.3l.1-.16c.04-.07,.08-.11,.13-.14-.36-.06-.7-.13-1.03-.22-.33-.09-.65-.22-.97-.4-.11-.06-.13-.13-.07-.21,.06-.08,.14-.12,.23-.13,.36,.12,.7,.2,1.03,.26,.33,.06,.66,.11,.97,.14,.1-.26,.29-.41,.57-.46,.19-.32,.38-.65,.55-.96,.17-.32,.36-.64,.55-.97l.04-.06c.06-.05,.12-.06,.19-.03,.03,0,.07,0,.11,.02,.02,.01,.03,.02,.02,.03s0,.02,.02,.03l.03,.02v.05l.04,.1v.08l-.05,.06c-.17,.28-.34,.55-.51,.82-.17,.26-.34,.54-.51,.82,.26,.04,.52,.07,.77,.09s.49,.04,.73,.02c.44-.03,.89-.08,1.33-.13,.44-.05,.89-.06,1.35-.03l.04-.06c2.88-4.75,5.75-9.49,8.61-14.19,2.86-4.71,5.58-9.51,8.15-14.41,.38-.74,.81-1.61,1.29-2.63,.48-1.02,.84-2.06,1.08-3.14,.24-1.08,.28-2.12,.12-3.12s-.69-1.84-1.58-2.49c-.06-.04-.12-.08-.15-.13-.04-.05-.08-.1-.1-.15-.24,.36-.48,.71-.71,1.05-.23,.35-.47,.7-.71,1.05l-.04,.07c-.13,.13-.23,.12-.28-.03-.05-.06-.06-.13-.03-.23,.48-.91,1.02-1.81,1.6-2.69-.13-.07-.18-.17-.16-.31-.1-.12-.21-.21-.33-.3-.12-.08-.24-.19-.36-.32-.11-.06-.13-.14-.06-.25s.15-.13,.25-.07c.2,.09,.39,.19,.56,.3,.17,.11,.34,.23,.49,.35,.09-.24,.2-.47,.34-.68,.14-.21,.28-.42,.43-.62-.2-.05-.4-.13-.61-.22-.21-.09-.44-.18-.68-.26-.11-.06-.15-.13-.12-.22,.02-.09,.11-.13,.25-.14l1.03,.2,.06-.1c.12-.19,.27-.24,.46-.13l.19,.11,.1-.03c.19-.27,.38-.54,.56-.81,.19-.27,.39-.53,.6-.79l.02-.03,.03,.02c.09-.06,.17-.08,.23-.04,.06,.04,.09,.11,.08,.22l-.23,.39c-.12,.16-.24,.33-.34,.5-.1,.17-.21,.35-.31,.52,.04,.02,.08,.04,.1,.04,.03,0,.05,0,.07,.02,1.12,.64,2.23,1.26,3.33,1.86,1.1,.6,2.21,1.19,3.34,1.78l.03,.02c.26,.09,.52,.2,.79,.32,.16,.06,.99,.52,2.49,1.38l.29,.16c.35,.17,.69,.35,1.02,.54,.33,.19,.67,.37,1.02,.54,.33,.16,.76,.33,1.3,.53,.46,.18,.86,.34,1.19,.5,.14,0,.28,0,.41,.02,.09-.15,.17-.29,.25-.42,.08-.13,.14-.27,.2-.41l.06-.1c.06-.11,.1-.19,.1-.25,.11-.08,.2-.1,.29-.05,.08,.05,.1,.13,.06,.25-.06,.2-.14,.4-.23,.61-.09,.21-.17,.41-.23,.61,.05,.06,.05,.15,.01,.27,.04,.08,.05,.16,.03,.23,.73,.3,1.36,.66,1.91,1.07,.55,.41,.83,.89,.85,1.42-.02,.13-.08,.19-.17,.18s-.15-.06-.18-.17c-.05-.29-.36-.6-.91-.93-.55-.33-1.18-.65-1.87-.96-2.66,4.48-5.32,8.9-8,13.28-.6,.96-1.21,1.9-1.84,2.81-.63,.92-1.18,1.89-1.65,2.92,.24,.08,.47,.13,.69,.16,.22,.03,.45,.03,.69,.02,.35-.06,.73-.09,1.15-.08,.25-.03,.5-.06,.75-.09,.26-.03,.52-.03,.8-.02,.47,.01,.9,.03,1.26,.05s.72,.06,1.04,.1c.33,.04,.68,.1,1.05,.16,.37,.07,.78,.16,1.22,.26,.47,.12,.94,.25,1.42,.4,.48,.14,.96,.31,1.44,.5,.66,.23,1.3,.5,1.94,.8,.66,.17,1.31,.33,1.95,.46,.64,.14,1.31,.24,2,.32,.1,.06,.14,.14,.1,.23-.04,.09-.12,.14-.23,.13-.4,0-.79-.02-1.19-.07-.39-.05-.79-.1-1.18-.15,.15,.08,.28,.17,.39,.27,.59,.43,1.15,.9,1.67,1.43,.52,.53,.96,1.1,1.33,1.72,.17,.33,.34,.69,.51,1.07l.04,.07c.93,1.77,1.34,3.49,1.24,5.14,.03,.19,.04,.37,.05,.53,0,.16,0,.34-.03,.52,.35-.64,.7-1.26,1.04-1.86,.34-.6,.71-1.21,1.1-1.82Zm-49.73,7.12c-.11,0-.2-.01-.28-.03s-.17-.02-.28-.03c0,.09,0,.19,0,.3-.06,.2-.15,.39-.25,.57-.11,.18-.22,.37-.34,.57,.49,.17,.96,.39,1.39,.66,.15,.08,.16,.19,.02,.32l.1,.05,.45,.17c-.02-.07-.03-.16-.04-.29l-.14-.56c-.05-.11-.11-.29-.19-.54-.08-.25-.14-.43-.19-.54-.1-.32-.15-.49-.16-.52l-.09-.14Zm2.21-.08c-.21,.02-.41,.04-.58,.06-.18,.01-.36,.04-.55,.08-.14,0-.27,0-.39,.02-.12,0-.24,0-.37-.02,.09,.14,.17,.3,.26,.5,.36,1.1,.54,1.83,.53,2.17,.76,.35,1.51,.72,2.26,1.12-.07-.27-.28-.93-.65-1.98-.26-.76-.43-1.4-.5-1.94Zm.91,2.04c.36,1.02,.51,1.68,.47,2,.33,.16,.65,.33,.97,.51,.36,.21,.72,.43,1.09,.67-.03-.28-.09-.66-.17-1.14-.12-.7-.24-1.26-.36-1.68-.06-.24-.2-.74-.42-1.5-.03-.05-.05-.09-.06-.12-.06,0-.11-.02-.18-.06-.21-.12-.26-.28-.14-.47l.1-.16c-.14,0-.25-.01-.31-.05-.17-.04-.35-.06-.53-.07-.18,0-.36,0-.52-.01l-.53,.04-.03-.02c.11,.53,.33,1.21,.64,2.06Zm2.39,.54c.34,1.33,.53,2.3,.56,2.92l1.49,.85c-.05-.26-.07-.66-.08-1.22-.02-.53-.06-.95-.11-1.24-.04-.31-.12-.73-.23-1.26-.12-.56-.2-.97-.25-1.23-.05-.26-.22-.92-.52-1.99-.13-.39-.23-.75-.29-1.08-.8,1.54-1.19,2.29-1.16,2.25,.22,.68,.42,1.34,.6,1.99Zm.82-5.18l-.02,.03,.03,.02v-.05Zm.39,1.97c.21,.7,.41,1.52,.61,2.48,.48,2.39,.63,3.89,.46,4.52l-.02,.03-.07,.05c.39,.2,.79,.4,1.19,.61,.4,.21,.8,.43,1.2,.66-.06-.32-.14-.7-.22-1.13-.24-.83-.38-1.43-.42-1.8-.02-.24-.07-.83-.14-1.77-.06-.76-.14-1.37-.23-1.83-.08-.39-.37-1.53-.87-3.4-.25-.96-.43-1.8-.54-2.52l-.24,.47c-.39,.76-.75,1.43-1.06,2,.04,.17,.09,.4,.14,.69,.08,.48,.15,.79,.2,.94Zm2.25-6.58c-.39,.7-.75,1.38-1.08,2.03,.13,.83,.38,1.88,.75,3.17,.5,1.64,.79,2.86,.9,3.64,.05,.35,.1,.95,.15,1.82,.05,.78,.11,1.38,.2,1.81,.19,1.21,.33,2.07,.42,2.58,.37,.18,.72,.37,1.05,.56,.33,.19,.68,.37,1.05,.55-.56-2.34-1.1-5.23-1.61-8.65-.34-2.25-.65-3.82-.94-4.71-.44-1.35-.74-2.29-.88-2.8Zm4.62,13.58c-.21-.18-.33-.36-.37-.56-.04-.2,0-.38,.13-.54-.04-1.04-.07-1.63-.09-1.79-.11-.67-.28-1.48-.51-2.42-.27-1.11-.6-2.64-.97-4.59-.47-2.41-.81-3.95-1.03-4.63-.21-.64-.35-1.17-.42-1.58l-.54,.91-.78,1.46c.11,.44,.3,.95,.57,1.54,.38,.88,.62,1.5,.73,1.85,.29,1.18,.58,2.68,.86,4.49,.38,2.65,.94,5.54,1.68,8.69l.79,.45,.64,.28c.49,.22,.91,.42,1.26,.59l.6-1c-.04-.08-.11-.13-.21-.14s-.2-.06-.29-.15c-.16-.12-.29-.24-.4-.36-.11-.12-.22-.24-.32-.36,.2,.72,.3,1.17,.3,1.35l-.02,.03s-.06,.07-.09,.08c-.03,0-.07,0-.11-.02l-.03-.02c-.05-.15-.17-.67-.33-1.58l-.11-.45c-.18-.31-.33-.59-.44-.86-.11-.27-.27-.49-.48-.66Zm-.72-6.23c.27,1.02,.45,1.75,.53,2.17,.16,1.02,.26,1.84,.31,2.48,.05-.03,.1-.07,.15-.11,.05-.04,.1-.08,.15-.11,.17-.19,.33-.39,.48-.59,.15-.21,.3-.42,.47-.65-.02-.01-.05-.04-.08-.09-.2-1.56-.45-2.95-.75-4.17-.52-2.03-.83-3.4-.92-4.09-.48-3.77-.9-6.23-1.27-7.37-.22,.37-.43,.72-.63,1.05-.2,.34-.42,.68-.66,1.04,.09,.37,.31,1.32,.65,2.84,.47,2.15,.84,3.95,1.08,5.4,.11,.53,.27,1.26,.48,2.19Zm1.65-1.14c.41,1.6,.65,2.92,.7,3.96,.2-.29,.39-.57,.57-.85,.18-.27,.36-.56,.54-.87-.62-3.19-1.27-6.59-1.93-10.18-.47-2.5-.8-4.04-.98-4.64-.12-.33-.21-.6-.28-.81l-1.02,1.72c.4,1.04,.89,3.56,1.45,7.56,.09,.66,.41,2.03,.96,4.11Zm1.32-2.29c.37,1.86,.63,3.21,.78,4.05l.02-.03c.53-.89,1.03-1.8,1.5-2.75-.24-1.03-.49-2.34-.77-3.92-.35-2.23-.61-3.69-.78-4.4-.19-.83-.57-2.16-1.15-4-.32-.99-.58-1.85-.8-2.58l-1.17,1.98c.35,.98,.83,3.25,1.43,6.81,.32,1.8,.63,3.41,.95,4.84Zm1.92-2.59c.25,1.3,.46,2.42,.64,3.36,.24-.44,.47-.87,.69-1.28,.23-.41,.46-.83,.69-1.28-.06-.67-.66-3.17-1.82-7.51-.86-3.13-1.44-5.46-1.75-6.99l-1.33,2.24c1.13,3.63,1.83,6.02,2.1,7.19,.11,.44,.37,1.86,.78,4.27Zm.67-6.35c.94,3.32,1.5,5.52,1.68,6.6,.2-.38,.41-.76,.63-1.14,.22-.38,.47-.74,.73-1.08l.21-.36s-.05-.07-.04-.15c.03-.33-.34-1.44-1.09-3.31-.27-.73-.56-1.91-.87-3.54-.48-2.48-1.12-4.83-1.93-7.05-.22,.37-.44,.75-.66,1.14-.22,.4-.44,.78-.66,1.14,.39,1.96,1.05,4.54,1.98,7.74Zm2.8,1.21c.47,1.02,.72,1.82,.75,2.38,.24-.36,.48-.69,.73-1.02-.45-1.62-.82-3.12-1.11-4.5-.07-.36-.19-1.06-.36-2.12-.13-.88-.25-1.58-.38-2.08-.1-.41-.49-1.58-1.17-3.53-.33-.91-.58-1.74-.74-2.47-.18,.3-.36,.6-.53,.89s-.34,.59-.5,.91c.68,1.52,1.39,4.04,2.13,7.56,.36,1.77,.75,3.09,1.17,3.97Zm.8-2.93c.24,1.27,.56,2.58,.97,3.94,.44-.56,.86-1.04,1.25-1.46-.5-1.53-1.11-4.42-1.81-8.68-.34-1.9-.61-3.33-.81-4.28-.09-.23-.42-1.24-.99-3.04l-1.46,2.68c.2,.81,.52,1.8,.95,2.97,.61,1.68,1,2.89,1.16,3.62,.09,.46,.21,1.16,.36,2.12,.14,.95,.27,1.66,.39,2.13Zm-.04,28.81c-.31-1.1-.44-1.81-.39-2.13-.04-.02-.07-.03-.09-.03-.02,0-.05,0-.09-.03-.1-.03-.19-.06-.27-.11-.09,.24-.17,.48-.26,.72-.09,.24-.18,.49-.28,.75,.44,.31,.9,.61,1.37,.91v-.08Zm.81-35.11c.71,4.05,1.29,6.88,1.76,8.47,.48-.42,.94-.78,1.4-1.07l.38-.22c-.06-.76-.22-1.63-.48-2.62-.06,.05-.12,.13-.19,.24-.06,.11-.15,.13-.25,.07-.11-.06-.13-.14-.06-.25,.04-.12,.1-.23,.16-.34s.12-.22,.16-.34c-.11-.44-.24-.89-.39-1.35-.79-2.39-1.25-3.91-1.4-4.58-.98-4.35-1.59-7-1.82-7.94l-.19,.33c-.06,.11-.12,.22-.16,.34-.13,.27-.28,.54-.44,.81-.16,.27-.31,.54-.44,.81,.37,.76,.74,1.88,1.1,3.37,.3,1.21,.58,2.64,.86,4.27Zm-.51,34.76c.07,.27,.13,.51,.21,.72l.03,.02c.44,.25,.9,.5,1.36,.75,.46,.25,.92,.49,1.38,.72,0-.03-.01-.1-.02-.18,0-.03-.02-.06-.04-.07-.18-1.08-.32-1.85-.43-2.28-.16-.5-.27-.89-.35-1.2-.25,.18-.47,.27-.67,.27-.3,.03-.78-.07-1.43-.3-.1-.03-.18-.05-.25-.08-.07-.02-.15-.05-.25-.08,.11,.44,.27,1,.47,1.7Zm3.63-31.37s.05-.03,.1-.03l.04-.06c-.13-.25-.13-.52,.02-.82,.1-.26,.21-.5,.32-.73s.24-.46,.36-.71c-.13-.97-.34-2.16-.64-3.58l-.76-3.86c-.34-1.67-.76-3.06-1.27-4.16-.41-.84-.67-1.51-.8-2.02l-.02,.03c-.18,.39-.35,.78-.52,1.16-.17,.38-.35,.75-.53,1.11,.21,.84,.87,3.58,2,8.22,.09,.43,.56,1.96,1.43,4.6l.26,.84Zm.69-11.81c.52,2.47,1.01,4.89,1.49,7.28,.23-.33,.45-.66,.67-.99,.22-.32,.44-.65,.67-.99,.07-.65-.05-1.59-.37-2.81-.07-.27-.16-.68-.28-1.25l-.31-1.26c-.97-3.56-1.5-5.65-1.59-6.25-.46-2.46-.79-4.17-.99-5.13-.13-.68-.26-1.25-.39-1.7l-.16-.66s-.04-.05-.06-.12l-.02-.1c-.33-.16-.66-.33-.99-.52-.33-.19-.65-.37-.97-.55,.11,.29,.25,.72,.43,1.28,0,.03,.21,.55,.6,1.56v.05s-.03,.05-.08,.08c-.03,0-.06,0-.08,0l-.06-.04c-.27-.3-.63-1.17-1.08-2.61-.06,.11-.12,.21-.18,.31-.06,.1-.11,.21-.15,.33v.05s-.03,.08-.04,.12c0,.04-.03,.08-.05,.12,.59,.54,1.04,1.17,1.37,1.91,.48,.77,.77,1.57,.86,2.4,.05,.58,0,1.21-.14,1.88,.42,1.34,1.05,3.87,1.9,7.6Zm-.04,6.36c.21,1.02,.37,1.9,.46,2.65,.14-.24,.28-.47,.4-.68s.27-.44,.44-.66c-.18-.8-.42-1.98-.74-3.55-.37-1.71-.66-3.06-.88-4.02-.1-.49-.43-1.85-.98-4.08-.29-1.18-.53-2.2-.73-3.06-.17,.57-.41,1.19-.72,1.85-.1,.17-.2,.36-.3,.57,.11,.29,.49,1.29,1.15,3,.59,1.58,.96,2.96,1.1,4.15,.1,.69,.36,1.97,.78,3.83Zm-1.03,38.84c.02,.16,.04,.29,.07,.39,.27,.16,.55,.31,.83,.45s.57,.3,.87,.47c-.07-.36-.14-.77-.2-1.24-.18-1.08-.29-1.75-.35-1.98-.13-.54-.43-1.47-.88-2.8-.36,.46-.77,.8-1.24,1.03,.1,.31,.26,.78,.48,1.4,.29,.98,.42,1.69,.39,2.13,.04,.08,.05,.13,.04,.15Zm2.5-48.12c.47,1.69,.77,2.83,.9,3.42,.48,2.04,.74,3.49,.77,4.35,.27-.46,.54-.91,.82-1.35,.28-.45,.55-.89,.8-1.32-1.29-4.41-2.02-7.29-2.21-8.64-.05-.29-.14-.93-.26-1.93-.11-.82-.22-1.47-.32-1.96-.04-.22-.22-.8-.54-1.74-.08-.16-.13-.32-.18-.49-.37-.18-.74-.37-1.11-.57-.37-.19-.73-.39-1.09-.6,.02,.07,.05,.16,.09,.27,.16,.64,.29,1.21,.39,1.7,.06,.32,.42,2.13,1.06,5.43,.16,.87,.44,2.02,.85,3.44Zm-1.36,15.59s-.07-.04-.07-.06c0-.02-.03-.04-.07-.06-.08-.01-.14-.02-.2-.03-.08,.04-.14,.05-.18,.02l-.02,.03c.27,1.08,.44,2.03,.51,2.85,.59-.27,1.16-.44,1.73-.49-.02-.07-.03-.15-.03-.23l-.11-.46-.32-.96c-.07-.12-.11-.24-.14-.34-.45-.05-.82-.15-1.1-.28Zm.42,30.46c.3,1.59,.52,2.79,.67,3.59,.3,.17,.58,.33,.84,.48,.26,.15,.55,.3,.86,.45-.15-.52-.36-1.28-.64-2.28-.37-1.14-.6-2.06-.68-2.78-.27-1.75-.48-3.05-.64-3.93-.15,.15-.25,.26-.33,.33-.03,.04-.05,.08-.08,.1-.03,.03-.06,.06-.08,.11-.1,.17-.21,.34-.31,.52-.1,.17-.24,.33-.4,.46-.03,0-.06,.04-.09,.08,.32,.56,.62,1.51,.89,2.85Zm2.08,2.14c.35,1.22,.6,2.09,.73,2.63,.37,.18,.73,.37,1.06,.57,.34,.19,.69,.39,1.05,.6l.44,.25c-.29-.89-.58-2.03-.86-3.4-.39-1.96-.73-3.35-1-4.17-.77-2.23-1.3-4-1.6-5.3-.2,.38-.4,.73-.61,1.06-.21,.33-.43,.63-.65,.91,.17,.85,.43,2.21,.76,4.08,.1,.69,.33,1.62,.68,2.78Zm.71-31.65c-.03-.13-.08-.35-.13-.64-.27,.02-.54,.03-.81,.04-.27,0-.54,0-.82-.01,.05,.15,.12,.32,.21,.51,.23,.62,.35,1.08,.37,1.38,.27,.01,.55,.04,.84,.09,.07-.02,.13-.02,.19,0,.06,.02,.13,.03,.22,.02-.02-.16-.02-.35,0-.57-.04-.37-.06-.64-.06-.82Zm.67-15.64c.52,1.8,.86,3.05,1.04,3.76,.19-.33,.39-.65,.6-.98,.21-.33,.41-.66,.6-.98-.64-3.41-1.09-5.7-1.34-6.89-.1-.49-.42-1.41-.95-2.76-.24-.6-.43-1.14-.56-1.62-.27-.16-.55-.31-.83-.45-.28-.15-.57-.29-.85-.42,.06,.09,.11,.19,.16,.31,.27,.79,.45,1.41,.54,1.87,.06,.41,.15,1.07,.27,1.98,.1,.84,.19,1.49,.29,1.95,.22,1.11,.57,2.52,1.04,4.25Zm6.01,51.64c.13,.88,.19,1.35,.19,1.39,0,.04,0,.08-.02,.1-.03,.04-.06,.05-.1,.03-.02-.01-.06-.06-.12-.16-.16-.26-.26-.78-.3-1.56-.04-.55,0-.93,.13-1.14l.02-.03s.05-.07,.09-.08c-.52-.79-.79-1.54-.79-2.23-.02-.16-.04-.3-.05-.42-.01-.12,0-.25,.02-.38-.63-2.94-1.4-5.74-2.31-8.4-.86-2.46-1.28-4.39-1.27-5.8l-1.35,2.27,.8,3.58c.4,1.85,.73,3.31,1,4.39,.27,1.11,.66,2.61,1.16,4.48,.57,2.18,.96,3.67,1.16,4.48,.03,.04,.03,.09,0,.13-.03,.04-.07,.07-.14,.09-.03,0-.07,0-.11-.02-.04-.02-.08-.06-.11-.1-1.33-5.19-2.1-8.18-2.32-8.96-.84-3.35-1.42-5.88-1.73-7.59-.15,.26-.32,.58-.51,.97-.19,.39-.38,.78-.59,1.18,.32,1.17,.89,3.2,1.69,6.09,.1,.4,.42,1.75,.96,4.02,.34,1.47,.67,2.68,.98,3.64l.79,.45,.59,.29c.77,.41,1.44,.77,2,1.06,.05,0,.15,.03,.28,.1,.13,.06,.45,.22,.95,.48,.08,.05,.15,.07,.21,.08l.65-1.1c-.1-.11-.21-.22-.34-.32-.12-.1-.22-.21-.29-.34-.11-.21-.26-.45-.45-.74-.2-.29-.39-.6-.59-.94l-.27-.41,.04,.15c.03,.71,.04,1.14,.04,1.28Zm-6.32-35.75c.06,.52,.07,.92,.05,1.2,.48,.04,.95,.13,1.4,.25,.45,.13,.81,.24,1.09,.34l-.29-1.3s-.21-.53-.61-1.48c-.56,0-1.16,.03-1.8,.1,.08,.34,.14,.63,.16,.87Zm1.61-20.8c.44,1.93,.84,4.01,1.21,6.25l1.12-1.88s-.02-.04,0-.08c.01-.02-.3-1.52-.94-4.49-.27-1.26-.51-2.26-.71-3.01-.37-.18-.74-.38-1.1-.58-.36-.21-.73-.4-1.1-.58,.13,.45,.31,.96,.54,1.52,.53,1.34,.86,2.3,.98,2.86Zm2.7,22.91c-.34-1.29-.55-2.28-.65-2.98-.07,.02-.14,.02-.21,0-.07-.03-.13-.04-.19-.04-.21-.03-.41-.06-.62-.07-.2-.01-.41-.02-.6-.02,.32,.79,.54,1.34,.65,1.63,.18,.6,.29,1.08,.33,1.45,.24,.17,.5,.36,.78,.58,.28,.22,.56,.48,.83,.78l-.32-1.31Zm-.19,15.4c-.24-1.27-.46-2.32-.67-3.16l-1.39,2.34c0,1.65,.51,3.84,1.5,6.55,.84,2.39,1.52,4.81,2.03,7.24,.32-.97,.73-1.94,1.22-2.91-.13-.83-.4-1.79-.79-2.88-.69-1.75-1.08-2.89-1.19-3.42-.18-.65-.41-1.9-.7-3.75Zm-.66-38.21c.51,1.77,.78,3.01,.81,3.72,.22-.37,.44-.74,.68-1.11,.23-.37,.46-.74,.68-1.11-.06-.24-.1-.49-.14-.77-.15-.7-.27-1.19-.34-1.5-.09-.28-.25-.68-.48-1.19l-.06-.12c-.37-.18-.73-.37-1.07-.55-.34-.18-.69-.37-1.02-.56,.2,.75,.52,1.82,.95,3.19Zm1.85,42.36c.85,2.57,1.42,4.4,1.71,5.49,.12-.25,.25-.49,.38-.72,.13-.23,.26-.46,.38-.71-.17-.53-.42-1.44-.75-2.73l-.69-3.48c-.67-3.31-1.21-5.77-1.63-7.4-.16,.31-.32,.62-.48,.92-.16,.3-.33,.6-.51,.9l.07,.17s0,.06,0,.08c.22,.77,.47,2.02,.74,3.76,.24,1.64,.51,2.88,.81,3.72Zm-.64-19.65c.2,.9,.39,1.6,.57,2.11,.31,.38,.58,.75,.81,1.09,.23,.35,.37,.7,.42,1.04,.12-.16,.25-.33,.39-.51,.14-.18,.28-.35,.42-.5-.17-.67-.34-1.31-.52-1.91-.54-1.52-.88-2.79-1.02-3.79-.31-.09-.62-.17-.93-.23-.31-.06-.62-.11-.93-.14,.15,.55,.41,1.5,.78,2.83Zm2.9,21.42c.23,.66,.43,1.21,.58,1.68l1.33-2.24c-.06-.18-.13-.38-.2-.59-.39-1.06-.6-1.7-.64-1.93-.12-.47-.26-1.19-.42-2.15-.13-.97-.26-1.7-.4-2.18-.95-3.55-1.53-5.93-1.75-7.12-.28,.91-.67,1.85-1.16,2.81l.04,.07c.73,2.3,1.32,4.94,1.79,7.93,.27,1.78,.55,3.02,.84,3.74Zm-1.64-43.15l1.04-1.75c-.3-.17-.59-.34-.89-.51-.3-.17-.6-.33-.91-.47,.1,.26,.2,.55,.29,.86l.46,1.87Zm4.17,36.73c.46,1.28,.8,2.28,1.01,3.01l1.44-2.43c-.23-.57-.5-1.33-.81-2.29-.36-1.1-.7-2.3-1.02-3.58-.41-1.65-.74-3.28-1.01-4.88-.35-1.94-.64-3.48-.87-4.62-.15-.75-.28-1.36-.4-1.83-.39-.16-.77-.31-1.14-.44-.38-.13-.77-.23-1.17-.32,.24,1.03,.64,2.48,1.2,4.33,.05,.2,.12,.52,.21,.94,.08-.04,.16-.03,.24,.03,.08,.06,.09,.14,.02,.25-.06,.05-.12,.12-.17,.21,.21,1.13,.48,2.85,.84,5.17,.41,2.5,.95,4.64,1.61,6.44Zm-2.05-6.99c-.16-1.54-.38-2.96-.66-4.24-.21,.31-.41,.64-.58,.97-.17,.34-.33,.67-.46,1-.06,.2-.11,.37-.14,.53,.23,1.38,.55,2.76,.97,4.16,.7,2.49,1.07,3.84,1.11,4.06,.47,2.59,.76,4.01,.86,4.27,.2,.66,.38,1.24,.54,1.74l.35-.58c.13-.22,.25-.43,.36-.64,.11-.21,.23-.42,.36-.64-.21-.7-.63-2.14-1.25-4.32-.78-2.59-1.26-4.69-1.44-6.29Zm4.75,7.14c.22-.37,.43-.72,.64-1.05,.21-.33,.42-.68,.64-1.04-.15-.61-.37-1.31-.66-2.11-.6-1.62-.94-2.72-1.04-3.33-.7-3.73-1.18-6.39-1.45-7.99-.64-.4-1.34-.75-2.08-1.06l.19,.76c.19,.92,.49,2.53,.91,4.82,.34,1.96,.67,3.59,.99,4.91,.37,1.52,.73,2.8,1.06,3.86,.13,.39,.34,.96,.61,1.69l.19,.54Zm.73-12.39c-.12-.51-.2-.9-.24-1.18-.3-.31-.61-.61-.94-.88-.33-.28-.67-.54-1.03-.8,.19,.97,.41,2.17,.67,3.59,.4,2.19,.66,3.65,.8,4.37,.12,.56,.46,1.63,1.03,3.2,.22,.59,.38,1.12,.5,1.59l1.15-1.95c-.16-.5-.43-1.27-.82-2.34-.27-.73-.49-1.72-.67-2.95-.15-.89-.3-1.78-.46-2.65Zm1.91,6.43c.13,.31,.23,.58,.31,.83,.13-.59,.15-1.18,.07-1.76-.08-.58-.21-1.2-.39-1.85-.16-.64-.32-1.25-.5-1.85-.17-.59-.43-1.17-.77-1.74l-.4-.62c.03,.19,.07,.4,.13,.64,.14,.72,.3,1.59,.48,2.62,.21,1.45,.56,2.7,1.05,3.73Z"/><path d="M180.24,328.56c-.12-.03-.16-.08-.13-.18,.03-.09,.09-.16,.17-.2,.22,.02,.44,.05,.67,.08,.23,.04,.46,.06,.71,.09l.15-.2,.04-.03s.08-.07,.13-.09c.03-.02,.05-.03,.08-.02,.03-.02,.05-.03,.06-.03,.01,0,.03,0,.06-.03,.06-.17,.19-.23,.38-.19l.46-1.64c.03-.12,.1-.17,.21-.13,.12,.04,.16,.12,.14,.24-.04,.33-.1,.63-.16,.93-.06,.3-.13,.59-.19,.89,.76,.16,1.52,.31,2.27,.46,.75,.15,1.5,.28,2.25,.38,.51,.05,1.05,.11,1.62,.18,.57,.07,1.14,.13,1.69,.19,.22,.02,.42,.03,.59,.04,.46,.04,.89,.1,1.27,.18,.12,.02,.23,.06,.35,.11,.17-.09,.34-.1,.52,0l.1-.13,.22-1.03c.03-.12,.1-.17,.21-.13,.12,.04,.16,.12,.14,.24l-.17,.81s.06,.03,.1,.06c.08,.09,.11,.19,.09,.29-.02,.07-.06,.14-.12,.21l.04-.03-.03,.15s.05,.05,.1,.06c.13,.1,.18,.2,.16,.3-.01,.05-.05,.11-.11,.17-.1,.11-.2,.16-.3,.17l-.13,.63c.29,.03,.6,.07,.93,.11,.33,.04,.63,.09,.92,.15,.29,.06,.53,.13,.74,.21,.21,.08,.33,.16,.36,.25,0,.13-.04,.2-.1,.23-.07,.03-.13,0-.19-.06-.43-.06-.88-.11-1.35-.14-.47-.03-.93-.07-1.39-.11,0,.23-.02,.51-.07,.83l-.08,.37h.04v.04s-.03,.05-.06,.07c-.03,.35-.06,.62-.09,.79l-.24,1.45c-.1,.7-.19,1.38-.27,2.04-.08,.66-.17,1.34-.27,2.04,.95,.22,1.88,.46,2.8,.71,.92,.25,1.84,.5,2.79,.74,.19,.04,.51,.09,.97,.16,.46,.07,.87,.17,1.24,.29,.05-.12,.16-.21,.32-.28l.46-1.64c.03-.12,.1-.17,.21-.13,.12,.04,.16,.12,.14,.24-.06,.27-.11,.52-.14,.76-.04,.24-.08,.48-.14,.72,.28,.08,.45,.34,.51,.76l-.1,.48c.23,.1,.45,.18,.65,.25,.21,.07,.4,.12,.56,.15,.14,.03,.16,.12,.05,.28-.06,.06-.12,.09-.17,.08-.37-.02-.77-.11-1.21-.25-.12,.54-.22,1.08-.31,1.61-.09,.53-.17,1.08-.24,1.63,.07,.01,.15,.02,.22,0h.04c.17,.04,.23,.17,.18,.39-.05,.22-.17,.33-.36,.31-.08,0-.14,0-.19,0l-.02,.07c.45,.12,.91,.29,1.38,.51,.11,.07,.15,.16,.13,.26-.02,.1-.09,.14-.21,.11-.3-.09-.61-.16-.9-.22-.3-.06-.59-.13-.87-.22-.08,.04-.16,.04-.25,.03-.08-.02-.15-.03-.2-.04l-.16,.04c-.07,.22-.13,.43-.19,.63-.06,.21-.11,.41-.15,.6l-.05,.22c.05,.11,.03,.2-.06,.26-.09,.06-.17,.03-.24-.09-.09-.15-.12-.38-.09-.71,.03-.33,.1-.65,.19-.96-1.26-.26-2.51-.53-3.73-.8-1.22-.28-2.44-.54-3.66-.79-.24,1.03-.49,2.05-.73,3.07-.24,1.02-.43,2.05-.55,3.1-.03,.35-.02,.7,.02,1.04,.04,.34,.03,.69-.02,1.04-.16,1.1-.42,2.2-.77,3.33-.35,1.12-.69,2.44-1.02,3.97-.13,.59-.27,1.25-.43,1.99-.16,.74-.28,1.49-.35,2.26-.08,.77-.06,1.51,.05,2.22,.11,.71,.37,1.33,.78,1.85,.13,.18,.41,.38,.83,.59,.41,.21,.86,.41,1.34,.6,.48,.19,.95,.35,1.41,.48,.46,.13,.8,.2,1.02,.19,.22,.02,.44-.01,.67-.09,.23-.08,.47-.13,.72-.16,.2-.22,.44-.3,.72-.24,.11-.39,.22-.75,.34-1.08,.04-.2,.08-.4,.13-.61,.04-.21,.11-.41,.2-.59,.08-.16,.19-.24,.33-.22,.13,.01,.21,.11,.22,.29-.04,.43-.1,.85-.17,1.25-.08,.41-.17,.82-.28,1.23,.1-.03,.21-.07,.3-.11,.1-.04,.2-.09,.31-.15,.14-.05,.23-.04,.27,.04,.05,.07,.02,.17-.08,.27-.3,.25-.65,.46-1.03,.63-.04,.07-.08,.18-.11,.33h.07c.16,.1,.22,.2,.19,.32,0,.05-.03,.1-.07,.14-.09,.19-.19,.27-.31,.24h-.04c-.04,.32-.09,.63-.14,.93-.05,.3-.1,.6-.13,.9,.37-.1,.71-.19,1.01-.27,.3-.08,.52-.14,.66-.19,.05-.12,.12-.17,.21-.17,.08,0,.14,.07,.16,.21,0,.23-.21,.44-.64,.62-.42,.18-.93,.34-1.5,.48-.03,.15-.07,.3-.1,.46-.03,.16-.06,.33-.07,.51,.11,.07,.2,.16,.28,.25,.06,.09,.07,.18,.05,.28-.02,.07-.08,.15-.2,.23-.09,.06-.18,.08-.27,.06-.05,0-.09-.03-.13-.07l-.07,.33c-.05,.25-.19,.35-.4,.3-.17-.03-.27-.09-.3-.18-.06,.14-.09,.28-.11,.42-.02,.14-.04,.29-.08,.46-.01,.05-.02,.11-.04,.18-.02,.07-.06,.1-.13,.09-.14,.05-.22,.03-.25-.05-.03-.08-.02-.16,.05-.22,.05-.22,.09-.45,.13-.69,.04-.24,.07-.47,.09-.69-.06-.06-.09-.16-.09-.29-.53,.04-.87,.08-1.03,.1-1.65,.25-2.65,.41-3.01,.46l-.46,.06c-.58,.16-1.17,.27-1.77,.33-.6,.06-1.24,.03-1.94-.09-.19-.04-.37-.08-.55-.13-.18-.05-.35-.1-.51-.16-.22-.02-.43-.05-.62-.09l-.29-.06c-.85-.2-1.66-.48-2.43-.84-.12,0-.23-.01-.31-.04s-.18-.07-.29-.12c-.38-.21-.75-.44-1.12-.71-.37-.27-.73-.54-1.09-.82-1.16-.96-2.04-1.96-2.64-3-.6-1.05-.99-2.15-1.17-3.32s-.21-2.39-.07-3.67c.14-1.28,.34-2.62,.62-4.03,.08-.37,.17-.78,.26-1.23s.2-.92,.3-1.38c.1-.47,.2-.92,.31-1.34s.19-.79,.25-1.08c.09-.42,.21-.84,.37-1.27,.15-.43,.26-.86,.33-1.28l.02-.11h-.04s-.07-.2-.07-.48c0-.28,0-.59,.01-.92,0-.33,.02-.65,.04-.96,.02-.3,.03-.51,.06-.6,0-.15,.03-.3,.06-.45,.03-.15,.05-.3,.06-.45,.16-.97,.37-1.98,.65-3.02,.27-1.05,.45-2.06,.54-3.05-.77-.11-1.55-.19-2.32-.24-.77-.05-1.54-.15-2.31-.28l-.06,.3s-.05,.04-.05,.07c-.07,.09-.17,.12-.32,.09-.17-.03-.27-.09-.3-.18-.12,.46-.24,.93-.35,1.39-.11,.46-.23,.93-.35,1.39l-.02,.07s-.02,.03-.04,.03c-.04,.07-.09,.09-.16,.06-.07-.03-.12-.07-.16-.13-.02-.03-.02-.07-.01-.12,.11-.64,.24-1.29,.38-1.94,.14-.65,.28-1.3,.41-1.94l-.03-.04c-.2-.09-.31-.24-.31-.45l.02-.11s.02-.06,.06-.1l-1.18-.24c-.12-.02-.17-.1-.14-.22,.03-.12,.1-.17,.22-.15l1.61,.33,.06-.29c.05-.48,.13-.95,.25-1.41,.11-.46,.22-.94,.33-1.44-.03-.11-.04-.19-.02-.24-.15,0-.28-.01-.41-.03-.12-.01-.24-.03-.36-.05-.12-.02-.16-.08-.13-.18,.03-.09,.09-.16,.17-.2,.15,0,.3,0,.44,.01s.3,0,.45-.02c.03-.04,.1-.1,.18-.16,.13-.49,.26-.98,.39-1.48,.13-.5,.26-1,.4-1.51v-.04c.19-.17,.32-.17,.38,0l.08-.02-.1,.44c-.02,.1-.03,.19-.04,.28,0,.09-.02,.18-.04,.28,0,.05-.03,.08-.06,.1l-.34,1.59h.04c.12,.03,.21,.09,.26,.18,.73-.03,1.56,.07,2.49,.3,.93,.23,1.77,.47,2.51,.73,.15-.61,.38-1.51,.69-2.71,.02-.2,.03-.4,.05-.59s.03-.38,.05-.59c.07-.81,.2-1.6,.38-2.37,.18-.77,.36-1.55,.56-2.33-.06-.09-.08-.14-.08-.17l-.03-.04c-.21-.04-.44-.08-.66-.12-.23-.03-.45-.07-.67-.12Zm-5.55,11.14c-.03,.25-.06,.49-.1,.71-.04,.22-.07,.43-.12,.63l.89,.18-.68-1.53Zm1.71-1.38c-.38-.08-.7-.16-.96-.23-.08,0-.15,0-.22,0-.07-.01-.13-.01-.19,0l-.24,1.11c.16,.39,.49,1.1,.96,2.12l.46,.1,2.19,.22-.84-1.33c-.57-.83-.96-1.49-1.18-1.98Zm-.35,26.41c-.08,.6-.11,1.2-.11,1.81s.06,1.2,.16,1.78c.25,.44,.56,.97,.92,1.61,.78,1.37,1.37,2.44,1.78,3.21,.43,.45,.87,.83,1.32,1.16,.45,.32,.86,.55,1.24,.68,.11,.05,.24,.08,.39,.1,.15,.02,.29,.04,.43,.07-.97-1.51-2.07-3.45-3.3-5.83-.57-1.07-1.09-1.98-1.58-2.75-.67-1.19-1.07-1.8-1.21-1.83h-.03Zm4.52,7.12c.15,.34,.87,1.46,2.15,3.37,.14,.03,.28,.06,.41,.08,.13,.03,.25,.07,.37,.11,.82,.37,1.49,.63,2.04,.76-.46-.74-1.2-1.89-2.21-3.46-1.19-1.78-2.09-3.25-2.71-4.4-1.03-1.93-1.69-3.14-1.98-3.64l-1.06-1.68c-.1-.12-.28-.33-.54-.61-.2-.22-.36-.41-.48-.56,0,.02-.02,.05-.05,.07-.18,.86-.33,1.74-.45,2.64l.08-.02c.4,.08,1.28,1.39,2.63,3.93,.18,.32,.48,.89,.9,1.72,.39,.72,.7,1.28,.91,1.69Zm-3.42-1.09c-.32-.35-.59-.71-.81-1.09,.07,.27,.16,.51,.29,.71,.13,.21,.27,.4,.43,.59,.17,.34,.43,.7,.78,1.08-.18-.32-.41-.75-.69-1.3Zm6.45,1.74c1.21,1.79,2.04,3.06,2.5,3.82,.28,.08,.56,.13,.83,.15,.27,.02,.57,.02,.89,0h.04c-.78-1-1.67-2.38-2.66-4.12-1.34-2.35-2.23-3.87-2.68-4.55-.28-.42-.8-1.15-1.54-2.2-.67-.93-1.19-1.69-1.56-2.28l-2.29-3.62c-.1,.34-.27,.96-.51,1.86h.07c.49,.29,1.19,1.19,2.11,2.72,.37,.61,1.08,1.89,2.13,3.82,.62,1.15,1.52,2.62,2.68,4.4Zm2.98-18.98c.92,1.5,1.56,2.6,1.9,3.32,.18-.6,.33-1.16,.47-1.66,.13-.5,.24-.94,.32-1.34-.1-1.05-.05-2.14,.14-3.28-.49-.74-1.13-1.69-1.93-2.86-1.11-1.69-1.94-3.03-2.5-4.01-1.35-2.28-2.51-4.04-3.46-5.29-.03,.04-.06,.1-.08,.18-.03,.04-.07,.09-.1,.13-.04,.04-.07,.09-.1,.13-.09,.19-.2,.33-.32,.43l-.04,.03c-.29,.07-.54,.04-.77-.08-.23-.1-.4-.16-.52-.18,1.31,1.22,2.92,3.52,4.83,6.92,.55,1.04,1.31,2.48,2.29,4.32,1.06,2.12,1.82,3.58,2.27,4.39,.04,.06,.05,.11,.04,.16,0,.02-.04,.06-.1,.1-.06,.04-.1,.06-.12,.05-.05,0-.08-.04-.09-.09-.46-.86-1.22-2.33-2.27-4.39-.99-1.87-1.76-3.33-2.31-4.36-1.79-3.24-3.43-5.63-4.92-7.17-.04-.03-.06-.06-.06-.09l-2.29-.47c.09,.15,.18,.31,.27,.48,.32,.58,.57,1,.74,1.27,.15,.21,.44,.6,.87,1.18l.22,.35,.36,.07c.33,.2,.49,.46,.47,.79l.03,.04c.1,.1,.14,.2,.12,.29l-.02,.07c-.02,.1-.02,.2,0,.31,1.47,1.48,2.95,3.63,4.44,6.45,.74,1.41,1.48,2.68,2.21,3.8Zm-1.03,18.61c1.01,1.8,1.92,3.22,2.75,4.26,.13-.02,.27-.06,.43-.1,.16-.04,.33-.1,.52-.16-.56-.99-1.38-2.5-2.46-4.55-1.19-2.24-2.24-4-3.16-5.27-1.78-2.39-2.92-4.1-3.42-5.13-1.02-1.95-1.85-3.38-2.48-4.28l-.54,2.51c.2,.25,1.04,1.48,2.53,3.71,.34,.51,.86,1.25,1.57,2.25,.69,.96,1.21,1.71,1.57,2.25,.35,.58,1.24,2.09,2.69,4.52Zm1.54-.76c1.12,2.1,1.97,3.65,2.55,4.64,.35-.11,.71-.22,1.08-.34,.37-.12,.76-.22,1.15-.32-.58-.76-1.06-1.49-1.44-2.18-.32-.48-.58-.9-.77-1.28-.34-.15-.67-.31-.98-.49-.31-.18-.58-.39-.79-.64-.23-.22-.41-.48-.54-.77-.14-.29-.26-.6-.36-.96-.16-.31-.26-.64-.31-.99-.09-.4-.14-.85-.16-1.34h-.04s-.09-.04-.14-.07c-1.71-2.25-3.21-4.65-4.5-7.2-1.33-2.61-2.45-4.47-3.36-5.58-.11,.65-.22,1.14-.33,1.47s-.22,.72-.34,1.16h.07l.03,.06c.48,.56,1.34,2.03,2.6,4.42,.49,.97,1.63,2.68,3.42,5.13,.93,1.24,1.98,3,3.16,5.27Zm-4.94-12.14c1.09,2.12,2.55,4.49,4.38,7.09,.01-.54,.07-1.1,.18-1.7l.24-1.14c-.66-.62-1.4-1.77-2.21-3.45-.7-1.48-1.31-2.68-1.8-3.6-1.65-2.98-3.05-4.99-4.2-6.02-.09,.65-.17,1.25-.24,1.8,0,.21,.02,.41,.03,.62,.02,.21,.02,.41,0,.62l-.02,.11c.99,.97,2.2,2.86,3.64,5.67Zm.88-3.4c2.35,4.25,3.69,6.64,4.02,7.17l.14-.66c.08-.39,.16-.78,.23-1.17,.07-.38,.16-.77,.27-1.16-4.63-6.83-7.47-11.14-8.5-12.94-.05,.12-.09,.24-.11,.36-.03,.12-.05,.25-.08,.37-.02,.33-.05,.72-.1,1.17-.06,.37-.09,.73-.11,1.05,1.22,.94,2.63,2.87,4.24,5.8Zm1.04-5.91c-1.28-2.37-2.67-4.43-4.16-6.2-.05,.45-.12,.93-.23,1.43-.11,.5-.23,1-.35,1.49,.82,1.27,3.64,5.58,8.46,12.93,.11-.41,.22-.8,.31-1.17s.19-.73,.29-1.1l-.03-.04c-.27-.47-1-1.68-2.17-3.64-.9-1.52-1.6-2.75-2.12-3.71Zm3.77-2.46c.65,1.01,1.21,1.86,1.65,2.57l.36-1.7c-.46-.66-1.12-1.6-2-2.84-1.1-1.51-1.91-2.78-2.43-3.81-1.12-2.31-1.85-3.74-2.18-4.3-.2-.32-.56-.82-1.06-1.49-.05,.35-.11,.7-.19,1.06-.08,.36-.18,.7-.3,1.04,.91,1.19,2.1,3.01,3.57,5.47,.53,.9,1.39,2.23,2.58,3.99Zm.35-2.16c.73,1,1.32,1.85,1.77,2.56,.1-.36,.2-.73,.29-1.09,.09-.37,.18-.72,.28-1.06-1.3-1.7-2.84-4.21-4.62-7.53-1.15-2.06-2.31-4.03-3.47-5.91-.12,.57-.2,1.13-.25,1.68-.03,.25-.03,.5,.01,.73,.04,.24,.05,.49,.05,.74h.04c.57,.71,.98,1.3,1.23,1.76,.45,.81,1.19,2.24,2.21,4.3,.49,.95,1.32,2.22,2.47,3.82Zm-1.92-7.25c1.81,3.29,3.26,5.71,4.35,7.24l.05-.22c-.05-.24,0-.45,.17-.64s.42-.27,.76-.25l.57,.12c-.55-.91-1.29-2.24-2.21-3.99-1.09-1.99-1.99-3.5-2.69-4.52-2.06-2.94-3.43-5-4.12-6.19l-.11-.02c-.1,.36-.19,.73-.27,1.1-.08,.37-.16,.75-.24,1.14,1.06,1.55,2.31,3.63,3.74,6.23Zm6.9,3.3c-.34-.02-.69-.07-1.05-.14-.22,.11-.45,.09-.68-.06-.23-.15-.33-.41-.3-.79-.06-.19-.03-.39,.09-.6l.18-1.2c-1.67-2.32-3.36-5.09-5.08-8.32-.48-.07-.95-.16-1.4-.27-.45-.1-.9-.2-1.35-.3,.75,1.15,2.12,3.21,4.13,6.16,.64,.98,1.49,2.45,2.56,4.41,1,1.82,1.78,3.2,2.32,4.13,.41,.08,.82,.17,1.25,.27,.43,.1,.84,.19,1.25,.27-.12-.15-.29-.41-.51-.76-.3-.47-.55-.9-.77-1.27-.44-.76-.65-1.27-.64-1.55Zm-4.15-10.59l-1.05-.33c-.12,0-.25,0-.39-.02s-.26-.03-.38-.06c-.07-.01-.14-.02-.22-.02-.07,0-.15-.01-.22-.03,1.87,3.23,3.45,5.8,4.73,7.71,.04-.43,.1-.87,.17-1.31,.07-.45,.13-.9,.18-1.35l-.11-.18c-.49-.72-.83-1.23-1.01-1.55-.24-.38-.6-1.01-1.09-1.88l-.61-.97Zm2.13,2.94c.29,.5,.53,.93,.73,1.3,.07-.55,.14-1.09,.21-1.61,.07-.52,.14-1.05,.21-1.57l-.11-.18c-.45-.12-.9-.23-1.34-.35-.45-.12-.89-.25-1.33-.39l.47,.75c.57,1.04,.96,1.72,1.17,2.05Zm-.94,38.42c.62,1.08,1.3,2.13,2.05,3.15,.37-.08,.71-.14,1.04-.17,.33-.04,.63-.03,.89,.03l.03-.15c-.21-.3-.45-.67-.73-1.11-.27-.36-.5-.68-.69-.95-.12,0-.25-.02-.38-.06-.13-.04-.29-.09-.47-.15-.25-.1-.52-.2-.82-.28-.29-.09-.6-.19-.92-.31Zm3.57,1.62c.1,.12,.28,.34,.53,.65l.2-1.46-.37-.04-.14-.03c-.26,.05-.53,.08-.81,.1,.18,.22,.37,.47,.58,.77Zm1.67-28.72c.71,.17,1.42,.33,2.14,.48,.71,.15,1.42,.29,2.11,.43,.02-.33,.06-.65,.13-.96,.07-.31,.12-.62,.16-.95,.01-.05,0-.09-.01-.12-.21-.4-.38-.74-.49-1.02-.26-.05-.53-.11-.8-.18-.27-.07-.5-.12-.69-.16-.19-.04-.37-.08-.53-.13-.16-.05-.34-.09-.53-.13,.19,.37,.42,.75,.69,1.14,.56,.88,.86,1.5,.91,1.84v.04s-.04,.1-.08,.14c-.03,.02-.06,.03-.08,.02-.05,0-.08-.04-.09-.09-.17-.27-.36-.63-.59-1.08-.26-.51-.45-.86-.56-1.04-.26-.41-.47-.78-.62-1.09-.33-.09-.66-.19-.98-.28s-.66-.19-.98-.28c-.39-.05-.78-.12-1.19-.21,.15,.34,.48,.91,.98,1.7,.03,.11,.22,.41,.59,.89,.27,.36,.45,.67,.55,.92,.02,.03,.02,.06,.02,.08l-.04,.03Zm4.67-1.58l.09-.41-.32-.07,.03,.04,.21,.43Z"/><path d="M273.46,337.91c-.03-.12,0-.19,.1-.21,.09-.02,.18,.03,.25,.14,.42,1.4,.87,2.89,1.34,4.46,.47,1.57,.89,3.18,1.27,4.82,.3,.94,.56,1.89,.79,2.86s.46,1.94,.69,2.92c.07,.34,.17,.84,.29,1.48,.12,.64,.26,1.35,.41,2.11,.15,.77,.31,1.57,.49,2.4,.18,.84,.38,1.64,.6,2.4,.22,.76,.47,1.44,.73,2.03,.26,.59,.55,1.03,.86,1.33,.17,.2,.4,.33,.7,.4,.3,.07,.59,.14,.88,.21,.04-.06,.07-.09,.09-.09l-.13-1.13c-.03-.12,.02-.19,.14-.2s.2,.04,.22,.17c.05,.22,.1,.45,.16,.68s.12,.48,.18,.75c.06,.04,.1,.06,.13,.07,.03,0,.06,.03,.09,.08,.21,.04,.37,.18,.5,.44,.23,.13,.43,.2,.6,.19,.15,.02,.22,.08,.21,.19-.01,.11-.08,.17-.2,.2-.21,.04-.39,.05-.52,.03,.03,.35,.1,.72,.24,1.11,.13,.38,.28,.74,.45,1.06,.17,0,.33-.02,.48-.04s.31-.02,.48,0c.12-.02,.2,.02,.24,.14,.04,.12,0,.19-.12,.22-.14,.05-.28,.09-.42,.12-.14,.03-.28,.06-.39,.08v.04c.01,.25-.06,.46-.21,.62-.15,.16-.34,.22-.57,.19l.23,1.07c.11,.03,.14,.11,.09,.25l-.03,.04c0,.13-.04,.19-.13,.2-.09,0-.16-.02-.22-.09-.1-.24-.19-.47-.26-.7-.07-.23-.15-.45-.22-.67l-1.72,.35-.03,.04s-.05,0-.08-.02c-.5,.1-1,.2-1.5,.3-.5,.1-1,.19-1.51,.27-.7,.09-1.41,.14-2.11,.14-.71,0-1.41,.06-2.11,.18-1.54,.23-3.05,.56-4.52,.99-1.47,.43-2.97,.82-4.48,1.18-.09,.07-.16,.12-.23,.16,.05,.22,.09,.44,.14,.65,.04,.21,.08,.41,.09,.62,.03,.12-.02,.2-.14,.22-.12,.02-.19-.03-.22-.15l-.37-1.2c-.05-.02-.12-.05-.21-.11-.23,.1-.46,.19-.71,.28-.24,.09-.54,.14-.88,.16-.12,.02-.18-.01-.19-.11,0-.1,.02-.18,.08-.25,.22-.12,.44-.24,.65-.34,.21-.11,.43-.21,.66-.31-.06-.27-.12-.53-.19-.79-.07-.26-.14-.52-.22-.78-.54,.14-1.2,.23-1.95,.28-.1,0-.16-.06-.17-.18-.01-.11,.04-.18,.16-.21,.41-.08,.74-.17,1.01-.26,.26-.09,.54-.18,.82-.26l-.05-.22c-.01-.18,.03-.34,.12-.49-.04-.17,0-.29,.11-.37-.06-.27-.11-.54-.15-.82-.05-.27-.08-.55-.12-.82-.03-.12,.02-.19,.14-.2,.12-.01,.19,.04,.22,.17,.05,.22,.11,.48,.2,.77,.09,.29,.18,.61,.28,.95,.25-.13,.51-.28,.78-.46,.27-.18,.52-.39,.75-.61,.23-.22,.42-.47,.57-.73,.16-.26,.24-.54,.25-.82,.03-.11,.05-.18,.07-.21-.11-.39-.2-.78-.27-1.18-.07-.4-.13-.81-.17-1.24l-.02-.11c-.15-.61-.37-1.46-.66-2.56-.3-1.2-.52-2.05-.66-2.56-.29-1.15-.54-2.2-.75-3.16-.15-.71-.28-1.38-.39-2-.24-1.36-.43-2.45-.58-3.27-.34-1.01-.71-1.99-1.11-2.93-.4-.95-.84-1.86-1.33-2.73-.45-.81-.99-1.33-1.62-1.58-.64-.24-1.32-.29-2.04-.15-.73,.15-1.46,.46-2.21,.93-.75,.47-1.43,1.02-2.06,1.63-.63,.61-1.17,1.26-1.62,1.94-.45,.68-.76,1.29-.92,1.84,.03,.12,.03,.21,.02,.27,.35,.85,.64,1.83,.86,2.92,.22,1.1,.45,2.08,.68,2.96,.17,.68,.4,1.35,.68,2,.29,.65,.5,1.33,.66,2.04,.09,.44,.12,.87,.07,1.29-.05,.42-.06,.87-.03,1.35,.03,.38,.09,.87,.18,1.46,.09,.6,.18,1.08,.29,1.44,.11,.41,.24,.89,.39,1.42,.15,.53,.34,1.06,.58,1.58,.23,.52,.52,.97,.86,1.34,.34,.38,.75,.61,1.21,.7,.12-.02,.21-.02,.28,0,.07,.02,.14,.06,.22,.09h.04c0-.37,0-.69-.02-.98-.01-.29-.03-.54-.04-.74-.03-.12,.02-.19,.14-.2,.12-.01,.2,.04,.22,.17,.1,.34,.17,.67,.23,.99,.06,.32,.1,.66,.12,1.01,.51,.05,.96,.18,1.35,.38,.13,.03,.18,.1,.14,.22-.04,.12-.12,.16-.26,.11-.15-.02-.31-.03-.47-.04-.16,0-.34-.01-.55-.02,.12,.59,.28,1.15,.47,1.68,.01,.05,.04,.11,.08,.18l.12,.21c.38-.08,.76-.12,1.13-.11,.12-.02,.2,.03,.24,.15,.04,.12,0,.19-.12,.22-.18,.09-.35,.15-.52,.2-.17,.05-.34,.1-.52,.16,0,.31-.12,.53-.35,.65-.04,.16-.15,.3-.32,.41,.03,.12,.04,.24,.05,.34,0,.1,.03,.21,.05,.34l.05,.07c.07,.11,.07,.2,0,.25-.08,.05-.16,.05-.24,0-.18-.17-.35-.46-.48-.86-.43-.04-.81-.03-1.15,.04-.41,.06-.81,.14-1.19,.26s-.79,.19-1.2,.22c-.58,.07-1.15,.06-1.7,0-.55-.07-1.13-.07-1.73,0-.5,.12-1.16,.29-1.99,.48-.92,.21-1.62,.37-2.1,.46l-.5,.1c-.09,.02-.19,.03-.29,.02-.83,.22-1.64,.43-2.45,.65-.81,.21-1.63,.43-2.45,.65,.02,.1,.04,.2,.04,.3,0,.1,.03,.21,.05,.34,.03,.12-.02,.2-.14,.22s-.19-.03-.22-.15c-.05-.12-.09-.24-.13-.36-.04-.12-.07-.24-.1-.37-.05,0-.1,0-.16-.04h-.07c-.15,.02-.23-.04-.26-.16l-.02-.11s-.05-.07-.07-.14c-.3,0-.56,.07-.78,.2-.1,.02-.17,0-.24-.07-.06-.07-.06-.14,.02-.24,.12-.15,.25-.27,.41-.35,.16-.08,.33-.14,.52-.18l-.2-.96c-.26,.08-.49,.14-.7,.2s-.42,.08-.62,.07c-.12,.02-.19-.03-.22-.15-.03-.12,.02-.2,.14-.22,.02,0,.17-.07,.43-.18,.26-.12,.55-.26,.86-.42,0-.08,.04-.14,.11-.18-.1-.34-.19-.67-.27-.99-.08-.32-.16-.65-.23-.99l-.07-.33c-.03-.15,.01-.23,.13-.24,.12-.01,.21,.04,.26,.16,.11,.26,.21,.53,.32,.8,.11,.27,.2,.54,.28,.81,.05,0,.08-.03,.1-.06,.34-.15,.74-.37,1.2-.67,.46-.3,.72-.65,.79-1.04,.04-.16,.1-.29,.18-.38,0-.23-.02-.46-.05-.68-.03-.22-.05-.46-.06-.72-.34-1.5-.79-3.43-1.34-5.81l-.59-2.8c-.17-.58-.35-1.15-.53-1.7-.18-.55-.35-1.09-.51-1.63-.04-.07-.08-.18-.11-.32,.03,.25,.07,.49,.12,.73,.05,.23,.1,.46,.15,.68,.03,.12-.02,.2-.14,.22-.12,.02-.19-.03-.22-.15-.16-.63-.32-1.27-.48-1.92-.16-.65-.32-1.29-.48-1.92-.11-.29-.22-.57-.33-.86-.11-.29-.21-.58-.3-.9-.09-.44-.17-.84-.23-1.18s-.14-.67-.23-.97c-.09-.3-.22-.6-.38-.9-.16-.3-.39-.62-.69-.98-.3-.38-.65-.73-1.03-1.06-.38-.33-.83-.53-1.33-.58-.44-.07-.9,0-1.39,.22s-.92,.42-1.3,.63c-.72,.35-1.32,.75-1.79,1.21-.48,.46-1.02,.91-1.65,1.37-.34,.25-.61,.54-.8,.87-.19,.33-.45,.62-.77,.87,.43,2.27,.85,4.54,1.26,6.81s.83,4.55,1.27,6.84c.09,.44,.19,1.02,.29,1.73,.1,.71,.24,1.43,.42,2.17,.18,.73,.4,1.43,.67,2.1,.27,.66,.61,1.18,1.04,1.56,.18,.04,.35,.08,.51,.13s.32,.12,.49,.21c.13,.03,.25,.03,.37,0,.12-.02,.24-.04,.37-.03-.04-.2-.08-.41-.12-.63-.04-.22-.06-.44-.08-.64-.03-.12,.02-.19,.14-.2,.12-.01,.2,.04,.22,.17,.03,.15,.08,.33,.14,.55,.06,.22,.13,.47,.22,.76l.24,.07c.21,.04,.4,.2,.59,.5l.02,.11c.13,.03,.27,.03,.41,.01,.15-.02,.29-.03,.44-.03,.12-.02,.2,.02,.24,.14,.04,.12,0,.19-.12,.22-.32,.14-.6,.24-.83,.28,.04,.17,.07,.34,.11,.5,.03,.16,.08,.31,.13,.45,.49-.02,.92,.07,1.29,.28,.13,.03,.18,.1,.14,.22-.04,.12-.12,.16-.26,.11-.38-.05-.74-.04-1.08,.03l.12,.55c.04,.2-.04,.32-.26,.36-.12,.02-.22,.02-.3-.02,.06,.27,.11,.54,.15,.8s.08,.53,.11,.8c.03,.12-.02,.2-.14,.22-.12,.02-.19-.03-.22-.15-.08-.27-.16-.53-.22-.8-.07-.27-.15-.54-.23-.8-.13-.03-.26-.03-.38-.02-.12,.01-.25,0-.38-.02-.37,.13-.81,.28-1.32,.46-.35,.12-.74,.23-1.16,.31-.38,.08-.82,.14-1.3,.19,0,.02,0,.05-.02,.08-.04,.06-.08,.09-.13,.1-.02,0-.07-.01-.12-.05-.04-.04-.08-.07-.13-.09-.86,.07-1.53,.16-2.03,.26l-.54,.11s-.09,.06-.13,.07l-.07,.02c-.45,.12-1.15,.31-2.11,.58-.45,.09-1.98,.39-4.58,.89l-.54,.11c-.47,.12-.94,.25-1.39,.4-.45,.14-.91,.29-1.38,.43-.23,.1-.43,.2-.6,.31,.05,.12,.08,.23,.11,.33,.02,.1,.05,.17,.08,.21,.07,.11,.07,.2-.02,.25-.09,.06-.18,.04-.27-.04-.16-.15-.29-.43-.4-.84-.13-.03-.23-.06-.3-.09-.07-.04-.14-.11-.22-.22-.07-.09-.15-.23-.24-.41-.19,.04-.38,.07-.56,.09-.18,.02-.37,.04-.57,.06-.12,.02-.19-.03-.22-.15-.03-.12,.02-.2,.14-.22,.12-.02,.27-.06,.46-.11,.19-.05,.39-.11,.6-.18-.03-.12-.05-.24-.07-.35-.02-.11-.04-.23-.04-.36l-.03-.15c-.02-.07-.02-.14,0-.19-.05-.22-.07-.4-.07-.52-.35,.12-.71,.18-1.08,.18-.12,.02-.18-.01-.19-.11,0-.1,.02-.18,.08-.25l1.32-.61c-.1-.49-.17-.93-.2-1.31-.03-.38-.02-.66,.04-.86,.03-.08,.08-.14,.15-.17,.07-.03,.14,0,.21,.09,.03,.02,.08,.08,.15,.16,.07,.11,.07,.21-.02,.27,.03,.12,.06,.3,.09,.52,.03,.22,.09,.52,.17,.89,.3-.11,.63-.21,.99-.28,.36-.07,.71-.16,1.04-.27s.65-.25,.93-.44c.28-.18,.49-.46,.61-.82,.15-.34,.23-.72,.24-1.15,0-.43,0-.85-.05-1.28-.04-.43-.1-.85-.18-1.27-.08-.42-.14-.81-.19-1.15-.12-.8-.25-1.57-.38-2.33-.14-.75-.33-1.5-.59-2.25-.13-.38-.27-.75-.42-1.11-.15-.35-.28-.72-.39-1.11-.31-1.12-.54-2.27-.7-3.46-.15-1.19-.31-2.35-.48-3.5-.07-.45-.14-.93-.2-1.46-.14-.54-.23-.89-.26-1.06-.09-.44-.25-1.08-.48-1.9-.18-.4-.42-.79-.69-1.17-.4-.48-.81-.81-1.23-.98-.42-.17-.86-.25-1.32-.25-.46,0-.93,.05-1.42,.15-.49,.1-.98,.17-1.46,.22l-.29,.06c-.01,.05-.06,.1-.16,.15,.09,.44,.21,.8,.34,1.08,.03,.12,0,.19-.1,.21-.09,.02-.17,0-.24-.07-.16-.3-.29-.6-.4-.9-.1-.3-.21-.62-.33-.95l-.05-.07c-.17,0-.34,.02-.51,.05-.17,.02-.34,.04-.51,.05-.12,.02-.19-.03-.22-.15-.03-.12,.02-.2,.14-.22,.14-.05,.28-.1,.42-.14,.14-.04,.29-.08,.46-.11-.19-.45-.34-.91-.43-1.39-.09-.48-.16-.96-.21-1.44-.32,.14-.53,.3-.64,.48-.05,.11-.12,.15-.2,.12-.08-.03-.13-.1-.15-.2,.07-.27,.19-.5,.37-.69,.18-.19,.41-.35,.68-.48,.04-.06,.08-.11,.12-.14-.03-.35-.06-.71-.11-1.05-.05-.35-.09-.7-.11-1.05-.03-.12,.02-.19,.14-.2,.12-.01,.2,.04,.22,.17,.07,.32,.14,.64,.2,.96,.07,.32,.13,.66,.18,1h.04c.83-.18,1.66-.35,2.46-.52s1.58-.44,2.33-.8c.37-.15,.7-.34,1.02-.57,.31-.23,.64-.41,.99-.53,1.45-.55,2.96-.97,4.54-1.26,1.58-.29,3.12-.59,4.62-.9,.15-.13,.33-.21,.55-.23-.03-.12-.04-.23-.05-.34,0-.1-.01-.21-.02-.34-.03-.12,.02-.19,.14-.2,.12-.01,.2,.04,.22,.17l.2,.96s.04,.04,.05,.05,.02,.03,.05,.05c.48-.07,.95-.14,1.41-.21s.9-.21,1.33-.42c.12-.02,.2,.01,.23,.11,.03,.1,0,.18-.08,.25-.37,.25-.79,.45-1.26,.58-.47,.13-.94,.25-1.42,.34,.18,.61,.35,1.22,.52,1.84s.37,1.24,.6,1.86c.35-.46,.74-.89,1.16-1.31,.42-.42,.77-.77,1.06-1.06,.55-.55,1.25-1.12,2.09-1.73,.84-.61,1.73-1.17,2.66-1.69l-.75,.15v-.04c-.21-.03-.24-.16-.08-.37,1.34-.45,2.71-.88,4.09-1.27,1.38-.39,2.79-.67,4.22-.83h.04s.07,0,.08,.01c.07-.01,.11,0,.12,.05,.03,.02,.05,.05,.06,.1,.02,.1-.03,.16-.15,.18-.16,.06-.32,.11-.47,.15s-.3,.08-.44,.11c.49,.08,.97,.17,1.46,.26,.48,.1,.96,.17,1.45,.23,.76,.08,1.44,.16,2.05,.24,.6,.08,1.17,.21,1.7,.39s1.06,.4,1.58,.68c.52,.28,1.09,.65,1.71,1.12,.06,.04,.11,.08,.16,.12s.1,.08,.16,.12c.16-.16,.33-.33,.49-.52,.16-.19,.32-.36,.49-.52,.46-.5,.9-.98,1.32-1.44,.41-.45,.83-.89,1.27-1.31,.04-.03,.08-.08,.12-.14l-.04-.18c-.02-.1,0-.15,.04-.16,.05,0,.13,.03,.25,.1,.59-.61,1.08-1.05,1.47-1.33,.56-.42,1.15-.8,1.77-1.13-.23,0-.43,.04-.61,.12-.01,.18-.1,.21-.28,.09l-.09-.06c-.1-.13-.09-.24,.04-.32,.25-.23,.56-.34,.94-.33,.38,.01,.73-.04,1.05-.15h-.07l1.16-.33c.39-.13,.79-.25,1.19-.36,.38-.1,.75-.19,1.14-.27,.57-.12,1.14-.2,1.7-.27,1.78-.15,2.7-.24,2.74-.25,.54-.03,.99,0,1.36,.07,.19,.06,.46,.19,.83,.37,1.62,.26,2.98,.93,4.06,2.01s2.07,2.56,2.94,4.47c-.18-.63-.35-1.26-.49-1.88-.15-.62-.3-1.25-.46-1.89Zm-65.11,12.93c.1,.11,.26,.24,.49,.4l.54-.11c.94-.14,1.75-.13,2.43,.01-.27-.2-.54-.44-.82-.72-.25-.23-.61-.57-1.07-1.01-.21-.16-.39-.31-.54-.43-.31,.09-.61,.16-.9,.22-.3,.06-.6,.12-.91,.18,0,.15,.02,.31,.04,.47,.02,.16,.05,.32,.08,.46,.27,.23,.5,.4,.67,.52Zm-.54,.11c.02,.1,.08,.24,.17,.43l.25-.05c-.15-.12-.29-.25-.42-.38Zm5.82,.9c3.01,1.67,7.17,4.57,12.47,8.68-.1-.49-.2-.98-.3-1.48-.09-.49-.18-.99-.26-1.49-1.02-.59-2.43-1.64-4.25-3.14-1.52-1.28-3.14-2.38-4.87-3.29-1.28-.64-2.64-1.53-4.07-2.68l-.39-.27c-.37,.13-.74,.25-1.09,.38-.36,.12-.73,.24-1.1,.34,.3,.25,.68,.57,1.14,.96,.36,.31,1.11,.83,2.23,1.55,.03,.02,.05,.05,.06,.1v.12c.07,.04,.17,.08,.28,.13,.03,.04,.08,.07,.13,.09h.04Zm10.9,3.75c-.04,.14-.11,.2-.2,.19-.09,0-.15-.07-.17-.2-.01-.07,.03-.21,.14-.39,.11-.19,.26-.41,.46-.65-2.46-1.74-4.37-3.08-5.74-4.04-2.41-1.51-3.95-2.7-4.63-3.57l-.64,.17c-.25,.13-.49,.28-.74,.46-.25,.18-.51,.33-.78,.46,.35,.24,.86,.61,1.54,1.11l4.42,2.57c.87,.49,2.19,1.46,3.93,2.9,1.31,1.12,2.42,1.96,3.33,2.52-.05-.35-.11-.68-.18-1-.07-.32-.14-.65-.21-1-.13,.08-.25,.15-.34,.22-.1,.07-.16,.15-.19,.23Zm-7.62-1.31c-1.04-.66-1.86-1.19-2.46-1.58,.36,.42,.68,.86,.96,1.35,.29,.53,.52,1.14,.69,1.82,1.19,.81,2.97,2.03,5.32,3.66,2.4,1.69,4.11,2.9,5.13,3.62-.05-.35-.11-.7-.17-1.06-.06-.36-.13-.71-.21-1.06-2.56-2-4.52-3.51-5.89-4.54-.82-.58-1.94-1.31-3.38-2.2Zm8.17-1.92c-.29-.2-.63-.44-1.01-.72-1.99-1.29-3.2-2.08-3.64-2.38-1.08-.76-1.8-1.28-2.16-1.56-.75-.62-1.19-1.11-1.32-1.47-1.03,.29-1.78,.5-2.25,.65,.83,.86,2.46,2.06,4.9,3.59,2.34,1.53,4.12,2.75,5.36,3.65,0-.02,0-.04,0-.06,0-.01,.01-.03,0-.06,0-.28,0-.55,0-.81,0-.26,.04-.52,.11-.79v-.04Zm-9.24,29.23c-.09,.02-.18,.05-.24,.09l.09,.44c.13-.08,.27-.13,.41-.16-.1-.13-.19-.26-.27-.37Zm.68-.29c-.16,.06-.3,.11-.41,.16l.3,.36c.3-.11,.62-.21,.96-.29s.7-.17,1.08-.28c-.37-.23-.66-.42-.86-.56-.32,.27-.67,.47-1.07,.6Zm9.04-16.8c.52,.48,1.01,.9,1.46,1.25-.05-.37-.12-.75-.2-1.12-.08-.37-.14-.74-.2-1.11l-5.88-4c-1.91-1.26-3.4-2.28-4.49-3.06,.09,.31,.17,.63,.22,.96,.06,.32,.11,.66,.16,1.01,.59,.57,1.33,1.13,2.22,1.67,.37,.21,1.03,.57,1.99,1.1,.81,.43,1.42,.77,1.82,1.02,.61,.42,1.58,1.18,2.91,2.3Zm-2.36,.32c1.96,1.53,3.39,2.64,4.29,3.33-.06-.29-.13-.6-.19-.9-.07-.31-.12-.61-.16-.91-.45-.35-.99-.81-1.64-1.4-1.52-1.29-2.66-2.16-3.43-2.62-2.75-1.7-4.12-2.53-4.11-2.48-.49-.31-.9-.62-1.24-.94,.05,.48,.11,.95,.19,1.4,.07,.46,.13,.9,.17,1.33,.61,.29,1.52,.71,2.73,1.26,1.41,.69,2.54,1.33,3.39,1.93Zm-.56,2.62c2.36,1.63,4.18,3,5.46,4.13-.11-.52-.2-1-.27-1.46-.07-.46-.14-.88-.19-1.25-.5-.33-1.11-.8-1.86-1.39-1.84-1.53-2.76-2.3-2.77-2.33-.76-.54-1.9-1.17-3.42-1.89-1.02-.46-1.84-.86-2.45-1.2,.04,.43,.09,.85,.14,1.26,.05,.41,.1,.79,.15,1.14,1.34,.58,3.08,1.57,5.22,2.99Zm2.99-17.38c-.13,.21-.34,.29-.62,.24-.08,.07-.16,.13-.22,.2-.04,.04-.09,.06-.13,.07-.14,.03-.26-.01-.36-.12-.06-.06-.1-.13-.12-.21-.03-.12,.01-.23,.12-.33l-.17-.78c-.48-.39-1.52-1.13-3.12-2.22-.76-.51-1.28-.96-1.59-1.33l-.82,.17c-.47,.15-.91,.27-1.33,.39,.18,.38,.64,.86,1.39,1.45,.79,.58,1.83,1.3,3.1,2.14,2.1,1.34,3.15,2.03,3.16,2.05,.55,.38,.96,.68,1.24,.9,.14-.18,.25-.36,.35-.53,.1-.17,.23-.34,.4-.5,.12-.13,.25-.25,.37-.36,.12-.12,.25-.22,.38-.33-.22-.08-.56-.25-1.03-.48l-.69-.28c-.11-.05-.18-.09-.21-.11l-.04-.03h-.04Zm-1.09,21.39c2.32,1.43,3.84,2.57,4.57,3.42l-.02-.11c-.18-.4-.34-.81-.47-1.23-.13-.42-.24-.86-.33-1.3-.91-.79-2.95-2.34-6.1-4.66-.59-.42-1.47-.95-2.65-1.58-.83-.42-1.5-.76-2.01-1.02,.09,.44,.22,.87,.38,1.27,.16,.4,.31,.82,.45,1.26,.6,.37,1.61,1.02,3.03,1.97,1.33,.86,2.37,1.52,3.14,1.98Zm-6.68,9.09c.36,.18,.72,.39,1.07,.63,.49-.12,.98-.24,1.46-.33,.48-.1,.9-.19,1.28-.3-.29-.17-.6-.39-.96-.65-.46-.29-.87-.57-1.22-.83-.04,.04-.08,.08-.12,.14-.38,.44-.78,.77-1.2,1.01-.12,.13-.22,.24-.3,.33Zm10.36-3.71c.78,.64,1.41,1.17,1.9,1.58,1.06-.16,2.08-.21,3.06-.16l-.47-.44c-.15-.12-.29-.24-.41-.34-.23-.03-.43-.11-.61-.22l-.16-.04c-.28-.04-.52-.11-.71-.2-.45-.14-.75-.27-.9-.39-.12-.08-.19-.18-.21-.3l-.02-.07c-.2,.01-.32-.09-.36-.31l-.11-.52s-.08-.02-.1-.1c-.78-.84-2.51-2.11-5.2-3.8-2.52-1.57-4.31-2.73-5.37-3.49v.04c.27,.87,.49,1.76,.69,2.67,.59,.45,1.34,.91,2.24,1.4,1.69,.92,2.76,1.53,3.23,1.85l3.52,2.87Zm-7.22-4.5c-.64-.33-1.19-.68-1.64-1.05,.05,.37,.12,.75,.18,1.14,.07,.38,.12,.76,.15,1.14,2.01,1.13,4.58,2.94,7.71,5.41,.38-.1,.75-.19,1.12-.26,.37-.07,.73-.15,1.09-.22-.55-.48-1.26-1.08-2.13-1.8-1.96-1.63-3.1-2.53-3.4-2.7-.37-.23-.87-.52-1.49-.85-.8-.4-1.33-.67-1.58-.79Zm-.03,7.24c.46,.32,.87,.61,1.23,.87,.05,0,.09-.02,.12-.04,.03-.02,.07-.03,.12-.04,.33-.09,.66-.19,1-.28,.34-.09,.67-.19,1-.28-.07-.09-.15-.17-.24-.26-.84-.7-1.5-1.22-1.97-1.56-.14-.1-.66-.42-1.54-.96-.26-.15-.49-.3-.69-.44,.01,.41,0,.8-.05,1.17s-.15,.71-.3,1.02c.37,.23,.82,.5,1.33,.81Zm3.44-.31c.16,.15,.31,.28,.46,.41,.35-.12,.7-.23,1.05-.33,.35-.1,.71-.19,1.06-.29-2.18-1.71-4.59-3.42-7.24-5.12,.03,.15,.06,.3,.08,.45,.02,.15,.03,.29,.03,.42,0,.21,0,.43,.05,.66,.04,.24,.06,.48,.06,.74l.86,.52c.84,.47,1.38,.79,1.62,.94,.45,.37,1.11,.9,1.98,1.6Zm-2.55-32.23c.9,.59,1.57,1.07,2.02,1.44-.15-.46-.29-.91-.44-1.35-.14-.45-.29-.9-.44-1.36-.15-.12-.35-.3-.6-.53l-.22-.15c-.41,.08-.8,.16-1.18,.22-.38,.07-.78,.14-1.18,.22,.58,.5,1.26,1,2.04,1.51Zm.76-2.04l.23,.19-.05-.22-.18,.04Zm2.86,7.66c0,.26,.02,.46,.05,.6,.14-.05,.28-.15,.43-.28l-.48-.33Zm2.85-3.62c-.59-.32-1.02-.59-1.29-.82-.16,.19-.31,.38-.46,.57-.14,.2-.3,.39-.46,.57-.02,.03-.07,.1-.14,.22-.08,.12-.14,.21-.2,.27,.13,.02,.3,.08,.52,.16,.02,0,.39,.13,1.09,.39,.28,.15,.46,.25,.55,.31,.44-.4,.88-.76,1.34-1.08-.18-.14-.5-.35-.95-.62Zm-2.49,.58s.03-.03,.02,0c0,.03-.03,.07-.07,.13,.02-.03,.03-.05,.02-.06,0-.01,0-.03,.02-.06Zm2.61-.87c.54,.3,.92,.53,1.15,.69,.19-.14,.39-.28,.58-.41,.2-.13,.41-.24,.64-.34-.32-.22-.71-.51-1.16-.88-.56-.43-.98-.75-1.25-.98-.02,0-.05,0-.08-.02h-.04l-.82,.87c-.06,.06-.12,.13-.16,.21-.05,.07-.1,.14-.16,.21,.34,.19,.77,.41,1.29,.66Zm2.85-.27c.36-.18,.73-.33,1.12-.46,.38-.13,.78-.21,1.2-.24-.51-.31-1.13-.75-1.85-1.32-.71-.55-1.21-1-1.48-1.36-.3,.24-.59,.48-.89,.72s-.59,.49-.88,.76c.31,.19,.76,.5,1.35,.92,.15,.12,.44,.32,.87,.59l.57,.39Zm.98-2.05c.71,.55,1.39,.99,2.03,1.32,.13,.03,.25,.04,.37,.06s.23,.04,.33,.07c.6,0,1.11,.14,1.53,.38,.03,.04,.08,.09,.14,.13l-.23-1.11c-.08-.04-.17-.08-.25-.14-1.94-.94-3.36-1.98-4.27-3.1-.04,.04-.08,.06-.12,.06-.04,0-.07,.03-.12,.06-.37,.23-.78,.49-1.21,.78,.33,.37,.93,.86,1.81,1.48Zm13.89,6.93c1.72,1.45,3.31,2.47,4.75,3.08-.04-.07-.07-.13-.08-.2-.01-.06-.04-.13-.08-.19-.07,.01-.12-.04-.15-.16-.03-.15-.06-.3-.09-.44-.03-.15-.05-.3-.06-.45-.05-.12-.09-.25-.12-.38-.03-.13-.06-.26-.08-.39l-.04-.03c-.26-.07-.6-.33-1.02-.76l-.02-.07c-1.1-.86-3.72-2.54-7.86-5.07-3.16-1.9-5.55-3.69-7.18-5.36-.47,.22-.82,.38-1.03,.48-.22,.1-.53,.25-.93,.46,.96,1.04,2.35,2,4.16,2.89l-.19-.88c-.03-.12,.01-.2,.12-.22,.11-.02,.19,.03,.24,.14,.09,.21,.18,.43,.25,.64,.07,.22,.14,.43,.21,.65,2.45,1.22,3.96,2.03,4.54,2.43,.15,.1,1.7,1.38,4.65,3.83Zm-12.97,24.09s-.05,0-.08-.02c-.14,.03-.25,.04-.33,.03,.23,.16,.4,.28,.49,.36l-.08-.37Zm.7-34.47s-.06,.05-.04,.05c.01,0,.04-.02,.08-.06h-.04Zm15.93,10.6c.14,.1,.27,.2,.36,.31-.17-.56-.31-1.1-.42-1.65-.12-.54-.23-1.07-.34-1.59-1.63-1.03-3.59-2.38-5.85-4.05-3.68-2.69-5.88-4.28-6.6-4.75l-.04-.03c-.42,.03-.83,.14-1.24,.31-.41,.17-.81,.36-1.18,.57l.07-.02s-.04,.02-.05,.03c0,.01-.03,.02-.05,.03v.04c1.9,1.77,4.39,3.59,7.47,5.46,3.96,2.38,6.56,4.11,7.81,5.19,.03,.02,.04,.04,.05,.07l.02,.07Zm-8.52-3.78c-.31-.19-1.7-.91-4.15-2.16,.12,.33,.23,.67,.33,1.01,.1,.34,.19,.68,.29,1.02,.15,.23,.3,.48,.46,.75,1.96,.81,4.2,2.13,6.73,3.95,3.96,2.97,6.18,4.6,6.67,4.89l-.37-1.73c-.04-.07-.08-.19-.11-.36-.04-.07-.07-.18-.11-.33-1.49-.44-3.17-1.46-5.05-3.06-2.78-2.42-4.34-3.74-4.68-3.98Zm2.49-3.54c2.31,1.74,4.15,3.06,5.54,3.96,0-.08,.04-.16,.1-.25-.09-.42-.18-.85-.27-1.29-.09-.44-.17-.88-.24-1.3l-.35-.24c-1.46-.88-2.58-1.58-3.39-2.08-1.87-1.19-3.09-2.11-3.68-2.76-.12,0-.32-.03-.57-.08-.61-.08-1.23-.19-1.86-.32-.62-.13-1.25-.17-1.89-.12,1.59,.94,3.8,2.43,6.62,4.47Zm6.34,14.57c1.1,.96,1.82,1.56,2.17,1.79-.01-.05,0-.09,.01-.12l-.63-2.95s-.08,.05-.1,.06c-.02,0-.07-.01-.12-.05-.66-.41-2.89-2.02-6.69-4.84-2.42-1.79-4.55-3.12-6.4-3.98,.3,.61,.6,1.3,.89,2.09,.14,.43,.3,.94,.47,1.52,.06,.04,.1,.06,.12,.05,.11,.03,.29,.13,.55,.31,.64,.33,1.01,.54,1.1,.62,.55,.35,1.25,.8,2.11,1.34,1.27,.72,1.99,1.14,2.17,1.25,2.34,1.45,3.79,2.41,4.34,2.89Zm.15,2.82c.92,.69,1.71,1.3,2.37,1.83-.07-.42-.13-.83-.18-1.21-.06-.38-.11-.79-.15-1.22v-.07c-.37-.13-1.11-.7-2.24-1.71-.73-.62-2.22-1.63-4.48-3.02-.48-.29-1.23-.75-2.23-1.4-.97-.6-1.71-1.05-2.23-1.36-.59-.34-1.04-.61-1.33-.81,.15,.61,.32,1.28,.5,2.01,.05,.12,.09,.23,.12,.32,.03,.1,.08,.19,.15,.28,.65,.51,1.63,1.09,2.94,1.75,1.49,.8,2.55,1.46,3.18,1.97,.5,.36,1.69,1.24,3.58,2.63Zm.62,3.3c1.11,.67,2.01,1.24,2.71,1.68-.05-.09-.08-.18-.09-.27-.02-.09-.05-.16-.09-.23-.14-.33-.27-.68-.37-1.04-.1-.36-.21-.73-.31-1.09-1.19-.94-3.33-2.56-6.4-4.86-.44-.32-1.5-.93-3.18-1.82-.98-.52-1.77-1.04-2.38-1.56,.09,.21,.18,.42,.24,.62,.07,.21,.14,.42,.21,.63,.05,.12,.11,.32,.18,.6,.07,.28,.17,.58,.28,.88,.7,.5,1.56,1.14,2.57,1.91,1.52,1.21,2.64,2.06,3.34,2.56,.7,.47,1.79,1.14,3.29,1.99Zm-9.08,10.07c.09-.02,.18-.04,.26-.07,.08-.03,.17-.05,.26-.07-.18-.14-.41-.34-.69-.59l.16,.74Zm0-1.04c.45,.37,.77,.63,.95,.77,.4-.11,.81-.22,1.24-.33,.42-.11,.85-.22,1.27-.33-.24-.18-.5-.37-.79-.57-.43-.27-.8-.49-1.11-.66-.22,.25-.47,.46-.74,.63-.27,.17-.56,.34-.84,.5h.04Zm8.29-7.84c1.69,1.07,3.17,2.03,4.41,2.88-.17-.33-.31-.77-.43-1.34v-.04c-.05-.07-.08-.15-.11-.23-.03-.08-.07-.16-.1-.23-.67-.46-1.74-1.1-3.21-1.93-1.42-.82-2.49-1.48-3.22-2-.44-.32-.99-.75-1.65-1.28-.84-.7-1.38-1.13-1.62-1.29-1-.75-1.79-1.34-2.36-1.79,.08,.24,.13,.46,.18,.66,.04,.2,.08,.34,.13,.44,.05,.22,.1,.44,.16,.64,.06,.21,.12,.42,.19,.63,.97,.57,2.08,1.27,3.35,2.09,2.48,1.63,3.91,2.56,4.28,2.79Zm-1.27-21.29c-.03-.12,.02-.19,.14-.2,.12-.01,.2,.04,.22,.17l.08,.37,1.07,.67c.24-.38,.54-.78,.91-1.18-.15-.1-.32-.21-.52-.32-.38-.28-.69-.48-.91-.59-.25-.13-.48-.25-.67-.36,0,.08-.04,.15-.1,.21-.07,.04-.12,.06-.17,.07-.12,.02-.23-.02-.32-.13l-.05-.07c-.23-.03-.4-.18-.5-.44l-.48-.33c-.28-.15-.68-.44-1.19-.88-.57-.47-1.18-.85-1.81-1.14-.45-.11-.89-.19-1.33-.23-.44-.04-.88-.08-1.31-.12,.24,.21,.55,.45,.94,.73,.82,.58,1.81,1.22,2.98,1.94l3.05,1.88v-.07Zm1.49,24.86c1.87,1.32,3.22,2.34,4.04,3.07l.11-.02c.42-.03,.92-.14,1.52-.33s1.16-.28,1.71-.29c-.03-.15-.06-.24-.1-.29-.38-.28-.96-.73-1.74-1.34-.87-.7-1.56-1.22-2.09-1.58-.17-.09-1.57-.99-4.19-2.69-.43-.27-1.87-1.21-4.33-2.82-1-.62-1.9-1.18-2.71-1.68,.1,.34,.18,.67,.25,1.01,.07,.33,.14,.67,.22,1.02l.22,1.03,1,.68c.26,.18,1.26,.82,2.98,1.94,.4,.25,.92,.64,1.55,1.15,.77,.59,1.29,.97,1.55,1.15Zm-3.26,.47c1.56,1.15,2.77,2.03,3.62,2.65l.11-.02c.48-.07,.96-.09,1.42-.06,.47,.03,.95,.05,1.45,.05l-4.51-3.51c-1.25-.95-2.23-1.65-2.94-2.1-1.29-.82-2.25-1.46-2.87-1.92,.12,.46,.24,.93,.35,1.41,.11,.48,.22,.96,.33,1.45,.77,.48,1.79,1.17,3.04,2.04Zm-1.24,2.25c-.6-.39-1.11-.71-1.51-.96-.07,.14-.18,.25-.34,.34-.1,.25-.22,.49-.37,.73,.71,.42,1.41,.89,2.09,1.42l1.69-.46-1.57-1.07Zm.46-.13c.63,.41,1.17,.78,1.61,1.1,.38-.1,.75-.19,1.12-.26,.37-.08,.75-.15,1.13-.23-.77-.56-1.85-1.36-3.26-2.38-.35-.26-1.09-.77-2.22-1.51-.19-.09-.37-.18-.54-.28,.09,.42,.16,.82,.2,1.21,.04,.39,.08,.77,.11,1.15l.42,.22,1.44,.98Zm3.88-26.18c-.2-.11-.45-.25-.76-.42,.07,.19,.13,.39,.18,.6,.06,.21,.1,.41,.15,.61,.07-.14,.13-.27,.2-.38,.06-.12,.14-.25,.23-.39Zm-.11-2.63c.62,.34,1.09,.64,1.42,.91,.15-.21,.33-.41,.52-.61,.19-.19,.4-.39,.6-.58-.24-.18-.56-.42-.97-.73-.29-.2-.55-.36-.78-.5-.42,.47-.9,.87-1.42,1.21,.19,.09,.4,.19,.62,.3Zm1.95-1.16c.33,.27,.61,.48,.84,.64,.21-.17,.42-.35,.63-.53,.21-.18,.43-.36,.67-.54-.3-.25-.67-.56-1.09-.93-.27-.23-.52-.43-.73-.62-.2,.24-.4,.48-.6,.7-.2,.22-.4,.45-.6,.7l.87,.59Zm2.54-.67c.59-.4,1.16-.74,1.73-1-.66-.28-1.32-.85-2-1.71-.1-.11-.21-.25-.35-.43-.24,.25-.48,.51-.71,.78-.23,.27-.46,.54-.7,.82,.26,.18,.57,.4,.92,.66,.1,.13,.41,.37,.93,.7l.19,.19Zm4.14-1.76c-1.5-1.24-2.57-2.11-3.2-2.62-.39,.26-.71,.48-.94,.65-.17,.14-.29,.25-.37,.35,1.08,1.09,1.96,1.81,2.66,2.16,.67-.26,1.32-.4,1.97-.4l-.1-.13Zm2.59-1.14c-1.43-1.22-2.51-2.11-3.25-2.65-.41,.16-.81,.32-1.19,.47s-.72,.33-1.03,.51c.79,.58,1.83,1.4,3.09,2.45,.19,.19,.38,.37,.56,.54,.9,.15,1.65,.62,2.23,1.4,.07,.11,.14,.22,.2,.31,.06,.09,.12,.19,.2,.31,.29,.17,.54,.33,.77,.46,.03,.02,.05,.05,.06,.1,.14,.07,2.42,1.51,6.84,4.31,3.34,2.15,5.55,3.78,6.63,4.89-.22-1.16-.39-2-.5-2.52-5.69-4.55-8.87-7.01-9.54-7.38-2.87-1.68-4.56-2.75-5.08-3.21Zm-5.01,31.57c.44,.32,.83,.64,1.17,.96l-.16-.78c-.12,0-.26,0-.42-.03-.2-.01-.4-.06-.59-.15Zm6.21-33.31c-.92-.71-1.62-1.25-2.1-1.62-.35,.1-.7,.19-1.04,.29-.34,.09-.67,.2-1,.32,.56,.42,1.6,1.25,3.1,2.49,.45,.35,2.15,1.39,5.1,3.13,2.87,1.7,5.95,4.08,9.23,7.14l-.45-2.1-.05-.07c-3.43-3.18-6.23-5.41-8.39-6.69-2.08-1.25-3.55-2.21-4.41-2.88Zm12.7,8.9c-.08-.27-.15-.53-.21-.81-.25-.82-.54-1.65-.86-2.48-.68-.53-1.85-1.47-3.51-2.83-1.57-1.3-2.86-2.28-3.87-2.95-.23-.13-.78-.46-1.66-.97-.65-.38-1.18-.72-1.6-1.02l-.09-.06c-.43,.06-.87,.13-1.32,.21-.44,.08-.88,.17-1.3,.28,.47,.37,1.11,.84,1.91,1.42,.94,.68,2.51,1.69,4.7,3.01,2.88,1.73,5.48,3.79,7.8,6.2Zm-.85,6.02c1.16,.92,1.99,1.6,2.48,2.04l-.37-1.73s-.05,0-.08-.02c-.35-.26-.91-.7-1.66-1.32-.78-.61-1.36-1.06-1.74-1.34-1.08-.76-2.29-1.56-3.64-2.42-3.77-2.42-5.96-3.84-6.57-4.25-.03-.02-.06-.03-.08-.02l-.12-.05c.25,.46,.49,.94,.73,1.43,.24,.49,.48,1.01,.72,1.55,.54,.3,1.35,.75,2.45,1.35,.37,.23,1.05,.6,2.02,1.09,.86,.44,1.54,.8,2.02,1.09,1.25,.72,2.53,1.59,3.84,2.61Zm-3.38-12.4c1.24,1.06,2.21,1.86,2.9,2.42-.4-1.05-.86-2.05-1.38-2.99-.52-.48-1.26-1.03-2.21-1.63-1.23-.78-2.02-1.3-2.35-1.57-.62-.44-1.14-.81-1.58-1.11-.81-.04-1.62-.02-2.45,.07,.38,.28,.92,.61,1.62,.98,.79,.46,1.35,.79,1.67,1.01,.95,.63,2.21,1.57,3.77,2.82Zm4.19,16.05c1.04,.82,1.9,1.48,2.58,1.98l-.03-.15c-.36-1.24-.6-2.14-.72-2.7l-.04-.19c-.38-.28-.88-.68-1.48-1.2-.79-.66-1.3-1.08-1.54-1.27-1.39-1.03-2.6-1.85-3.65-2.46-.4-.23-1.03-.56-1.89-1-.84-.45-1.46-.77-1.85-.97-.69-.45-1.3-.84-1.82-1.17-.23-.16-.44-.31-.62-.45,.16,.43,.33,.87,.5,1.32,.17,.45,.33,.92,.48,1.4,.22,.09,.48,.2,.78,.34,.85,.5,2,1.25,3.46,2.26l1.57,1.07c.64,.44,1.16,.8,1.58,1.11,.44,.32,1.33,1.01,2.68,2.08Zm.09,2.52c1.66,1.15,2.74,2.1,3.25,2.84,.03,.04,.05,.08,.06,.1,.02,.07,0,.13-.08,.17-.02,.03-.05,.05-.1,.06-.05,0-.09-.02-.13-.09-1.02-1.08-2.57-2.33-4.64-3.76-.63-.41-1.47-1.01-2.51-1.8-1.13-.85-1.93-1.44-2.43-1.78-1.11-.78-1.97-1.38-2.59-1.83,.26,.87,.48,1.73,.65,2.56,.54,.33,1.2,.72,1.97,1.18,1.58,.91,3.36,2.03,5.33,3.35,.69,.45,2.51,1.8,5.45,4.06-.19-.29-.34-.65-.45-1.06l-.05-.26c-.23-.52-.42-1.05-.56-1.6-.14-.55-.27-1.09-.38-1.63-.07-.19-.12-.41-.18-.66h-.07s-.1,0-.16-.03c-.65-.46-1.5-1.11-2.58-1.94-1.26-1-2.09-1.67-2.51-1.99l-1.44-.98c-.81-.55-1.28-.88-1.4-.99-1.37-.93-2.41-1.62-3.12-2.06-.54-.33-.98-.58-1.32-.77,.13,.38,.25,.77,.35,1.14,.1,.38,.21,.76,.32,1.15,.26,.18,.49,.32,.69,.44,.27,.23,1.02,.76,2.24,1.59,.93,.66,1.69,1.21,2.25,1.66,1.29,.94,2.67,1.92,4.13,2.94Zm-8.26,10.29c-.42,.37-.88,.69-1.4,.98,.03,.12,.06,.21,.09,.25,.13,.15,.28,.32,.44,.49,.4-.11,.79-.2,1.17-.29,.38-.09,.77-.2,1.16-.33l-.59-.5-.87-.59Zm11.55-3.37c1.13,.98,2,1.75,2.62,2.32,.4-.08,.79-.17,1.16-.25,.37-.09,.75-.17,1.16-.25-.03-.02-.05-.07-.07-.14-5.52-4.22-8.8-6.7-9.86-7.44-2.13-1.39-3.93-2.51-5.38-3.38-.48-.29-.91-.55-1.28-.78l.5,2.36c.4,.25,.91,.61,1.53,1.08,.03,.04,1.59,.95,4.68,2.71,1.1,.62,2.75,1.88,4.94,3.77Zm-8.38-28.94c-.34-.32-.62-.57-.83-.76-.59-.34-1.36-.56-2.3-.65,.41,.28,.77,.54,1.1,.78,.35,.26,1.16,.78,2.42,1.55,.46,.32,.89,.62,1.27,.9-.07-.09-.13-.18-.19-.27s-.12-.19-.2-.31l-.09-.1c-.22-.24-.62-.62-1.18-1.15Zm-1.96,32.76c.24,.21,.45,.38,.63,.53,.38-.1,.75-.2,1.11-.3,.36-.1,.73-.2,1.11-.3-.35-.26-.74-.57-1.16-.92-.47-.34-.9-.65-1.28-.93-.02,.03-.05,.05-.1,.06l.06,.3c.03,.15-.04,.28-.22,.39-.04,.04-.09,.06-.14,.07-.12,.02-.22-.06-.31-.24l-.04-.03c-.09,.15-.2,.28-.31,.39-.11,.11-.22,.23-.32,.35l.96,.65Zm.67-9.87c-.54-.43-1-.78-1.38-1.07,.08,.47,.16,.92,.25,1.35,.09,.43,.17,.84,.23,1.24l.03,.15c4.33,2.15,7.94,4.51,10.82,7.09h.07c.29-.05,.59-.09,.89-.14,.3-.05,.61-.1,.92-.17-.68-.61-1.62-1.44-2.84-2.5-1.86-1.6-3.33-2.71-4.44-3.34-2.85-1.6-4.37-2.48-4.54-2.62Zm2.83,7.01c1.23,.78,2.18,1.47,2.83,2.08l.11-.02c.61-.07,1.21-.12,1.8-.13,.59-.02,1.2-.05,1.81-.1-1.68-1.35-5.07-3.58-10.18-6.68,.1,.47,.21,.96,.33,1.47,.12,.51,.24,1.03,.35,1.55,.73,.5,1.71,1.1,2.96,1.83Zm-.64-.02c-.87-.49-1.62-.94-2.23-1.36,.04,.32,.09,.62,.13,.9,.04,.27,.07,.52,.07,.76-.03,.24-.08,.39-.17,.46,.67,.46,1.56,1.11,2.69,1.96,.4-.11,.8-.21,1.2-.3,.4-.09,.81-.17,1.22-.23-.59-.55-.89-.83-.89-.86-.59-.42-1.26-.86-2.03-1.32Zm9.95-1.59c.65,.51,1.38,1.08,2.19,1.71-.14-.43-.23-.86-.27-1.29-.21-.06-.41-.11-.61-.15-.19-.04-.4-.08-.61-.15-.26-.05-.49-.09-.7-.13Z"/><path d="M299.37,358.05c-.1,.07-.17,.06-.22-.03-.05-.09-.05-.17-.02-.26,.19-.19,.39-.37,.6-.54l.62-.51c-.02-.08-.01-.14,.04-.21-.3-.31-.56-.65-.77-1.01-.21-.36-.41-.73-.62-1.11-.16,.2-.33,.38-.5,.56-.17,.18-.39,.32-.64,.43-.1,.07-.19,.05-.26-.05-.07-.1-.06-.19,.04-.26,.2-.13,.38-.29,.54-.47,.16-.18,.31-.38,.45-.6-.37-.23-.41-.6-.11-1.11-.2-.29-.39-.58-.58-.86-.18-.29-.37-.58-.55-.88l-.02-.03c-.03-.25,.07-.33,.28-.23,.02-.01,.03-.02,.02-.04,0,0,0-.02,.02-.04l.21,.31s.08,.06,.11,.09c.02,.03,.06,.06,.11,.09,.03,.04,.04,.1,.03,.16,.13,.19,.26,.37,.4,.55,.14,.18,.27,.35,.38,.52,.15-.16,.34-.35,.55-.55,.21-.2,.41-.43,.6-.67v-.05c.37-.46,.68-.92,.93-1.39,.25-.47,.36-.88,.33-1.22-.04-.27-.13-.56-.25-.87-.12-.31-.27-.61-.43-.91-.16-.3-.32-.58-.48-.86-.16-.27-.3-.5-.43-.69-.27-.48-.59-.99-.96-1.54-.36-.54-.73-1.1-1.1-1.67l-.15-.08-.07-.09v-.05h.06l-1.4-2c-.42-.6-.88-1.24-1.39-1.93l-.07-.04s-.07-.03-.09-.07l-.04-.06s.02-.06,.04-.07c-.38-.5-.78-1.05-1.19-1.65l-1.63-2.22c-.57-.74-1.15-1.46-1.73-2.18-.58-.71-1.19-1.42-1.83-2.12l-.02-.03c-.2-.2-.39-.4-.58-.59-.19-.19-.36-.4-.52-.62-.34-.5-.65-1.01-.93-1.56s-.54-1.09-.79-1.65c-.25-.56-.53-1.1-.82-1.63-.29-.53-.64-1.02-1.05-1.48-.29-.32-.61-.61-.97-.85s-.68-.53-.97-.85c-.33-.39-.62-.81-.87-1.28-.25-.47-.56-.86-.94-1.19-.23-.24-.46-.42-.7-.53-.24-.11-.52-.23-.84-.35-.54-.18-1.02-.27-1.43-.27-.41,0-.78,.07-1.1,.21-.32,.14-.61,.32-.88,.56-.26,.24-.51,.49-.73,.76-.13,.15-.27,.24-.4,.26,.18,.3,.36,.59,.53,.85,.17,.27,.34,.54,.5,.82l.02,.03c.04,.06,.04,.11,0,.13,0,.09-.05,.14-.16,.15-.07-.01-.12-.04-.15-.08l-.02-.03c-.24-.3-.47-.6-.69-.9-.23-.3-.45-.62-.68-.95-.18,.03-.35-.04-.5-.21-.09,.09-.17,.16-.24,.2-.07,.05-.15,.12-.24,.2-.1,.07-.19,.07-.26,.01-.07-.06-.08-.15-.02-.28,.09-.09,.17-.17,.26-.24s.17-.15,.26-.24l-1.59-2.29c-.22,.11-.42,.23-.62,.35-.2,.12-.4,.24-.6,.38-.1,.07-.18,.06-.22-.03-.05-.09-.05-.17-.02-.26,.15-.16,.32-.32,.51-.48,.19-.16,.39-.31,.62-.46l-.07-.09s-.04-.08-.03-.11c-.1-.14-.11-.31-.02-.48l-.91-1.3,.03-.02c0-.09,.03-.16,.1-.2,.07-.05,.15-.04,.25,.01l.03-.02,.04,.06c.15,.17,.29,.34,.42,.51s.27,.33,.4,.48c.3-.2,.53-.36,.67-.47,.15-.11,.27-.2,.37-.27,.1-.07,.21-.14,.33-.22,.12-.08,.32-.23,.58-.44l.03-.02s.07-.06,.1-.11l-.09,.06c.92-.77,1.82-1.53,2.72-2.29,.89-.76,1.81-1.49,2.75-2.18,.45-.33,.92-.64,1.42-.93,.5-.29,.96-.61,1.4-.96,.19-.19,.34-.37,.45-.53,.11-.16,.25-.33,.42-.51,.19-.19,.43-.36,.71-.52s.56-.32,.86-.49c.04-.21,.11-.35,.24-.43-.1-.14-.2-.28-.31-.41-.1-.13-.21-.26-.34-.39-.07-.1-.07-.18,.01-.24s.18-.04,.29,.03c.13,.15,.25,.29,.34,.43,.09,.13,.2,.27,.32,.4,.16-.02,.33-.01,.51,.02,.05,.03,.1,.07,.17,.11,.06,.05,.13,.11,.21,.18,.43-.32,.95-.64,1.56-.95,.13-.03,.22,0,.27,.07,.05,.07,.04,.16-.03,.27l-.03,.02c-.22,.15-.45,.31-.67,.47-.22,.17-.45,.34-.68,.52,.53,.55,1.13,1.31,1.78,2.28,.66,.97,1.26,1.99,1.81,3.08l-.02-.03c.91,1.39,1.83,2.75,2.77,4.09,.94,1.34,1.85,2.71,2.71,4.13,.45,.73,.85,1.47,1.2,2.24s.72,1.53,1.11,2.3l2.86,4.12c.44,.46,.88,.92,1.31,1.37,.43,.45,.83,.92,1.2,1.4,1.16,1.58,2.31,3.18,3.45,4.8,1.14,1.62,2.3,3.22,3.5,4.81,.46,.57,.92,1.14,1.4,1.7,.48,.56,.92,1.14,1.34,1.74,.06,.08,.09,.15,.1,.21,.54,.06,1.09,.03,1.62-.09,.54-.12,1.05-.26,1.52-.43,.3-.2,.65-.34,1.04-.42-.56-.93-.89-1.52-1.01-1.77-.07-.1-.05-.18,.06-.24,.11-.06,.2-.03,.27,.07,.28,.36,.53,.68,.75,.98,.22,.29,.43,.58,.63,.87,.51-.07,.98-.1,1.41-.08s.7,0,.81-.04c.01-.07,.05-.11,.13-.13,.08-.02,.14,.01,.2,.09,.09,.21-.04,.36-.37,.45-.34,.09-.76,.17-1.28,.24,.23,.21,.47,.48,.7,.82,.24,.34,.44,.65,.61,.93,.18-.12,.36-.24,.53-.36,.17-.11,.35-.21,.52-.3,.1-.07,.19-.05,.27,.04,.08,.1,.07,.18-.03,.25-.17,.18-.34,.34-.51,.48-.17,.14-.32,.28-.47,.41l.08,.12c.21,.34,.21,.64,0,.9l.78,1.12h.05c.13-.02,.2,.02,.21,.12,0,.1-.04,.18-.14,.25-.18,.03-.41-.07-.67-.3s-.56-.54-.89-.93c-.14-.03-.24-.07-.3-.12-.28,.16-.63,.35-1.07,.58-.34,.23-.74,.5-1.2,.8-.45,.3-.9,.61-1.34,.92s-.84,.6-1.22,.86c-.38,.27-.67,.47-.87,.6-1.79,1.26-3.57,2.52-5.34,3.79-1.77,1.27-3.52,2.57-5.27,3.88,.22,.28,.43,.55,.61,.82,.19,.27,.38,.53,.59,.78,.07-.02,.14,.05,.18,.2v.05c0,.09-.03,.15-.09,.17s-.13,.02-.21-.02c-.29-.29-.56-.58-.8-.87-.25-.29-.5-.59-.77-.89-.22,.03-.38,.01-.48-.04-.26,.18-.53,.35-.79,.53s-.53,.34-.81,.5Zm-13.22-42.34c2.86,.54,4.8,.95,5.83,1.23-.15-.26-.31-.52-.49-.76-.17-.25-.34-.51-.51-.79-6.32-1.73-11.27-3.02-14.85-3.87-.54,.45-1.09,.91-1.64,1.37-.55,.46-1.11,.91-1.67,1.34-.17,.18-.43,.41-.76,.69-.02,.01-.03,.04-.04,.07l.19,.28c.66,.1,1.12,.16,1.37,.18l1.35,.09c.54-.21,1.1-.31,1.68-.3,.58,0,1.24,.11,1.97,.32,.41,.12,.82,.28,1.23,.49l.09-.06c.18-.12,.34-.09,.47,.1l.5,.71c.46,.24,1.21,.44,2.23,.59-.07-.01,1.09,.14,3.47,.45,.48,.04,1.1,.14,1.88,.28,.92,.14,1.55,.23,1.88,.28,1.19,.17,2.18,.42,2.99,.72-.16-.32-.33-.61-.5-.87-.17-.26-.34-.55-.52-.85-1.27-.33-3.1-.76-5.5-1.27-2.56-.53-4.41-.94-5.56-1.23-1.61-.4-2.92-.69-3.93-.87-1.51-.29-2.59-.38-3.25-.27-.03,0-.07-.03-.09-.07,0-.03,.02-.06,.04-.07,.37-.24,1.3-.25,2.79,0,1.2,.2,2.61,.5,4.22,.9,2.64,.65,4.36,1.05,5.14,1.2Zm-12.86,1.11c.34-.41,.69-.73,1.05-.98-.28-.02-.61-.06-.97-.12-.35-.04-.66-.07-.92-.11l.84,1.21Zm2.6-1.24l.03-.02h-.05l.02,.02Zm2.47-5.78c-.37,.28-.76,.57-1.17,.87-.13,.12-.26,.23-.39,.33-.13,.11-.26,.21-.39,.33,2.99,.51,7.74,1.71,14.26,3.58l-1.51-2.17c-.91-.33-1.92-.63-3.04-.92-2.26-.58-3.39-.85-3.37-.83l-2.84-.51c-.75-.19-1.27-.42-1.54-.69Zm2.3-1.54s-.06-.02-.07-.04c-.24,.16-.48,.32-.72,.46-.24,.15-.47,.31-.7,.49-.21,.17-.41,.32-.62,.46,.63,.31,1.45,.55,2.45,.72,1.55,.27,2.42,.43,2.6,.49,2.43,.64,4.19,1.15,5.27,1.51-.17-.25-.34-.5-.5-.75-.16-.25-.34-.52-.52-.78l-.32-.46c-.71-.16-1.69-.45-2.94-.85-1.82-.54-3.13-.95-3.92-1.24Zm1.44-1.19c-.05,.06-.13,.13-.25,.21-.13,.12-.25,.22-.38,.32-.12,.1-.26,.19-.4,.29,.09-.03,.18-.06,.26-.08l.03-.02s.02,.05,.01,.08v.05l-.28,.18c.48,.13,1.11,.32,1.89,.55,.95,.3,1.59,.5,1.91,.58,.36,.09,.98,.24,1.86,.44,.19,.06,.35,.1,.49,.13-.22-.4-.43-.8-.64-1.21-.21-.41-.43-.82-.66-1.24l-.93-1.33c-.07-.1-.14-.18-.2-.23-.04-.06-.09-.11-.14-.13-.03-.04-.06-.07-.09-.1-.03-.02-.06-.06-.09-.1-.03,0-.06-.02-.07-.04l-.11-.15c-.1,.07-.21,.12-.32,.17s-.22,.1-.33,.17c-.19,.16-.39,.33-.6,.54-.17,.18-.34,.33-.5,.47-.16,.14-.3,.28-.44,.43l-.03,.02Zm6.91,13.08c2.2,.31,4.04,.7,5.52,1.17-.09-.18-.18-.35-.26-.5-.08-.16-.17-.33-.26-.51-.05-.12-.11-.23-.18-.36-.07-.12-.14-.23-.21-.33-1.04-.39-2.49-.73-4.34-1-.35-.04-.95-.12-1.78-.26-.77-.12-1.37-.22-1.8-.29-1.81-.21-3.04-.4-3.72-.56-.28-.06-.53-.13-.77-.21l.45,.65c.21,.35,.44,.7,.7,1.07l.13,.19c.92,.17,3.09,.49,6.52,.95Zm-.68,.23c-2.77-.32-4.66-.65-5.66-.98,.01,.02,.04,.04,.07,.04,.37,.32,.69,.57,.96,.74,.27,.17,.56,.45,.89,.83,.09,.09,.17,.18,.23,.27,.07,.09,.13,.19,.21,.29,2.11,.22,5.55,.77,10.32,1.63-.12-.25-.23-.5-.33-.73-.1-.23-.21-.48-.33-.73-1.52-.53-3.64-.98-6.37-1.37Zm-4.07-13.34c.89,.22,1.36,.34,1.41,.37l.04,.06s.02,.05,.01,.08c0,.03-.02,.06-.04,.07l-.06,.04c-.11,.01-.35-.02-.74-.1-.32-.08-.63-.17-.92-.24-.58-.16-.95-.29-1.11-.39l-.02-.03c-.04-.06-.05-.12-.03-.16l.03-.02s.08-.03,.13,0c.03,0,.46,.11,1.29,.32Zm9.54,18.08c1.26,.24,2.3,.46,3.11,.64-.19-.23-.38-.47-.55-.72-.17-.25-.32-.51-.46-.78-.07-.1-.14-.21-.2-.32-.06-.11-.12-.22-.17-.34-2.62-.49-4.58-.84-5.89-1.06-.77-.12-1.83-.27-3.2-.45-.41-.03-.79-.07-1.14-.1,.3,.43,.57,.92,.79,1.46,.3,.04,.69,.12,1.17,.22,.12,0,1.16,.24,3.1,.69,1.67,.4,2.81,.65,3.41,.76Zm-7.52-1.37c.18,.39,.36,.79,.54,1.18,.17,.4,.36,.79,.56,1.17,.32-.06,.85-.02,1.59,.12,.83,.17,1.89,.45,3.19,.82,1.11,.32,2.39,.52,3.84,.61,1.24,.08,2.23,.19,2.98,.32l-.02-.03c-.29-.29-.57-.58-.84-.86-.27-.29-.55-.59-.84-.92-.75-.19-1.63-.38-2.61-.57-2.18-.42-3.53-.69-4.04-.84-.31-.06-.79-.18-1.44-.35-.64-.15-1.12-.27-1.44-.35l-1.45-.3Zm9.83,5.77c2.08,.22,3.67,.47,4.78,.75-.26-.34-.52-.66-.76-.97-.24-.31-.5-.61-.77-.92-1.15-.2-2.44-.35-3.87-.45-1.22-.09-2.25-.26-3.11-.51-1.3-.37-2.27-.63-2.93-.76-.91-.21-1.57-.31-1.96-.33,.22,.4,.48,.77,.78,1.12,.13,.15,.27,.32,.41,.5,.14,.18,.28,.34,.41,.5,.72,.1,1.73,.25,3.03,.47,1.63,.3,2.96,.51,3.98,.61Zm.91,2.66c2.59,.45,4.66,.88,6.22,1.29-.31-.45-.63-.9-.95-1.34-.32-.44-.65-.88-.98-1.32-1.16-.31-3.08-.64-5.76-1-1.56-.16-3.61-.51-6.13-1.03,.36,.43,.72,.84,1.08,1.23,.36,.39,.73,.81,1.1,1.26,1.37,.26,3.18,.57,5.43,.91Zm1.36,1.63c.91,.21,2.98,.73,6.2,1.57l-1.05-1.52c-1.43-.4-3.63-.84-6.59-1.31-1.99-.3-3.67-.62-5.05-.94,.03,.04,.06,.07,.09,.1s.06,.06,.09,.1c.13,.19,.27,.38,.41,.56,.15,.19,.29,.37,.44,.54,1.45,.12,3.27,.42,5.46,.89Zm4.93,3.51c1.29,.23,2.33,.46,3.13,.67-.26-.34-.53-.69-.78-1.06-.26-.37-.51-.73-.75-1.08-.71-.22-1.74-.5-3.08-.85-1.51-.38-2.68-.66-3.51-.83-1.42-.29-3.12-.57-5.12-.85,.24,.3,.46,.59,.68,.88,.22,.29,.44,.58,.66,.85,.44,.07,.93,.19,1.5,.36,.44,.13,1.02,.32,1.73,.57,.92,.3,1.49,.49,1.73,.57,.8,.25,2.07,.51,3.81,.76Zm-1.52,1.2c2.78,.68,4.8,1.13,6.05,1.36l-.13-.19c-.18-.21-.34-.42-.48-.63-.14-.21-.31-.42-.48-.63-4.55-.92-6.98-1.43-7.28-1.53-1.94-.61-3.46-1.06-4.58-1.34,.26,.34,.53,.69,.78,1.06,.26,.37,.51,.73,.75,1.08,1.53,.07,3.32,.34,5.36,.82Zm1.63,2.72c3.2,.56,5.46,1.08,6.79,1.59l.04,.06v-.05c-.33-.44-.67-.87-1.03-1.3-.36-.43-.71-.85-1.07-1.28-1.26-.19-3.38-.65-6.37-1.37-1.81-.39-3.5-.65-5.07-.78l1.29,1.86c1.42,.47,3.23,.9,5.42,1.28Zm7.38,2.51c-.24-.17-.37-.34-.4-.51l-.13-.19s-.02,.06-.04,.07c-.04,.03-.09,.03-.16,.02-1.24-.47-3.51-1-6.79-1.59-1.98-.34-3.65-.74-5-1.19l.75,1.08c.07,.1,.15,.22,.22,.35,.08,.13,.15,.25,.22,.35,.42,.05,.9,.12,1.44,.22,1.39,.25,2.56,.48,3.5,.7,3.3,.7,5.5,1.29,6.6,1.76l.02,.03s.04,.08,.03,.11c0,.04-.02,.06-.04,.07-.02,.01-.05,.02-.08,0-.67-.16-1.81-.45-3.42-.89-1.47-.41-2.62-.7-3.45-.87-1.25-.26-2.41-.48-3.48-.67-.33-.05-.63-.09-.89-.13,.2,.29,.39,.58,.58,.86,.18,.29,.37,.58,.55,.88,1.37,.27,3.25,.57,5.64,.9,2.91,.44,5.23,.94,6.94,1.49,.29-.22,.59-.45,.91-.67,.32-.23,.64-.45,.96-.66-.44-.07-.93-.19-1.5-.36-1.63-.42-2.68-.62-3.15-.57-.05,0-.1-.01-.12-.05l-.02-.03c0-.05,.02-.1,.08-.14,.13-.03,.32-.03,.57-.01l-.22-.31-.07-.04s-.04,0-.05-.01Zm-8.85,11.04c.31-.27,.63-.51,.96-.73,.32-.22,.66-.43,1.02-.64-.25-.02-.52-.06-.81-.14-.97-.17-1.57-.25-1.78-.26-.25,.32-.54,.65-.87,.99,.05,.12,.16,.29,.31,.52,.24,.05,.51,.1,.81,.14l.35,.13Zm6.45-6.94c1.21,.37,1.92,.63,2.12,.76,.03,0,.06,.02,.07,.04l.02,.03c.18-.12,.37-.25,.56-.38,.19-.13,.38-.27,.57-.43,.14-.09,.32-.23,.54-.41,.22-.18,.47-.38,.76-.6-1.59-.45-3.82-.9-6.7-1.33-2.13-.3-3.9-.61-5.32-.94l.04,.06c.2,.38,.39,.71,.57,1,.17,.29,.32,.57,.44,.82,.9,.06,2.08,.26,3.52,.6,.91,.24,1.84,.5,2.8,.76Zm-6.99,7.12c-.09,0-.2-.01-.34-.04l.3,.43,.3-.34-.26-.05Zm.11-2.21c1.21,.13,2.2,.24,2.95,.34,.18-.09,.33-.18,.45-.28,.12-.1,.26-.2,.4-.29,.16-.11,.32-.22,.49-.35,.16-.12,.33-.24,.49-.35-.42-.05-1.15-.2-2.18-.45-.76-.16-1.32-.3-1.67-.42-.19,.61-.5,1.21-.93,1.8Zm4.44-3.33c1.21,.25,2.11,.46,2.71,.64,.28-.19,.57-.39,.87-.6,.3-.21,.58-.42,.85-.63-.07-.01-.82-.24-2.25-.68-.98-.31-1.85-.55-2.59-.72-1.29-.32-2.37-.52-3.25-.59,.17,.37,.3,.71,.39,1.01,.09,.3,.12,.63,.1,.98l1.38,.26c.73,.15,1.32,.27,1.79,.34Zm.5,2.12s.06,.02,.07,.04l.02,.03c.27-.21,.55-.42,.86-.62,.3-.2,.6-.42,.89-.64-.26-.07-.53-.14-.82-.22-.93-.23-1.55-.37-1.86-.44-1.3-.25-2.26-.46-2.87-.62-.01,.07-.02,.13-.03,.18,0,.05-.02,.11-.03,.18,0,.42-.06,.84-.19,1.26,.19,.02,.42,.07,.67,.14,.46,.11,.79,.2,.98,.25l2.31,.45Zm7.16-7.01c.72,.18,1.42,.34,2.09,.46,.3-.17,.58-.33,.85-.48,.27-.15,.52-.27,.75-.36l-.06-.09c-.22-.06-.59-.19-1.11-.39-.26-.07-.48-.13-.67-.19-.61,.23-1.21,.4-1.78,.51-.87,.16-1.58,.18-2.13,.06l-.09,.06c.54,.06,1.26,.2,2.16,.42Zm2.69-1.12c.24,.08,.45,.15,.63,.21-.07-.1-.14-.19-.21-.27-.07-.08-.14-.17-.21-.27-.04,.03-.09,.03-.16,.02-.13,.06-.29,.12-.46,.17l-.03,.02c.14,.03,.28,.07,.44,.12Z"/></g><g><path class="d" d="M127.88,200.18c7.52,12.48,16,24.64,25.76,37.12,10.4,13.12,2.88,19.04-10.56,9.6-5.76-4.16-18.08-17.92-23.68-26.08-4.96-7.2-11.2-9.6-12.96-18.08-2.08-9.92,4.32-20.16,7.36-24.8,8.8-13.6,21.12-33.6,27.36-40.48,7.52-8.16,22.08,12.48,14.56,20.64-5.44,6.08-19.36,27.04-27.84,42.08Z"/><path class="d" d="M205.96,246.58c1.44,13.76-11.52,5.92-14.88-8.32-4.8-20.8,21.92-87.36,37.6-104.32,7.52-8.32,21.12,17.76,13.6,25.92-11.52,12.48-38.56,66.88-36.32,86.72Z"/><path class="d" d="M316.04,212.66c-8.8,13.76-21.12,33.76-27.36,40.48-7.52,8.32-22.08-12.32-14.56-20.64,5.44-5.92,19.36-26.88,27.84-41.92-7.52-12.48-16-24.64-25.76-37.12-10.4-13.12-2.88-19.2,10.56-9.76,5.76,4,18.08,17.92,23.68,26.08,4.96,7.2,11.2,9.6,12.96,18.08,2.08,9.92-4.32,20.16-7.36,24.8Z"/></g></svg>