<?xml version="1.0" encoding="UTF-8"?>
<svg xmlns="http://www.w3.org/2000/svg" xmlns:xlink="http://www.w3.org/1999/xlink" viewBox="0 0 100 100" width="100px" height="100px">
<g id="surface66777129">
<path style=" stroke:none;fill-rule:nonzero;fill:rgb(90.196079%,49.411765%,13.333334%);fill-opacity:1;" d="M 50 100 C 22.386719 100 0 77.613281 0 50 C 0 22.386719 22.386719 0 50 0 C 77.613281 0 100 22.386719 100 50 C 100 77.613281 77.613281 100 50 100 Z M 50 100 "/>
<path style=" stroke:none;fill-rule:nonzero;fill:rgb(72.941178%,48.627451%,89.803922%);fill-opacity:1;" d="M 69.460938 81.605469 L 30.847656 81.605469 C 24.316406 81.605469 18.96875 76.261719 18.96875 69.726562 L 18.96875 31.117188 C 18.96875 24.582031 24.316406 19.234375 30.847656 19.234375 L 69.460938 19.234375 C 75.992188 19.234375 81.339844 24.582031 81.339844 31.117188 L 81.339844 69.726562 C 81.339844 76.261719 75.992188 81.605469 69.460938 81.605469 Z M 69.460938 81.605469 "/>
<path style=" stroke:none;fill-rule:nonzero;fill:rgb(12.156863%,12.941177%,16.862746%);fill-opacity:1;" d="M 68.964844 81.605469 L 30.355469 81.605469 C 23.519531 81.605469 17.980469 76.066406 17.980469 69.230469 L 17.980469 30.621094 C 17.980469 23.785156 23.519531 18.246094 30.355469 18.246094 L 68.964844 18.246094 C 75.800781 18.246094 81.339844 23.785156 81.339844 30.621094 L 81.339844 69.230469 C 81.339844 76.066406 75.796875 81.605469 68.964844 81.605469 Z M 18.96875 30.621094 L 18.96875 69.230469 C 18.96875 75.519531 24.066406 80.617188 30.355469 80.617188 L 68.964844 80.617188 C 75.25 80.617188 80.347656 75.519531 80.347656 69.230469 L 80.347656 30.621094 C 80.347656 24.332031 75.25 19.234375 68.964844 19.234375 L 30.355469 19.234375 C 24.066406 19.234375 18.96875 24.332031 18.96875 30.621094 Z M 18.96875 30.621094 "/>
<path style=" stroke:none;fill-rule:nonzero;fill:rgb(12.156863%,12.941177%,16.862746%);fill-opacity:1;" d="M 66.648438 77.644531 L 33.65625 77.644531 C 27.730469 77.644531 22.929688 72.84375 22.929688 66.917969 L 22.929688 33.925781 C 22.929688 28 27.730469 23.195312 33.65625 23.195312 L 66.984375 23.195312 C 67.257812 23.195312 67.476562 23.417969 67.476562 23.691406 C 67.476562 23.964844 67.257812 24.1875 66.984375 24.1875 L 33.65625 24.1875 C 28.277344 24.1875 23.917969 28.546875 23.917969 33.925781 L 23.917969 66.917969 C 23.917969 72.296875 28.277344 76.65625 33.65625 76.65625 L 66.648438 76.65625 C 72.027344 76.65625 76.386719 72.296875 76.386719 66.917969 L 76.386719 48.441406 C 76.386719 48.167969 76.609375 47.945312 76.882812 47.945312 C 77.15625 47.945312 77.378906 48.167969 77.378906 48.441406 L 77.378906 66.917969 C 77.378906 72.84375 72.574219 77.644531 66.648438 77.644531 Z M 76.882812 45.550781 C 76.609375 45.550781 76.390625 45.328125 76.390625 45.054688 L 76.390625 41.09375 C 76.390625 40.820312 76.609375 40.597656 76.882812 40.597656 C 77.15625 40.597656 77.378906 40.820312 77.378906 41.09375 L 77.378906 45.054688 C 77.378906 45.328125 77.15625 45.550781 76.882812 45.550781 Z M 76.882812 39.609375 C 76.609375 39.609375 76.390625 39.386719 76.390625 39.113281 L 76.390625 37.132812 C 76.390625 36.859375 76.609375 36.640625 76.882812 36.640625 C 77.15625 36.640625 77.378906 36.859375 77.378906 37.132812 L 77.378906 39.113281 C 77.378906 39.386719 77.15625 39.609375 76.882812 39.609375 Z M 76.882812 39.609375 "/>
<path style=" stroke:none;fill-rule:nonzero;fill:rgb(99.215686%,98.823529%,93.333334%);fill-opacity:1;" d="M 57.890625 62.105469 L 54.542969 62.105469 L 52.367188 56.367188 L 41.285156 56.367188 L 39.144531 62.105469 L 35.796875 62.105469 L 45.238281 38.367188 L 48.445312 38.367188 Z M 42.28125 53.730469 L 51.40625 53.730469 L 46.84375 41.363281 Z M 42.28125 53.730469 "/>
<path style=" stroke:none;fill-rule:nonzero;fill:rgb(12.156863%,12.941177%,16.862746%);fill-opacity:1;" d="M 57.890625 62.597656 L 54.542969 62.597656 C 54.335938 62.597656 54.152344 62.472656 54.078125 62.277344 L 52.027344 56.859375 L 41.628906 56.859375 L 39.609375 62.277344 C 39.539062 62.46875 39.351562 62.597656 39.144531 62.597656 L 35.796875 62.597656 C 35.628906 62.597656 35.476562 62.519531 35.386719 62.382812 C 35.292969 62.246094 35.273438 62.074219 35.335938 61.921875 L 44.777344 38.183594 C 44.855469 37.996094 45.035156 37.871094 45.238281 37.871094 L 48.445312 37.871094 C 48.648438 37.871094 48.832031 37.996094 48.90625 38.183594 L 58.351562 61.921875 C 58.410156 62.074219 58.390625 62.246094 58.300781 62.382812 C 58.210938 62.519531 58.054688 62.597656 57.890625 62.597656 Z M 54.882812 61.609375 L 57.164062 61.609375 L 48.113281 38.863281 L 45.578125 38.863281 L 36.527344 61.609375 L 38.800781 61.609375 L 40.820312 56.191406 C 40.890625 56 41.078125 55.871094 41.285156 55.871094 L 52.367188 55.871094 C 52.574219 55.871094 52.757812 56 52.832031 56.191406 Z M 51.40625 54.222656 L 42.28125 54.222656 C 42.121094 54.222656 41.96875 54.144531 41.875 54.011719 C 41.78125 53.878906 41.761719 53.707031 41.816406 53.558594 L 46.378906 41.191406 C 46.523438 40.800781 47.164062 40.800781 47.308594 41.191406 L 51.871094 53.558594 C 51.925781 53.707031 51.90625 53.878906 51.8125 54.011719 C 51.71875 54.144531 51.566406 54.222656 51.40625 54.222656 Z M 42.992188 53.234375 L 50.695312 53.234375 L 46.84375 42.792969 Z M 42.992188 53.234375 "/>
<path style=" stroke:none;fill-rule:nonzero;fill:rgb(99.215686%,98.823529%,93.333334%);fill-opacity:1;" d="M 60.144531 39.9375 C 60.144531 39.390625 60.328125 38.914062 60.699219 38.511719 C 61.066406 38.105469 61.558594 37.90625 62.175781 37.90625 C 62.792969 37.90625 63.289062 38.105469 63.65625 38.511719 C 64.023438 38.914062 64.207031 39.390625 64.207031 39.9375 C 64.207031 40.480469 64.023438 40.957031 63.65625 41.363281 C 63.285156 41.765625 62.792969 41.96875 62.175781 41.96875 C 61.558594 41.96875 61.066406 41.765625 60.699219 41.363281 C 60.328125 40.957031 60.144531 40.480469 60.144531 39.9375 Z M 60.574219 62.105469 L 60.574219 44.996094 L 63.78125 44.996094 L 63.78125 62.105469 Z M 60.574219 62.105469 "/>
<path style=" stroke:none;fill-rule:nonzero;fill:rgb(12.156863%,12.941177%,16.862746%);fill-opacity:1;" d="M 63.78125 62.597656 L 60.574219 62.597656 C 60.300781 62.597656 60.078125 62.378906 60.078125 62.105469 L 60.078125 44.996094 C 60.078125 44.722656 60.300781 44.5 60.574219 44.5 L 63.78125 44.5 C 64.054688 44.5 64.273438 44.722656 64.273438 44.996094 L 64.273438 62.105469 C 64.273438 62.378906 64.054688 62.597656 63.78125 62.597656 Z M 61.066406 61.609375 L 63.285156 61.609375 L 63.285156 45.492188 L 61.066406 45.492188 Z M 62.175781 42.460938 C 61.417969 42.460938 60.796875 42.203125 60.332031 41.695312 C 59.878906 41.199219 59.652344 40.609375 59.652344 39.9375 C 59.652344 39.265625 59.878906 38.671875 60.332031 38.175781 C 60.796875 37.667969 61.417969 37.410156 62.175781 37.410156 C 62.9375 37.410156 63.558594 37.667969 64.023438 38.175781 C 64.476562 38.671875 64.703125 39.265625 64.703125 39.9375 C 64.703125 40.609375 64.472656 41.199219 64.023438 41.695312 C 63.554688 42.203125 62.9375 42.460938 62.175781 42.460938 Z M 62.175781 38.398438 C 61.699219 38.398438 61.335938 38.542969 61.0625 38.84375 C 60.777344 39.15625 60.640625 39.511719 60.640625 39.9375 C 60.640625 40.359375 60.777344 40.71875 61.0625 41.027344 C 61.335938 41.328125 61.699219 41.472656 62.175781 41.472656 C 62.652344 41.472656 63.015625 41.328125 63.289062 41.027344 C 63.574219 40.71875 63.714844 40.359375 63.714844 39.9375 C 63.714844 39.515625 63.574219 39.15625 63.289062 38.84375 C 63.015625 38.546875 62.652344 38.398438 62.175781 38.398438 Z M 62.175781 38.398438 "/>
<path style=" stroke:none;fill-rule:nonzero;fill:rgb(12.156863%,12.941177%,16.862746%);fill-opacity:1;" d="M 69.460938 82.597656 L 30.847656 82.597656 C 23.742188 82.597656 17.980469 76.835938 17.980469 69.726562 L 17.980469 31.117188 C 17.980469 24.007812 23.742188 18.246094 30.847656 18.246094 L 69.460938 18.246094 C 76.566406 18.246094 82.328125 24.007812 82.328125 31.117188 L 82.328125 69.726562 C 82.328125 76.835938 76.566406 82.597656 69.460938 82.597656 Z M 19.960938 31.117188 L 19.960938 69.726562 C 19.960938 75.742188 24.835938 80.617188 30.847656 80.617188 L 69.460938 80.617188 C 75.472656 80.617188 80.347656 75.742188 80.347656 69.726562 L 80.347656 31.117188 C 80.347656 25.101562 75.472656 20.226562 69.460938 20.226562 L 30.847656 20.226562 C 24.832031 20.226562 19.960938 25.101562 19.960938 31.117188 Z M 19.960938 31.117188 "/>
</g>
</svg>
