<?xml version="1.0" encoding="UTF-8"?><svg id="a" xmlns="http://www.w3.org/2000/svg" viewBox="0 0 404.57 404.57"><defs><style>.b{fill:#96e06a;}.c{font-family:HelveticaNeue-CondensedBold, Helvetica Neue;font-size:130px;letter-spacing:.1em;}.c,.d{fill:#fff;}.d{font-family:AmericanTypewriter-Bold, American Typewriter;font-size:63px;}.e{fill:#14a64c;stroke:#fff;stroke-miterlimit:10;stroke-width:4.57px;}</style></defs><circle class="e" cx="202.29" cy="202.29" r="200"/><text class="d" transform="translate(41.91 271.7) rotate(58.75) scale(.97 1) skewX(-1.13)"><tspan x="0" y="0">J</tspan></text><text class="d" transform="translate(68.66 313.13) rotate(43.3) scale(.97 1) skewX(-1.19)"><tspan x="0" y="0">a</tspan></text><text class="d" transform="translate(99.55 341.64) rotate(28.85) scale(.97 1) skewX(-.95)"><tspan x="0" y="0">v</tspan></text><text class="d" transform="translate(142.31 363.74) rotate(13.89) scale(.97 1) skewX(-.59)"><tspan x="0" y="0">a</tspan></text><text class="d" transform="translate(184.48 372.88) rotate(1.25) scale(.97 1) skewX(.5)"><tspan x="0" y="0">s</tspan></text><text class="d" transform="translate(222.85 372.77) rotate(-11.69) scale(.97 1) skewX(.58)"><tspan x="0" y="0">c</tspan></text><text class="d" transform="translate(261.32 363.85) rotate(-24.38) scale(.97 1) skewX(.9)"><tspan x="0" y="0">r</tspan></text><text class="d" transform="translate(295.11 347.3) rotate(-35.25) scale(.97 1) skewX(1.1)"><tspan x="0" y="0">i</tspan></text><text class="d" transform="translate(318.92 330.38) rotate(-47.21) scale(.97 1) skewX(1.22)"><tspan x="0" y="0">p</tspan></text><text class="d" transform="translate(347.57 297.25) rotate(-60.2) scale(.97 1) skewX(1.07)"><tspan x="0" y="0">t</tspan></text><text class="d" transform="translate(362.76 268.8) rotate(-69.26) scale(.97 1) skewX(.77)"><tspan x="0" y="0"> </tspan></text><circle class="b" cx="202.29" cy="202.29" r="115"/><text class="c" transform="translate(132.74 237.17)"><tspan x="0" y="0">{;}</tspan></text></svg>