<?xml version="1.0" encoding="UTF-8"?><svg id="a" xmlns="http://www.w3.org/2000/svg" viewBox="0 0 430 430"><defs><style>.b{fill:#fc0;font-family:CCSignLanguage-Regular, CCSignLanguage;font-size:156px;letter-spacing:.1em;}.c{fill:#ffffdb;}.d{font-family:Archistico-Bold, Archistico;font-size:77.24px;}</style></defs><circle class="c" cx="215" cy="216" r="200"/><text class="d" transform="translate(45.68 218.29) rotate(81) scale(.97 1) skewX(-.32)"><tspan x="0" y="0">J</tspan></text><text class="d" transform="translate(56.75 274.21) rotate(61.07) scale(.97 1) skewX(-1.08)"><tspan x="0" y="0">a</tspan></text><text class="d" transform="translate(85.5 322.71) rotate(40.85) scale(.97 1) skewX(-1.16)"><tspan x="0" y="0">v</tspan></text><text class="d" transform="translate(133.61 360.94) rotate(20.95) scale(.97 1) skewX(-.78)"><tspan x="0" y="0">a</tspan></text><text class="d" transform="translate(186.04 378.67) rotate(3.2) scale(.97 1) skewX(-.15)"><tspan x="0" y="0">s</tspan></text><text class="d" transform="translate(236.49 379.85) rotate(-13.74) scale(.97 1) skewX(.64)"><tspan x="0" y="0">c</tspan></text><text class="d" transform="translate(286.41 365.6) rotate(-31.16) scale(.97 1) skewX(1.03)"><tspan x="0" y="0">r</tspan></text><text class="d" transform="translate(327.85 337.89) rotate(-46.2) scale(.97 1) skewX(1.21)"><tspan x="0" y="0">i</tspan></text><text class="d" transform="translate(355.05 309.05) rotate(-63.48) scale(.97 1) skewX(.97)"><tspan x="0" y="0">p</tspan></text><text class="d" transform="translate(379.06 253.48) rotate(-82.16) scale(.97 1) skewX(.21)"><tspan x="0" y="0">t</tspan></text><text class="d" transform="translate(383.06 212.18) rotate(-94.32) scale(.97 1) skewX(-.14)"><tspan x="0" y="0"> </tspan></text><text class="b" transform="translate(117.81 256.03)"><tspan x="0" y="0">{;}</tspan></text></svg>