<?xml version="1.0" encoding="UTF-8"?><svg id="a" xmlns="http://www.w3.org/2000/svg" viewBox="0 0 1000 1000"><defs><style>.g{fill:#facf5a;}.h{fill:#006837;}.i{fill:#ff9738;}.j{fill:#50960f;}.k{fill:#515151;}.l{fill:none;stroke:#000;stroke-width:.73px;}</style></defs><circle class="i" cx="14.7" cy="765.26" r="478.5"/><g><g id="b"><path class="j" d="M294.1,832.16c-2.8-.6-5.5-2.2-8.3-3.3,1.2-6.4,2.5-12.8,3.7-19.3,.2-.9-.1-2.5-.2-5.6h-26.1c4.1,8.2,7.3,14.6,10.7,21.4-5,8.5-7.9-.3-10.7-10-3.3-11.4-7.4-19.6-11.9-9.3-3.7,8.5-6.5,6.8-9.9,.9-1.3-2.2-2.8-4.3-4.2-4.2-10.3,.8-20.6,2.8-31,3.1-16.9,.6-33.9,.4-50.8-.2-2.3-.1-4.8-3.5-6.7-7.5-4.6-9.6-12.6-9.4-17.3-2.7-4.4,6.3-9.5,8.2-14.4,11.6-3.1,2.1-7.1,.2-9.1,5.6-8.9,23.5-8.7,24.2-19.5,5,4.2-1.6,8.3-3.3,12.5-4.9-3-6-7.2-4.3-8.7-9.6-5.4-18.8-9.9-8.1-14.5,1.4-5.2,10.8-12.8,8.2-18-4-1.9-4.4-6.2-4.6-8.4-.9-3.4,5.9-5.9,11.5-10.3,7.4-2.5-2.3-5.8,4.6-8.8,6.9-2.4,1.8-6.4,6.4-6.9,3.9-3.8-16.8-7.1-8.3-10.9,2.2-3.8-13.2-5.6-35-13.7-27.8-.5,7.9-1.2,16.5-1.8,25.9-4.2-3.8-7.9-9.7-11.6-10.2-12.3-1.4-24.6-1.5-36.8-.5-5.4,.4-10.8,6.8-16.1,6.3-7-.6-13.9-6.9-20.9-7.8-3.7-.5-7.6,5.2-11.1,7.9,1.2,16,2.2,27.7,3.3,42.4-6.8-2-12.4-3.7-18.1-5.4l.2-5.1c8.2,.2,11-8.3,11.8-36.8-4.3,0-8.6-.1-12.9,0-9.1,.2-18.1-.1-27.2,1-4.4,.5-8.7,3.8-13.9,6.2-13.9,1.4-28.1-10.6-43.6-3.3-15,7.1-30.7-.2-46.5-1.2,.3-7.1,.3-10.6,.7-13.5,.3-2.1,.6-4.2,.9-6.3-.4,.2-.9,.4-1.3,.5-1.9,1.4-3.9,2.5-5.9,3.1-2.1,.7-4.3,1.2-6.4,1.6-1.6,.6-3.2,1.1-4.8,1.6-6.4,2-12.7,2.8-19.2,1.1-.6-.2-1.2-.4-1.8-.6-1,.1-1.9,0-2.8-.2,.6,10.5,1.3,21,1.9,31.6,.2,3.6,.2,8.1-.3,11.2-.7,4.4-2,8-3.1,11.9,1.8,.6,3.7,1.1,5.8,1.7,1.7,14.1-.1,20.4-5,20.9-2.4,.2-4.7,2-7.1,2.9-7.2,2.8-14.4,5.4-21.7,8.2-.1-3-.3-6-.4-9,1.8-1.1,3.7-1.9,5.5-3.3,5.3-3.8,10.6-7.3,15.8-12.3,.9-.9,1-9,1.5-13.8-1.7-1.6-3.4-3.7-5.2-4.8-2.3-1.4-5.4,.6-6.9-3.4-2.7-7.1-4.5-17.6-6.6-26.6-6.2,14.3-9,14-15,1.1-6.3,1.1-10.8,1.9-15.4,2.6-5.5,.8-11,3-16.5,1.7-8.4-1.9-17.4,7.5-25.1-10.4-.8-1.9-2.5-.8-3.7-.5-7,1.5-13.9,4.2-20.9,4.5-27.9,1.3-55.9,1.9-83.9,3-3.6,.1-7.2,3-10.8,2.5-4.9-.7-9.8-4.9-14.7-4.8-32.7,.7-65.4,2.8-98.2,3-18,.1-35.9-3.4-53.9-3.9-22.3-.6-44.7,.1-67,.3v295.7h191.5c.7-10.6,1.4-21.3,2.2-33.1,4.6,6.1,5.1,19.6,5.6,33.1H-276.2c-.4-10.3-.8-20.6-1.2-32.6,4.7,4.8,7.9,14.2,7.7,32.6h24.7c1-9.1,2.1-18.1,3.1-27.3,.7-6.5,1.2-13,2.1-23,5.7,16.2,10.8,28.6,11.8,50.3h95.1c.7-17.1,5.4-28.7,11.2-28.1,6.6,.7,5.9,14.8,5.8,28.1h49.5c2.5-14.5,7.2-13.1,11.4-14,.9-.2,2,9.1,3,14h14.3c-1.9-12.6-3.8-25.2-5.9-39.3,3-2.1,5.2-3.6,6.7-4.7,3,10.8,5.7,20.6,8.4,30.4l1.8-3.6c.2,5.8,.4,11.5,.6,17.3H-13.1l-4.7-28.7c.7-1.1,1.3-2.2,2-3.3,3.1,10.3,6.2,20.7,9.2,31-1-13.8-2-27.6-2.9-41.5,.7-.5,1.4-1,2.1-1.5,1.6,14.6,3.2,29.3,4.8,43.9H2.6c-1.2-6.1-2.4-12.2-4.3-22.3,5.8,4.3,10.6,2.9,10.9,22.3H306.2v-275.4c-4.1-.4-8.1-.6-12.1-1.4Zm-803.1,87.1c4.4-9.2,8.7-18.4,13.6,2.6-5.3-1-9.4-1.8-13.6-2.6Zm133.3,172.8c-3.6-4.7-4-12.4-.5-25.8,1.7,9.7,3,16.9,4.2,24.1-1.2,.7-2.7,3-3.7,1.7Zm46.2-93l.1-6.6c4.6,0,9.3-1,13.8,.9,.8,.3,1,12.8,1.7,21.7-6-6.3-10.8-11.1-15.6-16Zm95.7-110.1c-1.7,2.5-3.4,5.1-5.1,7.7q5-24.8,10.4-14.6c-2.1,2.4-3.7,4.5-5.3,6.9Zm15.4-34.9c-3.2-.2-6.5-2-9.7-3.2,.1-2.8,.2-5.6,.2-8.4,3.1-1.1,6.2-2.8,9.3-3,.9,0,1.8,4.7,2.7,7.2-.9,2.6-1.7,7.5-2.5,7.4Zm94.4,3.2c-1.4,1.2-3.2,.1-4.5,2.1-8,12.4-15.3-7.8-23.1-5.1-.8,.3-1.9-9-2.8-13.5,3.9-16.6,7.7-2.7,11.4-2.5,3.6,.2,7.1-.5,10.7-.8,3.9,3.5,7.2,12.5,10.8-9.1,1.4,10.1,2.3,16.3,3.2,22.6-1.9,2.1-3.7,4.7-5.7,6.3Zm33.6,239.3c-2.3-10.1-4.6-20.2-3.1-33.8,.7-.6,1.3-1.2,2-1.8,1.2,11,2.5,22.1,3.7,33.1-.9,.9-1.8,1.7-2.6,2.5Zm.4-234.7c-.2-2.2-.5-4.4-.7-6.6,2.2-2.6,4.4-7.4,6.6-6.9,1.1,.2,2,9.6,3.8,18.9-4.6-2.5-7.1-4-9.7-5.4Zm44,21.9c-4.6-12.2,7.2-24.2-.3-35.5-3.1,8.8-6,17.1-8.9,25.3-.5-.4-1-.7-1.5-1.1,.6-9.4,.4-21.1,2.2-27.6,1.7-6.2,6.8-12.4,8.1-9.3,3.7,9.1,6.2,22.7,9.8,36.7-4.6,5.5-7.1,8.7-9.4,11.5Z"/><path class="g" d="M-228,1108.96h95.1c.7-17.1,5.4-28.7,11.2-28.1,6.6,.7,5.9,14.8,5.8,28.1h49.5c2.5-14.5,7.2-13.1,11.4-14,.9-.2,2,9.1,3,14h14.3c-1.9-12.6-3.8-25.2-5.9-39.3,3-2.1,5.2-3.6,6.7-4.7,3,10.8,5.7,20.6,8.4,30.4l1.8-3.6c.2,5.8,.4,11.5,.6,17.3H-13.1l-4.7-28.7c.7-1.1,1.3-2.2,2-3.3,3.1,10.3,6.2,20.7,9.2,31-1-13.8-2-27.6-2.9-41.5,.7-.5,1.4-1,2.1-1.5,1.6,14.6,3.2,29.3,4.8,43.9H2.6c-1.2-6.1-2.4-12.2-4.3-22.3,5.8,4.3,10.6,2.9,10.9,22.3H306.2v-275.4c-4.1-.4-8.1-.6-12.1-1.4-2.8-.6-5.5-2.2-8.3-3.3,1.2-6.4,2.5-12.8,3.7-19.3,.2-.9-.1-2.5-.2-5.6h-26.1c4.1,8.2,7.3,14.6,10.7,21.4-5,8.5-7.9-.3-10.7-10-3.3-11.4-7.4-19.6-11.9-9.3-3.7,8.5-6.5,6.8-9.9,.9-1.3-2.2-2.8-4.3-4.2-4.2-10.3,.8-20.6,2.8-31,3.1-16.9,.6-33.9,.4-50.8-.2-2.3-.1-4.8-3.5-6.7-7.5-4.6-9.6-12.6-9.4-17.3-2.7-4.4,6.3-9.5,8.2-14.4,11.6-3.1,2.1-7.1,.2-9.1,5.6-8.9,23.5-8.7,24.2-19.5,5,4.2-1.6,8.3-3.3,12.5-4.9-3-6-7.2-4.3-8.7-9.6-5.4-18.8-9.9-8.1-14.5,1.4-5.2,10.8-12.8,8.2-18-4-1.9-4.4-6.2-4.6-8.4-.9-3.4,5.9-5.9,11.5-10.3,7.4-2.5-2.3-5.8,4.6-8.8,6.9-2.4,1.8-6.4,6.4-6.9,3.9-3.8-16.8-7.1-8.3-10.9,2.2-3.8-13.2-5.6-35-13.7-27.8-.5,7.9-1.2,16.5-1.8,25.9-4.2-3.8-7.9-9.7-11.6-10.2-12.3-1.4-24.6-1.5-36.8-.5-5.4,.4-10.8,6.8-16.1,6.3-7-.6-13.9-6.9-20.9-7.8-3.7-.5-7.6,5.2-11.1,7.9,1.2,16,2.2,27.7,3.3,42.4-6.8-2-12.4-3.7-18.1-5.4l.2-5.1c8.2,.2,11-8.3,11.8-36.8-4.3,0-8.6-.1-12.9,0-9.1,.2-18.1-.1-27.2,1-4.4,.5-8.7,3.8-13.9,6.2-13.9,1.4-28.1-10.6-43.6-3.3-15,7.1-30.7-.2-46.5-1.2,.3-7.1,.3-10.6,.7-13.5,.3-2.1,.6-4.2,.9-6.3-.4,.2-.9,.4-1.3,.5-1.9,1.4-3.9,2.5-5.9,3.1-2.1,.7-4.3,1.2-6.4,1.6-1.6,.6-3.2,1.1-4.8,1.6-6.4,2-12.7,2.8-19.2,1.1-.6-.2-1.2-.4-1.8-.6-1,.1-1.9,0-2.8-.2,.6,10.5,1.3,21,1.9,31.6,.2,3.6,.2,8.1-.3,11.2-.7,4.4-2,8-3.1,11.9,1.8,.6,3.7,1.1,5.8,1.7,1.7,14.1-.1,20.4-5,20.9-2.4,.2-4.7,2-7.1,2.9-7.2,2.8-14.4,5.4-21.7,8.2-.1-3-.3-6-.4-9,1.8-1.1,3.7-1.9,5.5-3.3,5.3-3.8,10.6-7.3,15.8-12.3,.9-.9,1-9,1.5-13.8-1.7-1.6-3.4-3.7-5.2-4.8-2.3-1.4-5.4,.6-6.9-3.4-2.7-7.1-4.5-17.6-6.6-26.6-6.2,14.3-9,14-15,1.1-6.3,1.1-10.8,1.9-15.4,2.6-5.5,.8-11,3-16.5,1.7-8.4-1.9-17.4,7.5-25.1-10.4-.8-1.9-2.5-.8-3.7-.5-7,1.5-13.9,4.2-20.9,4.5-27.9,1.3-55.9,1.9-83.9,3-3.6,.1-7.2,3-10.8,2.5-4.9-.7-9.8-4.9-14.7-4.8-32.7,.7-65.4,2.8-98.2,3-18,.1-35.9-3.4-53.9-3.9-22.3-.6-44.7,.1-67,.3v295.7h191.5c.7-10.6,1.4-21.3,2.2-33.1,4.6,6.1,5.1,19.6,5.6,33.1H-276.2c-.4-10.3-.8-20.6-1.2-32.6,4.7,4.8,7.9,14.2,7.7,32.6h24.7c1-9.1,2.1-18.1,3.1-27.3,.7-6.5,1.2-13,2.1-23,5.7,16.2,10.8,28.6,11.8,50.3m-281-189.7c4.4-9.2,8.7-18.4,13.6,2.6-5.3-1-9.4-1.8-13.6-2.6Zm133.3,172.8c-3.6-4.7-4-12.4-.5-25.8,1.7,9.7,3,16.9,4.2,24.1-1.2,.7-2.7,3-3.7,1.7Zm46.2-93l.1-6.6c4.6,0,9.3-1,13.8,.9,.8,.3,1,12.8,1.7,21.7-6-6.3-10.8-11.1-15.6-16Zm95.7-110.1c-1.7,2.5-3.4,5.1-5.1,7.7q5-24.8,10.4-14.6c-2.1,2.4-3.7,4.5-5.3,6.9Zm15.4-34.9c-3.2-.2-6.5-2-9.7-3.2,.1-2.8,.2-5.6,.2-8.4,3.1-1.1,6.2-2.8,9.3-3,.9,0,1.8,4.7,2.7,7.2-.9,2.6-1.7,7.5-2.5,7.4Zm94.4,3.2c-1.4,1.2-3.2,.1-4.5,2.1-8,12.4-15.3-7.8-23.1-5.1-.8,.3-1.9-9-2.8-13.5,3.9-16.6,7.7-2.7,11.4-2.5,3.6,.2,7.1-.5,10.7-.8,3.9,3.5,7.2,12.5,10.8-9.1,1.4,10.1,2.3,16.3,3.2,22.6-1.9,2.1-3.7,4.7-5.7,6.3Zm33.6,239.3c-2.3-10.1-4.6-20.2-3.1-33.8,.7-.6,1.3-1.2,2-1.8,1.2,11,2.5,22.1,3.7,33.1-.9,.9-1.8,1.7-2.6,2.5Zm.4-234.7c-.2-2.2-.5-4.4-.7-6.6,2.2-2.6,4.4-7.4,6.6-6.9,1.1,.2,2,9.6,3.8,18.9-4.6-2.5-7.1-4-9.7-5.4Zm44,21.9c-4.6-12.2,7.2-24.2-.3-35.5-3.1,8.8-6,17.1-8.9,25.3-.5-.4-1-.7-1.5-1.1,.6-9.4,.4-21.1,2.2-27.6,1.7-6.2,6.8-12.4,8.1-9.3,3.7,9.1,6.2,22.7,9.8,36.7-4.6,5.5-7.1,8.7-9.4,11.5Z"/></g><g><g id="c"><path class="j" d="M1298.3,832.56c-2.8-.6-5.5-2.2-8.3-3.3,1.2-6.4,2.5-12.8,3.7-19.3,.2-.9-.1-2.5-.2-5.6h-26.2c4.1,8.2,7.3,14.6,10.7,21.4-5,8.5-7.9-.3-10.7-10-3.3-11.4-7.4-19.6-11.9-9.3-3.7,8.5-6.5,6.8-9.9,.9-1.3-2.2-2.8-4.3-4.2-4.2-10.3,.8-20.6,2.8-31,3.1-16.9,.6-33.9,.4-50.8-.2-2.3-.1-4.8-3.5-6.7-7.5-4.6-9.6-12.6-9.4-17.3-2.7-4.4,6.3-9.5,8.2-14.4,11.6-3.1,2.1-7.1,.2-9.1,5.6-8.9,23.5-8.7,24.2-19.5,5,4.2-1.6,8.3-3.3,12.5-4.9-3-6-7.2-4.3-8.7-9.6-5.4-18.8-9.9-8.1-14.5,1.4-5.2,10.8-12.8,8.2-18-4-1.9-4.4-6.2-4.6-8.4-.9-3.4,5.9-5.9,11.5-10.3,7.4-2.5-2.3-5.8,4.6-8.8,6.9-2.4,1.8-6.4,6.4-6.9,3.9-3.8-16.8-7.1-8.3-10.9,2.2-3.8-13.2-5.6-35-13.7-27.8-.5,7.9-1.2,16.5-1.8,25.9-4.2-3.8-7.9-9.7-11.6-10.2-12.3-1.4-24.6-1.5-36.8-.5-5.4,.4-10.8,6.8-16.1,6.3-7-.6-13.9-6.9-20.9-7.8-3.7-.5-7.6,5.2-11.1,7.9,1.2,16,2.2,27.7,3.3,42.4-6.8-2-12.4-3.7-18.1-5.4l.2-5.1c8.2,.2,11-8.3,11.8-36.8-4.3,0-8.6-.1-12.9,0-9.1,.2-18.1-.1-27.2,1-4.4,.5-8.7,3.8-13.9,6.2-13.9,1.4-28.1-10.6-43.6-3.3-15,7.1-30.7-.2-46.5-1.2,.3-7.1,.3-10.6,.7-13.5,.3-2.1,.6-4.2,.9-6.3-.4,.2-.9,.4-1.3,.5-1.9,1.4-3.9,2.5-5.9,3.1-2.1,.7-4.3,1.2-6.4,1.6-1.6,.6-3.2,1.1-4.8,1.6-6.4,2-12.7,2.8-19.2,1.1-.6-.2-1.2-.4-1.8-.6-1,.1-1.9,0-2.8-.2,.6,10.5,1.3,21,1.9,31.6,.2,3.6,.2,8.1-.3,11.2-.7,4.4-2,8-3.1,11.9,1.8,.6,3.7,1.1,5.8,1.7,1.7,14.1-.1,20.4-5,20.9-2.4,.2-4.7,2-7.1,2.9-7.2,2.8-14.4,5.4-21.7,8.2-.1-3-.3-6-.4-9,1.8-1.1,3.7-1.9,5.5-3.3,5.3-3.8,10.6-7.3,15.8-12.3,.9-.9,1-9,1.5-13.8-1.7-1.6-3.4-3.7-5.2-4.8-2.3-1.4-5.4,.6-6.9-3.4-2.7-7.1-4.5-17.6-6.6-26.6-6.2,14.3-9,14-15,1.1-6.3,1.1-10.8,1.9-15.4,2.6-5.5,.8-11,3-16.5,1.7-8.4-1.9-17.4,7.5-25.1-10.4-.8-1.9-2.5-.8-3.7-.5-7,1.5-13.9,4.2-20.9,4.5-27.9,1.3-55.9,1.9-83.9,3-3.6,.1-7.2,3-10.8,2.5-4.9-.7-9.8-4.9-14.7-4.8-32.7,.7-65.4,2.8-98.2,3-18,.1-35.9-3.4-53.9-3.9-22.3-.6-44.7,.1-67,.3v296h191.5c.7-10.6,1.4-21.3,2.2-33.1,4.6,6.1,5.1,19.6,5.6,33.1h260.5c-.4-10.3-.8-20.6-1.2-32.6,4.7,4.8,7.9,14.2,7.7,32.6h24.7c1-9.1,2.1-18.1,3.1-27.3,.7-6.5,1.2-13,2.1-23,5.7,16.2,10.8,28.6,11.8,50.3h95.1c.7-17.1,5.4-28.7,11.2-28.1,6.6,.7,5.9,14.8,5.8,28.1h49.5c2.5-14.5,7.2-13.1,11.4-14,.9-.2,2,9.1,3,14h14.3c-1.9-12.6-3.8-25.2-5.9-39.3,3-2.1,5.2-3.6,6.7-4.7,3,10.8,5.7,20.6,8.4,30.4l1.8-3.6c.2,5.8,.4,11.5,.6,17.3h13l-4.7-28.7c.7-1.1,1.3-2.2,2-3.3,3.1,10.3,6.2,20.7,9.2,31-1-13.8-2-27.6-2.9-41.5,.7-.5,1.4-1,2.1-1.5,1.6,14.6,3.2,29.3,4.8,43.9h5.2c-1.2-6.1-2.4-12.2-4.3-22.3,5.8,4.3,10.6,2.9,10.9,22.3h297v-275.7c-4-.5-8.1-.6-12-1.4Zm-803.2,87.1c4.4-9.2,8.7-18.4,13.6,2.6-5.2-1-9.4-1.8-13.6-2.6Zm133.4,172.8c-3.6-4.7-4-12.4-.5-25.8,1.7,9.7,3,16.9,4.2,24.1-1.2,.7-2.7,3-3.7,1.7Zm46.2-93l.1-6.6c4.6,0,9.3-1,13.8,.9,.8,.3,1,12.8,1.7,21.7-6.1-6.3-10.9-11.1-15.6-16Zm95.6-110.2c-1.7,2.5-3.4,5.1-5.1,7.7q5-24.8,10.4-14.6c-2,2.5-3.7,4.6-5.3,6.9Zm15.4-34.8c-3.2-.2-6.5-2-9.7-3.2,.1-2.8,.2-5.6,.2-8.4,3.1-1.1,6.2-2.8,9.3-3,.9,0,1.8,4.7,2.7,7.2-.8,2.6-1.7,7.4-2.5,7.4Zm94.4,3.2c-1.4,1.2-3.2,.1-4.5,2.1-8,12.4-15.3-7.8-23.1-5.1-.8,.3-1.9-9-2.8-13.5,3.9-16.6,7.7-2.7,11.4-2.5,3.6,.2,7.1-.5,10.7-.8,3.9,3.5,7.2,12.5,10.8-9.1,1.4,10.1,2.3,16.3,3.2,22.6-1.9,2.1-3.7,4.6-5.7,6.3Zm33.6,239.3c-2.3-10.1-4.6-20.2-3.1-33.8,.7-.6,1.3-1.2,2-1.8,1.2,11,2.5,22.1,3.7,33.1-.9,.8-1.7,1.7-2.6,2.5Zm.4-234.7c-.2-2.2-.5-4.4-.7-6.6,2.2-2.6,4.4-7.4,6.6-6.9,1.1,.2,2,9.6,3.8,18.9-4.5-2.5-7.1-4-9.7-5.4Zm44,21.9c-4.6-12.2,7.2-24.2-.3-35.5-3.1,8.8-6,17.1-8.9,25.3-.5-.4-1-.7-1.5-1.1,.6-9.4,.4-21.1,2.2-27.6,1.7-6.2,6.8-12.4,8.1-9.3,3.7,9.1,6.2,22.7,9.8,36.7-4.6,5.5-7.1,8.6-9.4,11.5Z"/><path class="g" d="M1298.3,832.56c-2.8-.6-5.5-2.2-8.3-3.3,1.2-6.4,2.5-12.8,3.7-19.3,.2-.9-.1-2.5-.2-5.6h-26.2c4.1,8.2,7.3,14.6,10.7,21.4-5,8.5-7.9-.3-10.7-10-3.3-11.4-7.4-19.6-11.9-9.3-3.7,8.5-6.5,6.8-9.9,.9-1.3-2.2-2.8-4.3-4.2-4.2-10.3,.8-20.6,2.8-31,3.1-16.9,.6-33.9,.4-50.8-.2-2.3-.1-4.8-3.5-6.7-7.5-4.6-9.6-12.6-9.4-17.3-2.7-4.4,6.3-9.5,8.2-14.4,11.6-3.1,2.1-7.1,.2-9.1,5.6-8.9,23.5-8.7,24.2-19.5,5,4.2-1.6,8.3-3.3,12.5-4.9-3-6-7.2-4.3-8.7-9.6-5.4-18.8-9.9-8.1-14.5,1.4-5.2,10.8-12.8,8.2-18-4-1.9-4.4-6.2-4.6-8.4-.9-3.4,5.9-5.9,11.5-10.3,7.4-2.5-2.3-5.8,4.6-8.8,6.9-2.4,1.8-6.4,6.4-6.9,3.9-3.8-16.8-7.1-8.3-10.9,2.2-3.8-13.2-5.6-35-13.7-27.8-.5,7.9-1.2,16.5-1.8,25.9-4.2-3.8-7.9-9.7-11.6-10.2-12.3-1.4-24.6-1.5-36.8-.5-5.4,.4-10.8,6.8-16.1,6.3-7-.6-13.9-6.9-20.9-7.8-3.7-.5-7.6,5.2-11.1,7.9,1.2,16,2.2,27.7,3.3,42.4-6.8-2-12.4-3.7-18.1-5.4l.2-5.1c8.2,.2,11-8.3,11.8-36.8-4.3,0-8.6-.1-12.9,0-9.1,.2-18.1-.1-27.2,1-4.4,.5-8.7,3.8-13.9,6.2-13.9,1.4-28.1-10.6-43.6-3.3-15,7.1-30.7-.2-46.5-1.2,.3-7.1,.3-10.6,.7-13.5,.3-2.1,.6-4.2,.9-6.3-.4,.2-.9,.4-1.3,.5-1.9,1.4-3.9,2.5-5.9,3.1-2.1,.7-4.3,1.2-6.4,1.6-1.6,.6-3.2,1.1-4.8,1.6-6.4,2-12.7,2.8-19.2,1.1-.6-.2-1.2-.4-1.8-.6-1,.1-1.9,0-2.8-.2,.6,10.5,1.3,21,1.9,31.6,.2,3.6,.2,8.1-.3,11.2-.7,4.4-2,8-3.1,11.9,1.8,.6,3.7,1.1,5.8,1.7,1.7,14.1-.1,20.4-5,20.9-2.4,.2-4.7,2-7.1,2.9-7.2,2.8-14.4,5.4-21.7,8.2-.1-3-.3-6-.4-9,1.8-1.1,3.7-1.9,5.5-3.3,5.3-3.8,10.6-7.3,15.8-12.3,.9-.9,1-9,1.5-13.8-1.7-1.6-3.4-3.7-5.2-4.8-2.3-1.4-5.4,.6-6.9-3.4-2.7-7.1-4.5-17.6-6.6-26.6-6.2,14.3-9,14-15,1.1-6.3,1.1-10.8,1.9-15.4,2.6-5.5,.8-11,3-16.5,1.7-8.4-1.9-17.4,7.5-25.1-10.4-.8-1.9-2.5-.8-3.7-.5-7,1.5-13.9,4.2-20.9,4.5-27.9,1.3-55.9,1.9-83.9,3-3.6,.1-7.2,3-10.8,2.5-4.9-.7-9.8-4.9-14.7-4.8-32.7,.7-65.4,2.8-98.2,3-18,.1-35.9-3.4-53.9-3.9-22.3-.6-44.7,.1-67,.3v296h191.5c.7-10.6,1.4-21.3,2.2-33.1,4.6,6.1,5.1,19.6,5.6,33.1h260.5c-.4-10.3-.8-20.6-1.2-32.6,4.7,4.8,7.9,14.2,7.7,32.6h24.7c1-9.1,2.1-18.1,3.1-27.3,.7-6.5,1.2-13,2.1-23,5.7,16.2,10.8,28.6,11.8,50.3h95.1c.7-17.1,5.4-28.7,11.2-28.1,6.6,.7,5.9,14.8,5.8,28.1h49.5c2.5-14.5,7.2-13.1,11.4-14,.9-.2,2,9.1,3,14h14.3c-1.9-12.6-3.8-25.2-5.9-39.3,3-2.1,5.2-3.6,6.7-4.7,3,10.8,5.7,20.6,8.4,30.4l1.8-3.6c.2,5.8,.4,11.5,.6,17.3h13l-4.7-28.7c.7-1.1,1.3-2.2,2-3.3,3.1,10.3,6.2,20.7,9.2,31-1-13.8-2-27.6-2.9-41.5,.7-.5,1.4-1,2.1-1.5,1.6,14.6,3.2,29.3,4.8,43.9h5.2c-1.2-6.1-2.4-12.2-4.3-22.3,5.8,4.3,10.6,2.9,10.9,22.3h297v-275.7c-4-.5-8.1-.6-12-1.4Zm-803.2,87.1c4.4-9.2,8.7-18.4,13.6,2.6-5.2-1-9.4-1.8-13.6-2.6Zm133.4,172.8c-3.6-4.7-4-12.4-.5-25.8,1.7,9.7,3,16.9,4.2,24.1-1.2,.7-2.7,3-3.7,1.7Zm46.2-93l.1-6.6c4.6,0,9.3-1,13.8,.9,.8,.3,1,12.8,1.7,21.7-6.1-6.3-10.9-11.1-15.6-16Zm95.6-110.2c-1.7,2.5-3.4,5.1-5.1,7.7q5-24.8,10.4-14.6c-2,2.5-3.7,4.6-5.3,6.9Zm15.4-34.8c-3.2-.2-6.5-2-9.7-3.2,.1-2.8,.2-5.6,.2-8.4,3.1-1.1,6.2-2.8,9.3-3,.9,0,1.8,4.7,2.7,7.2-.8,2.6-1.7,7.4-2.5,7.4Zm94.4,3.2c-1.4,1.2-3.2,.1-4.5,2.1-8,12.4-15.3-7.8-23.1-5.1-.8,.3-1.9-9-2.8-13.5,3.9-16.6,7.7-2.7,11.4-2.5,3.6,.2,7.1-.5,10.7-.8,3.9,3.5,7.2,12.5,10.8-9.1,1.4,10.1,2.3,16.3,3.2,22.6-1.9,2.1-3.7,4.6-5.7,6.3Zm33.6,239.3c-2.3-10.1-4.6-20.2-3.1-33.8,.7-.6,1.3-1.2,2-1.8,1.2,11,2.5,22.1,3.7,33.1-.9,.8-1.7,1.7-2.6,2.5Zm.4-234.7c-.2-2.2-.5-4.4-.7-6.6,2.2-2.6,4.4-7.4,6.6-6.9,1.1,.2,2,9.6,3.8,18.9-4.5-2.5-7.1-4-9.7-5.4Zm44,21.9c-4.6-12.2,7.2-24.2-.3-35.5-3.1,8.8-6,17.1-8.9,25.3-.5-.4-1-.7-1.5-1.1,.6-9.4,.4-21.1,2.2-27.6,1.7-6.2,6.8-12.4,8.1-9.3,3.7,9.1,6.2,22.7,9.8,36.7-4.6,5.5-7.1,8.6-9.4,11.5Z"/><g><line class="l" x1="618.2" y1="812.06" x2="672.2" y2="812.06"/><line class="l" x1="618.2" y1="837.36" x2="672.2" y2="837.36"/><line class="l" x1="699.2" y1="1053.16" x2="699.2" y2="909.26"/><line class="l" x1="790.1" y1="812.06" x2="736.1" y2="812.06"/><line class="l" x1="790.1" y1="837.36" x2="736.1" y2="837.36"/><line class="l" x1="709.1" y1="1053.16" x2="709.1" y2="909.26"/></g></g><path class="g" d="M699.9,919.06c3-.1,5.9-.1,8.9-.2h.7c.5-.1-.4-.1-.1,0,.1,0,.5,.2,.1,0s.1,.1,.2,.1c-.6-.5,.3,.5-.1,0,.4,.5,.2,.2,.4,.9,.6,2.1-.2,4.4-.9,6.4-.9,2.4-1.9,4.7-3.1,6.9-1,1.8-2.1,3.7-3.4,5.3-1.1,1.3-2.4,2.7-3.5,3.4-.1,.1-.6,.3-.6,.4,.3,.1,.7,.2,1,.3,.9,.5,1.2,.6,.9,.1,0,0-.2-.7,0,0,0-.1-.1-.3-.1-.5-.1-.6-.1-1.3-.1-2.3,.1-1.9,.5-3.7,1.1-5.6,.8-2.7,2.1-5.3,3.2-7.9,1.3-3.1,2.6-6.2,3.8-9.4,.8-1.9-1.5-4-3.4-3.4-2.8,1-5.7,2-8.5,3-1.2,.4-2,1.4-2,2.6-.1,7.6,.7,15.5,3.4,22.7,1.1,3,5,2.3,5.4-.7,1.4-10.2,1-21.2-2-31.1-.4-1.3-1.7-2.2-3-2-1.5,.2-2.2,1.3-2.4,2.7-2.9,22.8,4.1,45.3,4.9,68.1,.2,5.9,0,11.9-1.1,17.7h5.3c-2.2-11.7-3.9-23.5-5.2-35.4-.2-1.5-1.1-2.7-2.7-2.7-1.4,0-2.9,1.3-2.7,2.7,2.2,23.2,2.9,46.5,2.1,69.8-.2,6.6-.5,13.2-.9,19.7h5.5c.1-11.8,.2-23.5,.4-35.3,.1-11.1,.2-22.2,.6-33.4,.4-10.5,1.1-21.1,2.9-31.5,.8-4.6,1.6-9.6,3.8-13.8,.4-.7,1-1.8,1.3-2.1,.1-.1,.7-.8,.3-.4,.1-.1,.3-.2,.4-.2-.1,0-.9,.1-.5,.2-.4,0-.8-.1-.7-.2,0,0,.3,.4,.1,0,.1,.2,.2,.3,.3,.5,.1,.2,.2,.4,.3,.6,.2,.4-.1-.3,0,.1,.2,.4,.3,.9,.4,1.3,1.1,4.2,.8,9.1,.5,13.6-.3,5.4-.8,10.8-.7,16.2h5.5c-2-17.9-3.1-35.9-3.4-53.9-.1-3-4.6-3.8-5.4-.7-2.1,7.9-2,16.3-1.4,24.4,.6,8.9,1.9,17.8,2.5,26.8,.3,5,.4,10,.1,15h5.5v-17c0-3.5-5.5-3.5-5.5,0,0,16.8-.1,33.6-.1,50.5v14.5c1.8-.2,3.6-.5,5.4-.7-2.3-13.2-2.6-26.8-1.2-40.1h-5.5c.5,18.1,.6,36.3,.3,54.4-.1,5.1-.2,10.2-.4,15.3h5.5c-.7-15.6-.9-31.1-.5-46.7,.1-3.5-5.4-3.5-5.5,0-.4,15.6-.2,31.1,.5,46.7,.2,3.5,5.4,3.5,5.5,0,.5-18.1,.7-36.3,.4-54.4-.1-5.1-.2-10.2-.3-15.3,0-1.5-1.2-2.7-2.7-2.7-1.6,0-2.6,1.3-2.7,2.7-1.4,13.8-1,27.9,1.4,41.6,.5,3.1,5.4,2.3,5.4-.7,0-16.8,.1-33.6,.1-50.5v-14.5h-5.5v17c0,3.6,5.2,3.5,5.5,0,1.2-17.4-3.2-34.6-2.9-52,.1-4.3,.5-8.5,1.6-12.7-1.8-.2-3.6-.5-5.4-.7,.3,18,1.4,36,3.4,53.9,.2,1.5,1.1,2.7,2.7,2.7,1.5,0,2.8-1.3,2.7-2.7-.1-5.1,.3-10.3,.6-15.4,.3-4.7,.5-9.4-.3-14.1-.6-3.5-2.7-9.3-7.4-8-2,.6-3.5,2.4-4.5,4.1-1.3,2.3-2.2,4.8-3,7.4-1.5,5.1-2.3,10.5-3,15.8-.8,5.6-1.3,11.3-1.6,17-.7,11.7-.8,23.5-.9,35.2-.1,14.1-.3,28.2-.4,42.2,0,3.6,5.2,3.5,5.5,0,1.5-23.3,1.6-46.7,.3-70-.4-6.5-.9-13-1.5-19.5h-5.5c1.4,12.3,3.1,24.6,5.4,36.9,.5,2.6,4.8,2.6,5.3,0,2.1-11.1,1.4-22.3,.1-33.4-1.4-11.5-3.4-22.9-4.1-34.4-.4-6.4-.4-12.9,.4-19.3-1.8,.2-3.6,.5-5.4,.7,2.8,9.5,3.1,19.9,1.8,29.7,1.8-.2,3.6-.5,5.4-.7-2.5-6.8-3.2-14.1-3.2-21.3-.7,.9-1.3,1.8-2,2.6,2.8-1,5.7-2,8.5-3-1.1-1.1-2.2-2.2-3.4-3.4-1.4,3.4-2.8,6.7-4.1,10.1-1.1,2.7-2.4,5.4-3.1,8.2-.6,2.4-1.1,5-1,7.5,.1,2.6,1.1,6.3,4.3,6.3,2.3,0,4.6-2.2,6.1-3.8,1.9-1.9,3.4-4.1,4.8-6.4,1.6-2.7,2.9-5.6,4-8.5,1.2-3,2-6.1,1.5-9.3-.4-2.6-1.9-5.1-4.6-5.8-1.4-.4-3.1-.2-4.5-.1-2.1,0-4.3,.1-6.4,.1-3.7-.2-3.7,5.3-.2,5.2h0Z"/><path class="g" d="M650.5,877.26c-.1,0-.3-.1-.4-.1-.5-.1,.5,.3,.1,0-.2-.1-.6-.5-.8-.5,.3,.3,.4,.3,.2,.1l-.1-.1c-.1-.1-.3-.2-.4-.4-.1-.1-.3-.3-.4-.4-.1-.1-.5-.7-.3-.3,.2,.3-.2-.2-.2-.3-.1-.2-.2-.4-.4-.5-.2-.4-.5-.8-.7-1.2s-.4-.9-.6-1.3q-.1-.2,0,.1c-.1-.1-.1-.2-.1-.4-.1-.3-.2-.6-.3-.9-.9,1.2-1.8,2.3-2.6,3.5h.7c.2,0,.9-.1,.2,0,.4,0,.8,.2,1.2,.2,.3,.1,.5,.2,.8,.3,.2,.1,.7,.3,.1,0,.4,.2,.8,.4,1.3,.7,.4,.3,.8,.5,1.2,.8-.5-.3,.2,.1,.2,.2,.2,.2,.4,.4,.7,.6,.9,.8,1.7,1.7,2.4,2.7,1.3-1.3,2.6-2.6,3.9-3.9-3-2.7-6.1-5.5-9.1-8.2-1.8-1.6-4.6-.5-4.7,1.9-.1,3.2,.2,6.4,.9,9.5,.5,2.4,1.3,4.9,2.7,6.9,.7,1,1.9,1.7,3.1,1.3s1.9-1.4,2-2.6c.1-.9,.1-1.8,.2-2.7,0-.4,.1-.9,.1-1.3,0-.2,0-.4,.1-.6,.1-.8-.1,.5,0-.3s.2-1.6,.4-2.3c.1-.3,.2-.7,.3-1,.1-.2,.1-.4,.2-.6,0-.1,.2-.6,.1-.2-.1,.4,0-.1,.1-.2,.1-.1,.1-.2,.2-.4,.2-.4,0-.1-.1,.1,.2-.1,.1-.1-.1,0-.1,.1-.2,.2-.4,.2-.4,.2-.8,.2-1.3,.1,.4,.1-.6-.3-.2-.1-.1-.1-.5-.4-.2-.1,.2,.2-.3-.6-.1-.1,.1,.1,.1,.3,.2,.4,.3,.5-.1,0,0,0l.3,1c0,.2,0,.8,0,.2v1.2c0,.1-.1,.8,0,.3-.2,1.4,.4,3,1.9,3.4,1.3,.3,3.1-.4,3.4-1.9,.4-2.4,.3-5.1-1.1-7.3-.7-1-1.5-1.9-2.7-2.2-1.3-.3-2.7,.1-3.6,1.1-1.4,1.5-1.9,3.9-2.3,5.8-.4,2.5-.7,5-.8,7.5,1.7-.5,3.4-.9,5.1-1.4-.3-.4-.5-.8-.7-1.2-.1-.2-.2-.5-.3-.7-.1-.3-.1-.2,0,.1-.1-.1-.1-.3-.2-.4-.4-1.1-.7-2.3-1-3.5-.1-.6-.3-1.3-.4-1.9,0-.2-.1-.4-.1-.5q0,.3,0-.1c0-.4-.1-.7-.1-1.1-.1-1.5-.2-3-.1-4.5-1.6,.6-3.1,1.3-4.7,1.9,3,2.7,6.1,5.5,9.1,8.2,1.1,1,2.8,1.1,3.9,0,1.1-1.2,1-2.7,0-3.9-3.1-3.9-7.4-7.2-12.6-7.1-1.7,0-3.3,1.7-2.6,3.5,1.4,3.9,3.8,9,8.3,10.1,1.4,.3,3-.4,3.4-1.9,0-1.3-.7-2.9-2.2-3.3h0Z"/><path class="g" d="M616.3,840.56c19.3,1.1,38.7,2.3,58,3.4,1.5,.1,2.7-1.3,2.7-2.7,0-1.6-1.3-2.7-2.7-2.7-19.3-1.1-38.7-2.3-58-3.4-1.5-.1-2.7,1.3-2.7,2.7,0,1.5,1.3,2.6,2.7,2.7h0Z"/><path class="g" d="M738.3,842.96c5.4-.2,10.8-.4,16.3-.6,1.5-.1,2.7-1.2,2.7-2.7,0-1.6-1.3-2.6-2.7-2.7-8.3-1-16.5-2-24.8-3v5.5c19.2-.2,38.4-.5,57.7-.7,3.5,0,3.5-5.5,0-5.5-19.2,.2-38.4,.5-57.7,.7-1.5,0-2.7,1.2-2.7,2.7,0,1.6,1.3,2.6,2.7,2.7,8.3,1,16.5,2,24.8,3v-5.5c-5.4,.2-10.8,.4-16.3,.6-3.5,.2-3.5,5.7,0,5.5h0Z"/><path class="g" d="M736,811.16c4.8-1,9.5,.8,13.5,3.8,.5-1.7,.9-3.4,1.4-5.1-5.2-.5-10.3-.9-15.5-1.4-1.6-.1-3.3,1.9-2.6,3.5,.9,2.2,2.1,4.2,4.1,5.5,1.5,.9,3.2,1.2,4.9,1.1,2.4-.1,4.8-.6,7.1-.9,2.8-.4,5.7-.8,8.5-1.2,1.5-.2,2.3-2.1,1.9-3.4-.4-1.6-1.9-2.1-3.4-1.9-2.4,.3-4.7,.6-7.1,1-1.2,.2-2.4,.3-3.5,.5-.6,.1-1.1,.2-1.7,.2-.3,0-.6,.1-.8,.1-.7,.1,.4,0-.3,0-.5,.1-1.1,.1-1.6,.1h-.5c-.3,0,.4,.1,.1,0-.2-.1-.5-.1-.8-.2-.3-.1,.5,.3,0,0-.1-.1-.3-.2-.4-.2,.4,.3-.2-.2-.4-.4-.1-.1-.3-.3-.1-.1-.2-.2-.3-.4-.4-.6-.2-.3-.4-.7-.6-1.1-.9,1.2-1.8,2.3-2.6,3.5,5.2,.5,10.3,.9,15.5,1.4,1.2,.1,2.3-.9,2.6-2,.3-1.3-.3-2.4-1.3-3.1-5.1-3.8-11.3-5.7-17.7-4.4-1.4,.3-2.3,2-1.9,3.4,.7,1.5,2.2,2.2,3.6,1.9h0Z"/><path class="g" d="M756.7,813.66c1.7,3.1,4.4,6,8.1,6.2,3.6,.2,6.4-2.5,8.2-5.4,1.1-1.7-.3-4.3-2.4-4.1-2,.2-3.9,.3-5.9,.5,.2,1.8,.5,3.6,.7,5.4,3.1-.6,6.2-1.3,9.3-1.9,1.1-.2,2.4-.7,3.5-.2,.9,.3,1.2,.8,1.8,1.3,3,2.6,6.8,6.8,11,4,2.9-1.9,.2-6.7-2.8-4.7-.1,0-.7,.4-.4,.2,.3-.2-.4,.1,0,0q.2,0-.1,0h.3c-.1-.1-.3-.1-.5-.1,.4,.2-.6-.4-.7-.5,.2,.2-.1-.1-.1-.1-.2-.2-.4-.3-.6-.5-1.5-1.3-2.9-2.9-4.7-3.9-2.6-1.6-5.4-1.2-8.2-.6-3.1,.6-6.2,1.3-9.3,1.9-3,.6-2.4,5.6,.7,5.4,2-.2,3.9-.3,5.9-.5-.8-1.4-1.6-2.7-2.4-4.1-.5,.8-1.2,1.7-1.9,2.2-.2,.1-.3,.2-.5,.3-.8,.4,.2-.1-.2,.1-.2,.1-.6,.1-.2,.1-.1,0-.7,0-.4,0s-.9-.3-.5-.1c-.5-.2-.7-.4-1-.6-.9-.8-1.5-1.8-2.1-2.8-1.5-3.4-6.3-.6-4.6,2.5h0Z"/><path class="g" d="M792.3,820.56c.5-2,.4-4.2-.1-6.2-.5-1.8-1.4-4-3.4-4.5-1.6-.4-3.1,.4-4,1.8-.8,1.2-.3,3.1,1,3.7,1.3,.7,2.9,.3,3.7-1,0-.1,.1-.1,.1-.2-.1,.2-.3,.4-.4,.6l.2-.2c-.2,.1-.4,.3-.6,.4,.1,0,.1-.1,.2-.1-.2,.1-.4,.2-.7,.3h.1c-.2,0-.5,.1-.7,.1h.2c-.2,0-.5-.1-.7-.1h.1c-.2-.1-.4-.2-.7-.3,.1,0,.1,.1,.2,.1-.2-.1-.4-.3-.6-.4,.1,.1,.2,.2,.3,.4-.1-.2-.3-.4-.4-.6,.2,.3,.4,.6,.5,.9-.1-.2-.2-.4-.3-.7,.3,.8,.5,1.6,.6,2.4,0-.2-.1-.5-.1-.7,.1,.9,.1,1.9,0,2.8,0-.2,.1-.5,.1-.7,0,.2-.1,.5-.1,.7-.2,.7-.1,1.5,.3,2.1,.3,.6,1,1.1,1.6,1.3,.7,.2,1.5,.1,2.1-.3,.9-.3,1.4-.9,1.5-1.6h0Z"/><path class="g" d="M789.4,832.66c.3,1.1,.5,2.3,.7,3.5,0-.2-.1-.5-.1-.7,.2,1.4,.3,2.8,.3,4.1,1.4-.8,2.7-1.6,4.1-2.4-.2-.1-.4-.3-.6-.4,.2,.1,.4,.3,.6,.4-1.5-1.1-2.7-2.5-3.9-3.9,.1,.2,.3,.4,.4,.6-.1-.2-.2-.3-.4-.5-.4-.6-.9-1.1-1.6-1.3s-1.5-.1-2.1,.3c-.6,.4-1.1,.9-1.3,1.6-.2,.7-.2,1.5,.3,2.1,1.7,2.2,3.5,4.2,5.8,5.8,.8,.6,2,.5,2.8,0s1.4-1.4,1.4-2.4c0-2.8-.3-5.6-1.1-8.3-.4-1.4-2-2.4-3.4-1.9-1.4,.4-2.3,1.9-1.9,3.4h0Z"/><path class="g" d="M617.8,814.16c5.9,2.8,12.2,4,18.6,2.9,1.5-.2,3-.6,4.4-1.1,1-.3,1.9-.8,2.9-1,.2,0,.4-.1,.5-.1-.6,.1,0-.1,0,0,0,0,.6,.1,0,0,.5,.1-.3-.1,0,0,.2,.1-.2-.3,.1,.1,.3,.3,0,0,.2,.2,.3,.5,.5,1,.7,1.6,.1-.7,.2-1.4,.3-2.1-.5,.7-1,1.3-1.7,1.7-.1,.1-.6,.2-.4,.2-.3,0-.4,0-.1,0-.2,0-.4-.1-.6-.2,.5,1.3,1.1,2.7,1.6,4,2.8-3.8,6.1-7.3,10.1-9.9-1.3-1-2.7-2.1-4-3.1-.7,3.3-1.5,6.6-2.2,9.9-.6,2.9,3.5,5,5,2.1,.7-1.4,1.5-2.9,2.4-4.2,.2-.3,.8-1,.9-1.1s.2-.1,.3-.2q-.2,0-.1,0h-.3c-.2,0-.3,0,0,0-.1,0-.2-.1-.3-.1,.1,0,.7,.5,.1,.1,.1,.1,.5,.6,.2,.2,.1,.2,.2,.4,.4,.6,.5,.8,.8,2.2,1,3.4,.3-.6,.5-1.3,.8-1.9,.3-.2,.6-.3,.9-.5h1.4c.4,.2,.8,.5,1.2,.7,.2,.1,.3,.8,.3,.6s-.1-.4-.2-.6c.1,.3,0-.6-.1-.8,0-1,.1-1.7,.6-2.5,.4-.7-.2,.1,.1-.2,.2-.2-.5,.1,.1,0q-.3,.1-.6,.2c.5,0-.1-.1-.1-.1,.1,0,.6,.2,.2,0-.5-.2,.4,.3,.4,.2,.5,.3,1,.8,1.6,1.1,1.2,.8,2.6,1.2,4,.9,1.3-.3,2.3-1.1,3.2-2.1,.1-.1,.3-.3,.4-.5,.6-.8,.1,0,.1-.1-.8-.2-1.6-.4-2.4-.6,.1,.3,.1,.2,0,0,0,.2,.1,.4,.1,.5,.1,.5,.1,.3,0,.1,0,.3,0,.5,.1,.8v1.8c-.1,.6-.2,1.5-.5,2.3,.2-.4-.2,.2-.3,.3,.1-.1,.2-.2,.3-.2h-.1c-1.3-.1-2.7-.5-4-.7-1.7-.3-3.4-.5-5.1-.7-5.4-.6-11.2-1.2-16.6-.1-4.7,.9-9,3.9-11.4,8.1-2.6,4.3-3.5,9.7-3,14.7,.4,4.3,1.7,9.5,5.5,12.1,2.2,1.5,4.7,1.2,7.2,.7,.6-.1,1.1-.2,1.7-.3,.4,0,.8,.1,.8,.1q.1,0,.2,.1c-.3-.2-.4-.2-.2-.1,.1,.1,.3,.2,.4,.2,.1,.1,.4,.3,0-.1,.2,.1,.3,.3,.5,.5,.5,.5,.8,1,1.3,2,.4,.9,.8,2.1,1,3.2,.6,3,.3,6,.5,9.1,.4,5.1,2.2,9.6,5.9,13.1,1.8,1.7,4.5,.4,4.7-1.9,.1-1.5,.2-2.9,.3-4.4,.1-1.5-1.3-2.7-2.7-2.7-1.6,0-2.6,1.3-2.7,2.7-.1,1.5-.2,2.9-.3,4.4,1.6-.6,3.1-1.3,4.7-1.9-1.5-1.5-2.6-2.7-3.3-4.6-1.2-3.1-1.1-6.4-1.2-9.7-.1-5.1-1.3-12.3-6.6-14.7-1.3-.6-2.7-.7-4.1-.6-1.7,.2-3.2,.8-4.9,.5,.5,.1,.3,.2,.1,.1s-.4-.2-.5-.3c.5,.4-.1-.1-.1-.2-.2-.2-.3-.4-.5-.6,.3,.4-.2-.3-.2-.3-.2-.2-.3-.5-.4-.8-.3-.6-.4-.9-.6-1.5-1.9-5.4-1.3-12.1,1.8-16.7,.5-.8,1.1-1.4,2.1-2.2,1.1-.9,2.4-1.7,3.8-2.1,2.9-.9,6-.8,9-.7,3.8,.1,7.7,.5,11.4,1.1,3.1,.5,6.8,2,9.4-.4,2.1-2,2.5-5.4,2.4-8.1-.1-2.9-1.5-7.3-5.3-6-.8,.3-1.5,.8-2,1.4-.3,.3-1.1,.9-1.2,1.2l-.1,.1c.2-.2,.5-.3,.9-.3,0,0-.5-.3-.6-.3-.7-.4-1.3-1-2.1-1.4-2.6-1.4-5.5-.4-7,2.1s-2,6.7-.4,9.3c1.2,2,4.1,2,5.3,0,.9-1.5,0-4.3-.6-5.9-1.1-2.7-3.4-5.7-6.7-4.9-3.6,.8-5.5,5-7.1,8,1.7,.7,3.3,1.4,5,2.1,.7-3.3,1.5-6.6,2.2-9.9,.5-2.2-1.9-4.5-4-3.1-4.8,3.1-8.6,7.3-12,11.9-1.1,1.5,.1,3.5,1.6,4,1.9,.6,3.9,.3,5.6-.8,1.8-1.1,4.2-3.3,3.7-5.6-.8-3.6-3.7-6.3-7.5-5.7-1.3,.2-2.6,.8-3.8,1.3-2.1,.7-4.2,1.1-6.3,1.3-4.3,.2-8.4-.7-12.3-2.6-1.3-.6-3-.4-3.7,1-1.1,.7-.8,2.6,.6,3.2h0Z"/></g><path class="g" d="M270.1,973.76c-.7-8.5-2.2-17.1-5.1-25.2-2.1-5.8-4.9-11.8-9.9-15.6-.5,1.7-.9,3.4-1.4,5.1,10,.3,19-4,26.6-10.1h-3.9c.3,.3,.6,.7,.9,1.1,.2,.2,.3,.4,.5,.6,.5,.6-.3-.4,.2,.2,.7,.9,1.3,1.8,1.9,2.7,1.3,2,2.4,4.2,3.4,6.3,2.3,5,4.1,10.4,5.5,15.9,3.2,12.4,4.4,25.4,2.8,38.1-.7,5.8-1.9,11.9-4.8,17-.3,.5-.6,.9-.9,1.4-.1,.2-.3,.4-.4,.6-.5,.7,.3-.4-.2,.3-.3,.4-.7,.8-1,1.1-.2,.2-.3,.3-.5,.5-.1,.1-.2,.2-.3,.3q.3-.2,0,0c-.3,.2-.6,.4-1,.6-.1,.1-.3,.1-.5,.2,.7-.3,.1,0-.1,0s-.4,.1-.5,.1c-.6,.2,.6,0,0,0h-.5c-.7,0,.2,.1-.2,0-.2-.1-1.3-.5-.6-.1-.3-.2-.6-.3-.9-.5-.1-.1-.6-.5-.1-.1-.2-.1-.3-.3-.5-.5s-.3-.3-.5-.5c-.1-.1-.7-.8-.4-.4-.6-.8-1.2-1.8-1.7-2.7-.2-.4-.4-.9-.6-1.3,.2,.5-.1-.2-.1-.3-.1-.3-.3-.7-.4-1-1.6-4.6-2.5-9.5-2.9-14.1-.6-6.2-.6-12.5,0-18.7,.3-2.8,.6-5.3,1.3-8.2,.3-1.2,.6-2.4,1-3.6,.2-.6,.4-1.2,.6-1.8,.1-.2,.2-.5,.3-.7q.1-.3,0,0c.1-.2,.1-.3,.2-.5h-4.7c3.5,7.2,5.1,16.1,5.7,24.2,.7,9.2,.4,19-3,27.7-.6,1.5-1.4,3-2.3,4.4-.1,.1-.4,.6-.1,.2-.1,.1-.2,.3-.3,.4-.2,.2-.4,.5-.7,.7-.1,.1-.8,.7-.3,.3-.3,.2-.6,.3-.9,.5-.4,.3,.5-.2-.2,.1-.1,0-.2,0-.3,.1,.1,0,.6,0,.2,0-.3,0-.8-.2-.1,0-.3-.1-.9-.4-.4-.1-.2-.1-.5-.3-.7-.4,.5,.3-.1-.1-.3-.3-.1-.1-.6-.7-.4-.4-.2-.3-.5-.7-.7-1-.3-.5-.5-1-.7-1.5,.2,.5-.1-.2-.1-.4-.1-.4-.3-.7-.4-1.1-.4-1.4-.8-2.9-1.1-4.3-.3-1.7-.4-2.7-.6-4.5-.1-1.7-.2-3.5-.2-5.2s0-3.5,.2-5.2c.1-.8,.1-1.6,.2-2.4,0-.4,.1-.8,.1-1.2-.1,.4,0-.1,0-.1,0-.3,.1-.6,.1-.8,.2-1.5,.5-2.9,1-4.3,.2-.6,.4-1.2,.6-1.7,.2-.5,0,0,0,.1,.1-.2,.1-.3,.2-.5,.1-.3,.3-.5,.4-.8,.1-.2,.3-.4,.4-.6,.4-.6-.3,.2,.1-.2,.4-.4,.8-.8,1.4-1,.8-.2,1.8-.1,2.7-.1,1.1,0,2.4-.1,3.5-.5,3.4-1.2,5.6-4.2,8.2-6.5,.6-.5,.5-.4,1.3-.9,.5-.3-.2,0,.4-.2,.2,0,.6,0,0,0,.1,0,.7-.1,.3,0-.3,0,.1,.2-.1,0-.2-.2,.1,.1,.2,.1,.3,.3-.3-.3,.1,0,.1,.1,.2,.3,.4,.4,.1,.1,.3,.4,.1,.1-.3-.4,.1,.2,.1,.2,.2,.3,.4,.6,.5,.9,.1,.1,.4,.8,.3,.7,0-.1,.2,.6,.3,.8,.3,.8,.5,1.7,.7,2.6,.4,1.8,.7,3.5,.8,5.4,.8,9-.2,17.8-3.1,26.3-1.3,3.8-3,7.5-4.8,11.1-2.4,4.8-4.8,9.6-7.3,14.4-5.1,10-10.2,20.1-15.2,30.1-1.3,2.5-2.5,5-3.8,7.5-.5,1-.5,2.5,.4,3.3,2.7,2.2,6,3.7,9.6,3.3,3.6-.4,6.8-2.4,9.4-4.9,3.1-3.1,5.5-6.9,7.4-10.8,2.6-5.2,4.5-10.6,5.9-16.2,1.9-7.4,3-15,3.6-22.6,.1-1.5-1.3-2.7-2.7-2.7-1.6,0-2.6,1.3-2.7,2.7-.9,11.3-3,23.1-7.6,33.4-.9,2.1-1.9,4.1-3.1,6.1-.5,.8-1,1.6-1.5,2.4-.3,.4-.6,.9-.9,1.3,0,.1-.3,.4,0,.1-.2,.3-.4,.5-.6,.8-.5,.6-1,1.2-1.6,1.7-.3,.3-.6,.6-.9,.8-.1,.1-.3,.2-.4,.4-.6,.5,.1,0-.3,.2-.5,.4-1.1,.8-1.7,1.1-.3,.2-.6,.3-.8,.4,.7-.3-.4,.1-.6,.2-.4,.1-.7,.2-1.1,.3-.2,0-.5,0,.2,0-.2,0-.5,0-.7,.1h-1c-.1,0-.6-.1-.2,0,.5,.1-.2-.1-.3-.1-.4-.1-.7-.2-1-.3-.2,0-.7-.3,0,0-.2-.1-.3-.2-.5-.2-.3-.2-.7-.4-1-.6-.2-.1-.3-.2-.5-.3-.4-.2,.3,.3-.3-.2,.1,1.1,.3,2.2,.4,3.3,5.5-10.9,11.1-21.8,16.6-32.8,2.8-5.5,5.5-10.9,8.3-16.4,2.1-4.1,4.1-8.2,5.8-12.5,3.6-9.2,5-19.1,4.4-28.9-.3-4.1-.8-8.4-2.3-12.2-1.4-3.4-4.2-7.1-8.4-6-3.6,.9-5.9,4.3-8.6,6.6-.1,.1-.3,.2-.4,.4,.3-.2,0,0-.1,.1-.3,.2-.6,.4-1,.6s.8-.1-.2,.1l-.4,.1c-.6,.1-1.2,0-1.8,0-2.7-.1-5.1,.3-7.1,2.3s-3,4.8-3.7,7.5c-.9,3.5-1.3,7.2-1.5,10.8-.2,3.8,0,7.6,.4,11.3,.4,3.4,1,6.7,2.3,9.9,1.2,3,3.2,6.2,6.5,7s6.2-1.1,8.2-3.6c2.7-3.4,4.3-7.6,5.3-11.7,1.3-5.2,1.8-10.6,1.9-15.9,.2-9.9-1.1-20.3-4.3-29.7-.7-1.9-1.4-3.8-2.3-5.7-.9-1.8-3.9-1.8-4.7,0-2.2,4.9-3.3,10.1-3.9,15.4-.7,5.9-.8,11.9-.5,17.8,.4,5.6,1.1,11.3,2.7,16.7,1.4,4.5,3.4,9.5,7.6,12.1,3.9,2.5,8.5,1.1,11.7-2,4.2-4.2,6.3-10.4,7.6-16.1,3.1-13.8,2.4-28.5-.4-42.3-1.3-6.2-3-12.3-5.4-18.2-1.9-4.8-4.2-9.6-7.4-13.7-.7-1-1.5-1.9-2.3-2.8-1.1-1.2-2.8-.9-3.9,0-6.5,5.2-14.3,8.8-22.7,8.5-1.2,0-2.3,.9-2.6,2-.3,1.3,.3,2.3,1.3,3.1-.5-.4,.2,.2,.3,.3,.2,.2,.3,.3,.5,.5,.4,.4,.8,.8,1.2,1.3,.1,.1,.2,.3,.3,.4-.2-.2-.1-.2,.1,.1,.2,.2,.3,.4,.5,.7,.4,.6,.7,1.1,1.1,1.7,1.6,2.6,2.7,5.3,3.7,8.2,2.6,7.4,4,15.2,4.6,23.1,.1,1.5,1.2,2.7,2.7,2.7,1.1-.4,2.6-1.6,2.4-3.1h0Z"/><path class="g" d="M270.8,874.16c-.1,.1-.6,.2-.5,.2,.3,0-.3-.1-.2,0-.7-.4-1.1-.9-1.6-1.6-.5,1.3-1.1,2.7-1.6,4,3.1-1.1,6.2-2.2,9.4-3.3,1.3-.5,2.4-1.9,1.9-3.4-2.1-5.9-6.5-14.5-14.2-12.9,.7,1.7,1.4,3.3,2.1,5-.4,.2,.3-.1-.1,0-.2,0-.3,.1-.2,0,0,0-.1-.1,.2,.1-.3-.2,.2,.2,.3,.2,.7,.8,1.2,1.9,1.6,2.9,1,3,5.1,2.3,5.4-.7,.5-5.6,1.1-11.1,1.6-16.7h-5.5c.7,22,.3,44-1.1,65.9h5.5c-1.1-9.7-2.3-19.4-3.4-29.1-.4-3.5-5.2-3.6-5.5,0-.6,9-.8,18.1-.5,27.1,.1,3.5,5.5,3.5,5.5,0,0-6.9-.1-13.8-.1-20.7h-5.5c1,14.7,1.9,29.3,2.9,44,.2,3.5,5.5,3.6,5.5,0,.1-15.1,.2-30.1,.3-45.2,0-1.5-1.3-2.7-2.7-2.7-1.6,0-2.6,1.3-2.7,2.7-1.8,18.2-3.5,36.4-5.3,54.6-.5,5.2-1,10.3-1.5,15.5,1.8-.2,3.6-.5,5.4-.7-1.4-9.3-1.1-19.2,1.1-28.3-1.8-.2-3.6-.5-5.4-.7,1.3,10.7,2.5,21.4,3.8,32.1,.2,1.5,1.1,2.7,2.7,2.7,1.5,0,2.7-1.3,2.7-2.7,.1-7.2,.3-14.3,.4-21.5h-5.5c.1,7.6-.3,15.1-1.4,22.6,1.8,.2,3.6,.5,5.4,.7-.3-11.4-.1-22.7,.7-34.1h-5.5c.9,7.5,1.4,15.1,1.7,22.7,.1,3.5,5.5,3.5,5.5,0-.2-30.5-.3-61.1-.5-91.6v-6.3c0-1,.1-2,0-3,0-.6-.2-1-.5-1.5-.2-.6,.1,.6,0-.1-.2-.8,0,.6-.1-.3v-1.9c0,.3,0,.2,0-.1,.1-.5,.2-1,.4-1.5-.1,.2-.3,.4,0,.1,.2-.3,.1-.2-.2,.2-2.8-.8-3.9-.7-3.1,.2,1.7,2.1,5.5-.2,4.6-2.7-.8-2-1.6-4.1-2.4-6.1-.2,.9-.5,1.8-.7,2.7,2.4-2.1,2.8-6.2,2.8-9.2,0-1.3-.9-2.2-2-2.6,.5,.2,.4,.3,.1-.2-.3-.5-.5-1-.6-1.6-1.8,.5-3.5,1-5.3,1.5,3.5,9.8,4.6,20.4,5.5,30.7,.9,11.8,1.3,23.6,1.6,35.5,.4,23.9-.2,47.8-2,71.6-1,13-2.3,26-4.1,38.9,1.8,.2,3.6,.5,5.4,.7-2.1-23.5-2.1-47.3,.1-70.9,.6-6.3,1.4-12.7,2.3-19-1.8-.2-3.6-.5-5.4-.7-.5,22.1-1.9,44.2-4.4,66.2-.7,5.9-1.4,11.9-2.3,17.8,1.8,.2,3.6,.5,5.4,.7,.6-12,2.3-24.3,6.6-35.6-1.8-.2-3.6-.5-5.4-.7,1.6,21.2,2.2,42.4,1.9,63.6-.1,6-.3,12-.5,18,1.8-.2,3.6-.5,5.4-.7-1.7-7.5-1.9-15.6-.5-23.2-1.8-.2-3.6-.5-5.4-.7-.1,2.4-.4,4.8-1.1,7.2-.3,.9-.5,1.7-1,2.5-.4,.8-.5,1-1.1,1.5,1.5,.4,3.1,.8,4.6,1.2-.5-2.8-.6-5.6-.4-8.4h-5.5v62h5.5c-.1-14.1-.2-28.3-.3-42.4,0-3.5-5.4-3.5-5.5,0-.4,11.8-.6,23.6-.6,35.4,0,5.5-.3,11.1,.2,16.6,.2,2.4,.5,5.1,1.8,7.3,1.3,2.1,3.9,3.4,6,1.6,1.4-1.1,1.8-2.6,1.3-4.3-.4-1.2-.9-2.4-1.7-3.5-1.7-2.2-4.4-2.4-6.5-.7,1.4,1.1,2.9,2.2,4.3,3.3,2.3-3.2,3.7-7.2,4.6-11,1.3-5,1.8-10.2,2-15.4,0-1.2-.9-2.3-2-2.6-3.5-1.1-5.9,2.4-7,5.2-1.6,3.9-2,8.3-1.7,12.4,.2,3.1,4.4,3.7,5.4,.7,2.7-7.9,4.2-16.2,5.2-24.6,.5-4.6,.7-9.3,1-13.9,.1-2.1,.8-4.2,1.2-6.3,.4-2.1,.8-4.3,1.2-6.4,.8-4.7,1.5-9.3,2-14,.5-4.6,1.2-9.2,1.2-13.9,0-3.6-.7-7.9-4.1-9.8-2.7-1.5-6.4-1.9-8.9,.1-3,2.3-3.7,6.6-3.9,10.2-.2,3.1-.1,7.1,2.2,9.4,1.4,1.4,4.2,.8,4.6-1.2,3.5-17.3,6.1-34.7,8-52.2,1-9.2,1.8-18.3,2.4-27.5,.3-4.7,.6-9.3,.8-14,.2-3.9,.5-8.6-1.7-12.1-1.9-3.1-5.9-4-8.4-1-2.9,3.4-3.8,8.4-4.9,12.6-.9,3.4,4.2,4.8,5.3,1.5,1.7-5.1,2.5-10.5,2.9-15.8,.1-1.2-.9-2.3-2-2.6-5-1.3-8.1,3.8-9.7,7.7-2.5,6-3.2,12.8-3,19.2,.1,3.6,5.2,3.5,5.5,0,.5-5.5,.9-11,1.4-16.4,.4-5,1.1-10,1.1-15,0-3.2,.1-8.7-3.1-10.5-2.1-1.1-4.2,.1-5.3,2s-1.5,4.2-1.7,6.4c-.4,5,1,10.3,3.4,14.6,1.7,3.1,6.5,.3,4.7-2.8-2.1-3.7-3.2-8.1-2.6-12.3,.1-.9,.3-2,.7-2.8,.1-.2,.2-.4,.3-.5q.2-.3,0,0c-.8,.6-1.6,.6-2.6,0q-.2-.2,0,0c.1,.3,.2,.3,0,.1,.1,.2,.1,.4,.2,.6,.1,.4,.2,.9,.3,1.3,.1,.9,.2,1.8,.2,2.7,.1,5.1-.6,10.3-1,15.4-.5,5.7-1,11.5-1.5,17.2h5.5c-.2-5.4,.4-10.8,2.1-16,.3-.9,.6-1.8,1.1-2.6,.2-.4,.5-.9,.7-1.3,.1-.1,.6-.9,.4-.6,.2-.3,.5-.6,.8-.9,0,0,.4-.3,.2-.2-.3,.2,.2-.1,.3-.1,.3-.2,.1-.1-.1,0l.4-.1c-.2-.2-.5,.3-.1,0,.2-.1-.5-.1-.1,0-.7-.9-1.3-1.8-2-2.6-.4,4.9-1.2,9.7-2.7,14.3,1.8,.5,3.5,1,5.3,1.5,.8-3.3,1.5-7.2,3.4-10.1,.5-.7-.1,.1,.3-.5,.3-.3-.2-.1,.2-.1-.2,0-.4,.1-.6,.1,.6,0-.3-.2-.4-.2,.1,0,.2,.2,.4,.5,.3,.6,.5,1.3,.7,2,.8,3.8,.1,8-.1,11.8-.2,4.3-.5,8.6-.8,12.9-1.2,16.3-2.9,32.6-5.4,48.7-1.3,8.7-2.8,17.4-4.6,26.1,1.5-.4,3.1-.8,4.6-1.2-.4-.4,.2,.5,0-.1-.3-.7,.2,.6-.1-.2-.2-.5-.3-1.1-.4-1.6-.1-.7-.1-2.5-.1-3.6,.1-1.2,.2-2.1,.4-3.2,.3-1.2,.4-2.1,1.3-2.8,.3-.3,.3-.2,.6-.2q.6,0,1.3,.2c.2,.1,.5,.1,.7,.2,.7,.2-.5-.2,.2,.1,.1,0,.7,.4,.3,.1,.1,0,.5,.6,.3,.3,.9,1.2,.9,2.9,1,4.3,0,2-.1,3.9-.3,5.9-.7,8-1.8,16.1-3.2,24-.7,3.9-2,8-2.1,12-.1,4.1-.4,8.3-.9,12.4-.9,8.1-2.5,16.2-5.1,23.9,1.8,.2,3.6,.5,5.4,.7-.2-3.1,0-6.2,.9-9.1,.3-1,.7-2,1.3-2.9,.3-.4-.4,.4,.1-.2,.1-.1,.4-.5,.2-.2-.2,.1-.1,.1,.1,0-.1,0-.2,.1-.3,.1-.2,0-1-.1-.5,.1-.7-.9-1.3-1.8-2-2.6-.1,4.7-.7,9.4-1.8,14-.8,3.4-2,6.9-4.1,9.7-.8,1.1-.3,2.8,.7,3.5,1.2,.9,2.5,.7,3.6-.2-.6,.5-1,.3-1.7,.1,.4,.1-.1-.1,.1,.1,.4,.7,.6,1.4,.8,2.2,.1-.7,.2-1.4,.3-2.1-.5,.7-.1,.6,1.2-.4,1.1,.6,1.4,.7,.9,.2,0,.1-.2-.5-.3-.6-.4-.9-.5-1.9-.7-2.9-.3-2.3-.3-4.6-.3-6.8v-15.2c.1-10.3,.3-20.7,.6-31h-5.5c.1,14.1,.2,28.3,.3,42.4,0,3.5,5.5,3.5,5.5,0v-62c0-3.6-5.3-3.5-5.5,0-.2,3.3,0,6.6,.6,9.9,.4,2.1,3.2,2.5,4.6,1.2,1.7-1.6,2.7-3.9,3.3-6.1,.9-2.9,1.3-6,1.4-9.1,.1-3-4.8-3.8-5.4-.7-1.5,8.6-1.4,17.6,.5,26.1,.7,3.1,5.3,2.3,5.4-.7,.9-21.3,.8-42.6-.2-63.8-.3-6-.7-11.9-1.1-17.8-.2-3.1-4.3-3.6-5.4-.7-4.4,11.8-6.2,24.6-6.8,37.1-.1,3,4.9,3.8,5.4,.7,3.1-22,5.1-44.1,6.2-66.2,.3-6.4,.5-12.8,.6-19.2,.1-3-4.9-3.8-5.4-.7-3.6,23.5-4.8,47.4-3.9,71.1,.2,6.7,.7,13.5,1.3,20.2,.1,1.4,.9,2.5,2.4,2.7,1.2,.1,2.8-.6,3-2,3.2-23.7,5.1-47.5,6-71.3,.8-24.1,.7-48.2-.9-72.3-.8-12-1.9-24.5-5.9-35.9-1.2-3.3-6.3-2-5.3,1.5,.7,2.4,1.9,4.7,4.4,5.6-.7-.9-1.3-1.8-2-2.6,0,1.2-.1,2.4-.4,3.6-.2,.8-.5,1.5-.8,1.8-.7,.6-1,1.8-.7,2.7,.8,2,1.6,4.1,2.4,6.1,1.5-.9,3.1-1.8,4.6-2.7-1.1-1.3-3-1.4-4.3-.5-1,.7-1.5,1.9-1.8,3.1-.6,2.3-.9,5.5,.5,7.6-.1-.5-.2-.9-.4-1.4,.1,26.2,.3,52.5,.4,78.7,0,7.4,.1,14.8,.1,22.2h5.5c-.2-7.6-.8-15.1-1.7-22.7-.4-3.5-5.2-3.6-5.5,0-.8,11.3-1,22.7-.7,34.1,0,1.4,1,2.5,2.4,2.7,1.2,.1,2.8-.6,3-2,1.1-8,1.7-16,1.6-24.1,0-3.5-5.4-3.5-5.5,0-.1,7.2-.3,14.3-.4,21.5h5.5c-1.3-10.7-2.5-21.4-3.8-32.1-.2-1.4-.9-2.5-2.4-2.7-1.3-.2-2.7,.6-3,2-2.4,10.2-2.6,20.9-1.1,31.3,.2,1.3,1.8,2.1,3,2,1.4-.2,2.2-1.3,2.4-2.7,1.8-18.2,3.5-36.4,5.3-54.5,.5-5.2,1-10.3,1.5-15.5h-5.5c-.1,15.1-.2,30.1-.3,45.2h5.5c-1-14.7-1.9-29.3-2.9-44-.2-3.5-5.5-3.6-5.5,0,0,6.9,.1,13.8,.1,20.7h5.5c-.3-9-.1-18.1,.5-27.1h-5.5c1.1,9.7,2.3,19.4,3.4,29.1,.4,3.5,5.2,3.6,5.5,0,1.5-21.9,1.8-43.9,1.1-65.9-.1-3.6-5.1-3.5-5.5,0-.5,5.6-1.1,11.1-1.6,16.7,1.8-.2,3.6-.5,5.4-.7-1.4-4.1-4.8-9.1-9.7-6.6-2.9,1.5-.8,5.6,2.1,5,.8-.2-.5,0,.3,0h.5c-.6-.1,.8,.3,.7,.2,0,0,.8,.5,.9,.5,.3,.2,.8,.7,1.1,1.1,1.9,2,3.1,4.7,4,7.3,.6-1.1,1.3-2.2,1.9-3.4-3.1,1.1-6.2,2.2-9.4,3.3-1.6,.5-2.7,2.5-1.6,4,2.2,3.3,5.9,5.6,9.7,3.3,2.9-2.2,.1-6.9-2.9-5.1h0Z"/><path class="g" d="M704.5,969.26c-.1,6.6-.2,13.3-.1,19.9,0,3.3,.1,6.6,.2,9.9,0,1.5-.2,3.6,.5,4.9,.8,1.3,2.4,2.1,3.9,1.6,2.4-.7,3.1-3.9,3.6-6.1,.6-3,.8-6,1.1-9.1,.7-6.4,1.3-12.8,1.7-19.3,.5-7.4,.9-14.7,1.1-22.1h-5.5c.1,14.1-.8,28.3-3,42.2h5.3c-3.4-8.2-3.9-17.8-3.2-26.5,.3-3.1-4.8-3.8-5.4-.7-.9,4.7-1.2,9.6-.9,14.4,1.8-.2,3.6-.5,5.4-.7-.7-2.9-.6-6.3,.3-9.2,.2-.6,.3-.5,.6-1.3q-.1,.2,0,.1c.2-.1,.1-.1-.1,.1-.6,.1-.8,.2-1.3,0-.4-.1-.1-.2,.1,.2-.2-.4,.3,.6,.3,.7,.3,.6,.5,1.5,.6,2.3,.3,1.3,1.8,2.1,3,2,1.4-.2,2.3-1.3,2.4-2.7,.2-2.8,.8-7-1.4-9.2-1.1-1.1-2.7-1.5-4.1-.7-1.5,.8-1.9,2.5-2,4.1h5.5c-.1-7.7-.3-15.4-.4-23h-5.5c1.7,14.4-7,28.1-4,42.5,.3,1.3,1.7,2.2,3,2,1.4-.2,2.3-1.3,2.4-2.7,.9-11.8,2.3-23.5,4.4-35.2h-5.3c1.4,6.7,1.7,13.6,1.1,20.5h5.5c.5-7.5,1.2-15.1,2.2-22.5l-2.7,2.7c-.3,0-.6-.1-.8-.3-.4-.3-.5-.3-.2-.1-.2-.2-.2-.3-.1-.1,.1,.1,.1,.2,.2,.3-.2-.3,.1,.2,.1,.3,.1,.3,.2,.7,.3,1,.3,1.3,.3,2.7,.1,4.1-.2,1.5,1.4,2.7,2.7,2.7,1.6,0,2.6-1.3,2.7-2.7,.4-3.3-.2-10.9-5-10.8-1.6,0-2.5,1.2-2.7,2.7-1,7.5-1.7,15-2.2,22.5-.1,1.5,1.3,2.7,2.7,2.7,1.6,0,2.6-1.3,2.7-2.7,.6-7.3,.2-14.7-1.3-21.9-.6-2.6-4.8-2.7-5.3,0-2.1,12.1-3.7,24.3-4.6,36.6,1.8-.2,3.6-.5,5.4-.7-1.4-6.5,.3-13.2,1.8-19.6,1.6-7,3.2-14.2,2.4-21.5-.2-1.5-1.1-2.7-2.7-2.7-1.5,0-2.8,1.3-2.7,2.7,.1,7.7,.3,15.4,.4,23,.1,3.6,5.2,3.5,5.5,0,.1-.8,.9-.5-1.6,.1-.7,.6-1.3,.7-1.7,.3l-.1-.1c0,.1,.1,1.1,.2,1.4,.1,1.4,0,2.8-.1,4.2,1.8-.2,3.6-.5,5.4-.7-.5-2.3-1.4-5.1-3.6-6.4-2.3-1.3-4.8-.1-6.1,2-1.2,2-1.6,4.4-1.8,6.6-.3,2.6-.1,5.3,.4,7.8,.7,3,5.6,2.4,5.4-.7-.2-4.3-.1-8.7,.7-12.9-1.8-.2-3.6-.5-5.4-.7-.4,5-.3,10,.3,15,.5,4.4,1.4,8.9,3.1,13,.5,1.1,1.3,2,2.6,2,1.1,0,2.5-.8,2.6-2,2.3-14.4,3.3-29.1,3.2-43.7,0-3.5-5.4-3.5-5.5,0-.3,9.4-.8,18.8-1.6,28.2-.4,4.6-.8,9.1-1.3,13.7-.2,2-.4,4.1-.7,6.1-.1,.9-.3,1.8-.6,2.7,0,.1-.4,1.1-.3,.9-.1,.2-.1,.3-.2,.4,.7-1,1.9-1,3.5,.1,.1,.5,.2,.9,.4,1.4-.4-11.1-.5-22.2-.3-33.3,0-3.6-5.5-3.6-5.6,0h0Z"/><path class="g" d="M667.6,838.16c.7,2.3,1.4,4.5,2.1,6.8,1,3.4,6,2,5.3-1.5-1-4.7-2.4-9.5-5.1-13.5-1.5-2.2-5.1-1.5-5.1,1.4,0,4.4-.3,8.8-1.1,13.1-.7,3.4-1.5,7.1-3.2,10,0,0-.4,.4-.4,.5q-.1,.1,.1,0c.7-.3,1.4-.2,2.1,.3l.2,.2c-.1-.3-.1-.5-.2-.8v-.9c-.1-2.4,.1-4.8,.2-7.1,.2-4.8,.4-9.5,.6-14.3-.3,.6-.5,1.3-.8,1.9,.3-.3,.5-.5,.8-.6,.5-.2-.2-.1,.3,0-.7,0,.5,.1,.2,.1,.3,.1,.6,.4,1,.8,.5,.6,.9,1.2,1.3,1.9-.1-.7-.2-1.4-.3-2.1-1.1,3-2.3,5.9-3.4,8.9-1.1,2.9,3.7,4.9,5,2.1,1.8-3.6,3.7-7.1,6.1-10.3,.4-.6,.9-1.2,1.4-1.7,.1-.2,.8-.7,.8-.9s-2.6,0-2.3-.4q-.1-.2,0,.1c0,.1,.1,.1,.1,.2-.2-.4,.1,.2,.1,.3,.1,.4,.2,.7,.3,1.1,.1,.7,.2,1.4,.2,2.2,.1,3.3-.7,6.5-2.4,9.4-1.6,2.8-3.7,5.6-6.5,7.1-.4,.2-.5,.2-.8,.3-.1,0-.3,.1-.4,.1s-.2,.1-.3,.1c-.2,0-.2,.1,.1,0,0,0,.3,0,0,0,.6,0,.4,0,.1,0s.2,0,.2,.1c0,0-.3-.2,0,.1-.1-.1-.2-.2-.3-.3,.2,.2,.1,.2,0,0-.3-.4-.2-.3-.3-.6-.3-.9-.3-1.7-.3-2.6-.3,.6-.5,1.3-.8,1.9,.5-.6,1.1-1.3,1.7-1.8,.2-.2,.4-.3,.5-.5,.9-.9,.3,0,.2-.2-.2-.1-.4-.1-.6-.2q.2,.1,.1,0t0,0c.1,.1,.2,.2,.2,.3-.2-.3,0,.1,.1,.2,.1,.2,.3,.5,.4,.7,1,2.3,1,5.3,.4,7.7-.6,2.5-1.9,4.9-3.5,7-.6,.7-1.6,1.8-2.1,2.1-.4,.3-.8,.5-1.2,.7,.4-.2-1.2,.3-.6,.2-1.5,.2-2.7,1.1-2.7,2.7,0,1.3,1.3,2.9,2.7,2.7,3.7-.5,6.4-2.7,8.6-5.6,2.5-3.3,4.2-7.3,4.6-11.4,.4-3.7-.3-8.5-3-11.3-1.5-1.5-3.8-1.8-5.7-.9-1.9,.9-4.6,3.3-4.8,5.4-.3,3.4,1.1,7.5,4.6,8.7,3.2,1,6.8-1.6,9-3.6,6-5.6,9.2-14,7.8-22-.3-1.8-1-3.8-2.6-4.8-2.5-1.6-4.7,.6-6.2,2.4-3.1,3.8-5.6,8-7.7,12.4,1.7,.7,3.3,1.4,5,2.1,.6-1.6,1.2-3.1,1.8-4.7,.3-.7,.5-1.4,.8-2.1,.3-.9,.9-1.9,.9-2.8,0-1.5-1.4-3.2-2.4-4.3-.9-1-2-1.7-3.2-2.2-2.4-.9-5-.1-6.8,1.6-1.3,1.2-1.1,3-1.1,4.6-.1,1.8-.1,3.6-.2,5.4-.1,3.2-.3,6.4-.4,9.6-.1,2.8-.6,6.2,1,8.6,1.6,2.6,4.9,2.1,6.6-.1,1.6-1.9,2.4-4.5,3.2-6.8,2-6.4,2.7-13.4,2.7-20.1-1.7,.5-3.4,.9-5.1,1.4,2.4,3.6,3.7,7.9,4.6,12.2,1.8-.5,3.5-1,5.3-1.5-.7-2.3-1.4-4.5-2.1-6.8-1.2-3.2-6.5-1.7-5.4,1.6h0Z"/></g><g id="d"><path class="h" d="M2172.3,352.76c9.5-6.1,17.9-11.4,26.7-17.1-8.7-18.2-23.3-26.6-46.5-26.6-17.8,0-35.5-1.2-54.9-2,1.3-5.9,3.4-11.1,2.5-11.6-22.6-11.1-27.9-47.4-66.9-34.8-3.2,1-7.7-.9-11.5-1.8-29.5-7.3-58.8-15.2-88.5-22-12.8-2.9-19.6-6.2-16.5-19.8,2.3-9.9-2-18.9-18.5-17.8-15.8,1.1-31.8,.4-47.6-.2-30.6-1.1-60.8-10.5-92.1-3.5-3.6,.8-9-3.5-13.1-5.9-3.8-2.3-6.5-6.4-10.6-7.7-15.6-5-31.5-9.2-47.3-13.7,1-2.3,2.2-5.1,2.2-5-8.5,1.6-17.5,5-26.2,4.5-16.2-1-32.1-5.9-48.2-6.3-24.5-.6-49.1,.8-73.7,2.2-29.9,1.7-59.7,4-89.5,6.8-23,2.1-45.9,6.1-68.9,7.8-7.7,.6-20.1-1-23.1-5.3-10.5-15.3-24.8-6.9-36.6-5.7-18.6,1.9-36.6,9.2-55.2,10.4-15.9,1-30.1,3-43.5,10.7-3.9,2.2-10.1,2.4-15.1,1.9-39.2-3.8-71.8,14-106.1,25.1-19,6.2-33.5,21.1-54.7,24.8-4.7,.8-8.4,5.4-13,7.6-17.8,8.5-35.5,17.1-57.3,12.9-9.9-1.9-20.3-3.8-30.3-3.5-18.1,.6-36.1,2.9-56.5,4.6-21.6,28.5-68.8,26.6-98.4,50.5,2.7,3.6,6,6.9,7.8,10.7,3,6.1-1.9,17.7,15.8,9,10.3-5.1,26.6-.9,34.9-.9-2.8,1.8-9.3,6-15.7,10.2,2,1.9,4.1,3.9,6.1,5.8,6.6-.9,13.2-1.7,21.3-2.8-4.5,6.6-7.1,12-11.4,16.2-5,4.8-11.5,8.4-16.7,12,17.6-1.2,35.8-3.2,54.1-3.3,20.7-.2,34.3-11.3,47-22.8,10.4,28.1,23.3-3.7,33.4,3.8,2.2,13.2,11,20.7,27.4,20.6,9.6-.1,19.2-.8,28.7-.6,11.1,.3,22.2,1.4,38.3,2.4,6.3-7.4,19.7-13.5,31.3-8,18.4-7.2,32.4-12.7,46.3-18,8.5,11.3,6.5,14.7-7.1,17.7-12.6,2.7-23.7,11.1-35.4,17,.5,.6,1.1,1.3,1.6,1.9,8.4-2.8,16.9-5.6,29.1-9.7-3.9,8.3-5.9,12.3-7.8,16.4,5.7,.6,11.2,1.2,14.7,1.6,2.1,6.5,3.6,11.4,6.4,20.4,9.7-20.9,17.2-36.9,26.3-56.4,18.8,8.8,36.5,16.8,54,25.3,15,7.3,29,16.5,44.6,22.3,19.7,7.3,41,11.4,61.2,17.8,31.2,10,62.3,20.2,92.9,31.6,9.5,3.5,18.4,9.9,25.3,16.7,20.9,20.3,39,43,61.6,61.7,14.6,12.1,18.6,25.3,11.2,38.1-8.1,14-.9,23,4.7,34.2,9.5,18.8,17.7,38.1,27.6,59.6-15.1-1.5-25.6-2.6-41.6-4.2,14.8,16.5,29.3,22.2,48,23.6,26,1.9,50.5,8.7,69.9,24.8,3.8,3.2,7.2,8.3,7.5,12.7,.5,7.1-1.7,14.4-2.8,22-2.3-1.5-5-3.3-7.8-5.2-10.4,12.9-25.8,11.3-40.1,11v.1c0,1-.1,2-.2,3,8.3,.3,15.5,2.6,17.6,14.3,.4,2.3,5.9,5.2,9.4,5.6,30.3,3.8,29.9,23.2,30,42.5-5.8,2.7-10.9,5.7-16.4,7.7,.6,1,1.2,2,1.7,3.1,2.3,5,6.3,16,7.2,18,2.1,4.7,3.3,9.5,3.6,14.1,9.3-3.3,18.4-6.6,29.1-10.4,.6,.1,5.6,2.7,10.3,2.3,16.1-1.5,31-2.4,44.5,8.6,3.2,2.6,13.6-1.5,20.7-2.5-.1-1.3-.2-2.7-.4-4,5.6,2.6,11.2,5.1,11.6,5.3,18-11.6,24.8-24.5,5.3-37-1.5,1.9-3,3.7-4.5,5.6-1.5-11.5-2-22.9,3-32s5.1-14.5-4.1-20.3c-8.5-5.4-17.7-10.4-24.9-17-7.9-7.3-17.6-15.5-19.6-24.5-3.1-13.8-13-21.1-24.6-27-16.2-8.2-33.6-14.6-50.5-21.7,15.9,3,24.2-2.2,24-21.4,12.9,17.3,22.5,30,34.3,45.8,14.7-40.7-3.2-76.2-39.7-92.9,5.1-5.9,10.3-11.9,15.4-17.9-35.4-6.8-57.8-27.6-71.2-54.8-7.8-16,14.7-23.4,21.6-35.6,3.7-6.6,9.4-12.2,14.3-18.3-1.7-1.3-3.4-2.7-5.1-4-8.9,5.9-17.7,11.9-27.2,18.2-4.2-32.7,26.2-63.3,54.3-80,25-14.8,34.6,13.2,55.7-2.3,3.9-13.1,23.2,.5,36.2-3.5,7.1-2.2,14.9-2.8,22.2-6.5,23.8,1.1,34.2,19,47.6,33.2,2.8,3-.8,12.9-4.6,17.8-4.1,5.3-11.8,8.4-18,12.4-14.1,8.9-27.4,20.5-42.8,11.7-.6,6.8,1.8,16-2.4,20.6-16.1,17.8-33,35.6-52.2,50.9-22.1,17.6-23.7,18.2-7.9,44.4-8.4-1.3-14.5-2.2-20.5-3.1,3.8,4.4,7.7,8.8,11.3,13,39.5-20.2,71.1-43.4,92.9-75.2,18.3-26.7,43-44.5,79.1-49.3,6-.8,11.7-3.8,17.5-5.8-.3-1.3-.6-2.6-.9-3.9-5.8-1.2-11.5-2.4-18.9-4,2.1-7.9,3.2-19.9,5.6-20,20.5-1.6,15.2-17.7,19.7-22.4-4.2-10.3-11.5-18.8-9.2-24.2,5.2-11.9,17-6.1,27.2-3.2,4.1,1.2,9,.2,13.7,.2-7.6-6.5-13.8-11.7-21.5-18.2,32.6-3.3,60.4-3.6,87.2,6.7-2.5,5-4.2,8.2-4.1,8.1,29.6,2.7,59.1,5.5,93.5,8.7-2.6-11.1-5.2-22.4-9.1-39.1,16.3,6,29.4,10.8,42.4,15.8,3.7,1.4,7.5,5.6,10.4,5,17.9-3.4,35.5-7.7,52.2-11.5,4.2-16.9-39.4-14.8-18.1-37.3,12.2,4.7,23.6,9.5,32.6,13.4Zm-853.5,46.3c-33.1-12.5-65.9-25.7-98.8-38.6-3.6-1.4-7.9-2.5-10.4-4.9-3.8-3.7-6.4-8.4-9.5-12.7,5.2-1.6,10.2-4.3,15.5-4.5,10-.4,20.1,.6,30.6,1-.9,1.6-2.5,4.4-3.2,5.7,19.7-3.2,40.5-6.6,61.3-9.9,.8,1.6,1.6,3.2,2.3,4.8-7.5,3.8-15,7.6-23.6,12,3.9,2.6,8.4,5.7,12.6,8.5,8.7-2.8,19-6.1,27.1-8.7,9.3,18.3,18,35.5,28.5,56-12.2-3.3-22.8-5-32.4-8.7Zm240.3-17.2c5.2,3.7,6.5,11.6,9.6,17.6-5.5,1.5-11.9,5.3-16.3,4-13.6-4.1-26.4-10.2-40.6-16,15.3-14,31.2-17.1,47.3-5.6Zm-40.7,124.9c-14.5-17.3-26.5-31.7-39.4-47,24.9,.7,42,19.8,39.4,47Zm10.9-65c-2.9,2.6-10.8,3.2-15.5,1.9-16.5-4.6-32.7-10.3-49.6-15.9,3.9-5.9,7.8-11.6,12.3-18.4,2.1,3.6,3.9,6.6,7.7,13.1v-21.9c12.1,4.5,29.1-4.3,31.6,14.6,.2,1.2,7.1,2.6,10.6,2.3,7.4-.7,14.7-2.6,22.1-4,.5,1.4,.9,2.9,1.4,4.3-6.7,8.1-12.7,16.8-20.6,24Zm25.3,43.4c-10.6-18-6.1-30.7,16.1-47.3,6.6,10.8,5.4,45.5-2.4,51.1-2.2,1.5-12.1-1.1-13.7-3.8Zm79.9,166.4c-8.1,8.6-12.7,13.6-16.5,17.6-12.6-8-24.9-15.8-37.2-23.6l2-3c4.2,.3,8.4,.6,16,1.2-27.4-22.3-41.8-46.9-33-79.6,23,29.3,45.9,58.5,68.7,87.4Z"/></g><g id="e"><path class="k" d="M1682.2,718.56c-30,11.9-40.5,18.6-71.1-11-2.7-2.6-5.5-5.2-11.3-7.4,0,7.1-.3,14.2,.1,21.2,.6,11.6,1,23.3,2.9,34.8,1.3,8.5,3.1,17.7,7.5,24.7,13.2,20.8,28.1,40.5,41.7,61.1,1.8,2.8,1.7,10.3-.2,11.5-11.6,7.7-24,14.3-39.2,23,.4-7.8,.8-12.4,.8-17,0-5.2,1.6-11.6-.9-15.3-12.8-19.2-21.7-41.7-43.2-54.1-1.5-.9-3-1.8-5.7-3.5-1.8,4.2-3.9,7.7-4.9,11.5-4.7,18.8-9,37.7-13.4,56.6-.2,.7-.3,1.4-.4,2.1-.1,4.9,1.6,12.1-.8,14.1-3.4,2.8-10,1.9-15.2,2.2-6.7,.4-13.4,.7-20.2,.6-7.6,0-9.1-4.9-4.7-9.5,14.5-15.1,17-34.8,20.6-53.6,2.1-11.1,.4-22.9,.4-34.4-14.6,0-27.5,1.7-39.8-.5-11.9-2.1-23-8.2-36.2-13.2-.5,3.8-2.1,7.8-1.5,11.4,4.8,29.6,10,59.1,15.2,88.7,1.1,6.3,.2,10.5-7.5,10.4-11.9-.2-23.9,0-39.4,0,3.7-6.8,5.2-11.8,8.4-15,5.3-5.5,6.6-11.3,4.8-18.4-3.4-12.8-6.6-25.7-10.6-41.3-4.1,4.9-6.8,7.1-8.4,10-8.5,15.8-22.3,29.4-20.1,49.7,.2,1.8-5.5,6.3-7.5,5.8-11.5-2.8-22.8-6.7-34.9-10.5,1.4-2.8,1.7-5,2.9-5.7,13.9-8.4,17.7-22.5,22.7-36.6,5.8-16.3,12.8-32.4,21.5-47.2,9.2-15.8,.6-36.4-18.4-47.7-16.5-9.9-29.2-7.4-43,7.4-17.5,18.7-38.2,32.1-65.2,30.8-3.9-.2-13.2,4.5-10.9-7.1,.1-.4-4.9-2.1-7.6-2.8-11.4-2.9-20.1-9.2-27.4-18.7-2.8-3.7-10.8-6.2-15.3-5-6.7,1.8-9.3-1.5-14.2-4-22.6-11.8-32.5-32.6-41.6-54.4-5.7-13.6-11.9-27.1-17.9-40.6-.7-1.5-2.1-2.7-4.8-5.8-3.5,18.6-17.1,31.5-16.3,50.5,.7,16.4-5.4,33,2.2,49.1,3,6.2,4.7,13.3,8.6,18.8,15.5,21.5,33.5,41.7,40.3,68,3.5,13.4,3.5,27.8,4.7,41.7,.6,7.2,1.7,14.7,.4,21.6-.6,3.4-6.3,8.2-9.7,8.2-20.4,0-40.9-.9-61.3-2.4-2.4-.2-6.2-5.4-6.1-8.3,.1-3.7,3.3-7.4,5.4-10.9,4.7-7.5,12.9-14.6,13.8-22.5,1.8-15.5-1.7-31.2-11.7-44.2-13.6-17.7-32.2-29.1-53.1-41.2-7,20-13.5,38.9-20.2,57.7-3.5,9.9-7.6,19.7-10.9,29.7-.9,2.8-.4,6.6,.7,9.5,4.3,11.5-.8,19.8-13.2,19.9-14.9,.1-29.7,0-44.6-.5-3.5-.1-9.8-1.8-9.9-3.2-.4-4.6,.4-10,2.7-13.8,5.3-8.7,12.4-16.4,17.6-25.1,4.3-7.1,7.3-15.1,10.3-23,2.8-7.2,3.9-15.2,7.2-22.1,9.6-20.4,9.5-41.6,7.5-63.5-21.9-1.6-44.1,.1-64.4-5.6-19.9-5.6-37.7-18.6-57.1-28.6-4.8,10.1-8.7,19.6-7.9,31.7,2.6,37.8,2.6,75.5-7.7,112.7-2.1,7.6,.2,17.3,2.9,25.2,3.6,11,1.3,18.2-10.1,18.6-18.3,.7-36.6-.2-54.9-.5-6.5-.1-9.9-3.8-6.6-9.6,4.6-8,2.7-14.9,1.1-23.2-3.7-20.2-11.4-37.3-26.3-51.8-17.8-17.4-20.1-34.8-9.4-59.2,10.1-22.9,20.5-45.8,30.7-68.7,7.8-17.5,3.5-32.2-11.7-43.5-19.9-14.7-39.3-30-59.1-44.9-2.5-1.9-5.4-3.3-8.3-4.2-8.9-2.8-17.9-6.6-27-7.4-5.9-.5-12.3,3.1-18.2,5.5-3.5,1.4-6.3,4.3-9.6,6.3-15.4,9.1-33.5,7.4-50,12.1-16.4,4.7-33.8,6.9-50.8,8.2-12.9,1-25.3-2.8-34.7-13v-4.2c9.4,2,18.7,3.9,28.1,5.9,.2-.9,.5-1.7,.7-2.6-2-2.5-4-4.9-7.3-9,6,.5,10,.8,15.5,1.2-1.9-2.8-2.8-4.8-4.3-6.3-13.8-13-20.4-29.5-23.1-47.8-5.4-36.7,19.5-73.6,54-79.6,5.1-.9,10.6-.9,15.8-.5,17.7,1.3,25.6-3.6,32.1-20.5,.5-1.2,1.4-2.3,3.1-4.9,2.7,11.5,9.6,11.6,17.8,7.8-4,25.7-17.1,40.1-40.7,45.5-1.4,.3-2.8,.6-4.2,.9-33.9,6.5-43.8,30.9-23,58.6,2.9,3.8,9.5,6.2,14.5,6.3,2.8,.1,7.3-5.3,8.5-9,13.6-41.3,41.5-71,76.4-95,13.7-9.4,29.2-9.6,45-6,9.6,2.2,19.4,4.2,28.9,6.9,15.1,4.3,28.2,.3,41.3-7.2,16.2-9.3,32.8-18.1,49.7-25.8,16.4-7.4,33.8-6.7,50.9-1.8,14.3,4.1,18.5,10.4,16,25-1,5.9-2.7,11.7-4.4,17.4-1.7,5.6-3.8,11.2-6.7,19.5,13.1-1.2,24.1-2,35.1-3.4,5.9-.8,12-1.9,17.5-4.2,30.1-12.4,57.9-4,84.5,9.9,46.6,24.4,74.9,64.6,92.6,112.8,12.5,34.1,23.2,69,36,103,9.1,24.1,18.7,36.4,29.8,44,15.5-11.8,25.5-12,40,1.5,12.3,11.3,26.7,13.9,42.2,13.2,11.3-.5,15.6-6.5,19.8-21.3,4.4-15.8,9.5-31.6,15.7-46.8,3.3-8,8.7-15.9,15.1-21.6,5.9-5.2,14.2-8.6,21.9-10.6,6.7-1.7,11.8-3.2,13.9-10.7,1.3-4.7,4.4-8.8,6.6-13.2,3.8-7.6,7.7-15.1,12.1-24,8.1,7.8,1.1,21.1,7.8,29.8,11.2-2,22.6-3.9,33.9-6,9.2-1.6,14.9,1.7,14.3,11.5-.5,8.2,3.2,12.3,10.8,11.8,10.8-.7,22.5,0,32.1-4,32.2-13.4,59.1-2,83.9,16.6,18.4,13.8,33.5,30.7,41.6,53.7,5.1,14.4,17,25.1,31.3,31.9,10.2,4.8,20.2,4.9,30.6-.1,4.1-2,9.3-1.6,14-2.4,.9,1,.9,1.7,.9,2.4Zm-869.7,46.1c.6,.1,1.3,.1,1.9,.2-2.4-9.8-4.9-19.6-7.3-29.3h-4.8c-.5,4.4-2.7,9.5-1.2,13.1,2.6,5.9,7.5,10.7,11.4,16Z"/></g><g id="f"><path class="h" d="M22.6,10.36c-31.3,3.9-63,4.5-94.5,6.6-4.6,.3-9.2,1-13.7,1.5-4.9-4.9-10.5-8.4-16.4-9.1-26.2-3.4-29.5-7.8-24.6-35.4,.1-.8-.5-1.7-.8-2.6-36-22.3-132.2-42.6-192.6-40.4-5.7,5.8-8.5,11-12,11.8-11.3,2.6-19.1,17.1-33.1,12.6-7.5-2.4-18,13.7-15.8,21.5,3.4,12-.7,12.6-8.1,10.8-.8-.2-1.8,.9-2.8,1.3,1.2,3.5,2.3,6.4,3.8,10.9-5.4-2.8-9.2-4.7-13.1-6.7-.3,1-.6,2-.9,3l7.2,10.7c-.4,1.2-.8,2.4-1.1,3.7-6.7-.5-13.9-3.1-20.1-.9-10.8,3.8-19.5-1.5-29.2-5.1-15.2-5.7-30.9-10.2-46.7-12.4-10-1.5-20.7,4.1-30.8,2.7-16.6-2.2-31.8,1.3-46.7,10.2-12.9,7.7-25.9,15.4-39.2,22-10.6,5.3-19,16.3-32.1,16.7-3.4,.1-8,6.4-13.9,2.6-8.4-5.5-16.8-7.9-23.8,3.6-1,1.6-3.5,2.8-5,2.4-16.1-4.1-32.2-6.5-48.8-4-17.7,2.7-35.7,3.4-53.3,6.6-9.7,1.8-19.1,7.1-28.9,11,2.3,6.6,3.7,10.7,5.4,15.7-3.9,1-6.9,1.8-11.6,3.1,5.8,5.5,10.1,9.6,15.6,14.9-11.8,13.7-25.5,15.5-38.3,18.5-7.3,1.7-16.4-5.8-22.9-2.9-21.5,9.6-45,2.5-66.1,16.6-18.6,12.4-39.3,20-58.8,30.4-4,2.1-6.8,7.7-10.6,10.8-6.1,5.2-12.6,9.7-20.3,15.5,5.3,2.3,8.4,3.6,14.2,6.1-6.3,4.9-10.3,8.1-14.5,11-1.5,1-3.4,1-5.2,1.4,2.7,14.6-6.5,8.5-11.2,10.3-1.7,.7-3.3,2.2-6.1,4.2,13.1,3.5,25.3,11.4,35.6,8.5,27.8-8,54.9,.3,82.3,.5,11.9,.1,23.8,6.9,36.3,10.8,.3-3.3,.6-7.3,.8-10.7,4.2,0,8,1.2,11-.2,11.4-5.6,29.9-.4,35.7,12.7,7.9,17.7,21.2,23.8,34.9,30.6,16,7.9,32.4,13.5,45.5,30.5,12.6,16.3,28,30.8,44.2,40.8,21.6,13.3,45,22.2,67.9,31.7,20.1,8.3,40.9,13.9,61,22.5,38.7,16.6,77.3,33.7,115.4,52.3,14.3,7,29,16.2,40,29.1,20.1,23.7,38.3,50.2,55.9,76.9,24.4,37.1,48.5,74,78.4,104.8,13.1,13.5,23.2,32.4,26.2,55.6,3.9,30.5,8.8,60.7,13.2,91.1,.4,2.6,.3,5.8-.6,8-1.3,3.2-3.5,5.7-5.4,8.6,3.2,.4,6.5,.8,10.2,1.3,.5,1.7,.8,3.2,1,4.6,4,1,8,2,12,2.9,10.5,1.5,21.1,3.1,31.6,4.6,.2-.3,.5-.6,.7-.9-.6-.1-1.2-.2-1.9-.3,.6,.1,1.3,.2,1.9,.3,1.1-1.5,2.3-3,3.4-4.5,.9-1.2,1.9-2.3,2.9-3.5,1.6-4.1,4.1-7.5,7.3-9.3,.4-.2,.9-.5,1.3-.7,4.9-5.5,10-10.7,15.2-15.7-.8-2.7-1.3-5.6-1.3-8.5-3.5-.2-6.9-.4-10.4-.5,.6-5.1,.5-7.6,1.2-9.7,16.8-50.9,44.8-87.7,85.4-109,6.6-3.5,13.7-6.3,19.5-11.4,12-10.7,23.5-22.4,34.9-34.3,15-15.8,30.1-31.5,44.3-48.4,12.5-14.9,23.4-32,35.9-47.1,27.7-33.6,64.8-41.7,99.4-56,17.2-7.1,37.3-6.2,52.6-16.9,26.4-18.3,54.3-29.2,82.6-39.7,51.4-19.2,88.4-61,117.5-115.5,8.6-16.2,17.1-30.8,32.4-38.3,9.1-4.5,16.6-12.7,15.5-28.1-.5-7,1.2-14.2,2.1-21.3,1.5-11.7,4-21,15.7-11.6,2.2,1.7,5.9,.9,8.8,.6,9-1.1,17.9-3.3,26.9-3.7,15.3-.6,30.6-.5,46,0,15,.5,30,1.9,45,2.5,6.6,.2,13.2-.2,19.8-1.2,8.2-1.3,16.4-2.9,24.3-5.5,3-1,5.2-5.3,7.8-8.1-.6-1.6-1.2-3.3-1.9-4.9-8,.8-16,1.5-24,2.3-.5-1.3-1.1-2.6-1.6-3.9,7.6-5.5,14.9-11.5,22.7-16.3,6-3.6,12.6-5.9,19.1-8.2,3.9-1.4,8.1-1.4,12-2.5,7-1.9,14-4.2,21-6.3-.2-1.8-.4-3.8-.6-5.9-11.9-2.3-23.8-6-35.8-6.6-36.4-1.9-70.5-20.2-107-23-22.1-1.7-43.8-9.2-65.7-14.2-1.8-.4-3.9-.8-5.3-2.2-19.5-19.5-43.2-12.7-64.2-11.7-19.6,1-38.1-3.3-56.8-6.2-21.7-3.3-42.8-12.9-64.4-17.4-18-3.7-36.5-3.8-54.7-5.7-4.5-.5-9.7,.1-13.4-2.5-14.8-10.8-32.6-7.1-47.8-19.7-12.8-10.6-30.2-13.1-45.9-17.5C81.8,12.26,52.7,6.56,22.6,10.36M-805.8,267.16c-7.9-4.6-14.6-8.3-21.1-12.6-.4-.3,.9-4.7,1.5-7.3-1.8-1.6-3.9-2.8-5.2-4.8-2.4-3.8-4.7-7.8-6.1-12.2-.4-1.3,2.2-6.1,3.2-6,4.3,.5,9.3,.9,12.4,3.9,3.5,3.5,5.3,9.8,9.1,17.6-5.7,.5-9.8,.8-13.9,1.2,6.4,1.8,12.8,3.6,20.1,5.7v14.5Zm-12-39.5c8.4,.5,14,.8,21.8,1.3-7.8,11.1-13.6,11.6-21.8-1.3Zm1168-20.6c1.2-2.9,5.2-4,8.7-6.3,6.3,4.5,12.5,8.1,17.7,13.2,1.9,1.9,2.9,8.2,1.9,11.2-.8,2.4-5.9,5-8,3.9-6.1-3-12-7.2-17.3-12.1-2.1-1.9-4-7.8-3-9.9Zm-140.8,59c-2.4-12.6-.3-17.5,9.1-14.1,11.6,4.2,22.7,8.8,35,4.3,.5-.2,4.5,8.2,3.6,9.9-8.8,17.2-17.8,34.3-27.9,50.3-4.7,7.4-12.1,11.9-19.2,18.5-5-16.3-3-29,1-42.7,2.2-7.5,0-17.7-1.6-26.2Zm28.1,59.4c-1.6,7.6-3.3,15.2-5.3,24.8q-10.7-14.9,5.3-24.8Zm-68.8-80.9c8.3,6.4,4.3,13.7-.8,18.2-13.5,12.1-27.4,23.6-41.6,34.4-12,9.1-24.8,9-37.5,3.6l-1.1-4.5c5.6-5.1,11.2-10.2,17.5-16-10.5-11.9-4.1-20.6,3.3-27.9,9.2-9.3,19.2-17.4,31.8-28.7,8.5,6.2,18.6,13.3,28.4,20.9Zm-71.6-14.4c2.9-2.8,9.6,.4,14.6,1-1.9,3.7-3.5,7.9-5.8,11-2.7,3.6-6.1,6.2-9.1,9.3-1.6-1-3.2-2-4.7-3,1.4-6.3,1.6-14.9,5-18.3Zm-25.9,78.6c-19.2,16-37.2,34.1-56.6,49.6-13.7,10.9-28.8,18.9-43.3,28.2-1.2-2.3-2.3-4.7-3.5-7,15-15,29.1-32.2,45.5-44.3,14-10.4,20.1-27.4,29.7-41.4,1.5-2.1,2.3-5.5,4.1-6.6,13.9-9.1,27.9-17.8,42-26.7,2.2,19.1-5.7,38.1-17.9,48.2Zm-248.8,77.9c3.9,22,.4,47.3-6.5,55.6-10.8-20.2,2.1-34.8,6.5-55.6Zm-3.9-34.2c-5.3,4.5-10.5,9.2-16.1,13.2-.4,.3-4.5-5.2-4.9-8.3-.9-6.7,8.7-16.2,14.8-15,2.8,.5,5.3,2.7,8,4.1-.5,1.9-1.1,4-1.8,6Zm36.5-79.3c7.4,15.2,7.5,18.2-4.2,27.2-6.8,5.2-14,9.6-21.1,14.1-1.6,1-3.6,1.2-7.6,2.6-2.8-35.9-5.6-69.6,28.3-85.7,4,5.7,5.5,12.6,1.6,22.6-1.9,4.8,.4,13.8,3,19.2Zm8.6-23.8c11-7.3,22-13.8,27.4-29.8,2.4-7.2,19.8-4.6,29.2,4.8-21,14.6-40.7,28.4-61.2,42.6-4.1-6.6-2.3-12.9,4.6-17.6Zm4.6,158.6c0,14.1,.8,27.7-.4,41.1-.5,5.3-4.7,10.8-8.2,14.7-10,11.1-20.5,21.5-31,31.9-3.9,3.9-8.5,6.8-14.6,11.6,2.8-27.3,37.2-88.6,54.2-99.3Zm-34.8-35.7c0-2.6,4.4-7,7-7.2,13.8-1.5,27.6-2,44.2-2.9-17.3,19.7-33,37.7-49.8,56.9-.7-16.8-1.6-31.8-1.4-46.8Zm38.4,110.1c.9-8.2,6-18.1,15.8-8.9,.9,.8,4.6-.9,5.2-2.5,6.7-17.8,11.4-27.7,24-29.3-1.7,20.3-5.8,38.4-16.5,54.9-8.9,13.9-14.8,31-21.9,46.7-2.4,5.3-4.4,11-6.6,16.4l-4.5-1.5c1.3-25.3,1.9-50.7,4.5-75.8Zm4.2-33.5c-.5-11.5-.6-23.6-1.7-35.7-1.1-11.3,1.8-19.1,9.3-25.5,17.8-15.1,34.7-31.9,52.9-45.8,13.4-10.2,15.1-8.3,22.5,11.2,6-2.1,12.3-4.2,18.5-6.4-21.7,54-63.7,75.8-101.5,102.2Zm82.3-119.5c2.9-3.5,5.4-8.1,8.8-10.2,9.5-5.8,19.4-10.9,29.3-15.5,5.8-2.8,12-4.3,18-6.3,1.6,6.2,1.6,10.3-4.5,14.3-10.2,6.8-19.3,16.3-29,24.3-2.5,2.1-6.1,5.2-8.2,4.2-5.1-2.5-9.6-7-14.4-10.8ZM88.4,223.36c0,9.7,.2,19-.1,28.4-.1,2-1.4,5-2.8,5.8-9.8,5.6-20,10.1-29.6,16.4-9.2,6-17.8,13.4-26.4,20.7-4.9,4.2-9,11.2-14.9,2.6h0c3.2-2.7,6.4-5.3,9.5-8.2,2.6-2.4,5.8-4.3,7.5-7.4,13.6-25.5,35.2-39.2,53.5-57.7,.7-.7,2.1-.4,3.3-.6Zm-57.7-5.8c-1-2.8-1.6-3.9-1.9-5.2-1.3-6.8-2.7-13.7-3.6-20.6,0-.4,4.7-3,5.5-2.1,5.1,5.3,9.9,11.2,14.5,17.3,.8,1-.4,4.7,.3,5.3,13.5,11.1,4,19.5-2.4,27.2-10.9,13.1-21.3,27.7-34.1,37.2-14.3,10.7-31,16.3-46.6,24.1-.9-1.5-1.9-3.1-2.8-4.6,2.4-3.5,4.6-9.6,7.3-9.9,10.7-1.4,15.8-11,22.1-19.6,3.5-4.8,9-7.4,12.5-12.2,5.1-7,16.6-8.2,13.6-23.3-.3-1.7,3.6-5.3,5.9-7.2,2.8-2.5,6.3-4.2,9.7-6.4ZM-6,186.86c1.8,1.9,4.9,1.8,7.4,2.6,4.4,1.4,11.3,1.2,12.6,4.5,3.4,8.8,7.2,19-3.4,26.9-3.8,2.8-4,12.5-7.6,16.4-9.2,9.9-18.9,19.6-29.5,26.9-10.7,7.5-19.8,15.3-22.7,31.3-.7,4-2.4,8.5-4.7,11.2-30.1,34.6-64.4,55.3-106.4,47.8-3-.5-7.2-6.9-7.6-10.9-.4-4.9,1.5-12.6,4.4-15,12.9-10.6,26.5-19.8,40.5-30-8.6-21.7-6.8-25.5,8.6-36.2,19.2-13.3,39.4-25.7,55.7-43.6,10.4-11.5,21.7-20.6,32.8-30.4,6.2-5.5,12.7-8.8,19.9-1.5Zm-29.3-4.3c-8.6,7.3-14.4,12.3-22.7,19.4-.5-12.2-.8-20.3-1.3-32,8.3,4.4,14.4,7.6,24,12.6Zm-73.4,3.6c1.2-1.7,2.8-3.5,4.5-4.1,11.5-4.1,23-8.2,34.7-11.5,2.3-.6,7.6,2.8,7.5,4.1-.5,9.6,.4,21.2-3.7,28-6.4,10.8-17.7,17.2-27.8,8.1-8.5-7.6-15.3-8.1-23.7-2.1-1.7,1.3-4.7-.1-7-.2,5.9-8.3,10.6-15.4,15.5-22.3Zm-7.2,40.8c-5.6,4.6-11.1,9.9-17.2,13.6-1.8,1.1-6.7-1.4-7.7-3.9-1.9-4.4-3.3-10.5-2.3-15.1,.5-2.2,6.9-4,10.3-3.3,5,1.3,9.7,4.9,16.9,8.7Zm-26-66.1c2.2,13.9-2,19.5-16,23.1-1.5-15.2,9-16,16-23.1Zm7.3,27.5c1.6,.7,3.5,4.1,3.3,6-.3,2.8-1.9,6.9-3.6,7.6-8.4,3.1-17,5.2-26.1,7.8,2.6-14.8,16.8-25.6,26.4-21.4Zm-46.7,37.9c-.7-.9-1.4-1.8-2.1-2.7,4.5-6.8,8.9-13.6,15.3-23.3,1.8,18.4-5.7,22.2-13.2,26Zm-7.3-63.5c1.4-.6,2.7-1.3,4.1-1.9,4.6,6.6,9.1,13.1,13.7,19.7-6.2,5.4-12.4,10.7-18.7,16.1-1.4-1.2-2.9-2.5-4.3-3.7,1.8-10.1,3.5-20.1,5.2-30.2Zm-2.8,143.6c.1,7.2-6.1,16.9-11.1,18.7-3.3-21.1-6.5-41.2-10.2-64.9,17.2,11.8,21.2,27.7,21.3,46.2Zm-36.9-145.9c8.1,3.1,15.8,7.7,23.7,11.9,.3,1.9,.7,3.8,1,5.8-5.2,5.6-10.5,11.1-15.7,16.7-5.1-8.6-10.5-17-15.1-26.1-.4-.9,4.8-8.8,6.1-8.3Zm9.8,70c.1,18.7-3.9,22.3-21.4,18.8,8-7.1,13.8-12.2,21.4-18.8Zm-30.9,12.9c-1.2-18,12.8-32.2,25.7-27,1.2,.5,2.9,2.5,2.8,3.7-.1,2.1-.9,5.2-2.2,6.1-8.4,5.8-16.9,11.2-26.3,17.2Zm-7.3-48.2c1.5-6,4.5-11.4,7.3-18.4,5.3,8.5,11.3,18.3,18.5,29.9-6.7,1.9-11.7,4-16.8,4.6-2.8,.3-7.2-.7-8.3-3.1-1.4-3.4-1.6-9-.7-13Zm3.3,64.3c-7.8,10.9-15.6,21.7-23.6,32.8-11.6-17.2-9.6-25.8,5-30,5.8-1.7,11.5-3.6,17.3-5.4,.4,.9,.8,1.7,1.3,2.6Zm-20.4-88.7c3.8-4.9,7.1-9.1,9.9-12.6,2,6.7,3,11.3,4.7,15.4,4.4,11-.1,20.3-12.3,24.9,2.9,6.3,7.7,12.5,8.2,19.1,.4,5.4-4.5,11.4-7,17.1-2.6-4.2-6.7-7.9-7.6-12.6-3.3-17.2-5.5-34.7-8.5-54.8,6.9,2,10.1,2.8,12.6,3.5Zm-16.2,16.2c.7,11.6,1.4,23.2,2.4,39.1-5.2-4.4-9.1-7.8-11.9-10.1,2.3-12.5,4-21.2,5.6-29.9,1.3,.2,2.6,.5,3.9,.9Zm-23.8-23.7c.3-1.4,10.3-2.4,12.1,.3,3.2,4.9,5,12.9,4.7,19.4-.2,4.9-4.5,9.6-7.8,15.9-3.9-2.6-11.1-4.7-11.5-8-.8-9,.6-18.7,2.5-27.6Zm-4.2,39.1c2.7,.9,5.4,3.2,7.3,5.8,5.5,7.2,9.8,16.1,16,22,10.3,9.8,11.4,17.2-.8,23.3-12.2,6.1-18,14.1-15.3,31-15.9-7.3-19.5-15.1-15.6-30-9.5-12.6-18.9-24.6-27.7-37.3-2.6-3.7-3.9-9.3-4.7-14.3-1.4-8.7,2.7-11.2,8.7-9.6,10.8,2.7,21.5,5.7,32.1,9.1Zm-55.3,84.1c-3.4-3.7-4.6-13.8-3.7-20.3,2.5-16.8,1.1-31.8-5.9-46.6-7.9-16.7-6.2-23.4,7.1-33.7,3.2-2.5,6.9-4,10.1-6.6,6.4-5.4,9.2-1.3,11.9,6.6-3.6,1.8-6.6,3.2-9.9,4.9-.4,16.1,3.3,29.3,13.6,40.1,7.9,8.2,14.9,16.5,14.8,32.9,0,8.2,10.5,17.3,17.3,24.4,14.9,15.8,30.8,29.5,27.3,59.6-1.8,15.7,1,32.1,1.4,48.2,.1,4.4-.9,8.9-1.4,13.4-22.9-29.6-47.8-51.6-75-69.7-7.2-4.8-8.5-10.6-3.8-19.5,6.3-12.1,6.1-23-3.8-33.7Zm-24.5,2.8c1.8-8.3-4.2-15.5-12.7-14.2-19.5,3.2-20.1,2.8-29.5-18.7-1.1-2.5-1.7-5.9-3.4-7.4-16.3-14.9-9.1-32.9-4.5-50.6,.6-2.2,.9-4.5,1.2-6.8,.1-.7-.7-1.6-1.5-3.2-3.2,1.7-6.5,3.5-10.4,5.7-2.4-3.5-4.7-6.9-6.5-9.5,10.8-4,21.1-9.7,31.6-10.9,6.7-.7,13.6,7.1,20.7,8.3,9.6,1.6,10.6,8.8,11.9,18.6,.9,7.1,4.6,13.9,7.8,20.2,7.3,14,7.6,28.6,3.6,43.9-3.3,12.6-.7,23.5,6,32.9,5.7,7.9,4.6,14.3-2.2,21.2-7-7.8-15.6-12.9-12.1-29.5Zm5.9,76c-9.9-6.3-11.7-14-6.3-26,9.4,6.9,9.3,15.3,6.3,26Zm-238.2-47c4.1,2.3,8.7,3.8,12.3,7.1,1.9,1.8,1.9,6.7,2.8,10.2-3.4,.3-7.9,2.4-9.8,.4-3.3-3.5-5-9.5-7.4-14.5,.7-1.1,1.4-2.1,2.1-3.2Zm-9.1-54.6c1.8,5.3,3.6,10.7,5.6,16.5,10-1,14,4.1,14.5,20.2-22.1-2.3-24.4-5.9-20.1-36.7Zm7.2-7.6c2-1.1,5.1-2.8,8.4-4.6v-10.1c4.3,.7,8.2,1.3,12,2.1,2.2,.5,5.5,.4,6.3,2.2,12.1,24,35.2,24.5,51.9,38.9,10.4,9,23.1,13.9,34.7,20.7,2.4,1.4,6.7,3.7,6.6,4.7-2.8,18,13.3,23.5,16.1,36.9-15.4-6.9-31.9-10.1-44.2-21-13.7-12.2-28.7-6.6-42.5-12.9-12.7-5.8-25.4-8.6-31.1-28-3.2-10.5-11.5-18.6-18.2-28.9Zm131.9,66c-1.7-4.1-1.4-10.1-.7-14.9,1-7.9,2.1-16.2,5-23.2,1.8-4.6,6.8-7.2,10.3-10.7,2.2,4.4,6.8,9.6,6.1,13-2.8,13.9,1.2,22.2,9.8,30.2,4.8,4.4,7.5,12.4,9.5,15.9,15.6,8.1,28.8,14.5,41.7,21.8,2.1,1.2,4.7,7,4.1,8.4-7.3,16.2-.2,23.1,10.9,30.5-2.4,.4-5.1,2-7.2,1.1-21.2-8.9-42.3-18.1-63.3-27.8-3.6-1.7-7.1-5.7-9.3-9.7-6.1-11-11.9-22.6-16.9-34.6Zm76,.9c5.2,3.8,8.2,12.7,13,20.7-24.7,.2-57.6-28.2-60.8-51.1,16.5,10.2,32.6,19.3,47.8,30.4Zm-36.8-61.3c1.7-2.4,2.9-5.5,3.5-6.7,14.6,19,27.7,36.2,40.8,53.4-.2,.8-.5,1.5-.7,2.3-5.9-3.3-12-6.3-17.8-10-8.1-5.1-16.3-10.1-23.9-16.3-10.3-8.2-10.2-11.2-1.9-22.7Zm113.2-99.1q13.3-18.1,27.6-13.3c0,10.4,.2,19.2-.1,27.9-.1,2.6-1.3,7.1-2.3,7.3-7.7,1.1-16.1,4-23,1.1-8.8-3.8-9-13.8-2.2-23Zm-5.9-9.9c-1.7,4.4-3.4,8.8-6.2,16.3-3.5-7.8-5.3-11.8-8.8-19.8,6.9,1.6,11,2.6,15,3.5Zm-45.4-1.8c20.8-4.1,22.9-2,32.7,20.8-7.1,4.8-14.2,9.6-18.4,12.5-10.4-6-18.4-10.6-29.4-16.9,5.7-6.5,9.9-15.4,15.1-16.4Zm-12.3,4.3c-8.7,9.6-14.8,12.6-22.6,0h22.6Zm-26.2,16.1c-11.5,.8-21.2,1.5-33.8,2.3,9.8-18.9,25.1-19.8,33.8-2.3Zm-57.9-15.2c4.3,22.3,13.3,39.1,29.3,48.9,8.8,5.4,5,12.8,2.2,23.2-5.9-10.5-17.5-11.8-16.9-27.2,.1-1.6-2.1-3.9-3.7-4.9-13.8-8.5-13.8-23.1-10.9-40Zm-17.1-2c2.4,4.3,6.2,8.3,6.8,13,.7,5.9,4.1,14.7-4.4,17.3-1.9-9.3-3.7-18.6-5.6-27.8,1-.9,2.1-1.7,3.2-2.5Zm2.4,30.8c13.6,18.6,27.2,37.2,41.2,56.3-20.9,9.9-47.7-9.3-49.8-34.5-.7-8.5-.8-18.7,8.6-21.8Zm-55.4-11.9c5.8-3.7,12.3-8.9,18.3-8.4,6.6,.6,13.1,6.3,19,10.9,1.7,1.3,2.1,6.8,1.9,10.3-.4,7.1-2.4,14.2-2.3,21.2,.1,6.3,2.3,12.5,3.8,19.5-11-1.8-21.4-3.2-31.7-5.3-2.2-.5-5.3-3.1-5.9-5.5-2.6-11.3-4.7-22.7-6.3-34.3-.4-2.5,1.3-7.2,3.2-8.4Zm-3.7,59.8c3.6,.3,7.4,.2,10.9-.8,22.9-6.9,41.8,2.1,58.1,22.2,5.8,7.1,7.8,13.4-.2,21.1-3.1,3-5.1,9.4-5.6,14.5-1,9.3-3.9,11.7-10.6,8-18.6-10.4-37.8-19.4-55.7-31.4-18-12.1-18.4-14.9-26.6-43.7,6.5,4.6,10.3,7.3,14.1,9.9,0-.8,.1-1.5,.1-2.3,5.2,.9,10.3,2.1,15.5,2.5Zm-8.9-25.4c-5.2-1.7-10.3-2.1-14.1-5-2.4-1.8-3.8-7.5-3.8-11.4,0-1.8,4.7-3.7,7.5-5,3.8-1.7,7.8-2.8,13.7-4.9-1.1,8.5-2.1,16.6-3.3,26.3Zm-68.5-39.4c7.7-4.5,15.8-8.2,23.8-12.1,.7-.3,1.8-.7,2.2-.3,12.3,13.8,25.2,1.8,37.8,1.4,.7,0,1.4,.7,3.2,1.7-.2,4-.1,7.8-.8,11.4-.7,3.8-2.2,7.4-3.3,11.2-2.5-1.5-5.5-2.4-7.4-4.7-7.9-9.4-17.1-6.9-26.1-4.9-9.2,2-18.2,5.4-27.3,7.5-1.9,.4-4.3-2.2-6.5-3.4,1.3-2.7,2.3-6.6,4.4-7.8Zm-2.5,96.6c1.8,3.1-.9,10.4-1.6,15.8-4.9-3.8-9.9-7.6-15.7-12,7.3-11.6,13.5-10.3,17.3-3.8Zm-125.8-41.2c4.3,1.8,8.5,3.6,15.7,6.7,1.4,.2,5.2,.6,9,1.3,2,.3,4.7,2.4,6,1.4,11-9,17.4-1.8,22.8,11.5,10.8-11.6,21.6-9.1,31.2,0,2.5,2.4,3.6,13.7,2.2,14.9-7.7,6.3-16.3,10.7-25.2,15.1,5.6-1.3,10.9,3.1,18.4,.7,6.1-2,17.8-7.2,18.1,11.5,.1,3.1,4.1,6.1,7.2,10.3-11.9,0-22.5,1.7-32.7-.4-18.6-3.9-39-2.9-53.1-23.5-7.5-11-15.6-21.5-22-33.4-2-3,1.4-10.5,2.4-16.1Zm271.5,196.6c-33.9-15.2-67.5-31.4-101.6-45.7-19.7-8.3-40.5-12.4-60.3-20.5-20.6-8.4-42.4-12.4-60-31.8-15.9-17.5-34.5-30.9-51.6-46.6-2.6-2.4-3.8-7.3-5.7-11,.9-1.2,1.9-2.4,2.8-3.6,2.7,2,6,3.2,7.9,6,14.8,22,34.3,32,56.3,35.8,20.4,3.5,40.8,6.7,61.2,9.7,10.9,1.6,17.2,10.5,22.4,21.1,5.6,11.4,12.5,14,20,4.5,6.1-7.8,11.1-6.8,18.1-2.9,6.8,3.8,14.7,4.2,21.6,7.6,5.3,2.6,13.1,6.6,14.1,11.7,3.9,20,18,25.8,28.6,36.2,5.7,5.6,13.5,8.5,20.8,10.8,11.3,3.5,19.4,11.7,27.9,26.2-9.2-3.1-16-4.6-22.5-7.5Zm28.5,1.5c-11.6-17.2-25.9-26.8-42.9-33.4-10.8-4.2-20.2-14.5-29.7-22.8-2.3-2-3-7-4.6-11.1,27.6-4.9,99.1,39.5,97.9,85.8-8.3-7.3-15.9-11.4-20.7-18.5Zm152.8,185.7c-12.8-18.7-25.2-38-38.1-56.5-9.5-13.5-19.8-26.2-29.6-39.3-25-33.4-48.5-68.2-65.4-109.2-.8-1.9-.9-4.1-1.7-8.1,5.2,1.4,9.3,1.8,13,3.5,18.6,8.1,38.5,13.5,55.1,25.9,12.1,9.1,20.7,26.9,29.2,42.2,7.3,13.1,13.7,27.3,11.7,45.1-.5,4.4,3.1,9.5,4.7,14.3,9.4,28.4,18.8,56.8,29,87.5-3.8-2.5-6.5-3.3-7.9-5.4Zm41.7,10.9c-1,.7-2.1,1.3-3.1,2-3.9-7.4-8.7-14.4-11.4-22.4-10.1-30.3-18.7-61.4-29.5-91.4-12.2-33.8-26.2-66.4-39.1-99.7-5.8-15-11.2-30.3-16.7-45.5,1.5-1.3,3.1-2.5,4.6-3.8,26.9,15.7,51.5,35.6,69.7,66,4.2,7,10.2,17.5-3.6,21,.6,1.5,.8,2.8,1.3,3.1,18.5,10.7,22.7,30.7,23.5,54,1.2,35.8,3.3,71.6,5,107.3,.1,3.1-.4,6.3-.7,9.4Zm20-211.6c0,4.9-2,9.7-3,14.6-1.4-.4-2.9-.8-4.3-1.2,1-9.9,2-19.8,3.3-32-7.1-6.6-5.7-18.6-3.9-30.2,2-12.6,.4-23-6.8-32.9-8-10.9-5.5-22.8,4.8-30.9,1.5-1.2,3.3-2.8,3.9-4.8,7.3-23.6,23.6-28.7,42-32.4,1.9,17.1,3.8,34.3,5.7,51.4,.4,3.6,.1,7.3,.6,10.8,1.7,12.5,1.7,21.2-9.7,29.8-16.5,12.4-32.7,28.5-32.6,57.8Zm44.4-45.2c-2.4,33.9-22.2,54.8-36.3,79.7,9.3-28.1,3.4-66.8,36.3-79.7Zm-32.8,249.3c-2.7-45.4-12.9-91.9,2-135,13.3-38.5,31.1-75.1,56-104.3l6.1,4.5c-3.8,9.9-6.5,20.7-11.7,29.3-4.8,8-4.9,14.6-3.3,23.7,2.1,11.8,2.3,24.2,3.3,36.3-1.4,.2-2.7,.4-4.1,.7-1.1-5.5-2.3-10.9-3.4-16.4l-1.7,.1c-.2,1.6-.8,3.3-.7,4.9,3.3,31.2-3.9,58.7-16,85.8-8.7,19.4-14,41.1-21,61.7-1,3.2-2.8,6-5.5,8.7Zm106.9-16.7c-2.9,21.1-5.2,42.6-10.1,63-2.3,9.4-9.1,19.5-16,24-12.7,8.2-18.6,22.8-26.5,35.6-3.7,6-5.7,13.9-9.9,19-3.6,4.4-9.5,8.7-13.9,8.1-4-.5-10.1-7.2-10.8-12-2.5-19.1-5.6-38.9-3.9-57.8,3.6-39.2,13-77.4,30.1-110.4,11.4-22,28-39.8,42.7-59,6.1-8,13.4-14.5,20.2-21.7,1.1,.8,2.2,1.6,3.3,2.4-2.1,21.9-4.2,43.9-6.8,70,6.7,8.4,3.6,23.9,1.6,38.8ZM54.9,473.36c8.6-24.1,25.4-27.5,43.2-29.9-2.9,14.9-22.8,28.5-43.2,29.9Zm46.6-56.3c-1.8,11.7-6.7,17.1-15.8,18.9-14,2.7-25.3,11.5-33.6,26.2-1.6,2.9-3.9,5.3-7.1,9.7-1.3-18.3-2.4-34.1-3.5-49.8h-2.1c.4,7.8,.4,15.7,1.3,23.4,2.7,22.3-3.7,43.3-19,53.5-18.9,12.6-33.7,30.2-47.9,50-17.7,24.6-37.8,46.6-57.5,68.8-6.1,6.9-14.2,11.7-22,15.3-8.4,3.9-17.5,5.3-27.7,8.2-.3-25.2,5.1-46.6,13.6-67,8.1-19.4,14.6-40.2,24.5-57.9,13.1-23.2,19.5-48.9,24.9-75.7,2.9-14.4,10.5-20.4,22.8-20.2,5.7,.1,11.2-6.4,17.1-9.1,4.5-2.1,9.4-2.8,16-4.6-.2-16.4,13.8-21.8,24.2-31,12.9-11.3,26-22.4,39-33.5,17.2-14.7,34.4-29.1,56.6-28.9,18,.2,32.1-11.3,45.7-24.9,7.8-7.7,17.5-12.3,26-18.9,4.2-3.3,7.7-8.1,11.7-12,2.6-2.5,5.3-5.7,8.2-6.1,1.6-.2,4.1,4.6,5.3,7.8,6,16,7.1,32-.9,47.8-5.1,10.1-9.1,21.1-14.7,30.6-2.5,4.2-8.1,8.3-12,7.8-17.8-2.1-29.9,10.1-41.7,23.9-1.9,2.3-3.6,6.4-5.6,6.7-20,2.7-22.9,22.2-25.8,41Zm87.8-74.7c4.3-9.1,7.8-16.2,12.4-26,6.6,20.6,5.1,23.3-12.4,26Zm-22.8,20.7c-5.9,3.8-11.8,7.7-17.7,11.5-.8-1.8-1.6-3.6-2.5-5.4,5.7-4.3,11.4-8.6,17.1-13,1.1,2.3,2.1,4.6,3.1,6.9Zm-51,88c-.5-10-1-16.1-1.1-22.3-.6-23-.4-22.5,16.4-32.5,12.9-7.7,25-17.3,37.7-25.3,4.1-2.6,9.3-3.8,13.9-3.7,11.4,.3,22.7,1.7,35.1,2.8,.6,11.9-3.9,22.5-15.1,29.6-20.8,13.2-41.2,27.7-62,40.8-7.2,4.6-15.4,6.6-24.9,10.6Zm262.5-164.8c-10.8,28-26.9,50.5-45.5,70.6-23.5,25.5-50.5,43.5-80.2,51.8-28.1,7.8-53.7,22.4-79.9,36-1.9,1-4.1,.7-8.8,1.4,15.3-12.7,28.3-23.9,41.6-34.4,10-8,19.5-15.8,23.7-31.2,2-7.4,6.4-14,10.5-20.1,5.8-8.7,10.8-16.9,7.4-29.5-.7-2.8,1.7-8.8,4-10.5,13.4-9.8,17-25.9,19.2-43.4,.8-6.5,2.2-12.9,3.8-22.5,15,3,29.1,7.1,43.5,8.4,9.9,.9,19.7,4.5,30.2-.1,7.5-3.2,16.6-2,24.8-.7,7,1.1,9.6,14,5.7,24.2Zm7.7-41c1.7-15.8,3.5-31.6,5.3-48.1h25.3c-10.5,19-19.1,34.5-27.6,50l-3-1.9Zm29.6,9.1c-3.8,5-11.1,6-17,7.9-.8,.3-4.5-6.6-3.9-7.7,8-15,16.5-29.6,25-44.3,.3-.5,1.4-.3,4.3-.9,0,16.7,.7,32.9-8.4,45Z"/></g></svg>