<?xml version="1.0" encoding="utf-8"?>
<!-- Generator: Adobe Illustrator 26.1.0, SVG Export Plug-In . SVG Version: 6.00 Build 0)  -->
<svg version="1.1"
	 id="svg2" xmlns:cc="http://creativecommons.org/ns#" xmlns:dc="http://purl.org/dc/elements/1.1/" xmlns:inkscape="http://www.inkscape.org/namespaces/inkscape" xmlns:ns1="http://sozi.baierouge.fr" xmlns:rdf="http://www.w3.org/1999/02/22-rdf-syntax-ns#" xmlns:sodipodi="http://sodipodi.sourceforge.net/DTD/sodipodi-0.dtd" xmlns:svg="http://www.w3.org/2000/svg"
	 xmlns="http://www.w3.org/2000/svg" xmlns:xlink="http://www.w3.org/1999/xlink" x="0px" y="0px" viewBox="0 0 615.8 7.5"
	 style="enable-background:new 0 0 615.8 7.5;" xml:space="preserve">
<style type="text/css">
	.st0{fill:#332D0C;}
</style>
<g id="g4257" transform="matrix(2.7705 0 0 2.9079 -658.52 -390.11)">
	<path id="path4259" class="st0" d="M342.1,136.7c4.4-0.2,3.6-2.3,0-2.6c-34.1,1.2-69.1,0.8-104.4,1.3
		C272.8,136,307,135.3,342.1,136.7z"/>
	<path id="path4261" class="st0" d="M350,135.4c0,0.7-0.5,1.2-1.2,1.2c-0.7,0-1.2-0.5-1.2-1.2c0-0.7,0.5-1.2,1.2-1.2
		C349.5,134.2,350,134.8,350,135.4z"/>
	<path id="path4263" class="st0" d="M355.5,136.7c-4.4-0.2-3.6-2.3,0-2.6c34.1,1.2,69.1,0.8,104.5,1.3
		C424.8,136,390.7,135.3,355.5,136.7z"/>
</g>
</svg>
