<?xml version="1.0" encoding="UTF-8"?><svg id="a" xmlns="http://www.w3.org/2000/svg" viewBox="0 0 404.57 404.57"><defs><style>.b{fill:#ffb436;}.c{fill:#fff;font-family:AmericanTypewriter-Bold, American Typewriter;font-size:63px;}.d{fill:#14a64c;stroke:#fff;stroke-miterlimit:10;stroke-width:4.57px;}.e{fill:#614514;font-family:HelveticaNeue-CondensedBold, Helvetica Neue;font-size:160px;letter-spacing:.1em;}</style></defs><circle class="d" cx="202.16" cy="202.29" r="200"/><text class="c" transform="translate(41.88 270.32) rotate(61.21) scale(.97 1) skewX(-1.08)"><tspan x="0" y="0">I</tspan></text><text class="c" transform="translate(59.53 300.74) rotate(50.54) scale(.97 1) skewX(-1.22)"><tspan x="0" y="0">l</tspan></text><text class="c" transform="translate(77.69 322.17) rotate(41.26) scale(.97 1) skewX(-1.17)"><tspan x="0" y="0">l</tspan></text><text class="c" transform="translate(99.64 341.72) rotate(28.96) scale(.97 1) skewX(-.96)"><tspan x="0" y="0">u</tspan></text><text class="c" transform="translate(141.06 363.11) rotate(15.02) scale(.97 1) skewX(-.62)"><tspan x="0" y="0">s</tspan></text><text class="c" transform="translate(178 372.09) rotate(3.48) scale(.97 1) skewX(-.17)"><tspan x="0" y="0">t</tspan></text><text class="c" transform="translate(211.54 373.66) rotate(-7.9) scale(.97 1) skewX(.44)"><tspan x="0" y="0">r</tspan></text><text class="c" transform="translate(249.78 367.66) rotate(-21.18) scale(.97 1) skewX(.83)"><tspan x="0" y="0">a</tspan></text><text class="c" transform="translate(289.09 350.96) rotate(-33.7) scale(.97 1) skewX(1.08)"><tspan x="0" y="0">t</tspan></text><text class="c" transform="translate(316.92 331.85) rotate(-46.05) scale(.97 1) skewX(1.22)"><tspan x="0" y="0">o</tspan></text><text class="c" transform="translate(345.04 301.01) rotate(-59.44) scale(.97 1) skewX(1.09)"><tspan x="0" y="0">r</tspan></text><text class="c" transform="translate(362.75 268.53) rotate(-69.36) scale(.97 1) skewX(.76)"><tspan x="0" y="0"> </tspan></text><circle class="b" cx="202.29" cy="202.29" r="115"/><text class="e" transform="translate(130.48 257.94)"><tspan x="0" y="0">Ai</tspan></text></svg>