<?xml version="1.0" encoding="UTF-8"?><svg id="a" xmlns="http://www.w3.org/2000/svg" viewBox="0 0 404.57 404.57"><defs><style>.b{font-family:Impact, Impact;font-size:70px;}.b,.c{fill:#fff;}.d{fill:#ffb378;}.e{fill:#16ba55;stroke:#fff;stroke-miterlimit:10;stroke-width:4.57px;}.c{font-family:HelveticaNeue-CondensedBold, Helvetica Neue;font-size:160px;letter-spacing:.1em;}</style></defs><circle class="e" cx="202.16" cy="202.29" r="200"/><text class="b" transform="translate(50.54 299.01) rotate(53.4) scale(.97 1)"><tspan x="0" y="0">I</tspan></text><text class="b" transform="translate(66.05 319.13) rotate(45.43) scale(.97 1)"><tspan x="0" y="0">l</tspan></text><text class="b" transform="translate(83.38 336.18) rotate(37.72) scale(.97 1)"><tspan x="0" y="0">l</tspan></text><text class="b" transform="translate(103.83 352.11) rotate(26.89) scale(.97 1) skewX(.01)"><tspan x="0" y="0">u</tspan></text><text class="b" transform="translate(143.51 370.89) rotate(13.6) scale(.97 1) skewX(.02)"><tspan x="0" y="0">s</tspan></text><text class="b" transform="translate(181.61 378.92) rotate(3.19) scale(.97 1) skewX(.02)"><tspan x="0" y="0">t</tspan></text><text class="b" transform="translate(208.56 380.07) rotate(-5.68) scale(.97 1) skewX(.02)"><tspan x="0" y="0">r</tspan></text><text class="b" transform="translate(240.33 376.63) rotate(-17.25) scale(.97 1) skewX(.02)"><tspan x="0" y="0">a</tspan></text><text class="b" transform="translate(279.49 363.06) rotate(-28.22) scale(.97 1) skewX(.01)"><tspan x="0" y="0">t</tspan></text><text class="b" transform="translate(304.24 349.73) rotate(-39.31) scale(.97 1)"><tspan x="0" y="0">o</tspan></text><text class="b" transform="translate(336.16 321.86) rotate(-51.17) scale(.97 1)"><tspan x="0" y="0">r</tspan></text><text class="b" transform="translate(354.32 298.03) rotate(-58.85) scale(.97 1)"><tspan x="0" y="0"> </tspan></text><circle class="d" cx="202.29" cy="202.29" r="115"/><text class="c" transform="translate(130.48 257.94)"><tspan x="0" y="0">Ai</tspan></text></svg>