<?xml version="1.0" encoding="UTF-8"?><svg id="a" xmlns="http://www.w3.org/2000/svg" viewBox="0 0 740 100"><defs><style>.b{fill:#fff;}</style></defs><path class="b" d="M22.02,50.27c0-2.95,.52-5.85,1.56-8.7,1.04-2.86,2.57-5.42,4.59-7.68,2.02-2.27,4.46-4.1,7.34-5.51,2.88-1.4,6.15-2.11,9.83-2.11,4.31,0,8.07,.96,11.29,2.89,3.22,1.93,5.6,4.48,7.14,7.65l-10.13,7.21c-.41-1.18-.94-2.15-1.6-2.92-.66-.77-1.37-1.38-2.14-1.84-.77-.45-1.59-.77-2.45-.95-.86-.18-1.66-.27-2.38-.27-1.68,0-3.12,.37-4.32,1.12-1.2,.75-2.2,1.72-2.99,2.92-.79,1.2-1.37,2.56-1.73,4.08-.36,1.52-.54,3.03-.54,4.52,0,1.68,.21,3.29,.65,4.83,.43,1.54,1.06,2.9,1.9,4.08,.84,1.18,1.86,2.12,3.06,2.82,1.2,.7,2.57,1.05,4.11,1.05,.77,0,1.56-.1,2.38-.31s1.6-.54,2.35-1.02c.75-.48,1.43-1.09,2.04-1.84,.61-.75,1.1-1.67,1.46-2.75l10.81,6.46c-.68,1.77-1.71,3.35-3.09,4.76-1.38,1.41-2.96,2.58-4.73,3.54-1.77,.95-3.65,1.68-5.64,2.18-2,.5-3.94,.75-5.85,.75-3.36,0-6.44-.71-9.25-2.14-2.81-1.43-5.23-3.32-7.24-5.68-2.02-2.36-3.59-5.03-4.73-8.02-1.13-2.99-1.7-6.03-1.7-9.11Z"/><path class="b" d="M78.86,75.5c-1.77,0-3.42-.29-4.96-.88-1.54-.59-2.87-1.39-3.98-2.41-1.11-1.02-1.98-2.23-2.62-3.64-.64-1.4-.95-2.92-.95-4.56,0-1.81,.38-3.47,1.16-4.96,.77-1.5,1.84-2.79,3.2-3.88s2.98-1.93,4.86-2.52c1.88-.59,3.95-.88,6.22-.88,2.9,0,5.3,.45,7.21,1.36v-1.09c0-1.68-.49-2.92-1.46-3.74-.98-.82-2.55-1.22-4.73-1.22-2.04,0-3.92,.33-5.64,.99-1.72,.66-3.54,1.62-5.44,2.89l-3.74-8.02c4.71-3.04,10.09-4.56,16.12-4.56,5.71,0,10.11,1.27,13.19,3.81,3.08,2.54,4.62,6.35,4.62,11.42v6.94c0,1.22,.23,2.07,.68,2.55,.45,.48,1.27,.76,2.45,.85v10.88c-1.18,.23-2.29,.4-3.33,.51-1.04,.11-1.97,.17-2.79,.17-2.31,0-4.07-.42-5.27-1.26-1.2-.84-1.98-2.07-2.35-3.71l-.27-1.29c-1.59,2.04-3.42,3.59-5.51,4.66-2.09,1.06-4.31,1.6-6.66,1.6Zm3.88-9.25c.77,0,1.56-.12,2.38-.37,.82-.25,1.54-.58,2.18-.99,.5-.36,.91-.76,1.22-1.19,.32-.43,.48-.87,.48-1.33v-2.65c-.77-.27-1.61-.5-2.52-.68-.91-.18-1.72-.27-2.45-.27-1.59,0-2.9,.39-3.94,1.16-1.04,.77-1.56,1.75-1.56,2.92,0,1,.4,1.81,1.19,2.45,.79,.63,1.8,.95,3.03,.95Z"/><path class="b" d="M133.67,50.07c-2.49,0-4.76,.27-6.8,.82-2.04,.54-3.56,1.45-4.56,2.72v21.22h-12.92V39.05h11.83v6.8c1.27-2.4,2.84-4.25,4.73-5.54,1.88-1.29,3.91-1.94,6.09-1.94,.86,0,1.4,.02,1.63,.07v11.63Z"/><path class="b" d="M155.02,75.5c-3.22,0-6.04-.51-8.47-1.53-2.43-1.02-4.47-2.38-6.12-4.08-1.66-1.7-2.9-3.67-3.74-5.92-.84-2.24-1.26-4.59-1.26-7.04s.42-4.79,1.26-7.04c.84-2.24,2.08-4.22,3.74-5.92,1.65-1.7,3.69-3.06,6.12-4.08,2.42-1.02,5.25-1.53,8.47-1.53s5.98,.51,8.43,1.53c2.45,1.02,4.5,2.38,6.15,4.08,1.65,1.7,2.9,3.67,3.74,5.92,.84,2.24,1.26,4.59,1.26,7.04s-.42,4.79-1.26,7.04c-.84,2.24-2.09,4.22-3.74,5.92-1.66,1.7-3.71,3.06-6.15,4.08-2.45,1.02-5.26,1.53-8.43,1.53Zm-6.32-18.56c0,2.4,.59,4.28,1.77,5.64,1.18,1.36,2.7,2.04,4.56,2.04s3.38-.68,4.56-2.04c1.18-1.36,1.77-3.24,1.77-5.64s-.59-4.28-1.77-5.64c-1.18-1.36-2.7-2.04-4.56-2.04s-3.38,.68-4.56,2.04c-1.18,1.36-1.77,3.24-1.77,5.64Z"/><path class="b" d="M178.96,25.18h12.92V59.72c0,2.72,1.11,4.08,3.33,4.08,.54,0,1.13-.09,1.77-.27,.63-.18,1.22-.43,1.77-.75l1.63,10.4c-1.54,.73-3.28,1.29-5.2,1.7-1.93,.41-3.75,.61-5.47,.61-3.45,0-6.1-.88-7.96-2.65-1.86-1.77-2.79-4.33-2.79-7.68V25.18Z"/><path class="b" d="M203.85,36.06v-10.88h12.92v10.88h-12.92Zm0,38.76V39.05h12.92v35.77h-12.92Z"/><path class="b" d="M259.27,74.82h-12.92v-20.13c0-1.77-.4-3.05-1.19-3.84-.79-.79-1.71-1.19-2.75-1.19s-2.24,.48-3.47,1.43c-1.22,.95-2.13,2.18-2.72,3.67v20.06h-12.92V39.05h11.63v5.3c1.27-1.95,3.05-3.43,5.34-4.45,2.29-1.02,5-1.53,8.13-1.53,2.45,0,4.39,.44,5.81,1.33,1.43,.88,2.52,1.98,3.26,3.3,.75,1.32,1.23,2.72,1.46,4.22,.23,1.5,.34,2.86,.34,4.08v23.53Z"/><path class="b" d="M283.13,75.5c-3.13,0-5.92-.49-8.36-1.46-2.45-.97-4.5-2.3-6.15-3.98-1.66-1.68-2.91-3.6-3.77-5.78-.86-2.18-1.29-4.46-1.29-6.87,0-2.58,.42-5.03,1.26-7.34,.84-2.31,2.08-4.33,3.74-6.05,1.65-1.72,3.69-3.09,6.12-4.11,2.42-1.02,5.25-1.53,8.47-1.53s5.98,.51,8.43,1.53c2.45,1.02,4.5,2.38,6.15,4.08,1.65,1.7,2.9,3.67,3.74,5.92,.84,2.24,1.26,4.59,1.26,7.04,0,.68-.03,1.37-.1,2.07s-.15,1.33-.24,1.87h-25.09c.14,1.9,.84,3.28,2.11,4.11,1.27,.84,2.65,1.26,4.15,1.26,1.4,0,2.73-.32,3.98-.95,1.25-.63,2.07-1.52,2.48-2.65l10.95,3.13c-1.45,2.86-3.68,5.19-6.7,7-3.02,1.81-6.72,2.72-11.12,2.72Zm5.71-22.37c-.23-1.72-.86-3.08-1.9-4.08-1.04-1-2.38-1.5-4.01-1.5s-2.97,.5-4.01,1.5c-1.04,1-1.68,2.36-1.9,4.08h11.83Z"/><path class="b" d="M352.42,42.32c-1.36-.82-2.77-1.54-4.22-2.18-1.22-.54-2.6-1.05-4.11-1.53-1.52-.48-3-.71-4.45-.71-1.18,0-2.12,.18-2.82,.54-.7,.36-1.05,.98-1.05,1.84,0,.64,.2,1.16,.61,1.56,.41,.41,1,.78,1.77,1.12,.77,.34,1.71,.67,2.82,.99,1.11,.32,2.37,.7,3.77,1.16,2.22,.68,4.23,1.43,6.02,2.24,1.79,.82,3.32,1.78,4.59,2.89,1.27,1.11,2.24,2.46,2.92,4.05,.68,1.59,1.02,3.51,1.02,5.78,0,2.9-.53,5.34-1.6,7.31-1.07,1.97-2.47,3.55-4.22,4.73-1.75,1.18-3.72,2.03-5.92,2.55-2.2,.52-4.41,.78-6.63,.78-1.77,0-3.58-.14-5.44-.41-1.86-.27-3.71-.66-5.54-1.16-1.84-.5-3.6-1.09-5.3-1.77-1.7-.68-3.28-1.45-4.73-2.31l5.71-11.63c1.59,1,3.24,1.88,4.96,2.65,1.45,.68,3.09,1.29,4.93,1.84,1.84,.54,3.71,.82,5.61,.82,1.45,0,2.46-.19,3.03-.58,.57-.38,.85-.9,.85-1.53,0-.68-.28-1.26-.85-1.73-.57-.48-1.35-.89-2.35-1.26-1-.36-2.14-.72-3.43-1.09-1.29-.36-2.66-.79-4.11-1.29-2.13-.72-3.97-1.51-5.51-2.35-1.54-.84-2.81-1.79-3.81-2.86-1-1.06-1.73-2.28-2.21-3.64-.48-1.36-.71-2.92-.71-4.69,0-2.67,.49-5.03,1.46-7.07,.97-2.04,2.3-3.74,3.98-5.1,1.68-1.36,3.59-2.39,5.75-3.09,2.15-.7,4.43-1.05,6.83-1.05,1.77,0,3.49,.17,5.17,.51,1.68,.34,3.3,.77,4.86,1.29,1.56,.52,3.03,1.09,4.39,1.7,1.36,.61,2.58,1.19,3.67,1.73l-5.71,10.95Z"/><path class="b" d="M388.26,72.85c-1.81,.77-3.75,1.42-5.81,1.94-2.06,.52-4.09,.78-6.09,.78-1.45,0-2.83-.18-4.15-.54-1.32-.36-2.46-.95-3.43-1.77-.98-.82-1.75-1.88-2.31-3.2-.57-1.31-.85-2.95-.85-4.9v-16.39h-4.42v-9.72h4.42v-11.22h12.92v11.22h7v9.72h-7v11.83c0,1.18,.25,2.01,.75,2.48,.5,.48,1.18,.71,2.04,.71,.63,0,1.36-.1,2.18-.31,.82-.2,1.63-.49,2.45-.85l2.31,10.2Z"/><path class="b" d="M409.2,75.5c-3.13,0-5.92-.49-8.37-1.46-2.45-.97-4.5-2.3-6.15-3.98-1.66-1.68-2.91-3.6-3.78-5.78s-1.29-4.46-1.29-6.87c0-2.58,.42-5.03,1.26-7.34,.84-2.31,2.08-4.33,3.74-6.05,1.65-1.72,3.69-3.09,6.12-4.11,2.43-1.02,5.25-1.53,8.47-1.53s5.98,.51,8.43,1.53c2.45,1.02,4.5,2.38,6.15,4.08,1.65,1.7,2.9,3.67,3.74,5.92,.84,2.24,1.26,4.59,1.26,7.04,0,.68-.04,1.37-.1,2.07-.07,.7-.15,1.33-.24,1.87h-25.09c.13,1.9,.84,3.28,2.11,4.11,1.27,.84,2.65,1.26,4.15,1.26,1.4,0,2.73-.32,3.98-.95,1.25-.63,2.07-1.52,2.48-2.65l10.95,3.13c-1.45,2.86-3.68,5.19-6.7,7-3.02,1.81-6.72,2.72-11.12,2.72Zm5.71-22.37c-.23-1.72-.86-3.08-1.9-4.08-1.04-1-2.38-1.5-4.01-1.5s-2.97,.5-4.01,1.5c-1.04,1-1.68,2.36-1.9,4.08h11.83Z"/><path class="b" d="M457.14,75.5c-2.58,0-4.83-.51-6.73-1.53-1.9-1.02-3.38-2.5-4.42-4.45v19.79h-12.92V39.05h11.22v5.37c1.27-1.95,2.83-3.44,4.69-4.49,1.86-1.04,4.15-1.56,6.87-1.56,2.36,0,4.56,.47,6.6,1.39,2.04,.93,3.79,2.21,5.24,3.84,1.45,1.63,2.59,3.58,3.43,5.85,.84,2.27,1.26,4.72,1.26,7.34s-.39,5.16-1.16,7.45c-.77,2.29-1.84,4.27-3.2,5.95-1.36,1.68-2.97,2.98-4.83,3.91-1.86,.93-3.88,1.39-6.05,1.39Zm-4.49-10.88c.95,0,1.82-.2,2.62-.61,.79-.41,1.47-.97,2.04-1.7,.57-.72,1.02-1.56,1.36-2.52s.51-1.97,.51-3.06c0-2.27-.65-4.08-1.94-5.44-1.29-1.36-3-2.04-5.13-2.04-2.4,0-4.44,1.22-6.12,3.67v6.19c.63,1.59,1.56,2.9,2.79,3.94,1.22,1.04,2.52,1.56,3.88,1.56Z"/><path class="b" d="M512.97,74.82h-12.92v-20.13c0-1.77-.4-3.05-1.19-3.84-.79-.79-1.78-1.19-2.96-1.19-.41,0-.9,.13-1.46,.37-.57,.25-1.13,.59-1.7,1.02-.57,.43-1.1,.96-1.6,1.6-.5,.64-.91,1.34-1.22,2.11v20.06h-12.92V25.18h12.92v19.18c1.27-1.95,2.92-3.43,4.96-4.45,2.04-1.02,4.33-1.53,6.87-1.53s4.49,.43,5.98,1.29c1.5,.86,2.63,1.94,3.4,3.23,.77,1.29,1.27,2.69,1.5,4.18,.23,1.5,.34,2.9,.34,4.22v23.53Z"/><path class="b" d="M536.84,75.5c-3.13,0-5.92-.49-8.36-1.46-2.45-.97-4.5-2.3-6.15-3.98-1.66-1.68-2.91-3.6-3.77-5.78-.86-2.18-1.29-4.46-1.29-6.87,0-2.58,.42-5.03,1.26-7.34,.84-2.31,2.08-4.33,3.74-6.05,1.65-1.72,3.69-3.09,6.12-4.11,2.42-1.02,5.25-1.53,8.47-1.53s5.98,.51,8.43,1.53c2.45,1.02,4.5,2.38,6.15,4.08,1.65,1.7,2.9,3.67,3.74,5.92,.84,2.24,1.26,4.59,1.26,7.04,0,.68-.03,1.37-.1,2.07-.07,.7-.15,1.33-.24,1.87h-25.09c.14,1.9,.84,3.28,2.11,4.11,1.27,.84,2.65,1.26,4.15,1.26,1.4,0,2.73-.32,3.98-.95s2.07-1.52,2.48-2.65l10.95,3.13c-1.45,2.86-3.68,5.19-6.7,7-3.02,1.81-6.72,2.72-11.12,2.72Zm5.71-22.37c-.23-1.72-.86-3.08-1.9-4.08-1.04-1-2.38-1.5-4.01-1.5s-2.97,.5-4.01,1.5c-1.04,1-1.68,2.36-1.9,4.08h11.83Z"/><path class="b" d="M596.68,74.82h-12.92v-20.13c0-1.77-.4-3.05-1.19-3.84-.79-.79-1.71-1.19-2.75-1.19s-2.24,.48-3.47,1.43c-1.22,.95-2.13,2.18-2.72,3.67v20.06h-12.92V39.05h11.63v5.3c1.27-1.95,3.05-3.43,5.34-4.45,2.29-1.02,5-1.53,8.13-1.53,2.45,0,4.39,.44,5.81,1.33s2.52,1.98,3.26,3.3c.75,1.32,1.24,2.72,1.46,4.22,.23,1.5,.34,2.86,.34,4.08v23.53Z"/><path class="b" d="M618.84,75.5c-1.5,0-3.11-.11-4.83-.34-1.72-.23-3.41-.52-5.07-.88-1.66-.36-3.25-.8-4.79-1.33-1.54-.52-2.88-1.1-4.01-1.73l4.96-8.77c2.49,1.32,4.87,2.31,7.14,2.99,2.27,.68,4.37,1.02,6.32,1.02,2.27,0,3.4-.57,3.4-1.7,0-.59-.45-1.11-1.36-1.56-.91-.45-2.63-1-5.17-1.63-2.54-.68-4.67-1.36-6.39-2.04-1.72-.68-3.11-1.44-4.15-2.28-1.04-.84-1.79-1.77-2.24-2.79-.45-1.02-.68-2.21-.68-3.57,0-1.81,.37-3.49,1.12-5.03s1.8-2.88,3.16-4.01c1.36-1.13,2.98-2.01,4.86-2.62,1.88-.61,3.93-.92,6.15-.92,2.4,0,4.97,.34,7.72,1.02,2.74,.68,5.54,1.68,8.4,2.99l-4.96,8.23c-2.54-1.18-4.65-2.03-6.32-2.55-1.68-.52-3.29-.78-4.83-.78-1,0-1.8,.15-2.41,.44-.61,.29-.92,.76-.92,1.39,0,.36,.09,.67,.27,.92,.18,.25,.5,.49,.95,.71s1.08,.46,1.87,.71c.79,.25,1.78,.51,2.96,.78,2.72,.68,5.01,1.39,6.87,2.14,1.86,.75,3.34,1.56,4.45,2.45,1.11,.88,1.9,1.88,2.38,2.99,.48,1.11,.71,2.39,.71,3.84,0,3.67-1.39,6.57-4.18,8.7-2.79,2.13-6.59,3.2-11.39,3.2Z"/><path class="b" d="M656.38,75.5c-3.22,0-6.04-.51-8.47-1.53-2.43-1.02-4.47-2.38-6.12-4.08-1.66-1.7-2.9-3.67-3.74-5.92s-1.26-4.59-1.26-7.04,.42-4.79,1.26-7.04,2.08-4.22,3.74-5.92c1.65-1.7,3.69-3.06,6.12-4.08,2.42-1.02,5.25-1.53,8.47-1.53s5.98,.51,8.43,1.53c2.45,1.02,4.5,2.38,6.15,4.08,1.65,1.7,2.9,3.67,3.74,5.92,.84,2.24,1.26,4.59,1.26,7.04s-.42,4.79-1.26,7.04c-.84,2.24-2.09,4.22-3.74,5.92-1.66,1.7-3.71,3.06-6.15,4.08-2.45,1.02-5.26,1.53-8.43,1.53Zm-6.32-18.56c0,2.4,.59,4.28,1.77,5.64,1.18,1.36,2.7,2.04,4.56,2.04s3.38-.68,4.56-2.04c1.18-1.36,1.77-3.24,1.77-5.64s-.59-4.28-1.77-5.64c-1.18-1.36-2.7-2.04-4.56-2.04s-3.38,.68-4.56,2.04c-1.18,1.36-1.77,3.24-1.77,5.64Z"/><path class="b" d="M716.49,74.82h-12.92v-20.13c0-1.77-.4-3.05-1.19-3.84-.79-.79-1.71-1.19-2.75-1.19s-2.24,.48-3.47,1.43c-1.22,.95-2.13,2.18-2.72,3.67v20.06h-12.92V39.05h11.63v5.3c1.27-1.95,3.05-3.43,5.34-4.45,2.29-1.02,5-1.53,8.13-1.53,2.45,0,4.39,.44,5.81,1.33s2.52,1.98,3.26,3.3c.75,1.32,1.24,2.72,1.46,4.22,.23,1.5,.34,2.86,.34,4.08v23.53Z"/></svg>