<?xml version="1.0" encoding="UTF-8"?><svg id="a" xmlns="http://www.w3.org/2000/svg" viewBox="0 0 430 430"><defs><style>.b{fill:#f4e6ea;}.c{fill:#fff;}.d{font-family:Archistico-Bold, Archistico;font-size:77.24px;}.e{fill:#e23f5f;font-family:CCSignLanguage-Regular, CCSignLanguage;font-size:160px;letter-spacing:.1em;}</style></defs><path class="c" d="M215.17,109.48c63.14,0,114.5,48.45,114.5,108s-51.36,108-114.5,108-114.5-48.45-114.5-108,51.37-108,114.5-108m0-11c-69.31,0-125.5,53.28-125.5,119s56.19,119,125.5,119,125.5-53.28,125.5-119-56.18-119-125.5-119h0Z"/><circle class="b" cx="215" cy="216" r="200"/><text class="d" transform="translate(107.11 344.2) rotate(29.73) scale(.97 1) skewX(-.97)"><tspan x="0" y="0">h</tspan></text><text class="d" transform="translate(164.39 373.21) rotate(11.57) scale(.97 1) skewX(-.51)"><tspan x="0" y="0">t</tspan></text><text class="d" transform="translate(211.88 384.15) rotate(-11.43) scale(.97 1) skewX(.57)"><tspan x="0" y="0">m</tspan></text><text class="d" transform="translate(298.34 358.87) rotate(-33.76) scale(.97 1) skewX(1.08)"><tspan x="0" y="0">l</tspan></text><text class="e" transform="translate(101 250.9)"><tspan x="0" y="0">&lt;/&gt;</tspan></text></svg>