<?xml version="1.0" encoding="UTF-8"?><svg id="a" xmlns="http://www.w3.org/2000/svg" viewBox="0 0 404.57 404.57"><defs><style>.b{font-family:Impact, Impact;font-size:70px;}.b,.c{fill:#fff;}.d{fill:#b2e065;}.c{font-family:HelveticaNeue-CondensedBold, Helvetica Neue;font-size:130px;letter-spacing:.1em;}.e{fill:#16ba55;stroke:#fff;stroke-miterlimit:10;stroke-width:4.57px;}</style></defs><circle class="e" cx="202.29" cy="202.29" r="200"/><text class="b" transform="translate(50.8 299.36) rotate(52.81) scale(.97 1)"><tspan x="0" y="0">J</tspan></text><text class="b" transform="translate(69.14 323.22) rotate(41.38) scale(.97 1)"><tspan x="0" y="0">a</tspan></text><text class="b" transform="translate(101.65 350.31) rotate(28.72) scale(.97 1) skewX(.01)"><tspan x="0" y="0">v</tspan></text><text class="b" transform="translate(135.13 367.9) rotate(16.08) scale(.97 1) skewX(.02)"><tspan x="0" y="0">a</tspan></text><text class="b" transform="translate(176.2 378.61) rotate(3.17) scale(.97 1) skewX(.02)"><tspan x="0" y="0">s</tspan></text><text class="b" transform="translate(216.28 380.03) rotate(-9.49) scale(.97 1) skewX(.02)"><tspan x="0" y="0">c</tspan></text><text class="b" transform="translate(256.58 372.05) rotate(-20.98) scale(.97 1) skewX(.01)"><tspan x="0" y="0">r</tspan></text><text class="b" transform="translate(284.8 360.48) rotate(-29.73) scale(.97 1)"><tspan x="0" y="0">i</tspan></text><text class="b" transform="translate(307.33 347.72) rotate(-40.53) scale(.97 1)"><tspan x="0" y="0">p</tspan></text><text class="b" transform="translate(338.76 318.95) rotate(-51.81) scale(.97 1)"><tspan x="0" y="0">t</tspan></text><text class="b" transform="translate(354.39 298.12) rotate(-58.82) scale(.97 1)"><tspan x="0" y="0"> </tspan></text><circle class="d" cx="202.29" cy="202.29" r="115"/><text class="c" transform="translate(132.74 237.17)"><tspan x="0" y="0">{;}</tspan></text></svg>