<?xml version="1.0" encoding="UTF-8"?><svg id="a" xmlns="http://www.w3.org/2000/svg" viewBox="0 0 430 430"><defs><style>.b{fill:none;stroke:#61dbfb;stroke-miterlimit:10;stroke-width:11.67px;}.c{fill:#f4ffff;}.d{fill:#61dbfb;}.e{font-family:Archistico-Bold, Archistico;font-size:73.3px;}</style></defs><circle class="c" cx="215" cy="215" r="200"/><text class="e" transform="translate(97.53 334.59) rotate(33.25) scale(.97 1) skewX(-1.04)"><tspan x="0" y="0">R</tspan></text><text class="e" transform="translate(160.3 370.79) rotate(11.94) scale(.97 1) skewX(-.53)"><tspan x="0" y="0">e</tspan></text><text class="e" transform="translate(210.48 379.75) rotate(-5.26) scale(.97 1) skewX(.33)"><tspan x="0" y="0">a</tspan></text><text class="e" transform="translate(262.21 373.01) rotate(-22.43) scale(.97 1) skewX(.85)"><tspan x="0" y="0">c</tspan></text><text class="e" transform="translate(305.93 352.86) rotate(-37.7) scale(.97 1) skewX(1.14)"><tspan x="0" y="0">t</tspan></text><text class="e" transform="translate(335.93 327.73) rotate(-48.94) scale(.97 1) skewX(1.21)"><tspan x="0" y="0"> </tspan></text><ellipse class="b" cx="215" cy="184" rx="99.67" ry="34.66" transform="translate(-54.55 270.16) rotate(-58.28)"/><ellipse class="b" cx="215" cy="184" rx="103.69" ry="33.32"/><ellipse class="b" cx="215" cy="184" rx="34.52" ry="100.07" transform="translate(-67.26 163.75) rotate(-36.45)"/><ellipse class="d" cx="215" cy="184" rx="13.91" ry="13.66"/></svg>