<?xml version="1.0" encoding="UTF-8"?><svg id="a" xmlns="http://www.w3.org/2000/svg" viewBox="0 0 430 430"><defs><style>.b{fill:none;stroke:#61dbfb;stroke-miterlimit:10;stroke-width:11.67px;}.c{fill:#f4ffff;}.d{fill:#61dbfb;}</style></defs><circle class="c" cx="215" cy="215" r="200"/><g><path d="M130.41,356.36c-.23-.24-.33-.47-.31-.72-.04-.03-.06-.07-.08-.13-.06-.07-.1-.21-.1-.41-.25-.17-.49-.31-.71-.44-.22-.13-.44-.25-.67-.37l-.06-.04c-.06-.04-.1-.05-.14-.05-.07-.1-.09-.19-.05-.27,.04-.08,.11-.11,.21-.1,.4,.15,.86,.36,1.37,.64-.02-.42-.03-.83-.02-1.23,.01-.41,.02-.71,.01-.91-.05-1.03-.15-2.05-.31-3.05-.16-1-.25-2.01-.28-3.03-.02-.95,.06-1.9,.23-2.82s.25-1.87,.23-2.83c-.01-.92-.04-1.83-.06-2.74-.03-.9-.09-1.81-.19-2.73l-.03,.23c-.03,.12-.09,.18-.17,.16s-.14-.07-.16-.17c.04-.63,.01-1.39-.08-2.28s-.17-1.8-.24-2.72c-.06-.32-.11-.65-.15-.98-.04-.33-.08-.66-.1-.99-.47,.77-.93,1.56-1.39,2.34-.45,.79-.93,1.56-1.44,2.31-.63,.93-1.27,1.84-1.91,2.75-.64,.9-1.22,1.86-1.74,2.86-.26,.51-.48,1.06-.63,1.64-.16,.58-.23,1.16-.22,1.74,0,.58,.13,1.12,.35,1.64,.22,.52,.58,.95,1.06,1.3,.22,0,.4,.05,.54,.14,.06-.05,.11-.09,.14-.14,.03-.05,.08-.1,.14-.14,.07-.1,.14-.12,.23-.06,.09,.06,.12,.15,.09,.27l-.32,.47c.05,.09,.04,.24-.02,.46l-.08,.12c-.06,.05-.11,.1-.14,.14-.03,.05-.08,.08-.15,.09,.25,.37,.44,.73,.55,1.09,.07,.1,.05,.18-.06,.24-.11,.06-.19,.02-.25-.1-.14-.21-.25-.35-.33-.43-.11,.13-.23,.15-.34,.08l-.09-.06c-.16,.24-.34,.5-.55,.77-.21,.28-.41,.58-.63,.89,.33,.25,.65,.51,.96,.78,.3,.27,.56,.59,.76,.95,.07,.1,.06,.18-.02,.22-.09,.04-.18,.03-.27-.03-.14-.21-.32-.36-.54-.46-.22-.1-.44-.23-.65-.36l-.75-.49s-.04,.03-.07,.04c0,.05,0,.09,0,.13l-.04,.06c-.05,.08-.12,.11-.19,.09-.16,.24-.33,.47-.5,.7-.17,.23-.32,.48-.44,.74-.07,.1-.15,.12-.25,.05-.1-.06-.11-.14-.04-.24,.12-.26,.25-.52,.4-.77,.14-.25,.28-.5,.43-.75l-.04-.07-.12-.08c-2.41-1.58-4.86-3.11-7.33-4.57-2.48-1.47-4.88-3.05-7.21-4.75-.53-.41-1.06-.81-1.57-1.2-.51-.39-1.07-.74-1.67-1.05-.28-.13-.56-.22-.84-.27-.28-.06-.57-.15-.87-.29-.37-.24-.71-.51-1.04-.81l-.04,.06s-.12,.05-.22,.07h-.05c-.07,.02-.15,.03-.25,.02-.05,0-.1-.02-.14-.05-.08-.05-.12-.11-.13-.17-.23,.3-.46,.59-.67,.87-.21,.27-.38,.41-.5,.42-.14,0-.2-.06-.2-.17,0-.11,.07-.17,.18-.18l.15-.41c.08-.2,.23-.45,.44-.74,.21-.29,.39-.54,.54-.76-.01-.06-.01-.12,0-.18-.14-.12-.27-.23-.39-.34-.12-.11-.26-.19-.43-.24-.1-.06-.13-.13-.1-.22,.03-.08,.11-.12,.25-.12,.16,.02,.32,.05,.5,.09,.18,.05,.37,.11,.57,.18,.09-.05,.17-.08,.22-.07,.2-.3,.41-.59,.62-.88,.21-.29,.43-.58,.65-.86-.21-.02-.41-.05-.62-.08-.2-.03-.41-.06-.61-.08-.08-.05-.12-.12-.11-.2,0-.08,.06-.13,.18-.14,.25-.04,.5-.06,.75-.06,.25,0,.51,0,.77,.04,.23-.3,.46-.6,.68-.88,.22-.28,.46-.57,.71-.86,.12-.09,.23-.12,.33-.08s.15,.12,.14,.26c-.08,.15-.12,.24-.12,.26,0,.03-.02,.05-.04,.08-.02,.03-.08,.1-.17,.21-.09,.11-.26,.33-.51,.65,.21,.02,.42,.1,.64,.23,.22,.13,.42,.26,.62,.38h.05c.46,.21,.96,.42,1.47,.63,.51,.21,1.02,.34,1.53,.4s.99,0,1.46-.15c.47-.16,.91-.51,1.3-1.05,.25-.32,.48-.64,.69-.96,.21-.31,.44-.64,.67-.98,.33-.44,.64-.89,.93-1.34,.29-.45,.59-.9,.9-1.36,.25-.37,.57-.85,.95-1.43,.38-.58,.77-1.17,1.16-1.79,.39-.61,.77-1.21,1.15-1.77s.68-1.05,.91-1.43c.58-.9,1.17-1.8,1.77-2.69,.59-.89,1.17-1.8,1.74-2.71,.03-.04,.04-.08,.06-.11,0-.04,.03-.07,.05-.11l.87-1.27c1-1.43,1.98-2.86,2.95-4.29,.96-1.44,1.87-2.92,2.71-4.45,.36-.65,.66-1.21,.91-1.67,.25-.47,.43-.9,.55-1.31,.12-.41,.17-.81,.14-1.22-.03-.41-.14-.88-.32-1.43-.12-.19-.26-.38-.41-.57-.34-.36-.79-.82-1.37-1.37-.14-.09-.25-.18-.36-.28-.14-.04-.27-.08-.39-.13-.12-.05-.24-.09-.36-.11-.06,.05-.1,.06-.12,.05-.27,.31-.53,.63-.78,.96-.25,.33-.51,.66-.75,.98-.08,.03-.16,.03-.24,0-.08-.04-.09-.11-.03-.21,.43-.72,.92-1.43,1.45-2.13-.25-.37-.23-.67,.09-.93-.21-.11-.39-.21-.54-.31-.16-.1-.29-.19-.41-.27-.1-.06-.11-.13-.05-.2,.06-.07,.14-.11,.22-.11,.2,.07,.42,.17,.66,.29,.24,.12,.5,.24,.78,.36l.75-1.09c-.24-.22-.46-.39-.64-.53-.19-.14-.34-.26-.46-.37-.06-.04-.08-.11-.06-.21-.1-.06-.2-.13-.3-.2-.11-.07-.2-.15-.28-.23l-.06-.04s-.03-.04-.04-.07c-.02-.1,.02-.17,.11-.23h.05c.07-.03,.12-.02,.16,0l.12,.08c.25,.13,.51,.28,.81,.44s.61,.34,.95,.54c.14-.33,.42-.47,.82-.4,.01-.02,.03-.02,.05-.01,.25-.37,.55-.75,.89-1.13,.07-.1,.14-.11,.23-.04,.09,.07,.1,.16,.04,.26l-.71,1.04s.08,.08,.13,.17c.38,.22,.89,.53,1.53,.92,.64,.39,1.26,.78,1.86,1.18,.6,.39,1.33,.87,2.2,1.44,.52,.34,1.04,.68,1.56,1.02,.52,.34,1.03,.69,1.51,1.04,1.69,1.13,3.35,2.27,5.01,3.41,1.65,1.14,3.31,2.29,4.99,3.44h.05s.03,.03,.04,.06l1.13,.74c.55,.39,1.1,.77,1.67,1.14,.57,.37,1.13,.74,1.69,1.11,.48,.32,1,.58,1.54,.78,.55,.2,1.05,.47,1.52,.81,.17,.11,.3,.23,.38,.36,.08,.12,.16,.27,.25,.44,.08,.13,.22,.32,.44,.55,.22,.23,.46,.47,.73,.71,.27,.25,.55,.48,.84,.7,.29,.22,.55,.4,.76,.54,.02,.01,.04,.02,.07,.02,.03,0,.05,0,.07,.02l.04,.07s.07,.04,.08,.03c.02,0,.04,0,.08,.03,.38,.1,.57,.31,.57,.63,.22,.21,.4,.38,.53,.52,.13,.14,.25,.3,.37,.48s.24,.4,.36,.67c.12,.27,.3,.65,.52,1.14,.27,.55,.47,1.21,.61,2,.13,.79,.2,1.62,.18,2.5,.02,.58-.01,1.16-.09,1.74-.02,.24-.06,.47-.09,.69-.04,.22-.08,.44-.12,.67,.31-.45,.61-.89,.9-1.32,.29-.42,.6-.86,.92-1.3,.07-.1,.14-.12,.22-.07,.08,.05,.1,.14,.07,.26-.38,.64-.8,1.36-1.28,2.16-.48,.8-.98,1.65-1.51,2.56-.17,.46-.38,.88-.62,1.28-.24,.4-.52,.74-.82,1.02-.73,1.15-1.49,2.23-2.28,3.23-.8,1-1.58,1.81-2.36,2.41-.12,.06-.21,.06-.27,0-.05-.06-.05-.14,.02-.24,.58-.53,1.12-1.14,1.62-1.83,.5-.69,.96-1.39,1.39-2.1-.55,.35-1.13,.71-1.76,1.07-.62,.36-1.25,.68-1.88,.97-.63,.29-1.26,.53-1.9,.72-.64,.2-1.23,.31-1.79,.35-.4,.02-.8-.02-1.18-.11-.38-.09-.78-.13-1.18-.11-.7,0-1.4,0-2.1,.01-.7,0-1.4-.08-2.08-.27,0,.14-.01,.27-.02,.39,0,.13-.02,.25-.05,.38,.05,.26,.09,.51,.13,.77,.04,.25,.09,.51,.16,.79,.01,.07,0,.12-.06,.18-.05,.05-.11,.05-.19,0l-.06-.04c-.1-.06-.12-.13-.06-.21-.01-.07-.03-.11-.05-.14-.02-.03-.04-.08-.05-.14-.02,.07-.03,.19-.04,.36,.25,1.85,.49,3.99,.73,6.43,.32,4.04,.59,7.11,.8,9.21,.19,.95,.4,1.87,.63,2.77s.5,1.77,.81,2.63c.26,.68,.55,1.38,.87,2.07,.32,.7,.69,1.33,1.1,1.92,.15,.19,.35,.36,.59,.52s.42,.35,.55,.58l1.18-1.54s.03-.03,.04-.04c.02,0,.03-.01,.04-.03,.03,0,.06,0,.08,0,.01-.02,.03-.02,.05-.01,.03,0,.07,0,.11,.03,.02,.01,.03,.03,.03,.04,0,.02,.01,.03,.03,.04,.01,.07,.01,.11,0,.13-.01,.02-.02,.05-.01,.08l-.04,.06c-.24,.39-.47,.76-.7,1.12-.23,.36-.47,.72-.71,1.07,.17,.2,.31,.39,.42,.58,.11,.19,.19,.39,.23,.62,.07,.1,.05,.18-.06,.24-.11,.06-.19,.02-.25-.1-.13-.26-.37-.52-.71-.8l-.04,.06,.03,.02c.04,.11,.04,.2,0,.25-.04,.06-.13,.1-.26,.13h-.05l-.72,1.07c.07,.1,.08,.21,.03,.32,.13,.09,.28,.18,.43,.28,.16,.1,.33,.2,.51,.29,.01-.02,.05-.01,.11,.03l.09,.06c.07,.1,.08,.19,.04,.26-.05,.07-.13,.09-.26,.07-.26-.11-.51-.21-.74-.29-.24-.08-.48-.18-.74-.29l-1.15,1.69s-.02,.04-.02,.05c0,.02,0,.04-.04,.08-.04,.06-.08,.09-.11,.1-.11,.07-.19,.08-.26,.02-.07-.06-.07-.14,0-.24,.15-.47,.32-.9,.5-1.29-.05,0-.09-.02-.11-.03-.02-.01-.05-.02-.08,0-.37-.24-.73-.51-1.08-.81-.35-.3-.65-.64-.91-1-1.96-1.39-3.93-2.74-5.94-4.04-2-1.3-4.02-2.61-6.05-3.94,0,.25,0,.5,0,.75,0,.24,.03,.49,.07,.75l.02,.1-.02,.03s.02,.03,0,.05c-.04,.09-.08,.14-.15,.16-.07,.01-.13-.03-.2-.13-.08-.37-.15-.73-.19-1.07-.04-.34-.08-.68-.11-1.01l-.38-.25Zm-29.27-22.27l-.79,1.15c.16,.13,.33,.25,.51,.36,.18,.1,.36,.2,.55,.3-.09-.52-.18-1.03-.25-1.54l-.02-.27Zm2.65,1.52c-.07-.5-.15-.97-.23-1.39-.24-.1-.46-.2-.65-.3-.2-.1-.32-.17-.38-.21-.1-.06-.2-.12-.31-.18s-.22-.12-.31-.18c-.05,.03-.15,.06-.31,.09l-.2,.3,.17,.92c.11,.78,.17,1.24,.2,1.37l-.02,.03c.35,.18,.72,.34,1.08,.5,.37,.16,.72,.33,1.07,.53-.04-.4-.07-.88-.09-1.47Zm2.12-.71c-.11-.04-.22-.09-.32-.15-.1-.05-.22-.09-.34-.12-.11,.07-.29,.07-.54,0-.25-.08-.53-.18-.84-.3,.11,.45,.19,.94,.21,1.47,.03,.62,.06,1.11,.09,1.47l.2,.13c.3,.22,.59,.43,.89,.63,.3,.2,.61,.41,.92,.65,.02-1.3,0-2.15-.06-2.56-.05-.29-.12-.67-.18-1.15l-.04-.07Zm2.25,1.74c-.1-.75-.21-1.41-.33-1.97-.34,.17-.69,.29-1.03,.35-.13,.03-.25,.03-.34,.01-.1-.02-.21-.04-.33-.07,.28,2.01,.38,3.3,.29,3.87,.33,.21,.65,.43,.96,.65,.31,.22,.63,.44,.96,.65-.16-.99-.25-2.12-.25-3.38,0-.03,0-.06,.01-.08s.04-.03,.07-.04Zm1.7-.77c-.23-1.06-.38-1.82-.46-2.27-.41,.39-.85,.71-1.33,.97,.22,.91,.36,2.18,.43,3.79l-.02,.03,.09,.49c.07,.59,.13,1.1,.17,1.53l2.2,1.44c-.17-1.39-.53-3.39-1.08-5.97Zm2.32,.84c-.45-2.12-.77-3.91-.95-5.37-.23,.34-.47,.67-.72,1-.25,.33-.52,.65-.78,.96,.1,.67,.3,1.69,.58,3.08,.52,2.88,.85,4.78,.98,5.69,.27,.18,.55,.36,.85,.54,.3,.18,.59,.36,.88,.55,.03,0,.07,0,.11,.03,.1,.06,.2,.12,.31,.16-.17-1.14-.59-3.35-1.26-6.64Zm1.22-5.49c-.17-1.06-.31-1.88-.42-2.46l-1.47,2.16c.02,.1,.04,.24,.05,.42l.08,.44c.17,1.06,.27,1.65,.3,1.78,.13,.71,.34,1.79,.64,3.24,.64,2.96,1.04,5.12,1.2,6.48,.01,.06,0,.12-.02,.16l-.07,.04c.69,.34,1.24,.62,1.66,.83-.11-.87-.23-2.09-.36-3.66-.14-1.35-.38-2.88-.73-4.59-.1-.43-.38-2.05-.85-4.84Zm1.24-3.17c-.1-.67-.18-1.15-.23-1.44-.23,.34-.44,.65-.65,.95s-.37,.56-.49,.79l-.08,.12c.11,.53,.27,1.33,.46,2.4,.55,3.13,.86,4.83,.92,5.1,.25,1.11,.48,2.68,.68,4.72,.15,1.58,.29,2.85,.43,3.79,.1,.06,.19,.11,.28,.14,.74,.4,1.37,.77,1.91,1.12l.09,.06c-.15-2.41-.76-5.91-1.85-10.5-.61-2.63-1.02-4.56-1.23-5.81-.08-.34-.16-.82-.24-1.44Zm2.62,.82c-.55-2.02-.88-3.73-.98-5.14-.27,.4-.55,.81-.83,1.25-.29,.44-.55,.86-.8,1.27l.04,.24c.04,.14,.08,.38,.1,.71,.04,.31,.07,.55,.1,.71,.23,1.35,.39,2.27,.5,2.77,.14,.66,.33,1.54,.58,2.65,.32,1.41,.53,2.32,.62,2.72,1,4.51,1.55,7.82,1.65,9.94l.33,.26s.58,.52,1.62,1.49l.12,.08c.03-.09,.08-.17,.12-.24s.09-.15,.12-.24c-.1-.55-.22-1.15-.38-1.79-.41-1.69-.66-2.86-.76-3.49-.16-.87-.3-2.05-.44-3.54-.15-1.78-.27-2.97-.34-3.56-.14-1.06-.6-3.09-1.38-6.09Zm.79-6.63c-.05-.38-.1-.71-.16-1l-.44,.65c-.15,.22-.3,.45-.46,.7-.16,.25-.34,.53-.54,.82,.25,1.68,.65,3.52,1.18,5.52,.8,3.01,1.24,5.08,1.33,6.22,.37,3.89,.63,6.26,.81,7.12,0,.12,.04,.29,.1,.53-.07-.39-.09-.79-.06-1.2-.03-.28-.05-.58-.06-.9,0-.05,0-.09,0-.13-.05-.09-.03-.2,.07-.34l.28-.41c.02-.1,.04-.19,.08-.25,.17-.54,.42-1.11,.74-1.7-.05-.46-.08-.98-.11-1.57l-.13-2.39c-.17-1.59-.47-3.09-.89-4.48-.86-2.79-1.33-4.42-1.4-4.9-.09-.52-.21-1.29-.34-2.32Zm1.95,.08c-.2-1.39-.39-2.55-.56-3.49-.21,.35-.43,.69-.66,1.02s-.46,.67-.68,1.01l.26,1.46c.16,1.16,.29,1.97,.39,2.44,.14,.66,.36,1.48,.67,2.45,.44,1.4,.69,2.22,.75,2.46,.52,1.85,.87,4.38,1.04,7.57,.19-.36,.39-.69,.6-1,.21-.31,.42-.62,.63-.93-.15-1.58-.37-2.92-.65-4.02-.67-2.55-1.02-3.95-1.07-4.21-.18-.92-.43-2.51-.74-4.76Zm2.28,9.45c.29,1.3,.45,2.33,.48,3.1,.21-.31,.43-.62,.63-.93,.21-.31,.42-.6,.64-.88-.29-3.1-.74-5.95-1.34-8.54-.92-3.86-1.55-6.46-1.88-7.82-.18,.31-.38,.61-.58,.91-.2,.3-.4,.61-.6,.94,.26,1.06,.5,2.34,.73,3.86,.31,2.49,.56,4.12,.73,4.89,.12,.56,.31,1.31,.56,2.25,.3,1.11,.51,1.86,.61,2.24Zm-.78,14.12c-.68-.56-1.15-1.3-1.42-2.21,.13,.51,.29,1.16,.48,1.94,.12,.45,.21,.86,.28,1.25l.67-.98Zm2.93-24.91c-1.01-3.11-1.63-5.4-1.86-6.87-.13,.15-.25,.3-.36,.47-.11,.17-.23,.33-.33,.49-.15,.22-.29,.43-.42,.62-.13,.2-.27,.41-.39,.64,1.34,5.61,2.02,8.41,2.03,8.39,.72,3.24,1.14,5.87,1.25,7.88l.2-.3c.51-.75,1-1.53,1.46-2.33-.28-3.44-.81-6.44-1.58-9Zm0-8.05c-.12-.45-.18-.82-.2-1.12-.24,.36-.48,.69-.71,1.01-.23,.32-.47,.64-.72,.96,.26,1.42,.93,3.89,2,7.39,.71,2.44,1.2,5.22,1.46,8.36,.22-.37,.44-.74,.67-1.1,.22-.37,.44-.73,.67-1.1-.18-1.54-.45-3.07-.81-4.59-.1-.38-.37-1.27-.79-2.66-.32-1.09-.55-1.98-.69-2.68-.08-.42-.22-1.17-.43-2.25-.19-.95-.34-1.69-.45-2.22Zm3.94,13.28c.16-.15,.31-.24,.47-.25,.18-.14,.38-.18,.59-.13l-.15-1.13c-.07,.01-.1-.02-.1-.11-.1-.06-.09-.19,0-.38-.08-.42-.14-.83-.2-1.24-.16-.13-.32-.26-.48-.38-.16-.12-.3-.25-.43-.39l-.06-.04c-.07-.1-.07-.2,.01-.29,.08-.09,.17-.1,.29-.02l.52,.34c-.42-2.42-.74-4.11-.94-5.07-.18-.72-.56-2.06-1.14-4.04-.43-1.42-.77-2.6-1.02-3.54-.2,.33-.4,.65-.62,.97-.22,.31-.43,.63-.65,.95l.12,.68c.22,1.03,.32,1.55,.31,1.57,.1,.47,.25,1.21,.45,2.22,.16,.99,.31,1.74,.43,2.25,.14,.58,.39,1.42,.74,2.54,.33,1.11,.57,1.95,.71,2.52,.27,1.24,.48,2.47,.62,3.7l.5-.74Zm-.41-17.17c-.27-1.32-.39-2.22-.34-2.7-.27,.48-.54,.95-.8,1.42-.26,.47-.55,.95-.85,1.43,.06,.16,.14,.41,.24,.76,.13,.46,.3,1.1,.5,1.91,.14,.61,.39,1.48,.73,2.62,.36,1.15,.61,2.01,.75,2.59,.08,.42,.43,2.21,1.08,5.37l.78,.51c.09-.14,.18-.24,.25-.31-.16-.96-.27-2.17-.33-3.64-.13-2.11-.33-3.67-.62-4.69-.81-2.96-1.27-4.71-1.39-5.28Zm-1.67-12.43c.26,.11,.49,.23,.71,.34,.22,.11,.43,.24,.64,.38-.14-.58-.23-1.01-.29-1.3,0-.03,0-.06,.01-.08l-.43-.29-.64,.95Zm4.25,15.46c.75,4.03,1.17,6.83,1.27,8.41,.12-.18,.25-.36,.39-.54,.14-.18,.27-.37,.41-.57,.19-.28,.36-.54,.52-.79,.16-.25,.33-.52,.52-.79-.04-.03-.04-.07,0-.13,.09-1-.11-2.5-.61-4.51-.67-2.55-1.05-4.1-1.15-4.65-1.14-5.91-1.83-9.43-2.07-10.55-.04-.11-.06-.18-.06-.21-.02-.04-.02-.09,0-.13l.02-.03-.4-.27c-.64-.42-1.22-.81-1.75-1.19l-.09-.06c.13,.51,.24,.98,.33,1.42,.46,.3,.75,.66,.86,1.08,.06,.36,.22,.71,.46,1.05,.24,.34,.35,.72,.32,1.13-.01,.3-.05,.62-.12,.95-.07,.33-.15,.66-.24,1h.05v.04c.19,2.43,.64,5.55,1.35,9.35Zm-.35-.23c-.7-3.6-1.09-6.45-1.17-8.55-.11,.36-.25,.73-.43,1.13-.18,.34-.34,.67-.51,.99-.05,.11-.09,.21-.13,.28-.04,.08-.08,.17-.13,.28l.1-.02c.06,.04,.08,.09,.05,.17-.12,.26-.09,.91,.1,1.95,.12,.76,.27,1.47,.44,2.13,.13,.46,.37,1.27,.69,2.42,.29,1.05,.51,1.88,.65,2.48,.22,.91,.37,2.34,.47,4.29,.05,1.12,.13,2.07,.24,2.85,.16-.24,.32-.46,.49-.69,.16-.22,.33-.45,.49-.69-.04-.43-.12-1.12-.22-2.07-.09-.97-.19-1.75-.29-2.33-.09-.57-.37-2.11-.84-4.61Zm-.73,11.89l.18-.27-.26-.17,.08,.44Zm.75,.37c-.12-.08-.14-.18-.08-.31l-.17-.11c-.19,.19-.32,.39-.4,.59,.12,.76,.22,1.44,.29,2.03,.03,.04,.05,.13,.07,.26l-.02,.03c.12,.88,.19,1.55,.18,2,0,.03,0,.06-.01,.08h-.05c.68,3.77,1.05,7.5,1.12,11.23,.17,.94,.38,2.22,.65,3.85,.33,2.01,.6,3.59,.81,4.72,.63,3.67,1.09,6.51,1.39,8.53l.15,.09c.48,.29,1.35,.8,2.63,1.55,.01-1.05-.21-2.38-.67-3.99-.43-1.34-.78-2.68-1.06-4.04-1.09-5.28-1.77-8.42-2.04-9.42-.51-2.04-.84-4.81-1-8.31-.13-3.08-.44-5.57-.92-7.45-.22-.2-.42-.42-.57-.63-.16-.22-.24-.44-.25-.68l-.03-.02Zm3.72-17.21c-1.01-4.05-1.55-6.65-1.61-7.78-1.18-.69-1.92-1.13-2.23-1.33l-.12-.08c.04,.2,.79,3.87,2.25,11.02,.11,.62,.3,1.42,.57,2.43,.33,1.27,.55,2.08,.65,2.43,.36,1.6,.53,2.85,.52,3.72,.2-.33,.39-.64,.6-.94,.2-.29,.4-.61,.6-.94-.48-4.22-.88-7.07-1.22-8.54Zm-1.69,41.34c-.51-2.82-.89-5.05-1.14-6.69-.05,.65-.13,1.3-.23,1.94-.1,.65-.16,1.3-.18,1.98-.01,.67,.04,1.33,.15,1.96,.12,.63,.21,1.29,.28,1.96,.03,.33,.05,.67,.07,1.01,.02,.34,.03,.67,.04,.99,.05,.54,.09,1.16,.13,1.84,0,.03,.01,.05,.02,.06,0,0,.02,.03,.02,.06-.02,.1-.01,.21,0,.3,.02,.21,.04,.43,.06,.66,.01,.22,.02,.45,0,.67l.03,.15c.13,.06,.26,.13,.4,.22,.12,.08,.24,.17,.38,.29,.65,.51,1.08,.87,1.29,1.06-.26-1.91-.7-4.73-1.33-8.44Zm-1.14,10.34s-.04,0-.05,.01l.03,.02,.02-.03Zm2.29-30.55c-.18-.55-.32-1.01-.4-1.38-.34-.11-.66-.26-.95-.45-.1-.06-.2-.13-.32-.21-.12-.08-.25-.17-.39-.29,.45,1.72,.76,4.11,.94,7.16,.17,3.6,.54,6.45,1.09,8.55,.02,.1,.72,3.35,2.1,9.77,1.09,5,1.63,7.55,1.62,7.65,.36,.21,.75,.44,1.17,.68,.4,.23,.81,.47,1.23,.72-.16-.5-.32-1.18-.47-2.02-.22-1.11-.39-1.89-.5-2.34-.71-2.44-1.13-4.19-1.26-5.28-.06-.44-.14-1.27-.22-2.5-.1-1.04-.21-1.86-.32-2.48-.23-1.38-.69-3.06-1.38-5.05-.58-1.72-.92-3.24-1-4.55-.02-.42-.06-1.21-.1-2.38-.01-1.01-.04-1.81-.08-2.41-.08-.62-.33-1.69-.76-3.19Zm-.66-3.34c.59,.33,1.14,.62,1.66,.88,.51,.08,1.02,.1,1.53,.06,.51-.04,1.05-.06,1.63-.09,.56-.04,1.1-.06,1.63-.06s1.06-.11,1.59-.31c.56-.21,1.1-.51,1.62-.93,.52-.42,1-.88,1.44-1.41,.44-.52,.85-1.07,1.22-1.64,.37-.57,.7-1.1,.99-1.6,.18-.31,.37-.65,.55-1.03,.19-.38,.35-.76,.49-1.15,.14-.39,.23-.79,.28-1.18,.05-.4,.02-.77-.08-1.12-.18-.63-.49-1.21-.93-1.74-.44-.53-.87-1.01-1.31-1.43-.58-.58-1.2-1.13-1.85-1.64-.65-.52-1.31-1-1.98-1.47-1.67,2.45-3.29,4.88-4.87,7.31s-3.2,4.87-4.84,7.33c.09,.12,.14,.28,.17,.49,.09,.12,.14,.18,.16,.19,.06,.04,.12,.08,.18,.14,.06,.05,.12,.1,.18,.14,.17,.08,.35,.17,.53,.26Zm1.55-17.59c.58,2.6,.96,5.23,1.15,7.9,.27-.39,.52-.78,.76-1.15,.24-.37,.49-.75,.76-1.15-.07-.51-.2-1.49-.38-2.95-.19-1.32-.36-2.4-.51-3.25-.28-1.76-.79-3.78-1.51-6.08l-.03-.02c-.74-.43-1.4-.81-1.99-1.13,.17,1.31,.75,3.92,1.75,7.82Zm1.38,22.39c-.34-1.02-.52-1.82-.54-2.41-.33-.05-.65-.09-.96-.13-.31-.04-.6-.1-.89-.18,.13,.43,.29,.96,.5,1.61,.4,1.38,.63,2.5,.69,3.36,.03,.33,.05,1.13,.08,2.41,.03,.99,.08,1.78,.15,2.37,.11,1.15,.51,2.73,1.22,4.73,.58,1.72,.97,3.26,1.17,4.62,.08,.5,.16,1.33,.25,2.47,.11,1.07,.21,1.89,.29,2.46,.19,1.24,.61,3.01,1.27,5.33,.15,.44,.31,1.16,.49,2.16,.2,.93,.38,1.65,.54,2.15,0,.03,0,.06-.01,.08l.32,.21c.42,.28,.86,.58,1.31,.9-.04-1.14-.28-2.54-.74-4.21-.61-2.26-.96-3.71-1.05-4.37-.09-.6-.3-2.25-.62-4.94-.23-2.04-.5-3.68-.79-4.93-.13-.54-.33-1.3-.59-2.27-.31-1.06-.51-1.81-.61-2.24-.3-1.2-.57-2.86-.8-4.97-.25-2.13-.48-3.54-.69-4.22Zm1.72-26.08c-.19-.78-.31-1.29-.35-1.51-.93-.56-1.68-1-2.23-1.33,.62,1.55,1.41,5.49,2.37,11.83,.25-.41,.5-.79,.75-1.16,.25-.37,.51-.75,.78-1.14-.34-2.42-.56-3.86-.66-4.33-.07-.19-.29-.97-.66-2.36Zm1.4,32.63c-.68-3.67-1.09-6.58-1.22-8.72,0-.03,0-.06,.01-.08,.03-.04,.07-.07,.14-.08-.19,0-.37-.03-.55-.06-.61,.03-1.19,.03-1.76,0,.07,.59,.31,1.6,.7,3.03,.03,.04,.23,1.53,.6,4.46,.27,1.94,.59,3.57,.96,4.87,.67,2.38,1.06,3.9,1.16,4.57,.16,.87,.38,2.5,.65,4.88,.24,2.07,.48,3.7,.73,4.89,1.08,4.9,1.62,7.58,1.64,8.05,.28,.21,.56,.43,.86,.65,.38,.31,.74,.59,1.1,.85l-.68-4.3c-.31-1.88-.59-3.44-.84-4.66-.84-3.72-1.47-6.8-1.88-9.23-.39-2.22-.93-5.26-1.63-9.11Zm-.55-30.62c.47,1.73,.72,3.14,.77,4.23l1.47-2.16-.32-.21-.02,.03s-.07,0-.11-.03l-.03-.02s-.07-.08-.1-.15l-.93-.61c-.08-.05-.12-.09-.12-.12v-.05c0-.05,.03-.12,.08-.2,.09-.05,.19-.05,.28,.01l.55,.36c-.01-.07-.02-.14-.02-.22-.06-.36-.14-.84-.24-1.44-.09-.72-.15-1.23-.17-1.53l-.32-.21c-.41-.27-.88-.56-1.41-.88l-.26-.17c.05,.17,.11,.41,.18,.72,.08,.28,.21,.72,.37,1.31,.14,.58,.25,1.02,.34,1.34Zm.64,26.61c.08-.03,.15-.04,.2-.02,.05,.02,.09,.07,.1,.13,.25,.08,.51,.15,.78,.21s.54,.11,.82,.15c-.18-.63-.43-1.58-.75-2.84-.29-1.13-.4-2.03-.34-2.7l-.2,.04c-.54,.13-1.09,.19-1.66,.16,.02,.01,.03,.04,.02,.1,.11,2.1,.53,5.1,1.28,9.01,.51,2.7,1.06,5.74,1.66,9.13,.14,.86,.76,3.94,1.88,9.23,.26,1.14,.53,2.64,.82,4.52,.38,2.36,.62,3.86,.74,4.51,.65,.48,1.19,.89,1.63,1.24l.44-.65c-.07-.19-.15-.5-.25-.93l-.17-.49c-.1-.18-.16-.33-.19-.46-.26-.28-.44-.54-.55-.79-.38-.68-.72-1.7-1.01-3.06-.5-1.32-.91-2.74-1.25-4.25-.34-1.51-.63-3.02-.86-4.55s-.43-2.99-.58-4.4c-.15-1.41-.27-2.67-.35-3.79-.09-1.14-.14-2.26-.15-3.37-.01-1.11,.02-2.23,.1-3.38-.01-.06,.02-.18,.09-.35,.07-.17,.12-.29,.14-.36l-.03-.02-.02,.03s-.02,.04-.03,.07c0,.03-.01,.05-.03,.07,.03-.04,.03-.07,.02-.09-.01-.02-.01-.04,0-.06l.02-.03s-.07-.04-.09-.06c-.06-.04-.1-.1-.11-.2-.07-.19-.11-.39-.14-.6-.42-.08-.81-.18-1.18-.3s-.66-.29-.88-.49c-.1-.06-.1-.16,0-.3,.01-.02,.04-.03,.07-.04Zm2.83-25.62c.07-.1,.14-.11,.24-.04,.09,.07,.1,.16,.03,.26l-.46,.68c.15,.1,.32,.21,.49,.32,.17,.11,.33,.23,.47,.35l-.28-1.55c-.12-.6-.23-1.05-.33-1.37-.37-.27-.75-.54-1.14-.79-.39-.25-.77-.52-1.14-.79l.05,.29c.13,.83,.19,1.25,.18,1.27,.1,.75,.18,1.3,.22,1.64l.78,.51c.07-.01,.12-.02,.15,0s.09,0,.15,0c.08-.12,.17-.24,.25-.37,.09-.13,.19-.26,.32-.41Zm.37,23.01c-.39-1.56-.64-2.57-.75-3.02-.08,.03-.15,.07-.21,.1-.06,.03-.13,.05-.19,.07-.35,.14-.69,.26-1.03,.35,.02,.95,.18,1.93,.48,2.92,.26,.97,.45,1.69,.57,2.17-.03-.28-.04-.55-.03-.81,.01-.26,.01-.43,0-.49,.01-.02,.01-.03,0-.04-.01,0,0-.02,0-.04-.02-.18,.06-.3,.23-.37,.17-.06,.29,0,.38,.21,.11,.41,.2,.79,.28,1.12,.08,.34,.16,.67,.23,1.01,.17,0,.36,0,.57,.03l.04-.06c.04-.06,0-.43-.12-1.11-.09-.52-.24-1.2-.45-2.05Zm-.93,4.87s.02-.05,.01-.08c-.01,.02-.02,.03,0,.04,0,0,0,.02,0,.04Zm2.98-5.24c-.46-1.87-.75-3.16-.88-3.87-.26,.17-.5,.34-.72,.51-.17,.12-.33,.22-.48,.31-.16,.08-.3,.17-.44,.25,.1,.47,.25,1.08,.46,1.84,.24,.92,.41,1.59,.52,2.01,.31,1.43,.41,2.29,.29,2.59,.31,.03,.63,.08,.94,.13,.31,.05,.63,.11,.95,.17-.06-.44-.14-1.02-.24-1.74-.12-.97-.26-1.69-.4-2.19Zm-.4-22.73c-.27-.18-.53-.34-.77-.5-.24-.16-.49-.34-.75-.53,.05,.17,.1,.38,.16,.62,.28,1.24,.43,2.01,.47,2.32,.14,.12,.3,.24,.47,.35,.17,.11,.33,.23,.47,.35l.58,.38c-.1-.35-.2-.83-.31-1.45-.14-.69-.24-1.14-.29-1.35l-.04-.19Zm-.31,18.71c.02,.3,.08,.62,.18,.97,.19-.36,.39-.72,.59-1.09,.21-.36,.4-.73,.59-1.09-.36,.36-.72,.7-1.09,.99l-.27,.21Zm2.57,2.07c-.37-1.21-.65-2.16-.84-2.82l-.32,.47c-.13,.2-.3,.43-.5,.7-.2,.27-.36,.54-.48,.8-.03,.04-.09,.07-.19,.09,.05,.21,.12,.44,.2,.69,.37,1.18,.58,1.99,.65,2.43,.04,.23,.18,.89,.41,1.98,.12,.65,.19,1.2,.22,1.64,.02,.01,.04,.02,.08,0,.27,0,.54,0,.8,0,.26-.01,.52-.02,.77-.03,.02,.01,.03,.01,.04,0s.02,0,.04,0c-.03-2.01-.32-4-.88-5.97Zm.79-17.45c-.17-.54-.3-1.04-.4-1.5l-.52-.34c-.31-.2-.61-.41-.9-.61-.29-.21-.59-.41-.9-.61,.06,.16,.11,.33,.15,.52,.05,.21,.11,.49,.18,.84,.1,.43,.16,.71,.2,.81l.18,.84c.47,.34,.93,.68,1.39,1.04,.46,.39,.86,.76,1.2,1.13-.14-.46-.32-1.17-.56-2.12Zm2.2,23.65c-.09-3.4-.83-7.16-2.23-11.3-.11,.16-.21,.31-.3,.44-.09,.14-.19,.28-.29,.43-.1,.15-.22,.32-.37,.51-.14,.19-.3,.42-.48,.67,1.18,3.6,1.82,6.61,1.92,9.05,.26,.03,.52,.07,.77,.12,.26,.05,.52,.08,.8,.09h.18Zm-2.68,29.81c.09,.32,.16,.59,.2,.82l.34-.5c-.15-.15-.31-.32-.5-.5l-.14-.1c.03,.08,.06,.17,.1,.28Zm2.89-44.71c-.09,.14-.2,.14-.3,.01-.05,.11-.09,.21-.14,.3-.04,.08-.1,.18-.17,.28,.26,1.22,.75,3.8,1.48,7.73,.45,2.58,.71,4.62,.78,6.12,.35-.11,.72-.24,1.09-.4,.37-.16,.74-.31,1.1-.48-.38-1.42-.74-3.34-1.1-5.77-.46-2.93-.84-5-1.13-6.22-1.2-4.72-1.83-8.09-1.91-10.11-.37-.24-.73-.48-1.08-.73-.35-.24-.71-.49-1.08-.73,.1,.35,.21,.74,.34,1.16,.39,1.4,.62,2.3,.7,2.73,.18,.23,.33,.46,.46,.68,.71,1.29,.93,2.67,.67,4.12l-.08,.37c.13-.2,.34-.4,.63-.62,.1-.07,.19-.07,.25,0,.06,.07,.09,.15,.09,.23-.04,.23-.12,.45-.24,.66-.12,.21-.24,.43-.37,.66Zm.55,8.11c-.42-2.25-.87-4.65-1.33-7.21-.27,.39-.49,.74-.67,1.04-.18,.3-.34,.56-.48,.77,.21,.14,.41,.28,.59,.43,.18,.15,.34,.3,.49,.45,.1,.06,.12,.15,.06,.25-.06,.1-.13,.12-.23,.06-.22-.09-.43-.18-.62-.28-.2-.1-.41-.21-.63-.33,1.49,3.55,2.3,7.38,2.42,11.51l.22-.02c.33-.07,.66-.17,.99-.29-.07-1.53-.34-3.66-.8-6.39Zm1.68-13.23c-.21-.85-.33-1.57-.37-2.17-.34-.16-.67-.34-.99-.52s-.65-.38-.97-.6c.24,2.19,.95,5.66,2.12,10.42,.28,1.18,.65,3.17,1.1,5.94,.33,2.3,.67,4.12,1.01,5.46,.2-.09,.41-.2,.62-.3s.42-.2,.62-.3c-.04-.6-.21-1.38-.5-2.34-.4-1.18-.62-2.02-.66-2.53-.08-.54-.17-1.44-.26-2.69-.07-1.16-.16-2.06-.26-2.69-.09-.6-.26-1.51-.49-2.72-.25-1.19-.42-2.1-.49-2.72-.06-.36-.22-1.1-.48-2.24Zm3.12,3.11c-.38-1.25-.63-2.34-.75-3.27-.02-.01-.03-.04-.04-.07-.09-.11-.17-.25-.25-.4-.08-.15-.18-.28-.3-.39-.24-.22-.54-.4-.88-.55-.34-.15-.67-.31-.99-.46l.09,.49c.04,.48,.11,.93,.22,1.34,.34,1.39,.52,2.18,.56,2.38,.06,.41,.24,1.37,.55,2.88,.24,1.16,.41,2.11,.49,2.85,.03,.33,.1,1.29,.22,2.88,.11,1.15,.22,2.1,.33,2.83,.07,.39,.28,1.14,.64,2.26,.22,.74,.36,1.38,.42,1.9,.37-.21,.71-.43,1.02-.64,.31-.21,.59-.43,.83-.67-.26-1.54-.45-2.93-.55-4.17-.06-.41-.13-1.24-.22-2.5-.08-1.08-.17-1.92-.28-2.54-.09-.69-.46-2.07-1.11-4.15Zm1.81-.44c-.07-.27-.12-.5-.15-.7-.39-.25-.77-.55-1.15-.9-.38-.35-.7-.67-.98-.96,.17,.85,.45,1.88,.84,3.07,.62,1.92,.99,3.34,1.11,4.28,.48,4.22,.81,7.12,.99,8.69,.64-.69,1.15-1.46,1.52-2.3-.12-1.1-.33-2.55-.64-4.35-.36-1.89-.58-3-.66-3.34-.51-1.99-.81-3.15-.89-3.49Zm2.81,5.35c-.18-.97-.28-1.8-.32-2.48-.12-.39-.28-.77-.47-1.12-.19-.35-.39-.68-.6-.99-.17-.25-.36-.47-.58-.66-.22-.19-.44-.38-.67-.59l-.06-.04c.11,.41,.22,.86,.35,1.34,.05,.21,.19,.74,.42,1.6,.17,.69,.32,1.24,.43,1.65,.02,.1,.25,1.29,.7,3.58,.2,1.1,.35,2.05,.44,2.86,.42-1.18,.63-2.41,.66-3.67-.12-.45-.21-.94-.29-1.48Z"/><path d="M171.16,374.11c-.11-.02-.16-.09-.13-.21,.03-.12,.09-.16,.21-.14,.25,.05,.49,.1,.73,.14s.49,.07,.74,.1c-.34-.27-.63-.53-.86-.78-.23-.25-.5-.55-.83-.89-.76-.65-1.44-1.35-2.05-2.12-.28-.25-.55-.52-.82-.79-.27-.28-.5-.58-.68-.91-.65-1.11-1.22-2.26-1.71-3.43-.49-1.17-.85-2.4-1.09-3.67l-.05,.21c-.03,.12-.1,.16-.21,.14-.11-.02-.16-.09-.13-.21,.02-.19,.05-.39,.1-.6,.05-.21,.08-.42,.11-.64-.11-1.02-.12-2.01-.05-2.97,.05-.77,.14-1.53,.26-2.29,.12-.75,.24-1.51,.36-2.27,.03-.24,.06-.47,.1-.71s.1-.47,.17-.7c.08-.25,.2-.47,.36-.66,0-.02,.02-.04,.05-.06l.04-.17c.07-.33,.13-.58,.18-.75,.05-.17,.15-.4,.31-.68,.03-.04,.06-.09,.07-.15,.01-.06,.04-.12,.08-.19,.17-.75,.34-1.48,.52-2.21,.18-.73,.38-1.46,.59-2.2l.02-.11h.03c.07-.08,.15-.09,.26-.05,.11,.05,.16,.13,.16,.25l-.33,1.5c.04-.09,.09-.18,.13-.26,.04-.09,.09-.2,.15-.34,.1-.25,.23-.46,.37-.65,.15-.19,.3-.38,.46-.56,.03-.02,.11-.12,.26-.29,.15-.18,.2-.26,.18-.24,.13-.17,.29-.35,.48-.56l.08-.06c.39-.48,.83-.85,1.33-1.13,.5-.27,1.03-.56,1.59-.85,.56-.39,1.15-.73,1.78-1.01,.41-.25,.83-.51,1.25-.76,.42-.25,.86-.45,1.32-.6,.25-.07,.54-.13,.86-.18,.32-.05,.63-.1,.93-.13,.3-.03,.6-.06,.88-.07,.29-.01,.52-.02,.72-.03-.14-.03-.27-.05-.41-.07-.14-.02-.29-.03-.45-.04l-.17-.04v-.04c-.11-.12-.06-.23,.15-.33,.54,.04,1.04,.09,1.53,.14,.49,.05,.99,.12,1.51,.21l.34,.07c.4,.01,.84,.06,1.32,.13,1.16,.1,2.3,.28,3.41,.54,1.11,.26,2.2,.6,3.27,1.02,.18,.04,.36,.08,.54,.13,.18,.05,.36,.09,.54,.13,.13,.03,.19,.11,.16,.25,1.5,.71,2.89,1.56,4.18,2.57,.72,.59,1.34,1.24,1.86,1.93s.97,1.43,1.36,2.21c.38,.78,.71,1.59,.97,2.44s.51,1.72,.73,2.62c.15,.62,.3,1.24,.46,1.87,.16,.63,.26,1.27,.3,1.91,.05,.42,.03,.85-.07,1.27-.09,.42-.13,.84-.1,1.26,.06,.26,.06,.55-.02,.87,.11,.05,.21,.08,.3,.1,.09,.02,.19,.04,.3,.06,.11,.05,.15,.13,.12,.25-.03,.12-.1,.16-.21,.14-.12,0-.22,0-.3,0-.08,0-.17-.02-.26-.04,.06,.04,.15,.07,.26,.09,.11,.02,.16,.1,.15,.21-.01,.12-.08,.17-.19,.14-.35,0-.7-.04-1.04-.11-.06,.16-.1,.31-.13,.45-.03,.14-.07,.28-.13,.41-.01,.05-.03,.08-.06,.1,0,.02-.04,.05-.09,.09-.07-.01-.12-.04-.16-.07l-.03-.04-.02-.08,.02-.07c0-.14,.02-.29,.04-.43,.02-.14,.04-.3,.05-.46l-.14-.03c-.13,.07-.27,.11-.42,.11-.14,0-.29-.06-.46-.19-.18-.16-.48-.3-.9-.41-.42-.11-.9-.22-1.42-.32-.52-.1-1.06-.19-1.61-.27s-1.05-.16-1.51-.23c-2.62-.43-5.21-.86-7.76-1.29-2.55-.43-5.12-.91-7.7-1.43-.09,.96-.14,1.9-.15,2.82,0,.93,.08,1.87,.24,2.83,.13,.71,.3,1.44,.53,2.2,.22,.76,.55,1.42,.99,2,.24,.32,.6,.67,1.1,1.05,.49,.39,1.03,.75,1.62,1.09,.58,.34,1.17,.63,1.74,.86,.58,.23,1.05,.35,1.43,.36,.61,0,1.34-.09,2.18-.31s1.7-.48,2.57-.81,1.73-.7,2.55-1.11c.82-.41,1.54-.81,2.14-1.19l.05-.06s.04,0,.04-.01c0-.01,.01-.02,.04-.01l.04-.03c-.05-.4,.11-.66,.49-.77l-.05-.08c-.07-.02-.11-.05-.12-.1-.13-.15-.21-.26-.24-.34-.1-.09-.18-.18-.25-.25-.07-.07-.14-.16-.21-.25-.06-.14-.05-.24,.04-.32,.09-.08,.19-.08,.32,0,.24,.2,.47,.41,.7,.62,.22,.22,.45,.45,.68,.69l.96-.64c.13-.05,.21-.03,.26,.04,.04,.07,.02,.16-.08,.26l-.91,.61c.44,.48,.83,.99,1.19,1.51s.71,1.07,1.06,1.63c.12-.1,.22-.19,.31-.28s.17-.19,.24-.3c0-.02,0-.04,0-.04-.01,0-.01-.01,0-.04-.05-.08-.05-.16,0-.24,.05-.07,.13-.08,.23,0l.18,.15c.05,.08,.07,.16,.06,.23-.09,.2-.2,.39-.32,.55-.12,.17-.25,.33-.4,.46,.1,.17,.2,.34,.3,.5,.09,.17,.18,.33,.26,.49,.05,.08,.05,.16-.01,.22,0,.02-.04,.05-.09,.09-.09,.08-.17,.09-.25,.02-.08-.07-.09-.14-.02-.22-.12-.12-.2-.22-.25-.31-.04,.07-.07,.12-.11,.16-.07,.11-.15,.15-.24,.13-.07-.01-.13-.05-.19-.11-.02,0-.04,0-.04,.03-.23,.39-.61,.79-1.15,1.2-.54,.41-1.13,.8-1.76,1.16-.64,.37-1.27,.7-1.89,1.01-.62,.31-1.11,.57-1.47,.79-1.08,.62-2.44,1.16-4.06,1.61-1.62,.45-3.31,.75-5.07,.89,.58,.17,1.17,.34,1.76,.52,.6,.17,1.2,.35,1.8,.53,.1,.07,.14,.15,.12,.25-.02,.09-.09,.13-.2,.1-.9-.19-1.79-.4-2.66-.62-.87-.22-1.74-.45-2.61-.68-1.52,.04-2.96-.04-4.3-.25-1.35-.21-2.47-.59-3.36-1.15-.17-.11-.31-.2-.44-.27-.12-.08-.24-.15-.34-.22-.39-.06-.78-.13-1.18-.21-.4-.08-.79-.17-1.17-.25Zm2.71-2.46c.62,.93,1.07,1.7,1.34,2.29,.3,.14,.62,.26,.96,.39,.34,.12,.68,.22,1.02,.29-.79-1.14-1.66-2.66-2.61-4.54-1.36-2.63-2.36-4.44-3.02-5.43-1.66-2.45-2.86-4.36-3.62-5.74-.83-1.49-1.47-2.68-1.91-3.55-.06,.48-.11,.96-.14,1.45-.04,.49-.05,.98-.04,1.47,.5,.5,1.08,1.23,1.71,2.19,.29,.52,.95,1.8,1.99,3.82,.87,1.65,1.81,3.36,2.84,5.14,.2,.38,.7,1.12,1.5,2.22Zm-6.38-10.6c-.63-1.01-1.18-1.79-1.65-2.32,.03,1.69,.28,3.35,.75,4.97,.47,1.62,1.24,3.1,2.32,4.42,.3,.36,.62,.67,.96,.95,.34,.28,.66,.58,.97,.92,.41,.4,.77,.84,1.08,1.31,.31,.47,.69,.9,1.15,1.29,.25,.25,.52,.46,.81,.65,.29,.18,.58,.35,.88,.51-.29-.5-.74-1.19-1.35-2.08-.4-.53-.9-1.3-1.47-2.32-1.07-1.88-1.93-3.46-2.57-4.71-1.06-2.05-1.68-3.25-1.87-3.58Zm7.41,8.99c1.03,1.97,1.95,3.53,2.76,4.68l.1,.02c.34,.07,.69,.13,1.04,.18,.35,.05,.71,.09,1.06,.11-.77-1.24-1.32-2.16-1.66-2.76-.2-.36-.48-.89-.82-1.6-.36-.73-.62-1.25-.79-1.56-.59-1.05-1.84-3.07-3.73-6.06-1.1-1.74-2.29-3.91-3.56-6.5-.63-1.3-1.19-2.26-1.67-2.88-.4-.53-.74-.97-1.01-1.35-.12,.41-.22,.84-.32,1.29-.1,.44-.17,.89-.23,1.34,.5,1.03,1.31,2.48,2.41,4.35,.11,.17,1.27,1.96,3.49,5.38,.58,.9,1.56,2.68,2.93,5.34Zm4.66,3.8c.33,.56,.57,.96,.72,1.21,.33,.02,.64,.03,.95,.04,.31,0,.62,0,.93-.04-1-1.46-2.17-3.68-3.49-6.66-.77-1.75-1.44-3-2.01-3.75-.28-.35-.7-.85-1.26-1.51-.59-.66-1.01-1.15-1.27-1.48-.97-1.28-2.34-3.8-4.11-7.56-.46-1.02-1.11-2.1-1.95-3.23-.25-.35-.47-.65-.65-.91-.14,.31-.26,.64-.38,.98-.11,.34-.22,.7-.32,1.07,.13,.17,.27,.36,.44,.57,.57,.75,.9,1.2,1.01,1.35,.45,.66,.98,1.66,1.6,3.01,.98,1.99,2.15,4.05,3.52,6.2,1.86,2.91,3.09,4.93,3.69,6.08,1.1,2.09,1.65,3.14,1.64,3.16h-.03c.22,.38,.54,.87,.95,1.47Zm-.71-5.78c1.46,3.24,2.72,5.56,3.78,6.98,.67-.03,1.37-.1,2.1-.21-.13-.17-.28-.4-.45-.68-.56-.78-1.02-1.47-1.38-2.08-.44-.78-.68-1.19-.72-1.25-.22-.49-.31-.84-.26-1.08v-.04c-.41-.24-.8-.5-1.16-.8-1.89-1.5-3.09-3.73-3.59-6.69l-.15-.95-.03-.04c-1.85-3.27-3.61-5.98-5.26-8.14-1.77-2.27-2.93-3.91-3.49-4.91-.05,.11-.12,.26-.2,.43-.09,.18-.17,.34-.23,.5-.07,.16-.15,.32-.23,.5,.27,.47,.71,1.08,1.3,1.81,.49,.67,1.06,1.69,1.7,3.07,1.52,3.39,2.92,5.87,4.21,7.44,1.61,2,2.42,2.99,2.43,2.96,.53,.82,1.08,1.87,1.64,3.16Zm-6.59-14.78c2.07,2.95,3.62,5.38,4.67,7.28-.07-1.06-.06-2.15,.04-3.25l-.05-.08c-.38-.86-1.04-1.84-1.97-2.94-1.26-1.46-2.01-2.39-2.26-2.78-.74-1.06-1.86-3.02-3.38-5.87-.2,.35-.36,.71-.5,1.08-.14,.37-.27,.73-.4,1.07,.51,.79,1.8,2.62,3.86,5.5Zm-3.03-9.71l-.04,.03,.04-.03Zm1.09,1.18c-.11,.17-.23,.29-.36,.36-.13,.07-.26,.09-.37,.07l-.15,.19c.31,.53,.88,1.54,1.71,3.03,.74,1.35,1.4,2.4,1.96,3.16,2.14,2.92,3.44,4.68,3.9,5.29,.06-.48,.12-.96,.18-1.46-.06-.13-.09-.28-.08-.44,.01-.16,.07-.28,.19-.38-.03-.08-.04-.16-.02-.22-.17-.28-.39-.59-.64-.94-.69-.85-1.1-1.39-1.24-1.62-.7-1.1-1.51-2.45-2.43-4.06-1.03-1.75-1.68-2.83-1.95-3.23-.13-.17-.23-.32-.29-.43-.07,.11-.14,.22-.22,.34-.07,.12-.13,.23-.18,.34Zm5.84,7.6c.54,.75,.96,1.34,1.24,1.76l.04-.03c.06-.04,.13-.06,.23-.06,.05-.23,.11-.46,.18-.67,.07-.22,.13-.42,.17-.6l.05-.21,.06,.05s.05-.06,.07-.06c.01,0,.03,0,.06-.02l-.91-1.47c-.07-.02-.09-.07-.07-.16-1.16-1.93-1.74-2.9-1.73-2.93-.19-.31-.53-.77-1.01-1.38-.45-.63-.8-1.11-1.03-1.42-.55-.85-.95-1.63-1.22-2.34-.27,.14-.52,.29-.76,.46-.24,.17-.45,.37-.64,.59,.05,.08,.13,.17,.22,.27,.27,.38,.45,.63,.54,.77,.26,.42,.63,1.05,1.11,1.88,.5,.86,.86,1.5,1.1,1.92,1.49,2.36,2.26,3.59,2.31,3.67Zm-3.6-9.72c.56,.9,1.69,2.67,3.4,5.33l1.64,2.69c.27-.04,.53-.05,.78-.02,.03-.02,.04-.04,.05-.06,0-.02,.02-.04,.05-.06,.02-.19,.05-.38,.09-.57,.04-.19,.08-.37,.12-.56,0-.2,0-.35,.03-.47-.23-.36-.45-.79-.67-1.28-.51-1.01-.91-1.71-1.21-2.08-1.26-1.66-2.18-2.88-2.74-3.65-.24,.14-.5,.27-.75,.37-.26,.1-.52,.22-.79,.36Zm4.57,2.76c.1,.17,.65,1.11,1.64,2.83,.03-.36,.07-.72,.12-1.09,.05-.37,.1-.72,.18-1.04-.35-.54-.89-1.37-1.61-2.5-.82-1.2-1.4-2.11-1.73-2.74-.22,.15-.45,.29-.68,.44-.23,.15-.46,.29-.68,.44,.33,.44,.73,.96,1.21,1.57,.71,.96,1.23,1.65,1.56,2.09Zm.95-1.41c.43,.6,.8,1.12,1.11,1.55,.11-.49,.27-.86,.49-1.1,.09-.1,.19-.13,.29-.09,.1,.04,.14,.13,.14,.25l-.04,.17c.06-.06,.11-.12,.14-.17,.03-.05,.08-.11,.14-.17-.86-1.04-1.78-2.54-2.76-4.5-.3,.08-.59,.19-.87,.33-.28,.14-.55,.28-.83,.45,.43,.92,1.16,2.01,2.18,3.28Zm2.1-3.25c-.31-.43-.52-.79-.65-1.09-.29,.01-.58,.04-.87,.07-.29,.04-.58,.09-.85,.15,.77,1.46,1.68,2.89,2.74,4.31,.34-.37,.72-.68,1.13-.93-.05,0-.06-.04-.05-.08-.13-.37-.61-1.18-1.45-2.43Zm-2.31,10.3c.34,.58,.64,1.1,.9,1.54,0-.02,.01-.04,.03-.05,.01,0,.03-.04,.04-.08-.04-.06-.04-.12-.03-.19l.04-.65s-.06-.03-.06-.05l-.14-.03c-.18-.04-.26-.15-.24-.34l-.05-.08c-.09-.02-.18-.03-.26-.04-.08,0-.16-.01-.22-.03Zm.72,2.02c-.02,.19-.05,.39-.1,.6-.05,.21-.08,.43-.11,.67,.06,.04,.15,.08,.25,.13,.04,.03,.08,.05,.13,.06l.85,.18-1.02-1.64Zm1.92-1.13c-.19-.01-.36-.04-.52-.07-.16-.03-.33-.07-.51-.11,0,.12-.02,.24-.04,.36-.03,.12-.05,.23-.08,.35-.21,.22-.38,.24-.51,.04,0,.05-.02,.08-.04,.08-.01,0-.02,.03-.03,.05,.59,.98,1.02,1.7,1.29,2.18,.34,.05,.69,.11,1.02,.18,.34,.07,.69,.13,1.06,.19-.05-.11-.11-.24-.19-.41-.06-.16-.31-.63-.75-1.4-.01-.05-.07-.17-.17-.36-.15-.2-.24-.37-.28-.5-.14-.22-.23-.41-.26-.57Zm.21-10.89c.66,.87,1.06,1.55,1.21,2.05v.04c.12-.07,.24-.12,.33-.17,.09-.04,.2-.09,.33-.13h.03l.25-.16c.24-.14,.51-.27,.79-.38h-.03s-.05-.03-.09-.06c-.18-.28-.43-.75-.75-1.4-.3-.55-.57-.97-.78-1.26l-1.39,.04c-.15,.02-.28,.03-.41,.02-.13,0-.27,0-.41,.02,.22,.39,.53,.86,.93,1.4Zm-.82,9.34c1.5,.27,2.99,.54,4.46,.82,1.48,.28,2.96,.56,4.46,.85,.02-.07,.04-.13,.07-.17,.04-.31,.08-.71,.11-1.2s.04-1,.04-1.53c0-.52-.02-1.01-.05-1.46s-.08-.77-.15-.98c-.13-.37-.31-.71-.54-1.03-.23-.32-.48-.62-.78-.9-.41-.4-.76-.71-1.07-.92-.31-.21-.62-.34-.93-.38-.31-.04-.65,0-1.04,.11-.38,.12-.83,.29-1.35,.52-.34,.15-.64,.32-.91,.5-.27,.19-.53,.43-.78,.71-.26,.31-.47,.67-.65,1.09s-.31,.84-.41,1.29c-.1,.44-.19,.89-.26,1.35-.08,.46-.15,.9-.22,1.33Zm1.91,3.4c.34,.61,.55,1.01,.62,1.19,.05,.11,.07,.2,.08,.27,.41,.09,.81,.17,1.22,.24,.41,.08,.82,.14,1.23,.21-.04-.06-.08-.14-.12-.25-.11-.24-.19-.39-.22-.45-.2-.38-.41-.73-.62-1.04-.18-.26-.38-.57-.61-.93-.21-.31-.33-.5-.34-.55l.02-.1-2.16-.35c.05,.11,.13,.27,.25,.49,.2,.38,.41,.81,.64,1.27Zm2.75,20.15c.23,.34,.43,.64,.58,.89,.34-.05,.67-.11,1-.17,.32-.07,.64-.12,.96-.18-.33-.56-.73-1.26-1.2-2.12-.47-.78-.74-1.33-.81-1.63l-.88-.19c-.72-.15-1.39-.38-2.01-.68,.04,.25,.2,.64,.49,1.16,.28,.55,.61,1.1,.98,1.67,.16,.25,.45,.67,.89,1.25Zm-.77-31.84s.02,.05,.02,.08c-.01,.05-.04,.08-.09,.09l-.04,.03c.6-.24,1.22-.34,1.87-.3-.17-.28-.48-.83-.91-1.66-.16-.25-.28-.47-.38-.67-.33-.02-.65-.04-.96-.06-.32-.02-.64-.04-.96-.06,.13,.17,.27,.38,.43,.6l1.03,1.94Zm.59,11.79c.62,.96,.93,1.59,.93,1.88,.43,.07,.86,.14,1.26,.21,.41,.07,.83,.14,1.27,.21l-.39-.63-.69-.88c-.45-.63-.71-1.22-.78-1.77h-.07c-.45-.11-.89-.2-1.31-.27-.42-.08-.86-.15-1.32-.22,.1,.09,.25,.27,.45,.54,.25,.37,.46,.68,.64,.94Zm.58-13.56c.53,.94,.83,1.49,.91,1.66,.19,.02,.38,.04,.58,.09l.1,.02c.75,.16,1.39,.49,1.94,1-.68-1.09-1.17-2.11-1.45-3.05-.41-.09-.81-.15-1.21-.2-.4-.05-.81-.09-1.23-.13,.16,.25,.28,.46,.36,.62Zm1.42,32.27c.54,.89,.89,1.49,1.06,1.8,.27-.06,.54-.12,.79-.18,.25-.06,.49-.12,.72-.2-.1-.19-.23-.45-.39-.78-.23-.44-.42-.78-.55-1.03-.34-.58-.58-1.08-.7-1.5-.66,.08-1.3,.09-1.92,.03,.15,.38,.49,.99,1.01,1.86Zm.74-18.1c.71,.98,1.1,1.56,1.17,1.75v.03c.72,.11,1.44,.23,2.14,.36,.7,.14,1.41,.26,2.12,.36-.92-1.51-1.66-2.83-2.21-3.94-.05,0-.08-.01-.11,0-.03,0-.06,0-.11,0l-.02,.11c-.07,.3-.17,.55-.31,.74-.07,.08-.14,.12-.23,.1l-.1-.02c-.02,.09-.03,.18-.04,.25,0,.07-.01,.14-.03,.21,.39,.69,.77,1.33,1.13,1.92,.04,.03,.05,.07,.04,.12,0,.02-.04,.05-.09,.09-.03,.02-.06,.02-.11,.01-.02,0-.04-.02-.06-.05-.22-.27-.51-.7-.84-1.31-.13-.25-.26-.47-.38-.67l-.05-.08c-.1-.19-.18-.34-.25-.46-.01,.05-.02,.08-.04,.08-.01,0-.03,.04-.04,.08-.03,.12-.1,.16-.21,.14-.11-.02-.16-.09-.13-.21v-.55l-.44-.17c-.29-.06-.58-.13-.86-.2-.28-.07-.56-.15-.85-.24,.18,.48,.48,.99,.9,1.54Zm1.44,18.05c.32,.58,.54,1.04,.65,1.38,.28-.11,.55-.21,.81-.3,.26-.09,.52-.21,.79-.35-.47-.76-.97-1.75-1.5-2.99-.3,.08-.59,.16-.86,.22-.3,.08-.61,.14-.92,.17,.22,.51,.57,1.13,1.04,1.87Zm3.76-24.56c3.51,5.82,5.51,9.09,5.98,9.83,.4,.11,.79,.24,1.17,.39,.38,.15,.72,.36,1.02,.62v.03h.03c-.04-.24-.05-.53-.03-.84-.03,.02-.06,.02-.11,.01-.05,0-.09-.04-.12-.1-.15-.62-.9-1.96-2.26-4.03-.52-.74-1.53-2.33-3.02-4.77l-5.18-8.34c-.37-.13-.73-.24-1.08-.34-.35-.1-.71-.2-1.08-.3,.74,1.25,2.3,3.87,4.69,7.83Zm-3.21,5.87s-.08-.02-.1-.02l.08,.13,.02-.11Zm2.17,15.68c-.58,.27-1.15,.49-1.71,.66,.63,1.08,1.15,2.06,1.55,2.93,.27-.14,.53-.27,.78-.4,.25-.13,.51-.26,.78-.4-.03-.08-.07-.16-.12-.25-.32-.48-.57-.9-.75-1.26-.3-.58-.48-1-.53-1.28Zm-1.28-23.43c.13,.37,.23,.73,.29,1.09,.05-.21,.09-.41,.12-.62,.03-.2,.07-.41,.12-.62l-.03-.04c-.33-.44-.61-.81-.85-1.13,.15,.37,.27,.81,.35,1.32Zm8.51,8.02c1.12,1.65,1.79,2.83,1.99,3.53,.03-.34,.07-.67,.13-1,.06-.33,.07-.67,.03-1.02-.03-.2-.05-.42-.07-.65-.02-.24-.06-.47-.13-.7-.03,.02-.05,.03-.08,.02-.04,0-.08-.03-.09-.06-1.39-2.49-2.18-3.88-2.38-4.16-.14-.22-.54-.85-1.22-1.87-.52-.77-.92-1.41-1.2-1.94-.25-.37-.57-.91-.95-1.63-.42-.79-.73-1.36-.94-1.7-.12-.2-.22-.38-.31-.54-.5-.3-1.01-.57-1.54-.82-.53-.24-1.06-.47-1.6-.69,.61,1.1,1.41,2.43,2.42,3.99,1.55,2.3,2.52,3.83,2.93,4.57,.8,1.39,1.81,2.94,3.01,4.66Zm-3.69,3.24s.06-.02,.11-.01l.13,.03c.11,.02,.21,.04,.29,.04,.08,0,.18,0,.3,0-1.03-1.24-2.74-3.97-5.14-8.19l-.19,.87c.02,.35,.04,.72,.06,1.11,.02,.39-.02,.75-.11,1.07,.07,.11,.14,.24,.2,.37,.16,.03,.32,.07,.47,.1s.32,.06,.48,.07c.03-.02,.06-.02,.11-.01,.11,.02,.16,.09,.15,.21-.01,.12-.08,.17-.19,.14-.14,0-.28-.01-.4-.03-.13-.01-.26-.04-.39-.06,.26,.42,.56,.92,.91,1.51,.64,1.16,1.11,1.98,1.41,2.46,.3,.04,.6,.09,.89,.15,.29,.06,.6,.12,.92,.16Zm-1.74-4.47c1.05,1.88,1.98,3.32,2.8,4.32,.04,.06,.05,.11,.04,.15,0,.02-.02,.04-.05,.06,.33,.02,.66,.06,.98,.12,.33,.06,.66,.11,.98,.15-.9-1.17-1.88-2.69-2.93-4.57-1.66-2.96-2.65-4.68-2.97-5.16-.24-.39-.58-.87-1-1.42-.04,.38-.08,.76-.14,1.14-.06,.38-.12,.77-.19,1.17,.49,.76,1.32,2.11,2.48,4.04Zm-.15,19.28c.27-.14,.54-.29,.81-.45,.27-.16,.56-.32,.85-.48-.17-.28-.4-.68-.69-1.21-.42-.67-.68-1.14-.79-1.41l-.2,.1c-.51,.26-1,.5-1.47,.71,.04,.13,.15,.34,.32,.62,.19,.33,.37,.68,.55,1.03,.24,.39,.44,.73,.59,1l.02,.08Zm1.9-1.06c.21-.1,.44-.21,.69-.33,.25-.12,.52-.24,.81-.38l.04-.03s.04,0,.04-.03c.02,0,.06-.01,.12-.05-.26-.3-.56-.68-.88-1.14-.48-.52-.78-.96-.91-1.33-.24,.12-.48,.24-.71,.34-.24,.11-.49,.22-.75,.34l.92,1.47,.64,1.12Zm1.73-23.7c1.89,2.79,3.15,4.87,3.79,6.25-.16-.77-.36-1.55-.6-2.36-.24-.81-.51-1.59-.81-2.35-.3-.76-.65-1.48-1.05-2.16-.39-.68-.82-1.26-1.28-1.75-.42-.43-.87-.84-1.33-1.21s-.94-.73-1.43-1.05c.1,.17,.3,.5,.59,1,.8,1.54,1.5,2.74,2.11,3.63Zm-.66,21.62c.41,.48,.72,.85,.92,1.11l.25-.17c.44-.29,.75-.61,.92-.94,.07-.08,.12-.14,.18-.18-.18-.23-.45-.53-.79-.9-.34-.37-.66-.74-.96-1.12,0,.02-.01,.03-.03,.03-.01,0-.02,0-.02,.03-.03,.02-.05,.03-.06,.02-.01,0-.03,0-.06,.02-.19,.13-.4,.26-.62,.38-.22,.12-.46,.26-.72,.4,.2,.36,.53,.8,.99,1.31Z"/><path d="M209.12,349.87c-.12,.01-.19-.02-.22-.11-.03-.08,0-.16,.12-.24,.51-.24,1.02-.48,1.53-.73,.51-.25,1.02-.52,1.52-.8,.71-.76,1.56-1.33,2.55-1.71l.17-.02c1.15-.58,2.28-1.21,3.4-1.88,1.12-.67,2.28-1.22,3.49-1.67,.29-.1,.57-.19,.84-.28,.27-.08,.55-.17,.85-.24,.38-.18,.75-.35,1.12-.52,.37-.17,.74-.33,1.12-.48,.11-.01,.18,.03,.2,.12,.02,.09-.01,.17-.1,.22-.11,.06-.23,.12-.35,.18-.12,.06-.24,.12-.35,.18,1.14-.15,2.27-.17,3.38-.06s2.29,.24,3.53,.39c.4,.04,.81,.06,1.24,.08,.43,.02,.82,.13,1.16,.34,.42,.23,.85,.52,1.3,.89s.9,.77,1.34,1.22c.44,.45,.85,.91,1.23,1.38,.38,.47,.72,.91,1.01,1.31,.38,.52,.69,1.03,.95,1.55,.26,.52,.48,1.04,.67,1.57-.14-1.45-.25-2.92-.33-4.43-.01-.12,.04-.18,.16-.18,.11,0,.18,.06,.19,.18,.2,1.56,.38,3.12,.54,4.68,.16,1.55,.32,3.12,.47,4.68,.07,.04,.11,.1,.12,.17l.27,2.74c.01,.12-.03,.18-.12,.19,.05,.81,.12,1.61,.18,2.41,.07,.8,.14,1.6,.22,2.41,0,.1-.03,.16-.12,.19-.09,.03-.16,.02-.21-.05,.04,.16,.07,.32,.08,.48,.02,.15,.04,.31,.08,.48,.05,.31,.11,.68,.16,1.12,.05,.44,.13,.88,.23,1.31,.1,.44,.24,.85,.42,1.24,.18,.39,.4,.71,.68,.94,.23,.17,.5,.28,.81,.32,.32,.04,.65,.05,1.01,.02,.36-.03,.7-.08,1.03-.13,.33-.05,.61-.09,.84-.11-.13-.4-.23-.75-.3-1.07-.07-.32-.09-.57-.06-.77,.16-.25,.33-.27,.52-.05,.11,.18,.18,.36,.21,.54,.03,.18,.05,.36,.07,.55,.05,.09,.11,.18,.17,.27,.06,.09,.12,.23,.18,.41,.43-.06,.84-.03,1.23,.1,.12,.04,.16,.1,.12,.19-.04,.09-.11,.14-.23,.15-.02,0-.12,.02-.29,.04-.17,.03-.38,.08-.63,.15,.09,.25,.19,.5,.28,.73,.09,.23,.17,.45,.24,.66,.11,.21,.22,.42,.33,.65,.1,.23,.21,.47,.33,.72,0,.05,.03,.09,.08,.14,.52-.36,1.07-.57,1.64-.62,.11-.01,.18,.04,.21,.16,.02,.12-.02,.18-.14,.19-.69,.26-1.27,.57-1.72,.95,.12,.25,.23,.49,.35,.72,.11,.23,.21,.46,.28,.69,0,.1,0,.17-.01,.22,0,.02-.02,.04-.07,.04-.04,.05-.08,.06-.1,0l-.04-.03s-.05,0-.07-.03v-.04s-.01-.04-.03-.05c-.01-.01-.02-.03-.02-.05-.06-.11-.12-.25-.2-.41-.07-.16-.15-.33-.24-.52l-.03,.04c-.06,.1-.14,.16-.23,.16h-.07c-.25,.29-.61,.57-1.07,.82-.46,.26-.93,.49-1.41,.71s-.91,.39-1.3,.53-.66,.23-.79,.27c-.92,.32-1.89,.56-2.91,.7-1.02,.14-2.03,.17-3.05,.08-1.02-.09-2.01-.3-2.97-.64-.96-.34-1.83-.84-2.61-1.48-.2-.17-.41-.35-.61-.52-.2-.17-.38-.37-.54-.6-.47,.4-.94,.81-1.39,1.21s-.94,.79-1.43,1.17c-.19,.18-.4,.38-.64,.6-.81,.75-1.61,1.32-2.4,1.73l-.3,.14v.04s-.01,.06-.05,.11c-.04,.05-.08,.08-.13,.08-.02,0-.06-.02-.11-.06l-.04-.03c-.65,.27-1.33,.48-2.06,.62-.34,.08-.68,.13-1.03,.17-.6,.06-1.23,.05-1.91,0-1.15,.11-2.27,.08-3.36-.09-1.09-.16-2.1-.51-3.01-1.05-.37-.23-.69-.54-.96-.92-.27-.38-.51-.77-.74-1.15,.02,.48,.05,.97,.09,1.46,.04,.5,.07,.99,.09,1.46,.01,.12-.04,.18-.15,.2-.12,0-.18-.04-.19-.16-.11-.68-.21-1.36-.29-2.04s-.17-1.36-.29-2.04c-.22-.36-.41-.73-.56-1.1,0-.02-.02-.05-.04-.07l-.04-.03c-.23-.41-.37-.86-.45-1.36-.03-.07-.05-.2-.07-.39-.09-.4-.15-.81-.19-1.24-.08-.78-.05-1.58,.08-2.38,.02-.05,.03-.09,.02-.11,0-.02,0-.06,.02-.11,.06-.53,.16-1.02,.28-1.46-.01-.36-.04-.72-.07-1.09-.04-.37-.06-.74-.08-1.12v-.07c.03-.1,.1-.13,.19-.09,.02,0,.04,0,.05,.01s.03,.02,.05,.01c0,.02,.03,.06,.08,.1v.07c.03,.19,.05,.37,.08,.53,.03,.17,.05,.34,.07,.53,.76-1.94,2.04-3.6,3.82-4.99,.69-.54,1.44-1.01,2.24-1.41,.81-.4,1.58-.82,2.33-1.27,.72-.43,1.51-.71,2.37-.87,.85-.15,1.68-.35,2.46-.59,.25-.07,.47-.17,.67-.31,.2-.14,.42-.24,.67-.31,.11-.06,.25-.1,.4-.13,.16-.03,.31-.06,.44-.09,.16-.04,.33-.08,.51-.12,.15-.13,.3-.27,.47-.4,.16-.13,.34-.26,.54-.37-.07-.74-.14-1.48-.2-2.25-.06-.76-.19-1.49-.37-2.18-.18-.69-.46-1.33-.83-1.92-.37-.59-.91-1.08-1.62-1.47-.17-.06-.38-.07-.63-.05-.25,.02-.51,.06-.77,.12-.26,.06-.51,.13-.76,.21-.25,.08-.45,.14-.61,.18-.3,.29-.64,.54-1.02,.76-.38,.22-.78,.4-1.18,.56l.04,.03c.53,.96,.84,1.88,.93,2.75,.03,.31,.02,.61-.02,.9h.03v.03c.01,.07,0,.13-.05,.18-.04,.34-.12,.68-.25,1.03-.18,.5-.42,.94-.71,1.32-.02,.03-.03,.04-.03,.06,0,.01,0,.03-.03,.06l.08,.06s.04,.04,.04,.07c0,.05-.03,.09-.09,.12-.02,.03-.04,.04-.06,.04-.05,0-.08-.02-.11-.06-.49,.69-1.11,1.25-1.85,1.66-.75,.42-1.59,.67-2.53,.75-1.52,.14-2.71-.09-3.58-.7-.87-.6-1.46-1.38-1.76-2.34-.3-.95-.34-2-.12-3.13,.23-1.14,.66-2.18,1.31-3.12-.38,.18-.75,.35-1.12,.52s-.74,.33-1.12,.48Zm2.39,3.41c-.1-.11-.2-.21-.27-.3-.05,.7,.08,1.36,.37,2,.29,.63,.79,1.12,1.5,1.46,.46,.22,1.01,.34,1.63,.35-.47-.53-1.22-1.37-2.26-2.52-.03-.02-.15-.15-.39-.4-.23-.22-.42-.42-.58-.59Zm1.89,1.52c.81,.91,1.39,1.57,1.76,2,.83-.05,1.62-.29,2.36-.72-.25-.19-.63-.52-1.14-.97-.76-.65-1.39-1.23-1.91-1.73-1.33-1.27-2.18-2.24-2.55-2.93-.33,.68-.54,1.38-.63,2.11,.1,.11,.3,.32,.58,.63,.05,.07,.56,.61,1.51,1.62Zm-1.59,14.02c-.04,.12-.06,.31-.08,.55,.05,.31,.1,.61,.14,.92,.04,.31,.08,.62,.11,.93,3.71,3.59,6.13,5.94,7.26,7.06,.6,0,1.17-.04,1.7-.08,.53-.05,1.03-.12,1.51-.21-1.99-1.81-5.53-4.86-10.63-9.16Zm1.33-1.7c-.26-.26-.48-.5-.66-.69-.15,.35-.28,.7-.38,1.06-.1,.36-.2,.73-.27,1.12,4.16,3.14,7.84,6.23,11.06,9.26,.46-.09,.88-.2,1.29-.33-3.67-3.83-6.21-6.32-7.62-7.46-1.63-1.31-2.78-2.3-3.42-2.96Zm.63,8.17c1.25,1.16,2.18,2.08,2.81,2.76,.26,.07,.54,.12,.83,.14,.29,.02,.59,.04,.89,.06,.07,.02,.18,.02,.31,0-1.5-1.32-2.74-2.58-3.74-3.75-.5-.58-1.26-1.36-2.28-2.34l-.57-.49c.02,.17,.04,.33,.07,.5,.03,.17,.05,.33,.07,.5,.2,.65,.47,1.3,.82,1.94l.8,.68Zm2.99-20.3c.48,.44,.82,.74,1.03,.91,.22-.14,.42-.3,.62-.47,.19-.17,.36-.36,.5-.57-.69-.68-1.78-1.69-3.25-3.04-1.07-.96-1.78-1.63-2.15-2.03-.34-.38-.52-.66-.54-.85-.38,.44-.67,.88-.88,1.3,1.16,1.4,2.13,2.48,2.92,3.22,.51,.46,1.09,.97,1.75,1.53Zm3.92,18.37c1.42,1.45,2.71,2.79,3.87,4.03,.56-.22,1.09-.46,1.6-.72-1.91-2.51-4.16-4.71-6.73-6.61-3.02-2.19-5.05-3.96-6.08-5.3-.22,.36-.44,.75-.65,1.17-.02,.05-.04,.09-.06,.11-.02,.03-.04,.06-.06,.11l.15,.13c.36,.4,.85,.86,1.46,1.38,.64,.59,1.71,1.47,3.21,2.65,.8,.65,1.9,1.66,3.29,3.04Zm-6.4-25.25c-.09,.06-.17,.08-.25,.08-.08,0-.16-.02-.23-.03-.28,.22-.51,.44-.7,.68l.04,.03c.01,.14,.38,.56,1.1,1.27,.51,.48,1.27,1.16,2.29,2.05,1.1,1.03,1.95,1.82,2.56,2.39,.3-.48,.44-.97,.43-1.46-.01-.49-.09-.97-.23-1.43-.38-.32-.84-.7-1.4-1.13-1.17-.87-2.26-1.75-3.25-2.61-.11,.08-.23,.14-.36,.18Zm.61,28.63c-.67-.66-1.2-1.16-1.61-1.51,.26,.48,.53,.91,.82,1.29,.29,.38,.57,.67,.85,.86,.28,.21,.58,.38,.92,.49-.55-.64-.88-1.02-.98-1.13Zm5.31-6.53c2.35,1.77,4.46,3.86,6.31,6.25,.24-.14,.49-.29,.74-.45,.25-.16,.5-.33,.73-.52-.11-.13-.22-.28-.36-.43-.42-.49-.69-.79-.82-.9-.15-.13-.5-.47-1.04-1.02-1.46,.04-2.6-.44-3.45-1.44-.55-.64-.87-1.38-.95-2.21l-.04-.39h-.07c-.17-.05-.79-.46-1.86-1.22-1.02-.67-1.8-1.25-2.36-1.72-.88-.69-1.5-1.24-1.87-1.66-.42-.46-.64-.84-.67-1.12v-.04c-.34,.32-.68,.72-1,1.21,.72,.99,2.95,2.88,6.68,5.67Zm-1.66-5.96c-1.14-.95-1.88-1.74-2.21-2.38-.35,.22-.66,.44-.93,.66-.27,.22-.51,.43-.72,.64h.03c.42,.92,1.47,1.99,3.17,3.23,.52,.38,1.25,.89,2.17,1.53,.72,.51,1.16,.84,1.31,.99,.01-.58,.13-1.2,.34-1.86,.02-.05,.03-.11,.05-.18-1.2-.9-2.27-1.77-3.21-2.61Zm-.27-13.81c.3,.24,.59,.44,.86,.6l-.18-.74c-.05-.04-.09-.1-.12-.17-.03-.07-.06-.13-.09-.17-.19-.05-.32-.16-.38-.33-.06-.16-.08-.32-.05-.46-.08-.16-.12-.3-.11-.42-.35-.25-.74-.58-1.17-.97-.35-.28-.62-.5-.8-.68-.22,.14-.43,.26-.64,.37s-.43,.21-.65,.33c.33,.26,.85,.69,1.59,1.29,.71,.61,1.29,1.06,1.73,1.35Zm-2.4,27.43s.02,.04,.04,.03v-.04h-.04Zm2.78-31.38c-.25-.14-.44-.27-.59-.38-.26,.14-.53,.29-.79,.45-.26,.16-.54,.31-.83,.45,.28,.21,.75,.57,1.42,1.05l.34,.29s-.04-.07-.04-.08-.02-.04-.04-.09l-.04-.07v-.07c-.07-.19-.04-.32,.08-.39,.12-.07,.24-.05,.37,.06h.04c.03,.07,.06,.13,.09,.19,.03,.06,.07,.12,.12,.19,.22-.07,.45-.14,.67-.22,.22-.08,.42-.17,.6-.25-.1-.11-.25-.24-.45-.39-.3-.24-.62-.48-.94-.74Zm1.72,16.12c1.1,.86,1.82,1.58,2.16,2.17v.07s0,.09-.05,.11c-.02,.02-.04,.04-.07,.04-.02,0-.06-.02-.11-.06-.83-.95-1.68-1.75-2.53-2.39-.96-.75-1.56-1.26-1.82-1.52h-.04l-.15-.09c-.15,.09-.3,.17-.43,.25-.09,.06-.17,.11-.25,.15-.08,.04-.16,.09-.25,.15-.04,.03-.08,.06-.11,.08-.03,.03-.07,.06-.11,.08,.72,.73,2.48,2.34,5.27,4.83,.41-1,1.01-1.89,1.79-2.68h-.04s-.06-.02-.11-.06l-2.19-2.17c-.54-.53-1-.95-1.38-1.28l-.42-.36c-.2,.12-.4,.22-.61,.33-.21,.1-.43,.21-.65,.33l-.33,.21c.27,.19,.65,.46,1.12,.79,.58,.43,1,.76,1.28,1Zm-.59-15.62c.25,.19,.43,.34,.53,.45l.79-.43c.04-.05,.08-.09,.13-.1,.04-.02,.09-.05,.13-.1,.04-.03,.08-.05,.1-.08,.02-.03,.05-.05,.1-.08-.25-.19-.52-.44-.8-.75-.28-.26-.52-.55-.71-.87l-1.68,.91,.37,.25c.37,.25,.72,.52,1.05,.8Zm-.85,3.03h-.04l.04,.04v-.04Zm3.87,12.55c.56,.55,.88,.89,.93,1.03,.03,.02,.04,.04,.04,.07,0,.02,0,.05-.03,.07,.25-.24,.53-.47,.84-.69,.11-.08,.26-.19,.45-.33,.09-.08,.16-.16,.24-.26,.07-.09,.15-.16,.24-.22-1.04-.65-2.25-1.71-3.65-3.19l-.04-.03c-.13,.06-.25,.1-.34,.1-.22,.07-.47,.16-.72,.26-.26,.11-.54,.24-.85,.38l.3,.26c.15,.15,.35,.34,.58,.56l.35,.36c.59,.55,1.14,1.08,1.65,1.61Zm-.88-18.25s-.04-.08-.04-.1c-.29,.12-.57,.24-.83,.35-.27,.11-.55,.24-.83,.38,.24,.34,.54,.65,.89,.92,.33,.31,.58,.52,.76,.65,.2-.09,.4-.14,.61-.15,.21,0,.44-.05,.68-.12,.16-.01,.35-.06,.58-.13-.22-.15-.5-.42-.84-.82-.1-.11-.43-.44-.97-.99Zm16.92,13.68c.81,.67,1.38,1.28,1.71,1.82-.03-.5-.06-1.01-.1-1.52-.04-.51-.06-1.03-.07-1.56-.33-.33-.72-.67-1.18-1.01-1.1-.81-1.78-1.35-2.04-1.61-2.35-2.42-3.73-3.8-4.16-4.15l-8.47-6.59c-.73,.14-1.48,.35-2.27,.64-.04,.03-.08,.04-.12,.05-.03,0-.07,.02-.12,.05h.04c.17,.12,.51,.43,.99,.91,.1,.11,.27,.26,.5,.46,.2,.2,.36,.35,.46,.46,.02,.02,.04,.04,.04,.07v.04c.23-.04,.43-.08,.6-.11,.17-.03,.35-.03,.54,0s.39,.1,.61,.21,.5,.26,.84,.44c.49,.27,.86,.63,1.12,1.08,.6,.71,1.06,1.6,1.37,2.68,.86,.76,1.9,1.61,3.1,2.55,.3,.21,.89,.68,1.77,1.42,.73,.6,1.32,1.08,1.77,1.42,2.15,1.6,3.16,2.34,3.04,2.24Zm-14.81,2.55c.69,.61,1.27,1.1,1.75,1.49l.29-.24c.06-.05,.22-.13,.46-.24,.24-.11,.46-.2,.63-.29v-.04c-.47-.24-1.1-.71-1.91-1.41-.58-.47-1.02-.91-1.31-1.32-.32,.08-.63,.15-.93,.23-.31,.08-.62,.15-.93,.23,.33,.26,.98,.78,1.96,1.58Zm5.35,2.42c-.02-.21-.05-.43-.08-.66-.03-.22-.06-.46-.08-.69-.4,.23-.81,.46-1.24,.69-.43,.23-.79,.44-1.07,.64-.17,.11-.38,.28-.63,.51-.25,.23-.49,.47-.75,.73s-.5,.52-.76,.77c-.25,.25-.45,.47-.6,.65-.23,.26-.42,.55-.57,.88-.15,.33-.28,.67-.39,1.04-.03,.17-.07,.34-.11,.5-.04,.16-.08,.34-.1,.53,0,.05,0,.13,0,.23,0,.11,0,.2,0,.29,0,.08,0,.15,0,.2,0,.05-.02,.05-.05,0-.12-.28-.18-.4-.19-.38,0,.03,0,.11,.03,.27,.03,.15,.07,.33,.14,.53,.07,.2,.1,.32,.11,.37,.55,.69,1.12,1.1,1.68,1.23,.57,.13,1.14,.11,1.71-.07,.57-.17,1.14-.44,1.71-.8,.57-.36,1.13-.7,1.67-1.02l.03-.04c.01-.34,.02-.71,.03-1.12-.06-.88-.14-1.75-.24-2.62-.1-.87-.19-1.75-.28-2.65Zm.04-4.57s-.04-.04-.04-.07c-.58-.47-1.06-.9-1.45-1.27-.09,.06-.17,.11-.26,.17-.09,.06-.19,.1-.3,.14-.18,.06-.35,.1-.53,.12s-.35,.06-.53,.12h-.14v.05s.08,0,.09,0c.01,.01,0,.02-.05,.02,.15,.13,.27,.21,.37,.25,.02,0,.43,.27,1.23,.82,.62,.42,1.02,.74,1.21,.97v.04s0,.08-.02,.11c-.02,.03-.04,.04-.07,.04-.02,0-.05,0-.07-.03-.27-.14-1.09-.71-2.46-1.71-.2-.1-.37-.24-.53-.42-.2,.07-.39,.16-.57,.27-.17,.11-.36,.2-.57,.27-.11,.03-.21,.06-.29,.08-.08,.02-.18,.05-.29,.08,.37,.42,.84,.85,1.41,1.27,1.13,.88,1.7,1.33,1.7,1.35l.04,.03,.03-.04c.11-.08,.2-.16,.27-.24,.07-.08,.15-.16,.24-.24,.19-.16,.42-.27,.68-.31,.26-.05,.46-.17,.61-.38,.04-.03,.08-.05,.11-.08s.07-.05,.11-.08c0-.05,.01-.11,.05-.19,.02-.05,.05-.09,.09-.12-.01-.62-.05-.97-.1-1.03Zm10.91-2.23c0-.26,0-.51-.02-.75-.01-.24-.03-.49-.06-.75-2.02-2.4-4.36-4.63-7.02-6.69-.4-.32-.98-.74-1.72-1.24-.87-.59-1.45-.99-1.75-1.2-1.09-.76-1.97-1.53-2.63-2.31-.4-.01-.78,0-1.16,.02s-.76,.06-1.15,.12c1.23,1.18,2.55,2.26,3.97,3.23,2.84,1.99,4.46,3.15,4.86,3.47,.58,.47,1.31,1.2,2.2,2.17,.98,1.06,1.7,1.78,2.16,2.17-.02,0,.59,.45,1.83,1.34l.49,.42Zm-11.28,16.96c.1,.09,.25,.23,.46,.42l.46,.39c.19-.16,.39-.32,.58-.48,.19-.16,.38-.33,.58-.52,.04-.1,.11-.18,.22-.24-.12-.08-.26-.19-.41-.32-.04,.05-.1,.08-.17,.07-.07,0-.11-.07-.12-.19l-.03-.29c-.13-.13-.25-.26-.35-.4-.14,.01-.23-.03-.29-.12-1.75,1.02-2.99,1.57-3.7,1.63,.84,.74,1.52,1.47,2.06,2.18,.24-.17,.47-.34,.68-.51,.21-.17,.44-.37,.67-.58-.13-.11-.27-.24-.42-.39-.69-.66-1.04-1.01-1.04-1.05h-.1s-.04-.04-.04-.06v-.04s.05-.08,.09-.08c.14-.01,.43,.17,.89,.56Zm-1.79-11.91c.22-.09,.23-.12,.03-.08v.04l-.03,.04Zm12.97-7.12c0-.07,0-.14,0-.2,0-.06,0-.13,0-.2-.03-.02-.04-.07-.05-.14-.08-.38-.16-.74-.23-1.09-.07-.35-.16-.69-.26-1.02-.53-.48-2.06-1.82-4.57-4.04-.86-.73-2.6-2.07-5.23-4.01-.4-.06-.8-.1-1.21-.12-.41-.02-.81-.04-1.21-.05,.74,.67,1.66,1.41,2.75,2.19,2.04,1.44,3.25,2.33,3.63,2.65,2.93,2.44,5.05,4.45,6.36,6.03Zm-9.96,4.51c.27,.21,.58,.45,.9,.71,.15-.13,.31-.26,.48-.39,.17-.12,.37-.25,.59-.4-1-.75-1.64-1.23-1.92-1.44-.23-.17-.43-.32-.6-.45l.04,.43c-.07,.2-.19,.3-.35,.3-.16,0-.28-.11-.35-.35l-.07-.71c-.18,.09-.33,.19-.46,.29-.13,.11-.27,.22-.42,.33,.43,.34,1.02,.82,1.77,1.42,.06-.08,.13-.1,.2-.05,.02,.02,.04,.03,.05,.03s.03,.01,.06,.03c0,.02,0,.04,.02,.03s.02,.01,.02,.03l.02,.18Zm4.7-.68c1.31,1.1,3.26,2.86,5.84,5.29-.04-.45-.09-.89-.13-1.32-.04-.43-.07-.87-.09-1.32l-.04-.07c-.43-.87-1.23-1.74-2.38-2.62-.27-.19-.76-.54-1.46-1.05-.62-.42-1.1-.76-1.42-1.02-2.8-2.28-4.8-3.96-6.02-5.02,.07,.26,.13,.53,.18,.81,.05,.24,.08,.46,.1,.67,.06,.59,.06,1.12,.02,1.58,.25,.24,.54,.5,.84,.79l.4-.15c.2-.07,.42-.13,.64-.18,.23-.06,.41-.18,.56-.36,.06-.05,.14-.07,.24-.04,.1,.03,.12,.1,.06,.23-.04,.05-.19,.16-.44,.31-.25,.16-.56,.35-.94,.57,.25,.19,.53,.38,.82,.57,1.92,1.36,2.99,2.13,3.22,2.33Zm-5.47-2.98l.81-.29c-.3-.26-.56-.49-.76-.68v.04c-.02,.22-.05,.41-.08,.58l.04,.36Zm7.78,7.41c1.52,1.56,2.82,2.76,3.9,3.59-.02-.24-.05-.46-.08-.66-.03-.2-.05-.38-.07-.55-.04-.17-.07-.32-.08-.48-.01-.15-.03-.31-.05-.48-3.72-3.4-5.83-5.32-6.34-5.78-1.55-1.17-2.8-2.15-3.73-2.93-.17,.14-.36,.26-.57,.36-.21,.1-.43,.21-.65,.33,.03,.12,.06,.29,.09,.53,.35,.28,.81,.62,1.39,1.02,.35,.23,.86,.58,1.53,1.05,.7,.49,1.21,.85,1.53,1.08,.6,.45,1.65,1.42,3.14,2.91Zm-6.89-2.53s0,.04,.02,.05,.02,.03,.02,.05c.09-.06,.17-.12,.24-.2,.07-.08,.15-.15,.24-.2-.2-.17-.4-.33-.6-.48l.08,.78Zm4.95-12.64c2.09,1.89,3.47,3.12,4.15,3.68-.16-.44-.35-.87-.58-1.28-.23-.41-.49-.83-.78-1.26-.16-.2-.33-.42-.52-.67-.19-.25-.4-.5-.63-.77-.53-.43-.94-.75-1.24-.96-1.67-1.19-2.73-1.93-3.17-2.22-.12-.01-.25-.02-.38-.02-.14,0-.27,0-.38-.02-.26-.02-.5-.05-.72-.08-.22-.03-.45-.05-.69-.08,2.49,1.74,4.14,2.96,4.95,3.68Zm-.81,15.24c-.61-.57-1.65-1.42-3.1-2.55-.15,.13-.29,.26-.43,.38s-.3,.24-.47,.35c0,.17,0,.33,.01,.48,.01,.16,.03,.3,.04,.45,1.72,1.47,4.12,3.44,7.19,5.92,4.13,3.36,6.82,5.65,8.08,6.88,.05,.02,.08,.05,.08,.1v.04c.14-.06,.27-.13,.42-.2,.14-.07,.29-.14,.45-.2,.04-.03,.11-.07,.2-.13,.09-.06,.19-.11,.3-.17-.68-.54-1.69-1.49-3.03-2.85-.03-.02-.04-.04-.04-.07l-.07-.03c-.12-.04-.23-.09-.33-.15-.12-.04-.23-.08-.32-.11-.1-.04-.21-.09-.33-.15-.36-.16-.66-.42-.89-.8-.23-.37-.43-.79-.59-1.26-.02,.03-.04,.04-.07,.04-.05,0-.08,0-.11-.03-.78-.84-1.97-1.86-3.57-3.05-.9-.71-2.04-1.67-3.41-2.88Zm5.08,9.6c1.42,1.31,2.61,2.44,3.57,3.41,.02,0,.04,0,.05-.02,.01-.01,.04-.02,.08-.03,.41-.11,.8-.23,1.18-.36,.38-.13,.76-.27,1.14-.43-3.8-3.32-6.48-5.61-8.04-6.88-2.92-2.37-5.24-4.31-6.97-5.83,.01,.14,.03,.28,.06,.43,.03,.14,.05,.31,.07,.5l.2,2.03,.07,.03c.1,.09,.24,.22,.42,.39l.34,.29c.22,.15,.81,.56,1.76,1.24,.72,.51,1.3,.95,1.73,1.31,.08,.07,1.53,1.37,4.35,3.91Zm-8.24-1.43c-.03,.22-.2,.38-.51,.48l.07,.75c.13,.13,.37,.33,.72,.58,.06-.08,.14-.12,.23-.13,.05,.02,.08,.03,.11,.03,.02,0,.06,0,.11,.03,.11-.1,.22-.21,.34-.3,.12-.09,.23-.18,.34-.26-.55-.45-1.02-.84-1.4-1.17Zm4.86,.59c2.31,1.78,4,3.31,5.07,4.6,.46-.04,.95-.12,1.47-.24-1.62-1.62-3.95-3.82-7.01-6.58-.91-.8-2.15-1.75-3.72-2.86-.17-.13-.53-.39-1.05-.8l.2,2.03c.35,.3,.78,.65,1.28,1.03,.11-.06,.22-.13,.33-.21,.11-.08,.22-.15,.33-.21,.11-.08,.19-.07,.25,.03s.03,.19-.08,.28c-.08,.08-.16,.15-.22,.22-.06,.07-.13,.13-.19,.18,.58,.45,1.24,.96,1.99,1.54,.09-.06,.16-.1,.21-.15,.05-.04,.1-.08,.15-.1,.11-.08,.18-.08,.23,.02,.04,.09,.05,.17,0,.25-.06,.05-.14,.13-.22,.24,.3,.24,.63,.48,.98,.74Zm-5-3.46c.03,.26,.04,.52,.06,.79,.01,.26,.03,.52,.06,.79l.87-.73-.99-.84Zm1.8,3.82c.3-.22,.58-.43,.84-.63,.26-.2,.5-.38,.71-.52-.73-.56-1.38-1.06-1.96-1.51-.19,.21-.39,.41-.6,.59-.21,.19-.43,.38-.64,.56v.07l1.64,1.43Zm5.36-6.35c1.4,1.07,2.47,2.01,3.2,2.83-.07-.28-.14-.56-.19-.84-.05-.28-.1-.57-.15-.85-.05,0-.08,0-.11-.03-.92-.66-2.19-1.81-3.81-3.46-1.6-1.63-2.87-2.77-3.81-3.42-.35-.26-.67-.48-.97-.67-.02,0-.03,0-.03,.02s0,.02-.03,.02c-.1,.13-.22,.27-.36,.41-.14,.14-.29,.3-.46,.46,1.4,1.07,2.5,1.97,3.29,2.72,.56,.55,1.71,1.48,3.44,2.81Zm-4.98,7.04s-.1-.05-.15-.09c-.08,.08-.17,.15-.24,.22-.08,.07-.16,.13-.24,.18,.03,.02,.04,.04,.06,.07s.04,.04,.09,.06c.06,.14,.12,.23,.17,.27,.05,.09,.12,.17,.18,.25,.07,.08,.13,.16,.18,.25,.48,.44,.99,.8,1.52,1.1,.53,.3,1.07,.55,1.62,.77-1.95-1.88-3.01-2.91-3.19-3.08Zm-.24-28.44c.82,.55,1.69,1.14,2.61,1.77-.36-.35-.71-.67-1.05-.95-.34-.28-.67-.5-.99-.66-.2-.1-.39-.16-.57-.16Zm.65,28.37c.15,.15,1.28,1.27,3.39,3.35,1.17,.32,2.39,.43,3.68,.31-1.4-1.5-3.09-3.01-5.07-4.53-.3-.21-.57-.42-.82-.61-.45,.4-.94,.82-1.48,1.25,.1,.06,.2,.14,.3,.22Zm13.84,1.39c.18-.09,.33-.17,.44-.26,.12-.08,.2-.11,.25-.09,0-.09,.02-.18,.08-.26-.09-.18-.18-.37-.26-.57-.09-.2-.19-.38-.3-.57-.18-.15-.41-.38-.69-.69-.41,.06-.71,.1-.89,.12h-.1c-.3,.01-.59,0-.87-.02,.02,.02,.04,.06,.04,.1-.02,.03-.05,.04-.1,.04-.03-.02-.06-.03-.11-.03,.12,.08,.57,.49,1.33,1.21,.43,.41,.83,.75,1.18,1.01Z"/><path d="M292.02,348.7c-.05-.11-.01-.18,.1-.21s.19,0,.24,.12c.08,.17,.12,.33,.15,.48,.03,.14,.05,.3,.07,.47,.06,.13,.09,.24,.09,.31l.47,.04c-.03-.07-.01-.12,.05-.18s.13-.05,.2,0l.23,.18h.03v.02l.06,.02c.14,.15,.11,.26-.08,.34-.17,.02-.33,.03-.49,.05-.16,.01-.32,.03-.49,.05-.05,.54-.14,1.07-.29,1.59-.15,.53-.28,1.04-.39,1.55-.23,1.05-.49,2-.78,2.84-.29,.84-.62,1.61-.99,2.29s-.79,1.31-1.25,1.87c-.46,.56-.98,1.09-1.54,1.58-1.1,1.07-2.4,2-3.9,2.77-.74,.38-1.47,.72-2.2,1.02-.38,.16-.76,.3-1.13,.43-.34,.27-.68,.47-1.02,.61-.36,.15-.66,.24-.9,.27-.24,.03-.47,.05-.71,.06-.24,0-.49,.03-.76,.08-.27,.05-.62,.16-1.04,.33-.26,.03-.46,.02-.58-.03l-.13,.05c-.19,.08-.39,.16-.61,.25-.21,.09-.43,.14-.65,.15-.41,.04-.76,.04-1.06,0-.3-.05-.56-.1-.78-.16-.09,.14-.21,.24-.38,.31-.16,.07-.35,.04-.58-.07-.12-.05-.38-.1-.77-.13-.39-.03-.83-.08-1.33-.15-.49-.07-1.02-.17-1.58-.3-.56-.13-1.08-.33-1.57-.59-.62-.34-1.22-.68-1.8-1.04-.58-.35-1.13-.72-1.64-1.1-.22-.17-.46-.34-.71-.52-.36-.26-.71-.54-1.04-.83s-.64-.59-.95-.9c-.02,.06-.07,.1-.12,.11-.06,.01-.11-.04-.16-.15-.03-.07-.06-.14-.09-.21-.03-.08-.06-.16-.07-.26-.74-.83-1.38-1.76-1.92-2.77-.55-1.01-.97-2.17-1.28-3.46-.04-.09-.06-.17-.07-.24-.25-.83-.45-1.63-.59-2.43l-.06-.13c-.06-.03-.11-.08-.15-.17,0-.07-.06-.24-.16-.5-.1-.26-.2-.5-.3-.75,0-.13,.03-.21,.11-.26,.08-.05,.17-.02,.26,.07h.03l.07,.15c-.01-.15-.02-.31-.02-.49-.06-.26-.11-.51-.15-.75-.04-.24-.06-.49-.04-.76,.08-.99,.25-1.97,.52-2.95,.27-.98,.55-1.94,.85-2.89,.13-.34,.26-.75,.4-1.23s.29-.99,.49-1.54l-.03-.07s0-.08,.07-.11c.26-.73,.56-1.44,.88-2.12,.32-.69,.68-1.27,1.08-1.74,.18-.33,.44-.67,.77-1.01,.33-.34,.67-.66,1.02-.96,.35-.3,.68-.58,.98-.83,.3-.25,.54-.47,.72-.65,1.2-1.12,2.35-2.01,3.43-2.67,1.08-.67,2.18-1.16,3.28-1.47,1.11-.31,2.28-.48,3.53-.51,1.25-.02,2.63,.05,4.16,.22,.42,.04,.83,.1,1.25,.2,.42,.1,.81,.25,1.18,.46,.13,.08,.25,.15,.34,.23,.09,.08,.21,.12,.33,.12,.38,0,.65,.14,.83,.43,.17,.11,.34,.21,.51,.31,.17,.1,.33,.22,.49,.36-.08-.25-.17-.48-.26-.71-.09-.22-.17-.45-.22-.68l-.04-.1,.02-.05c.04-.14,.1-.23,.18-.25s.17,.03,.27,.14c.21,.43,.45,.92,.71,1.49s.53,1.14,.78,1.73c.25,.59,.49,1.16,.71,1.7,.22,.54,.4,1.01,.55,1.42-.15-.35-.21-.47-.19-.35,.16,.61,.41,1.24,.74,1.9,.33,.66,.65,1.3,.93,1.9,.05,.11,.02,.19-.09,.23-.11,.04-.18,.01-.23-.1-.21-.38-.43-.76-.64-1.15-.22-.39-.44-.78-.66-1.18-.03,.22-.06,.44-.09,.66,0,.62-.07,1.22-.18,1.78-.11,.56-.31,1.08-.61,1.57,.21-.09,.43-.17,.66-.25,.23-.08,.46-.17,.7-.27,.11-.04,.19-.01,.25,.09s.03,.18-.07,.22c-.47,.25-.93,.49-1.38,.73-.45,.24-.9,.48-1.35,.71-.15,.11-.28,.19-.39,.24-.32,.26-.68,.46-1.1,.61-.42,.15-.84,.26-1.29,.34-.31,.1-.62,.21-.93,.33s-.61,.26-.89,.43c-.13,0-.2-.04-.24-.12-.03-.08-.02-.15,.05-.23,.08-.06,.16-.1,.24-.14,.08-.04,.18-.09,.27-.15-.92-.03-1.63-.19-2.13-.48-.27-.15-.55-.35-.87-.61v-.03c-.6-.43-1.07-.99-1.41-1.67-.12-.23-.24-.47-.34-.71-.35-.81-.59-1.65-.71-2.53,0-.02,0-.04,0-.04,.01,0,.01-.02,0-.04-.06-.31-.1-.62-.13-.92-.03-.3-.04-.59-.04-.88-.29,.02-.6,0-.92-.04-.32-.05-.64-.08-.96-.09-.32,0-.63,0-.94,.06-.3,.05-.6,.16-.88,.32-1.07,.67-1.91,1.57-2.53,2.69-.62,1.12-1.01,2.32-1.17,3.6,.04,1.5,.41,3.32,1.09,5.43l.11,.34c.11,.19,.21,.37,.3,.53,.1,.17,.18,.34,.26,.51,.08,.2,.15,.4,.19,.62,.04,.21,.1,.44,.17,.67l.31,.72c.49,.96,1.05,1.83,1.67,2.62,.63,.79,1.29,1.59,2,2.41,0-.07,.01-.09,.06-.04,.04,.05,.11,.12,.19,.21,.08,.1,.16,.2,.24,.31,.08,.11,.16,.19,.23,.23,.21,.2,.43,.33,.66,.4,.23,.07,.46,.19,.68,.36,.33,.07,.66,.18,.97,.33s.65,.23,1.01,.24c.65,.04,1.33,.07,2.04,.09,.71,.02,1.42,0,2.12-.06,.7-.06,1.39-.16,2.07-.31,.68-.15,1.31-.38,1.9-.71,.28-.17,.53-.36,.76-.59,.23-.22,.47-.45,.72-.69,0,.02,.03,0,.05-.06l.06-.03s0-.04,.05-.06c.01-.03,.03-.05,.05-.06s.04-.03,.05-.06c.02,0,.03-.02,.02-.03,0-.01,0-.02,.03-.03,.47-.53,.91-1.06,1.3-1.58s.71-1.13,.96-1.83c.12-.36,.21-.71,.28-1.06,.06-.35,.12-.71,.15-1.09,0-.02,0-.06,.02-.12l.02-.04s-.01-.04,0-.06c0-.01,0-.04-.02-.09-.22-.04-.43-.09-.64-.16-.21-.07-.42-.12-.63-.16-.07,0-.17-.02-.29-.07-.13-.07-.19-.17-.17-.3,.02-.12,.09-.19,.22-.19,.28,.01,.57,.04,.85,.09,.29,.05,.58,.1,.88,.16,.02-.06,.06-.1,.12-.13,.05-.02,.11-.06,.16-.11h.03c.08-.17,.17-.33,.27-.49s.19-.32,.27-.48c.02-.14,.08-.2,.2-.2,.11,0,.16,.08,.15,.21,0,.23-.02,.53-.07,.88,.23,0,.46,.04,.68,.09,.22,.05,.44,.09,.66,.13h.03c.48,0,.88,.02,1.2,.07,.03,.01,.06,.01,.08,0s.05,0,.08,0c0-.21,.01-.35,0-.43Zm-21.34,9.08c.7,.41,1.34,.78,1.91,1.11-.1-.06-.18-.16-.24-.29-.03-.01-.05-.02-.06-.01-.01,0-.04,0-.08-.05-.71-.3-1.26-.68-1.66-1.15-.4-.47-.86-1.01-1.37-1.62-.22-.27-.44-.51-.66-.71-.23-.2-.44-.44-.63-.73-.83-.48-1.93-.95-3.27-1.4-.33-.12-.95-.36-1.85-.71-.8-.29-1.44-.52-1.91-.68-.24-.08-.8-.25-1.69-.5-.69-.21-1.26-.38-1.7-.54-.5-.18-.9-.34-1.18-.48,0,.29,.04,.57,.14,.85,.1,.28,.17,.57,.22,.86,.35,.24,.58,.38,.67,.42,.2,.12,.52,.28,.95,.46,.43,.24,.75,.41,.98,.52,1.4,.69,2.68,1.24,3.84,1.67,.38,.13,1.08,.33,2.11,.6,.89,.25,1.58,.49,2.07,.7,1.11,.42,2.25,.98,3.43,1.68Zm-5.24-4.92c.75,.28,1.43,.58,2.04,.9-.17-.29-.35-.58-.52-.87-.17-.29-.34-.58-.49-.88-.32-.1-.74-.26-1.26-.49-.24-.08-.73-.29-1.48-.63-.62-.26-1.1-.46-1.46-.6-.4-.17-.96-.35-1.67-.55-.89-.25-1.48-.42-1.76-.51-.96-.3-1.74-.68-2.33-1.13-.07,.26-.11,.52-.14,.77-.03,.26-.05,.51-.07,.75,.6,.35,1.38,.66,2.32,.94,1.57,.44,2.53,.74,2.88,.9,.5,.18,1.15,.4,1.94,.67,1.06,.36,1.73,.6,2,.72Zm.77-1.36c-.07-.15-.13-.3-.19-.44-.06-.14-.11-.29-.16-.46-.05-.24-.1-.46-.13-.66-.04-.2-.11-.41-.23-.62l-.03-.07-.65-.28c-.5-.23-.87-.39-1.11-.47-.65-.22-1.8-.62-3.46-1.21-1.58-.53-2.67-.92-3.25-1.17-.09,.27-.16,.53-.22,.79-.07,.26-.14,.53-.21,.82,.72,.45,1.69,.85,2.89,1.21,1.78,.63,2.79,1,3.04,1.11,.3,.11,.75,.28,1.36,.53,.56,.26,.99,.44,1.29,.55,.13,.08,.46,.19,.97,.33l.09,.04Zm8.75,10.99c2.35,1.09,3.99,1.88,4.92,2.34l.73-.42c.3-.12,.58-.25,.84-.37,.26-.12,.52-.25,.76-.37-.52-.28-1.12-.52-1.79-.74-2.06-.65-3.2-1.03-3.43-1.14,.13,.08-2.1-1.2-6.69-3.82-1.33-.77-2.48-1.31-3.45-1.63-.42-.16-1.08-.37-1.96-.62-.87-.26-1.51-.47-1.93-.64-1.34-.48-2.62-1.04-3.84-1.67-.25-.11-.88-.44-1.9-1-.08-.02-.26-.11-.54-.28,.06,.26,.11,.51,.16,.77,.04,.25,.1,.51,.16,.77,2.82,1.6,4.58,2.51,5.28,2.74,3.31,1.16,5.49,2.02,6.53,2.57,.49,.26,1.5,.85,3.02,1.77,1.27,.79,2.31,1.37,3.12,1.73Zm-7.67-1.91c4.53,2.18,7.82,3.97,9.88,5.37,.19-.03,.38-.06,.58-.1,.19-.04,.38-.09,.56-.14,.25-.05,.48-.14,.67-.28,.19-.13,.4-.27,.62-.41-.59-.32-1.29-.67-2.1-1.03-1.72-.73-2.8-1.22-3.22-1.46-.67-.34-1.69-.93-3.05-1.76-1.32-.8-2.35-1.38-3.09-1.75-.79-.42-1.86-.88-3.23-1.38l-3.32-1.15c-.14-.04-1.65-.86-4.51-2.44,.08,.41,.16,.82,.26,1.23,.1,.41,.19,.83,.28,1.26,1.13,.52,2.57,1.12,4.32,1.82,2.5,.96,4.28,1.69,5.36,2.2Zm-6.1-13.32c1.49,.49,2.57,.86,3.23,1.11l.78,.33c-.15-.22-.29-.44-.42-.66-.13-.22-.23-.46-.29-.71-.05-.11-.08-.29-.08-.55-.82-.44-2.08-.9-3.79-1.38-1.23-.35-2.24-.7-3.02-1.08-.1,.25-.18,.51-.26,.79s-.16,.55-.25,.82c.23,.06,.55,.15,.98,.26,.27,.1,.8,.28,1.59,.54,.67,.21,1.18,.39,1.54,.52Zm-.32-2.23c1.47,.45,2.64,.88,3.5,1.3l-.03-.07c-.06-.31-.14-.62-.25-.92-.11-.3-.19-.62-.26-.96-1.09-.38-2.42-.91-4-1.6-.58-.23-1.06-.45-1.46-.68-.1,.25-.17,.46-.23,.66s-.11,.36-.17,.52c-.05,.12-.09,.24-.13,.36-.04,.12-.08,.24-.13,.36,.79,.32,1.84,.66,3.15,1.02Zm9.25,19.77c1.8,.8,3.14,1.41,4.02,1.82,.24-.07,.48-.17,.7-.29,.23-.12,.47-.17,.73-.14,.06,.03,.1,.03,.12,.03,.16-.04,.31-.08,.45-.11,.14-.03,.29-.06,.46-.07-2.47-1.59-5.79-3.38-9.96-5.38-.72-.32-2.42-1.01-5.11-2.07-1.48-.52-2.72-1.04-3.72-1.56,.15,.35,.3,.7,.45,1.05,.15,.35,.29,.71,.42,1.07h.11c.11,.02,.33,.12,.65,.27,.69,.31,1.43,.7,2.23,1.17,2.24,1.24,3.62,2,4.14,2.28,1,.46,2.44,1.11,4.3,1.94Zm-9.3-21.99c1.45,.56,2.43,.96,2.96,1.18,0-.05,0-.08,0-.1,0-.01,0-.04,0-.1-.01-.43,0-.95,.01-1.55-1.87-1.09-3.44-1.84-4.71-2.28-.25,.65-.46,1.25-.62,1.8,.59,.32,1.38,.67,2.37,1.04Zm4.31,21.96c1.81,.77,3.16,1.39,4.04,1.86,.21,.02,.4,.03,.58,.03s.36,0,.53,.01h.03c.5-.14,1-.18,1.51-.13,.51,.05,1.03,.09,1.55,.14-5.79-2.67-8.91-4.14-9.36-4.42-2.84-1.59-4.5-2.49-4.97-2.71-.03-.01-.12-.04-.26-.09l.03,.07c.15,.22,.28,.43,.4,.63,.12,.19,.26,.39,.42,.58,.25,.29,.54,.53,.87,.75,.33,.21,.63,.46,.9,.73,.24,.21,.46,.44,.65,.68,.19,.24,.42,.45,.67,.63,.22,.11,.45,.24,.67,.38,.22,.14,.45,.28,.69,.41l1.06,.45Zm-3.61-24.18c.93,.47,1.7,.89,2.31,1.25,.07-.65,.21-1.31,.42-2l-.69-.29c-.75-.34-1.18-.53-1.3-.58-.84-.32-1.51-.63-2.01-.91-.1,.3-.27,.47-.53,.53-.1,.17-.19,.35-.28,.54-.08,.19-.17,.38-.26,.57,.63,.18,1.41,.48,2.34,.89Zm1.11-1.81c.74,.32,1.31,.57,1.72,.76,.16-.5,.36-.96,.61-1.38-1.04-.27-2.19-.86-3.44-1.79-.13,.11-.25,.22-.35,.34-.1,.12-.19,.22-.28,.31-.03,.22-.15,.41-.36,.57-.07,.08-.12,.13-.16,.15l-.02,.05c.81,.42,1.56,.75,2.27,1Zm2.17-4.85c-.14-.04-.25-.08-.31-.1-.28,.22-.59,.49-.93,.81-.03,.04-.07,.08-.12,.11s-.11,.09-.17,.17c.26,.07,.59,.2,.99,.37,1.03,.4,1.59,.62,1.68,.66,.03,.07,.05,.14,.05,.21-.01,.03-.04,.05-.08,.07-.02,0-.05,0-.08,0-.16-.01-.72-.22-1.7-.62-.11-.03-.49-.18-1.14-.46-.19,.15-.39,.32-.62,.49-.23,.17-.46,.37-.69,.59,.43,.24,.98,.51,1.67,.82,.81,.36,1.39,.64,1.75,.83,.08-.11,.16-.22,.24-.33,.08-.11,.16-.22,.24-.33,.14-.32,.31-.62,.51-.91,.37-.54,.8-.99,1.3-1.35-.53-.17-1.19-.44-2-.8-.03-.01-.12-.04-.26-.09l-.32-.14Zm8.62-.73c.2-.18,.41-.26,.65-.23v-.03l-.14-.03c-1.02-.51-1.63-.81-1.82-.91-1.04-.5-1.77-.88-2.19-1.15v-.03s-.02-.05-.01-.08l.02-.05s.05,0,.08,0c2.67,1.19,4.23,1.95,4.66,2.26,.57,.21,1.35,.58,2.36,1.12,1.08,.54,1.87,.91,2.36,1.12,1.59,.66,2.76,1.14,3.52,1.45-.17-.93-.45-1.8-.82-2.61-1.27-.61-2.6-1.17-4-1.68-.24-.08-1.24-.38-3.02-.88-1.21-.35-2.19-.71-2.95-1.07l-.04-.1,.02-.05s.05,0,.08,0c.97,.17,2.96,.76,5.97,1.8,1.39,.49,2.62,.97,3.68,1.46-.2-.41-.46-.83-.77-1.27-.13-.18-.31-.32-.54-.42-.23-.1-.43-.2-.61-.31-.03-.01-.05-.03-.05-.04,0-.01-.02-.02-.05-.04-.2-.05-.39-.12-.58-.21s-.37-.19-.54-.3c-.61-.24-1.21-.38-1.82-.43-.61-.04-1.25-.08-1.92-.12-.31-.03-.62-.07-.93-.14-.3-.07-.62-.1-.94-.09-1.19,.03-2.31,.22-3.34,.56-1.03,.35-2.02,.82-2.97,1.42,.3,.06,.74,.17,1.32,.35,2.02,.72,3.13,1.1,3.35,1.13,.07,0,.12,.02,.14,.06,.02,.04,.02,.08,0,.11,0,.08-.01,.12-.05,.14-.02,0-.05,0-.08,0-.36,0-1.46-.36-3.32-1.07-.25-.1-.59-.23-1.03-.39l-.48-.15-.09-.04h-.03c-.58,.41-1.16,.84-1.74,1.31l.17,.05c.32,.1,.54,.19,.68,.26,.3,.18,1.06,.44,2.25,.77,.12-.08,.25-.14,.4-.21,.19-.08,.4-.15,.62-.22,1.36-.35,2.6-.31,3.74,.12,.03,.01,.06,.01,.08,0,.02,0,.05,0,.08,0,.13-.44,.34-.84,.62-1.19Zm-7.76,32.17c.38,.23,.75,.44,1.12,.62,.37,.18,.75,.33,1.16,.45l.14,.06-2.41-1.14Zm7.4-6.35c-.12,.02-.24,0-.36-.05,2.8,1.61,4.44,2.5,4.92,2.69,.4,.17,.92,.36,1.56,.56,.95,.28,1.51,.45,1.69,.5,.65,.22,1.23,.47,1.75,.75,.39-.21,.75-.41,1.1-.59,.35-.18,.69-.38,1.02-.6-.36-.14-.83-.32-1.4-.54-.75-.34-1.35-.59-1.8-.77-1.35-.45-2.27-.87-2.76-1.26h-.53c-.54,0-1.11,.03-1.71,.05-.59,.03-1.14-.03-1.65-.15-.2-.05-.46-.16-.8-.33-.34-.17-.62-.27-.86-.3l-.06,.03s-.05,0-.08,0h-.03Zm8.99-17.99h.03c.4-.67,.66-1.36,.8-2.09-.43-.18-.94-.39-1.54-.6-1.17-.45-1.91-.72-2.2-.83-1.72-.68-3.41-1.47-5.05-2.37-.05,.36-.06,.74-.03,1.16,.03,.42,.07,.79,.11,1.13,.98,.53,2.17,1.04,3.57,1.55,2.38,.93,3.81,1.59,4.28,1.99l.03,.07Zm-1.32-3.33c.59,.2,1.01,.34,1.28,.44,.36,.14,.67,.27,.92,.39,.08-.52,.08-1.05,0-1.59-.47-.22-1.02-.45-1.66-.71-1.22-.45-2.05-.78-2.49-.98-2.75-1.37-4.11-2.03-4.09-1.99h-.08l-.15-.1c.11,.14,.17,.29,.2,.46,.02,.17-.04,.35-.18,.54s-.25,.4-.33,.64c2.68,1.32,4.46,2.15,5.36,2.47,.28,.07,.69,.21,1.23,.42Zm-3.93,2.94c1.58,.59,2.61,1.08,3.08,1.48v.03c.11-.01,.2-.03,.28-.05,.08-.02,.17-.05,.28-.09,.27-.08,.5-.22,.71-.41,.21-.19,.43-.33,.66-.43-.25-.1-.59-.27-1.04-.5-.52-.28-.91-.46-1.18-.56l-2.46-1c-1.14-.43-2.1-.85-2.87-1.25l.03,.07c.1,.71,.32,1.39,.66,2.05,.58,.23,1.2,.45,1.87,.66Zm-.39,.24c-.46-.14-.88-.28-1.23-.42,.42,.68,.94,1.2,1.57,1.56,.25,.11,.52,.15,.83,.14,.31-.01,.57,0,.78,0,.2,0,.37,0,.52,.02,.15,.02,.29,.02,.44,.01-1.31-.65-2.28-1.09-2.9-1.32Zm5.76,19.97c1.47,.5,2.43,.92,2.87,1.25,.55-.36,1.02-.7,1.4-1.04-.48-.19-1.17-.48-2.08-.89-.93-.42-1.58-.74-1.93-.98-.5,.18-1.02,.31-1.57,.38-.54,.09-1.09,.15-1.66,.18,.78,.35,1.76,.72,2.96,1.1Zm.14-29.22l-.13-.3-.1,.04,.22,.26Zm3.63,28.79c.33,.12,.62,.24,.86,.34,.5-.46,.97-1.01,1.41-1.63-.22-.09-.49-.23-.81-.4-.43-.18-.75-.31-.96-.38-.62-.21-1.07-.36-1.36-.45-.34,.27-.67,.48-1,.65-.44,.21-.88,.39-1.31,.54,.44,.26,1.06,.54,1.87,.85,.18,.08,.62,.24,1.29,.47Zm-1.26-24.5c.1,.24,.2,.49,.3,.75,.1,.26,.12,.32,.06,.19-.02-.04-.06-.15-.12-.32s-.14-.37-.25-.62Zm2.06,22.15c.81,.31,1.36,.59,1.64,.83,.16-.22,.31-.46,.45-.71,.14-.25,.28-.52,.41-.81-.54-.14-1.22-.42-2.06-.85-.16-.09-.32-.15-.46-.2-.19,.26-.4,.5-.64,.71s-.47,.42-.71,.62c.4,.12,.86,.25,1.38,.4Zm1.76-1.34c.37,.16,.67,.28,.91,.36,.1-.25,.19-.5,.29-.76,.1-.26,.19-.53,.28-.79l-1.11-.47c-.38-.13-.71-.26-1-.4-.14,.26-.29,.51-.45,.75-.16,.24-.33,.47-.51,.7,.18,.08,.32,.13,.4,.15,.55,.24,.95,.4,1.18,.48Zm.83-1.85c.3,.11,.55,.21,.77,.3,.07-.24,.14-.47,.21-.69,.07-.22,.13-.45,.18-.67-.2-.12-.45-.28-.73-.47-.3-.16-.62-.33-.96-.49-.12,.26-.23,.51-.35,.76-.12,.26-.24,.51-.38,.78,.35,.17,.77,.33,1.26,.49Zm1.26-1.37c.02-.06,.04-.13,.04-.21,0-.08,.02-.15,.04-.21,.05-.23,.11-.47,.18-.73,.06-.26,.13-.52,.19-.78-.2-.05-.53-.19-1.01-.43l-.69-.29c-.05,.28-.12,.56-.18,.85-.07,.29-.15,.57-.26,.84,.27,.1,.58,.25,.95,.46l.75,.51Zm.54-2.24c.05-.23,.09-.42,.12-.59-.31-.08-.62-.16-.94-.25-.32-.09-.63-.15-.94-.17v.27c.19,.08,.44,.18,.77,.3,.31,.13,.53,.22,.68,.26l.3,.18Z"/><path d="M282.65,314.58c-.09,.07-.16,.07-.21-.02-.05-.08-.06-.16-.04-.24,.15-.15,.31-.29,.47-.43,.17-.14,.33-.29,.5-.45l-.05-.23v-.05c0-.05,0-.1,.02-.15,0-.03,.01-.06,.03-.07,0-.03,0-.05,.02-.06,0,0,.01-.03,.02-.06-.09-.14-.06-.27,.09-.39l-.93-1.32c-.08-.09-.06-.17,.04-.23,.1-.06,.19-.04,.26,.05,.21,.23,.41,.45,.59,.68,.18,.22,.36,.45,.54,.67,.58-.45,1.16-.9,1.74-1.34,.58-.45,1.13-.9,1.67-1.38,.35-.33,.73-.68,1.13-1.05,.4-.37,.79-.73,1.18-1.09,.15-.15,.28-.28,.39-.39,.32-.3,.62-.57,.91-.8,.09-.07,.19-.13,.3-.18,.04-.18,.14-.3,.32-.38l-.04-.15-.63-.78c-.07-.09-.06-.17,.04-.23,.1-.06,.19-.04,.26,.05l.49,.61s.05-.03,.1-.04c.12,0,.21,.04,.27,.11,.04,.05,.07,.12,.08,.21v-.05l.09,.11s.07,0,.1-.04c.15-.03,.26,0,.32,.07,.03,.04,.05,.1,.06,.18,.02,.14,0,.24-.06,.32l.38,.47c.2-.19,.42-.39,.65-.6,.23-.21,.46-.4,.68-.57,.22-.17,.42-.3,.61-.4,.19-.1,.32-.13,.4-.11,.09,.08,.13,.15,.1,.21-.02,.06-.08,.1-.16,.1-.31,.27-.62,.57-.93,.88s-.62,.62-.94,.93c.17,.14,.36,.32,.58,.55l.22,.28,.03-.02,.02,.03s.02,.04,.02,.08c.25,.23,.42,.41,.53,.54l.93,1.04c.46,.49,.9,.97,1.35,1.43,.44,.46,.89,.93,1.35,1.43,.74-.54,1.49-1.07,2.24-1.57,.75-.5,1.5-1.02,2.26-1.55,.15-.11,.38-.31,.72-.6,.33-.29,.66-.52,.98-.71-.06-.11-.06-.24-.01-.4l-.93-1.32c-.07-.09-.06-.17,.04-.23,.1-.06,.19-.05,.26,.05,.16,.21,.32,.39,.47,.56,.15,.17,.3,.35,.45,.53,.23-.15,.53-.12,.87,.09l.29,.36c.21-.1,.41-.21,.59-.32,.18-.11,.33-.21,.46-.31,.11-.08,.19-.04,.24,.13,0,.08,0,.14-.04,.17-.24,.25-.55,.49-.93,.72,.33,.41,.66,.81,1,1.19,.34,.39,.69,.77,1.06,1.15,.06-.04,.1-.09,.14-.16l.03-.02c.13-.1,.26-.06,.39,.1,.13,.17,.14,.32,0,.45-.04,.06-.08,.11-.11,.13l.04,.06c.36-.25,.77-.48,1.23-.68,.12-.03,.21-.01,.27,.06,.06,.08,.04,.15-.05,.22-.25,.17-.49,.34-.72,.51-.23,.18-.46,.34-.69,.49-.02,.08-.07,.14-.13,.19-.06,.05-.11,.09-.15,.12l-.07,.14c.12,.18,.23,.35,.35,.52,.12,.17,.24,.32,.36,.47l.13,.17c.11,.03,.17,.1,.16,.2,0,.1-.08,.14-.21,.12-.17-.02-.36-.14-.58-.36-.22-.22-.42-.46-.6-.71-.97,.75-1.93,1.48-2.88,2.18-.96,.71-1.9,1.42-2.83,2.14,.61,.8,1.22,1.59,1.82,2.37,.6,.79,1.25,1.54,1.96,2.27,.25,.23,.51,.44,.78,.62s.53,.39,.76,.64c.71,.78,1.38,1.63,1.99,2.56,.61,.93,1.38,1.97,2.31,3.12,.36,.45,.76,.95,1.21,1.51,.45,.56,.93,1.1,1.45,1.61,.52,.52,1.08,.95,1.67,1.31,.6,.35,1.21,.54,1.85,.56,.22,.01,.53-.06,.95-.23,.41-.17,.84-.37,1.27-.6,.44-.23,.84-.47,1.22-.72,.38-.25,.64-.45,.77-.62,.15-.15,.26-.33,.34-.54s.19-.42,.33-.61c-.04-.27,.05-.49,.27-.66-.22-.31-.42-.61-.59-.9-.12-.15-.24-.3-.37-.46-.13-.16-.23-.32-.32-.5-.07-.16-.06-.28,.04-.37,.09-.09,.21-.08,.35,.02,.29,.29,.56,.58,.82,.88,.26,.3,.5,.62,.74,.95,.04-.09,.08-.19,.11-.28,.03-.1,.05-.2,.08-.31,.04-.12,.11-.18,.19-.17,.08,.01,.13,.08,.15,.22,0,.36-.06,.74-.16,1.12,.03,.07,.08,.16,.17,.27l.06-.04c.16-.06,.27-.05,.35,.05,.03,.04,.05,.08,.06,.13,.08,.18,.08,.3-.01,.37l-.03,.02c.21,.23,.41,.45,.6,.67,.19,.22,.38,.43,.58,.64,.15-.33,.29-.62,.42-.89s.21-.46,.26-.59c-.06-.11-.06-.19,0-.25,.06-.06,.14-.05,.25,0,.17,.14,.19,.42,.07,.83-.13,.41-.32,.87-.57,1.37,.09,.11,.18,.23,.28,.35,.1,.12,.21,.24,.33,.36,.12-.03,.24-.05,.36-.05,.1,.01,.18,.06,.24,.13,.04,.06,.06,.15,.05,.28,0,.1-.05,.18-.12,.23-.04,.03-.08,.05-.13,.06l.2,.25c.15,.19,.14,.34-.02,.47-.13,.1-.23,.13-.31,.11,.07,.13,.15,.24,.24,.33,.09,.09,.19,.21,.29,.34,.03,.04,.07,.08,.11,.14,.04,.06,.04,.1-.02,.15-.05,.13-.11,.18-.19,.15-.08-.03-.13-.08-.13-.17-.13-.17-.28-.34-.43-.51s-.3-.33-.46-.48c-.08,0-.17-.03-.27-.11-.29,.41-.48,.67-.56,.79-.82,1.33-1.33,2.14-1.51,2.43l-.24,.37c-.24,.52-.52,1-.84,1.47-.32,.46-.74,.91-1.26,1.33-.15,.11-.29,.22-.44,.31-.14,.1-.29,.18-.43,.27-.15,.14-.3,.27-.44,.39l-.22,.17c-.67,.49-1.38,.9-2.12,1.23-.08,.09-.15,.15-.22,.19-.07,.04-.16,.09-.27,.14-.39,.15-.79,.27-1.21,.37-.42,.1-.85,.2-1.28,.29-1.42,.26-2.7,.28-3.85,.08-1.14-.2-2.2-.59-3.18-1.16-.98-.57-1.9-1.29-2.76-2.16-.86-.87-1.73-1.83-2.6-2.88-.23-.28-.48-.59-.75-.94-.28-.34-.56-.69-.84-1.05-.28-.35-.55-.7-.8-1.03-.25-.33-.47-.61-.65-.83-.25-.32-.49-.66-.72-1.03-.22-.37-.47-.71-.74-1.01l-.07-.08-.03,.02c-.05,0-.18-.07-.39-.24-.21-.17-.44-.36-.67-.56-.24-.21-.47-.41-.68-.6-.22-.2-.35-.33-.41-.41-.11-.1-.21-.2-.3-.31-.09-.11-.19-.22-.3-.31-.62-.7-1.23-1.46-1.84-2.29-.61-.83-1.25-1.57-1.92-2.22-.55,.49-1.09,.99-1.6,1.51s-1.06,1.01-1.63,1.48l.18,.22s0,.06,.02,.08c.02,.1-.02,.2-.13,.28-.13,.1-.23,.13-.31,.11,.27,.37,.54,.73,.81,1.09,.28,.36,.55,.72,.81,1.09l.05,.06s.01,.04,0,.05c.03,.07,0,.12-.05,.16-.06,.03-.13,.04-.19,.04-.03,0-.06-.03-.09-.06-.41-.47-.81-.95-1.21-1.44-.4-.49-.79-.98-1.18-1.46h-.05c-.19,.08-.37,.07-.53-.05l-.07-.08s-.03-.05-.04-.1l-.9,.7c-.09,.07-.17,.06-.25-.03-.08-.09-.07-.18,.02-.25l1.23-.95-.18-.22c-.32-.32-.62-.67-.89-1.03-.27-.36-.56-.73-.86-1.1-.1-.05-.16-.09-.19-.13-.09,.1-.18,.2-.27,.28-.08,.08-.17,.16-.26,.23-.09,.07-.16,.07-.21-.02-.05-.08-.06-.16-.04-.24,.1-.1,.19-.21,.28-.31,.09-.1,.18-.21,.26-.34-.01-.05-.01-.13,0-.22-.28-.39-.57-.78-.85-1.17-.29-.4-.58-.8-.88-1.2l-.02-.03c0-.23,.07-.32,.23-.27l.03-.07,.27,.34c.06,.07,.12,.14,.18,.2,.06,.06,.12,.12,.18,.2,.03,.04,.04,.07,.04,.11l.96,1.2,.03-.02c.09-.07,.19-.1,.29-.09,.43-.54,1.01-1.07,1.75-1.6,.74-.53,1.44-.98,2.08-1.36-.36-.48-.88-1.19-1.58-2.13-.14-.13-.27-.26-.4-.39-.13-.12-.27-.25-.4-.39-.55-.54-1.06-1.1-1.52-1.7-.46-.59-.92-1.19-1.38-1.8-.1-.01-.16-.03-.17-.05h-.05c-.17,.12-.33,.25-.5,.4-.17,.14-.33,.28-.5,.41Zm10.74,1.43c3.55,.7,6.22,1.12,8.03,1.26l-.13-.17c-.21-.11-.33-.28-.37-.51-.04-.23,.06-.46,.28-.7l.44-.34c-1.01-.15-2.45-.43-4.31-.83-2.15-.42-3.81-.69-5-.8-3.44-.3-5.81-.56-7.12-.79l-.08,.06c.21,.29,.42,.58,.65,.86,.22,.28,.46,.57,.7,.87,1.8,.18,4.1,.54,6.91,1.08Zm6.68-2.95c-.23,.23-.48,.46-.75,.67-.06,.22-.21,.37-.46,.45-.25,.07-.51-.01-.77-.27-.18-.07-.3-.22-.38-.42l-.77-.85c-2.74-.2-5.83-.66-9.28-1.38-.35,.3-.7,.58-1.06,.84-.35,.26-.71,.52-1.05,.79,1.31,.16,3.68,.41,7.09,.76,1.11,.13,2.73,.41,4.84,.83,1.96,.38,3.46,.66,4.49,.83,.31-.24,.63-.48,.97-.73,.34-.24,.66-.49,.97-.73-.18,0-.48-.04-.88-.09-.53-.07-1-.14-1.42-.22-.83-.14-1.34-.3-1.54-.48Zm-12.56,10.16c-.29,.23-.54,.41-.76,.54-.04,.06-.09,.11-.14,.15-.05,.04-.09,.09-.11,.13l.67,.84c.39,.12,1.11,.32,2.16,.59l.36-.28,1.51-1.44-1.49-.2c-.97-.1-1.7-.21-2.19-.34Zm12.42-4.21c1.19,.08,2.18,.17,2.98,.28-.21-.29-.42-.58-.63-.87-.21-.29-.42-.57-.61-.84-2.06-.1-4.86-.51-8.41-1.24-2.23-.42-4.4-.78-6.51-1.08,.34,.43,.71,.83,1.09,1.19,.17,.17,.35,.32,.55,.43,.2,.12,.39,.26,.58,.41l.03-.02c.87,.02,1.56,.08,2.05,.18,.88,.17,2.39,.5,4.54,1.01,1,.22,2.45,.4,4.34,.54Zm-12.45,6.27c.17,.17,.32,.34,.47,.5,.14,.16,.28,.31,.39,.46l.68-.53-1.55-.43Zm17.54-.16c1.68,.24,2.88,.46,3.62,.64-.34-.49-.65-.94-.94-1.33s-.55-.74-.79-1.04c-.83-.56-1.62-1.25-2.34-2.08-.85-.1-1.95-.21-3.3-.35-1.93-.23-3.43-.44-4.5-.63-2.52-.41-4.53-.65-6.04-.72,.01,.05,.04,.11,.08,.16,.01,.05,.02,.1,.03,.15,.01,.05,.02,.1,.04,.15,.08,.18,.12,.34,.13,.49v.05c-.13,.25-.31,.42-.54,.5-.21,.1-.36,.19-.46,.26,1.7-.2,4.4,.04,8.08,.72,1.1,.23,2.64,.56,4.6,.97,2.22,.52,3.77,.86,4.64,1.03,.07,0,.11,.03,.14,.07,.01,.02,.02,.06,.01,.13,0,.07-.02,.11-.04,.12-.04,.03-.08,.03-.13,0-.92-.19-2.47-.53-4.64-1.03-2-.42-3.54-.74-4.65-.98-3.5-.67-6.28-.94-8.33-.8-.05,0-.08,0-.1-.01l-1.75,1.36c.17,.02,.34,.05,.52,.09,.63,.12,1.09,.2,1.39,.24,.25,.02,.72,.05,1.41,.09l.4,.05,.27-.21c.35-.12,.64-.07,.87,.14h.05c.14,0,.23,.02,.29,.1l.04,.06c.06,.08,.14,.14,.23,.18,2-.16,4.5,.08,7.5,.72,1.5,.32,2.89,.56,4.17,.71Zm-15.33-15.48l-.89,.55c-.08,.09-.16,.18-.25,.26-.09,.09-.19,.17-.28,.24-.05,.04-.1,.09-.15,.14-.05,.05-.1,.1-.15,.14,3.54,.61,6.41,1.03,8.61,1.26-.29-.29-.58-.59-.87-.91s-.58-.63-.89-.94l-.2-.03c-.83-.08-1.42-.15-1.77-.21-.43-.06-1.12-.18-2.06-.35l-1.1-.15Zm11.62,10.92c1.15,.14,2.12,.26,2.92,.37l-1.03-1.28c-.77-.07-1.88-.16-3.33-.28-1.79-.13-3.23-.31-4.31-.56-2.4-.59-3.9-.93-4.52-1.03-.36-.05-.95-.1-1.75-.14,.23,.25,.45,.5,.67,.77,.22,.27,.41,.55,.58,.84,1.44,.06,3.52,.31,6.24,.74,.99,.17,2.5,.36,4.54,.56Zm-8.14-10.68c.55,.09,1.02,.18,1.41,.27-.37-.38-.72-.76-1.06-1.13-.34-.37-.69-.74-1.04-1.1l-.2-.03c-.36,.25-.72,.5-1.08,.75-.36,.25-.73,.49-1.11,.72l.85,.11c1.12,.22,1.87,.35,2.23,.4Zm7.64,14.86c-2.54-.51-4.92-.77-7.14-.77,.31,.31,.61,.65,.92,1.03,.31,.38,.6,.77,.88,1.15,1.45,.18,6.37,.76,14.77,1.75-.24-.33-.46-.64-.68-.92-.22-.29-.43-.58-.63-.87h-.05c-.51-.09-1.86-.31-4.03-.65-1.67-.28-3.02-.52-4.04-.72Zm3.73,4.31c4.59,.89,7.18,1.37,7.78,1.45l-.4-.5c-.24-.3-.48-.59-.72-.87-.24-.28-.47-.58-.69-.89-7.9-.8-12.83-1.38-14.8-1.73,.06,.11,.12,.21,.2,.3,.08,.09,.15,.19,.22,.28,.23,.21,.5,.47,.8,.78,.24,.27,.48,.5,.71,.72,1.44-.3,3.74-.15,6.9,.46Zm1.98,2.68c2.24,.5,4.88,.88,7.94,1.15-.39-.33-.77-.72-1.15-1.15l-.7-.87c-.87,.1-2.17-.07-3.91-.5-1.53-.39-2.78-.68-3.77-.88-3.22-.62-5.56-.83-7.03-.63,.43,.46,.82,.88,1.19,1.25,.16,.12,.32,.24,.48,.35,.17,.11,.32,.24,.46,.37l.07,.08c1.33-.12,3.47,.15,6.43,.82Zm-2.34-18.1c.56-.4,1.12-.82,1.67-1.24,.55-.42,1.09-.84,1.62-1.25-.23-.21-.44-.44-.63-.67s-.39-.46-.6-.69c-.03-.04-.06-.06-.09-.06-.43-.09-.78-.18-1.06-.27-.2,.16-.41,.31-.63,.46-.22,.15-.4,.29-.54,.4-.15,.11-.29,.21-.42,.3-.13,.09-.28,.19-.42,.3,.4,.09,.82,.15,1.27,.2,1,.13,1.64,.29,1.92,.46l.02,.03s.05,.08,.06,.13c0,.03-.01,.06-.03,.07-.04,.03-.08,.03-.13,0-.3-.04-.69-.12-1.16-.23-.54-.12-.91-.2-1.11-.22-.47-.06-.86-.13-1.19-.21-.27,.18-.54,.36-.81,.54-.27,.18-.54,.36-.81,.54-.28,.24-.57,.49-.88,.73,.34,.1,.96,.2,1.86,.33,.1,.05,.44,.08,1.02,.11,.44,.02,.78,.08,1.02,.16,.03,0,.06,.02,.07,.03v.05Zm14.35,21.89c2.24,.47,3.91,.79,5,.98,.13-.31,.27-.64,.41-.98,.14-.34,.3-.68,.47-1.02-.92-.04-1.75-.14-2.5-.29-.55-.06-1.02-.13-1.42-.22-.32,.16-.64,.29-.96,.4-.32,.11-.64,.17-.96,.18-.31,.03-.61,0-.9-.07-.3-.07-.6-.18-.93-.33-.33-.08-.63-.2-.92-.37-.35-.18-.71-.41-1.09-.7l-.03,.02s-.08,.05-.13,.06c-2.71-.13-5.41-.51-8.09-1.12-2.75-.62-4.81-.94-6.19-.96,.41,.47,.7,.85,.88,1.13,.18,.28,.4,.6,.65,.95l.05-.04h.05c.71,0,2.33,.27,4.87,.81,1.02,.24,2.98,.45,5.89,.65,1.49,.09,3.44,.39,5.84,.91Zm-.38,1.56c1.95,.36,3.56,.57,4.84,.6,.06-.11,.12-.23,.19-.37,.06-.14,.13-.3,.2-.47-1.07-.19-2.7-.52-4.88-.98-2.39-.5-4.34-.81-5.84-.91-2.86-.17-4.83-.39-5.89-.65-2.08-.45-3.64-.72-4.69-.81l1.53,1.9c.3,0,1.74,.15,4.3,.43,.58,.06,1.46,.14,2.63,.23,1.14,.09,2.01,.16,2.63,.23,.65,.11,2.31,.37,5,.8Zm-.92,1.62c2.07,.21,3.52,.38,4.37,.52,.23-.15,.44-.32,.62-.5,.18-.18,.36-.39,.56-.63l.03-.02c-1.22-.05-2.79-.24-4.69-.58-2.56-.46-4.23-.74-5.02-.83-.48-.05-1.34-.12-2.58-.22-1.1-.08-1.99-.17-2.65-.26l-4.08-.55c.19,.28,.55,.77,1.06,1.49l.05-.04c.51-.18,1.6-.14,3.29,.12,.68,.11,2.06,.37,4.14,.78,1.24,.25,2.87,.5,4.9,.74Zm-2.35,1.77c.34,.1,1.61,.26,3.81,.49,.11-.08,.21-.17,.32-.24,.1-.08,.2-.14,.31-.19,.78-.36,1.38-.69,1.82-1-.83-.11-2.13-.28-3.91-.5-2.05-.23-3.69-.47-4.93-.72-2.06-.43-3.36-.69-3.91-.78l-1.89-.26c-.15,0-.41,0-.79,.02-.29,.01-.52,.01-.71,0,.02,.02,.02,.04,.02,.08,.52,.65,1.08,1.29,1.67,1.92l.03-.07c.31-.24,1.82-.08,4.52,.49,.35,.06,.96,.2,1.83,.4,.77,.15,1.38,.28,1.81,.37Zm-9.01-31.13l-.25-.31-.25,.19h.05l.44,.12Zm.96,30.07c.39,.42,.82,.81,1.27,1.17s.92,.68,1.42,.96c.48,.08,1.07,.19,1.76,.31,1.49,.27,2.64,.49,3.47,.67,.59-.04,1.15-.12,1.67-.25s.94-.29,1.26-.48c.11-.05,.21-.12,.31-.22,.1-.09,.21-.18,.32-.27-1.71-.21-3.83-.6-6.35-1.16-1.14-.24-2.14-.41-3-.53-1.29-.24-1.99-.32-2.1-.23l-.03,.02Zm5.14,2.86c-.46,.02-.89,0-1.31-.08,.24,.12,.48,.19,.71,.22,.23,.03,.47,.05,.7,.05,.36,.08,.79,.11,1.28,.1-.35-.06-.81-.16-1.38-.29Zm9.04-8.53c1.17,.21,2.37,.35,3.59,.44,.17-.31,.34-.59,.51-.85,.18-.26,.37-.46,.57-.62l-.09-.11c-.35-.03-.77-.08-1.27-.15-.43-.03-.81-.05-1.13-.08-.08,.09-.17,.17-.28,.24-.11,.07-.24,.15-.4,.24-.23,.12-.47,.26-.71,.41-.24,.16-.51,.32-.79,.48Zm3.39-1.58c.15,0,.42,0,.81,0l-.96-1.02-.25,.24-.11,.08c-.12,.22-.26,.43-.42,.64,.27,0,.58,.02,.93,.05Z"/></g><ellipse class="b" cx="215" cy="184" rx="99.67" ry="34.66" transform="translate(-54.55 270.16) rotate(-58.28)"/><ellipse class="b" cx="215" cy="184" rx="103.69" ry="33.32"/><ellipse class="b" cx="215" cy="184" rx="34.52" ry="100.07" transform="translate(-67.26 163.75) rotate(-36.45)"/><ellipse class="d" cx="215" cy="184" rx="13.91" ry="13.66"/></svg>